# Static Concept B graybox, metres, identity world transform.
v 10.267708 0.842671 50.267708
v 7.333027 0.892378 45.332108
v 8 0.871316 48
v 10.267708 0.842671 50.267708
v 9.079498 0.884105 44.89549
v 7.333027 0.892378 45.332108
v 10.267708 0.842671 50.267708
v 10.413444 0.841981 50.231274
v 9.079498 0.884105 44.89549
v 8 0.871316 48
v 8.666973 0.850253 50.667892
v 10.267708 0.842671 50.267708
v 12 0.838758 49.154999
v 10.413444 0.841981 50.231274
v 12 0.834465 49.834635
v 12 0.838758 49.154999
v 9.079498 0.884105 44.89549
v 10.413444 0.841981 50.231274
v 12 0.838758 49.154999
v 10.825968 0.875833 44.458873
v 9.079498 0.884105 44.89549
v 12 0.834465 49.834635
v 12.159914 0.832074 49.794657
v 12 0.838758 49.154999
v 12 0.870271 44.165365
v 10.825968 0.875833 44.458873
v 12 0.838758 49.154999
v 12.755834 0.854044 44.755834
v 12.572439 0.860552 44.022255
v 12.132292 0.868293 44.132292
v 12.132292 0.868293 44.132292
v 13.906385 0.805953 49.358039
v 12.755834 0.854044 44.755834
v 12.132292 0.868293 44.132292
v 12.159914 0.832074 49.794657
v 13.906385 0.805953 49.358039
v 12.132292 0.868293 44.132292
v 12 0.838758 49.154999
v 12.159914 0.832074 49.794657
v 12.132292 0.868293 44.132292
v 12 0.870271 44.165365
v 12 0.838758 49.154999
v 14.4225 0.82616 44
v 14.31891 0.830708 43.585637
v 12.66146 0.858986 44
v 12.66146 0.858986 44
v 15.23 0.797507 47.23
v 14.4225 0.82616 44
v 12.66146 0.858986 44
v 12.755834 0.854044 44.755834
v 15.23 0.797507 47.23
v 12.66146 0.858986 44
v 12.572439 0.860552 44.022255
v 12.755834 0.854044 44.755834
v 12.755834 0.854044 44.755834
v 15.652856 0.779833 48.921421
v 15.23 0.797507 47.23
v 12.755834 0.854044 44.755834
v 13.906385 0.805953 49.358039
v 15.652856 0.779833 48.921421
v 16.278125 0.79157 44
v 14.31891 0.830708 43.585637
v 14.4225 0.82616 44
v 16.278125 0.79157 44
v 16.06538 0.80091 43.14902
v 14.31891 0.830708 43.585637
v 14.4225 0.82616 44
v 17.399326 0.751787 48.484804
v 16.278125 0.79157 44
v 14.4225 0.82616 44
v 16.667708 0.764655 48.667708
v 17.399326 0.751787 48.484804
v 14.4225 0.82616 44
v 15.23 0.797507 47.23
v 16.667708 0.764655 48.667708
v 15.23 0.797507 47.23
v 15.652856 0.779833 48.921421
v 16.667708 0.764655 48.667708
v 18.133751 0.756981 44
v 16.06538 0.80091 43.14902
v 16.278125 0.79157 44
v 18.133751 0.756981 44
v 17.811851 0.771113 42.712402
v 16.06538 0.80091 43.14902
v 16.278125 0.79157 44
v 19.145797 0.721071 48.048186
v 18.133751 0.756981 44
v 16.278125 0.79157 44
v 17.399326 0.751787 48.484804
v 19.145797 0.721071 48.048186
v 19.985834 0.722547 43.985834
v 19.558322 0.738616 42.275784
v 18.532292 0.758821 42.532292
v 18.532292 0.758821 42.532292
v 19.989376 0.722391 44
v 19.985834 0.722547 43.985834
v 18.532292 0.758821 42.532292
v 18.133751 0.756981 44
v 19.989376 0.722391 44
v 18.532292 0.758821 42.532292
v 17.811851 0.771113 42.712402
v 18.133751 0.756981 44
v 18.133751 0.756981 44
v 20 0.722014 44.042497
v 19.989376 0.722391 44
v 18.133751 0.756981 44
v 20 0.706047 47.834635
v 20 0.722014 44.042497
v 18.133751 0.756981 44
v 19.145797 0.721071 48.048186
v 20 0.706047 47.834635
v 20 0.706047 47.834635
v 20.892268 0.670513 47.611568
v 20 0.722014 44.042497
v 20 0.729917 42.16555
v 19.985834 0.722547 43.985834
v 20 0.722193 44
v 20 0.729917 42.16555
v 19.558322 0.738616 42.275784
v 19.985834 0.722547 43.985834
v 19.985834 0.722547 43.985834
v 19.989376 0.722391 44
v 20 0.722193 44
v 19.989376 0.722391 44
v 20 0.722014 44.042497
v 20 0.722193 44
v 21.857395 0.630627 44
v 20 0.729917 42.16555
v 20 0.722193 44
v 21.857395 0.630627 44
v 21.366687 0.663978 41.824452
v 20 0.729917 42.16555
v 20 0.722193 44
v 22.39836 0.603958 46.39836
v 21.857395 0.630627 44
v 20 0.722193 44
v 22.576843 0.595159 47.189666
v 22.39836 0.603958 46.39836
v 20 0.722193 44
v 21.70412 0.638183 47.40824
v 22.576843 0.595159 47.189666
v 20 0.722193 44
v 20.892268 0.670513 47.611568
v 21.70412 0.638183 47.40824
v 20 0.722193 44
v 20 0.722014 44.042497
v 20.892268 0.670513 47.611568
v 22.938799 0.577315 44
v 21.366687 0.663978 41.824452
v 21.857395 0.630627 44
v 22.938799 0.577315 44
v 22.655342 0.601429 41.591908
v 21.366687 0.663978 41.824452
v 21.857395 0.630627 44
v 23.298309 0.559592 47.054196
v 22.938799 0.577315 44
v 21.857395 0.630627 44
v 23.092787 0.569724 47.092787
v 23.298309 0.559592 47.054196
v 21.857395 0.630627 44
v 22.39836 0.603958 46.39836
v 23.092787 0.569724 47.092787
v 22.39836 0.603958 46.39836
v 22.576843 0.595159 47.189666
v 23.092787 0.569724 47.092787
v 23.980768 0.52611 43.961535
v 23.850727 0.533616 41.522552
v 22.79199 0.594726 41.58398
v 22.79199 0.594726 41.58398
v 23.982818 0.525847 44
v 23.980768 0.52611 43.961535
v 22.79199 0.594726 41.58398
v 22.938799 0.577315 44
v 23.982818 0.525847 44
v 22.79199 0.594726 41.58398
v 22.655342 0.601429 41.591908
v 22.938799 0.577315 44
v 22.938799 0.577315 44
v 24 0.525 44.322248
v 23.982818 0.525847 44
v 22.938799 0.577315 44
v 24 0.525 47.02145
v 24 0.525 44.322248
v 22.938799 0.577315 44
v 23.298309 0.559592 47.054196
v 24 0.525 47.02145
v 24 0.525 47.02145
v 24.143558 0.525 47.014751
v 24 0.525 44.322248
vn 0.006316 0.99996 0.006316
vn 0.006316 0.99996 0.006316
vn 0.006316 0.99996 0.006316
vn 0.006316 0.99996 0.006316
vn 0.006316 0.99996 0.006316
vn 0.006316 0.99996 0.006316
vn 0.006316 0.99996 0.006316
vn 0.016532 0.999843 0.006315
vn 0.006316 0.99996 0.006316
vn 0.018637 0.999817 0.00421
vn 0.016532 0.999843 0.006315
vn 0.016532 0.999843 0.006315
vn 0.016532 0.999843 0.006315
vn 0.016532 0.999843 0.006315
vn 0.018637 0.999806 0.006315
vn 0.018637 0.999817 0.00421
vn 0.018637 0.999817 0.00421
vn 0.018637 0.999817 0.00421
vn 0.016532 0.999843 0.006315
vn 0.016532 0.999843 0.006315
vn 0.018637 0.999806 0.006315
vn 0.018637 0.999806 0.006315
vn 0.018637 0.999817 0.00421
vn 0.018637 0.999817 0.00421
vn 0.018637 0.999817 0.00421
vn 0.016532 0.999843 0.006315
vn 0.018637 0.999806 0.006315
vn 0.018637 0.999806 0.006315
vn 0.018637 0.999817 0.00421
vn 0.018637 0.999817 0.00421
vn 0.020741 0.999776 0.00421
vn 0.018637 0.999806 0.006315
vn 0.018637 0.999806 0.006315
vn 0.018637 0.999806 0.006315
vn 0.018637 0.999817 0.00421
vn 0.018637 0.999817 0.00421
vn 0.018637 0.999817 0.00421
vn 0.040843 0.999157 0.004207
vn 0.020741 0.999776 0.00421
vn 0.020741 0.999776 0.00421
vn 0.018637 0.999806 0.006315
vn 0.018637 0.999817 0.00421
vn 0.049238 0.998778 0.004205
vn 0.049238 0.998778 0.004205
vn 0.049238 0.998787 0
vn 0.049238 0.998787 0
vn 0.049238 0.998787 0
vn 0.040843 0.999157 0.004207
vn 0.040843 0.999157 0.004207
vn 0.049238 0.998778 0.004205
vn 0.049238 0.998778 0.004205
vn 0.049238 0.998787 0
vn 0.049238 0.998787 0
vn 0.049238 0.998787 0
vn 0.049238 0.998787 0
vn 0.057623 0.998338 0
vn 0.049238 0.998778 0.004205
vn 0.049238 0.998778 0.004205
vn 0.049238 0.998778 0.004205
vn 0.049238 0.998787 0
vn 0.049238 0.998787 0
vn 0.049238 0.998787 0
vn 0 1 0
f 1//1 2//1 3//1
f 4//2 5//2 6//2
f 7//3 8//3 9//3
f 10//4 11//4 12//4
f 13//5 14//5 15//5
f 16//6 17//6 18//6
f 19//7 20//7 21//7
f 22//8 23//8 24//8
f 25//9 26//9 27//9
f 28//10 29//10 30//10
f 31//11 32//11 33//11
f 34//12 35//12 36//12
f 37//13 38//13 39//13
f 40//14 41//14 42//14
f 43//15 44//15 45//15
f 46//16 47//16 48//16
f 49//17 50//17 51//17
f 52//18 53//18 54//18
f 55//19 56//19 57//19
f 58//20 59//20 60//20
f 61//21 62//21 63//21
f 64//22 65//22 66//22
f 67//23 68//23 69//23
f 70//24 71//24 72//24
f 73//25 74//25 75//25
f 76//26 77//26 78//26
f 79//27 80//27 81//27
f 82//28 83//28 84//28
f 85//29 86//29 87//29
f 88//30 89//30 90//30
f 91//31 92//31 93//31
f 94//32 95//32 96//32
f 97//33 98//33 99//33
f 100//34 101//34 102//34
f 103//35 104//35 105//35
f 106//36 107//36 108//36
f 109//37 110//37 111//37
f 112//38 113//38 114//38
f 115//39 116//39 117//39
f 118//40 119//40 120//40
f 121//41 122//41 123//41
f 124//42 125//42 126//42
f 127//43 128//43 129//43
f 130//44 131//44 132//44
f 133//45 134//45 135//45
f 136//46 137//46 138//46
f 139//47 140//47 141//47
f 142//48 143//48 144//48
f 145//49 146//49 147//49
f 148//50 149//50 150//50
f 151//51 152//51 153//51
f 154//52 155//52 156//52
f 157//53 158//53 159//53
f 160//54 161//54 162//54
f 163//55 164//55 165//55
f 166//56 167//56 168//56
f 169//57 170//57 171//57
f 172//58 173//58 174//58
f 175//59 176//59 177//59
f 178//60 179//60 180//60
f 181//61 182//61 183//61
f 184//62 185//62 186//62
f 187//63 188//63 189//63
