# Static Concept B graybox, metres, identity world transform.
v 24 0.525 44.230385
v 23.792346 0.535237 47.011015
v 24 0.525 47.025138
v 25.064106 0.525 44
v 24.201939 0.525 41.526288
v 24.017205 0.525 44
v 25.064106 0.525 44
v 25.395578 0.525 41.621056
v 24.201939 0.525 41.526288
v 24.017205 0.525 44
v 24.832196 0.525 45.664393
v 25.064106 0.525 44
v 24.017205 0.525 44
v 24.014969 0.525 44.029938
v 24.832196 0.525 45.664393
v 24.014969 0.525 44.029938
v 24.636564 0.525 47.068431
v 24.832196 0.525 45.664393
v 24.014969 0.525 44.029938
v 24 0.525 47.025138
v 24.636564 0.525 47.068431
v 24.014969 0.525 44.029938
v 24 0.525 44.230385
v 24 0.525 47.025138
v 26.521537 0.525 42.521537
v 26.680755 0.525 41.881396
v 25.678334 0.525 41.678334
v 25.678334 0.525 41.678334
v 26.153809 0.525 44
v 26.521537 0.525 42.521537
v 25.678334 0.525 41.678334
v 25.064106 0.525 44
v 26.153809 0.525 44
v 25.678334 0.525 41.678334
v 25.395578 0.525 41.621056
v 25.064106 0.525 44
v 25.064106 0.525 44
v 25.438322 0.525 46.876644
v 26.153809 0.525 44
v 25.064106 0.525 44
v 24.832196 0.525 45.664393
v 25.438322 0.525 46.876644
v 24.832196 0.525 45.664393
v 25.353225 0.525 47.21878
v 25.438322 0.525 46.876644
v 24.832196 0.525 45.664393
v 24.636564 0.525 47.068431
v 25.353225 0.525 47.21878
v 28 0.525 42.240684
v 26.981675 0.525 41.96335
v 28 0.525 44
v 26.981675 0.525 41.96335
v 26.521537 0.525 42.521537
v 28 0.525 44
v 26.981675 0.525 41.96335
v 26.680755 0.525 41.881396
v 26.521537 0.525 42.521537
v 26.521537 0.525 42.521537
v 26.153809 0.525 44
v 28 0.525 44
v 26.153809 0.525 44
v 28 0.525 44.4355
v 28 0.525 44
v 26.153809 0.525 44
v 27.110054 0.525 47.698635
v 28 0.525 44.4355
v 26.153809 0.525 44
v 25.649907 0.525 47.299815
v 27.110054 0.525 47.698635
v 26.153809 0.525 44
v 25.438322 0.525 46.876644
v 25.649907 0.525 47.299815
v 25.438322 0.525 46.876644
v 25.353225 0.525 47.21878
v 25.649907 0.525 47.299815
v 28.118773 0.525 44
v 28 0.525 42.240684
v 28 0.525 44
v 28.118773 0.525 44
v 28.5572 0.525 42.392434
v 28 0.525 42.240684
v 28 0.525 44
v 28.093321 0.525 44.093321
v 28.118773 0.525 44
v 28 0.525 44
v 28 0.525 44.4355
v 28.093321 0.525 44.093321
v 28 0.525 44.4355
v 27.110054 0.525 47.698635
v 28 0.525 47.941348
v 30.070532 0.525 44
v 28.5572 0.525 42.392434
v 28.118773 0.525 44
v 30.070532 0.525 44
v 30.373837 0.525 42.887881
v 28.5572 0.525 42.392434
v 28.118773 0.525 44
v 29.626846 0.525 45.626846
v 30.070532 0.525 44
v 28.118773 0.525 44
v 28.093321 0.525 44.093321
v 29.626846 0.525 45.626846
v 28.093321 0.525 44.093321
v 28.926691 0.525 48.194082
v 29.626846 0.525 45.626846
v 28.093321 0.525 44.093321
v 28 0.525 47.941348
v 28.926691 0.525 48.194082
v 28.093321 0.525 44.093321
v 28 0.525 44.4355
v 28 0.525 47.941348
v 32.022291 0.525 44
v 30.373837 0.525 42.887881
v 30.070532 0.525 44
v 32.022291 0.525 44
v 32.190474 0.525 43.383327
v 30.373837 0.525 42.887881
v 30.070532 0.525 44
v 31.160371 0.525 47.160371
v 32.022291 0.525 44
v 30.070532 0.525 44
v 29.626846 0.525 45.626846
v 31.160371 0.525 47.160371
v 29.626846 0.525 45.626846
v 30.743329 0.525 48.689528
v 31.160371 0.525 47.160371
v 29.626846 0.525 45.626846
v 28.926691 0.525 48.194082
v 30.743329 0.525 48.689528
v 33.97405 0.525 44
v 32.190474 0.525 43.383327
v 32.022291 0.525 44
v 33.97405 0.525 44
v 34.007112 0.525 43.878774
v 32.190474 0.525 43.383327
v 32.022291 0.525 44
v 32.693896 0.525 48.693896
v 33.97405 0.525 44
v 32.022291 0.525 44
v 31.160371 0.525 47.160371
v 32.693896 0.525 48.693896
v 31.160371 0.525 47.160371
v 32.559966 0.525 49.184975
v 32.693896 0.525 48.693896
v 31.160371 0.525 47.160371
v 30.743329 0.525 48.689528
v 32.559966 0.525 49.184975
v 34.451608 0.525 44
v 34.007112 0.525 43.878774
v 33.97405 0.525 44
v 33.97405 0.525 44
v 35.823749 0.525 44.37422
v 34.451608 0.525 44
v 33.97405 0.525 44
v 34.376603 0.525 49.680421
v 35.823749 0.525 44.37422
v 33.97405 0.525 44
v 33.419353 0.525 49.419353
v 34.376603 0.525 49.680421
v 33.97405 0.525 44
v 32.693896 0.525 48.693896
v 33.419353 0.525 49.419353
v 32.693896 0.525 48.693896
v 32.559966 0.525 49.184975
v 33.419353 0.525 49.419353
v 35.823749 0.525 44.37422
v 36 0.525 50.123166
v 36 0.525 44.422289
v 35.823749 0.525 44.37422
v 34.376603 0.525 49.680421
v 36 0.525 50.123166
v 37.475232 0.525 45.475232
v 37.640386 0.525 44.869667
v 36.580647 0.525 44.580647
v 36.580647 0.525 44.580647
v 36.193241 0.525 50.175868
v 37.475232 0.525 45.475232
v 36.580647 0.525 44.580647
v 36 0.525 50.123166
v 36.193241 0.525 50.175868
v 36.580647 0.525 44.580647
v 36 0.525 44.422289
v 36 0.525 50.123166
v 39.008757 0.525 47.008757
v 37.640386 0.525 44.869667
v 37.475232 0.525 45.475232
v 39.008757 0.525 47.008757
v 39.457024 0.525 45.365113
v 37.640386 0.525 44.869667
v 37.475232 0.525 45.475232
v 38.009878 0.525 50.671314
v 39.008757 0.525 47.008757
v 37.475232 0.525 45.475232
v 36.193241 0.525 50.175868
v 38.009878 0.525 50.671314
v 40.542282 0.525 48.542282
v 39.457024 0.525 45.365113
v 39.008757 0.525 47.008757
v 40.542282 0.525 48.542282
v 41.273661 0.525 45.86056
v 39.457024 0.525 45.365113
v 39.008757 0.525 47.008757
v 39.826515 0.525 51.166761
v 40.542282 0.525 48.542282
v 39.008757 0.525 47.008757
v 38.009878 0.525 50.671314
v 39.826515 0.525 51.166761
v 42.075807 0.525 50.075807
v 41.273661 0.525 45.86056
v 40.542282 0.525 48.542282
v 42.075807 0.525 50.075807
v 43.090298 0.525 46.356006
v 41.273661 0.525 45.86056
v 40.542282 0.525 48.542282
v 41.643153 0.525 51.662207
v 42.075807 0.525 50.075807
v 40.542282 0.525 48.542282
v 39.826515 0.525 51.166761
v 41.643153 0.525 51.662207
v 44 0.525 46.604107
v 43.609332 0.525 51.609332
v 44 0.525 50.176883
v 44 0.525 46.604107
v 42.075807 0.525 50.075807
v 43.609332 0.525 51.609332
v 44 0.525 46.604107
v 43.090298 0.525 46.356006
v 42.075807 0.525 50.075807
v 42.075807 0.525 50.075807
v 43.502786 0.525 52
v 43.609332 0.525 51.609332
v 42.075807 0.525 50.075807
v 42.881725 0.525 52
v 43.502786 0.525 52
v 42.075807 0.525 50.075807
v 41.643153 0.525 51.662207
v 42.881725 0.525 52
v 42.881725 0.525 52
v 43.45979 0.525 52.157654
v 43.502786 0.525 52
v 44 0.525 50.176883
v 44.906936 0.525 46.851453
v 44 0.525 46.604107
v 44 0.525 50.176883
v 43.609332 0.525 51.609332
v 44 0.525 52
v 43.609332 0.525 51.609332
v 43.502786 0.525 52
v 44 0.525 52
v 43.502786 0.525 52
v 44 0.525 52.304984
v 44 0.525 52
v 43.502786 0.525 52
v 43.45979 0.525 52.157654
v 44 0.525 52.304984
v 45.454545 0.525 52
v 44 0.525 50.176883
v 44 0.525 52
v 45.454545 0.525 52
v 44.906936 0.525 46.851453
v 44 0.525 50.176883
v 45.454545 0.525 52
v 46.723573 0.525 47.346899
v 44.906936 0.525 46.851453
v 44 0.525 52
v 45.276427 0.525 52.653101
v 45.454545 0.525 52
v 44 0.525 52
v 44.419353 0.525 52.419353
v 45.276427 0.525 52.653101
v 44 0.525 52
v 44 0.525 52.304984
v 44.419353 0.525 52.419353
vn 0.049238 0.998787 0
vn 0 1 0
vn 0 1 0
vn 0 1 0
vn 0 1 0
vn 0 1 0
vn 0 1 0
vn 0 1 0
vn 0 1 0
vn 0 1 0
vn 0 1 0
vn 0 1 0
vn 0 1 0
vn 0 1 0
vn 0 1 0
vn 0 1 0
vn 0 1 0
vn 0 1 0
vn 0 1 0
vn 0 1 0
vn 0 1 0
vn 0 1 0
vn 0 1 0
vn 0 1 0
vn 0 1 0
vn 0 1 0
vn 0 1 0
vn 0 1 0
vn 0 1 0
vn 0 1 0
vn 0 1 0
vn 0 1 0
vn 0 1 0
vn 0 1 0
vn 0 1 0
vn 0 1 0
vn 0 1 0
vn 0 1 0
vn 0 1 0
vn 0 1 0
vn 0 1 0
vn 0 1 0
vn 0 1 0
vn 0 1 0
vn 0 1 0
vn 0 1 0
vn 0 1 0
vn 0 1 0
vn 0 1 0
vn 0 1 0
vn 0 1 0
vn 0 1 0
vn 0 1 0
vn 0 1 0
vn 0 1 0
vn 0 1 0
vn 0 1 0
vn 0 1 0
vn 0 1 0
vn 0 1 0
vn 0 1 0
vn 0 1 0
vn 0 1 0
vn 0 1 0
vn 0 1 0
vn 0 1 0
vn 0 1 0
vn 0 1 0
vn 0 1 0
vn 0 1 0
vn 0 1 0
vn 0 1 0
vn 0 1 0
vn 0 1 0
vn 0 1 0
vn 0 1 0
vn 0 1 0
vn 0 1 0
vn 0 1 0
vn 0 1 0
vn 0 1 0
vn 0 1 0
vn 0 1 0
vn 0 1 0
vn 0 1 0
vn 0 1 0
vn 0 1 0
vn 0 1 0
vn 0 1 0
vn 0 1 0
vn 0 1 0
f 1//1 2//1 3//1
f 4//2 5//2 6//2
f 7//3 8//3 9//3
f 10//4 11//4 12//4
f 13//5 14//5 15//5
f 16//6 17//6 18//6
f 19//7 20//7 21//7
f 22//8 23//8 24//8
f 25//9 26//9 27//9
f 28//10 29//10 30//10
f 31//11 32//11 33//11
f 34//12 35//12 36//12
f 37//13 38//13 39//13
f 40//14 41//14 42//14
f 43//15 44//15 45//15
f 46//16 47//16 48//16
f 49//17 50//17 51//17
f 52//18 53//18 54//18
f 55//19 56//19 57//19
f 58//20 59//20 60//20
f 61//21 62//21 63//21
f 64//22 65//22 66//22
f 67//23 68//23 69//23
f 70//24 71//24 72//24
f 73//25 74//25 75//25
f 76//26 77//26 78//26
f 79//27 80//27 81//27
f 82//28 83//28 84//28
f 85//29 86//29 87//29
f 88//30 89//30 90//30
f 91//31 92//31 93//31
f 94//32 95//32 96//32
f 97//33 98//33 99//33
f 100//34 101//34 102//34
f 103//35 104//35 105//35
f 106//36 107//36 108//36
f 109//37 110//37 111//37
f 112//38 113//38 114//38
f 115//39 116//39 117//39
f 118//40 119//40 120//40
f 121//41 122//41 123//41
f 124//42 125//42 126//42
f 127//43 128//43 129//43
f 130//44 131//44 132//44
f 133//45 134//45 135//45
f 136//46 137//46 138//46
f 139//47 140//47 141//47
f 142//48 143//48 144//48
f 145//49 146//49 147//49
f 148//50 149//50 150//50
f 151//51 152//51 153//51
f 154//52 155//52 156//52
f 157//53 158//53 159//53
f 160//54 161//54 162//54
f 163//55 164//55 165//55
f 166//56 167//56 168//56
f 169//57 170//57 171//57
f 172//58 173//58 174//58
f 175//59 176//59 177//59
f 178//60 179//60 180//60
f 181//61 182//61 183//61
f 184//62 185//62 186//62
f 187//63 188//63 189//63
f 190//64 191//64 192//64
f 193//65 194//65 195//65
f 196//66 197//66 198//66
f 199//67 200//67 201//67
f 202//68 203//68 204//68
f 205//69 206//69 207//69
f 208//70 209//70 210//70
f 211//71 212//71 213//71
f 214//72 215//72 216//72
f 217//73 218//73 219//73
f 220//74 221//74 222//74
f 223//75 224//75 225//75
f 226//76 227//76 228//76
f 229//77 230//77 231//77
f 232//78 233//78 234//78
f 235//79 236//79 237//79
f 238//80 239//80 240//80
f 241//81 242//81 243//81
f 244//82 245//82 246//82
f 247//83 248//83 249//83
f 250//84 251//84 252//84
f 253//85 254//85 255//85
f 256//86 257//86 258//86
f 259//87 260//87 261//87
f 262//88 263//88 264//88
f 265//89 266//89 267//89
f 268//90 269//90 270//90
f 271//91 272//91 273//91
