# Static Concept B graybox, metres, identity world transform.
v 71.054093 1.104658 -52
v 69.051317 1.119305 -52.316228
v 70 1.111316 -52
v 71.054093 1.104658 -52
v 69.641807 1.126764 -54.087698
v 69.051317 1.119305 -52.316228
v 71.054093 1.104658 -52
v 71.539173 1.110786 -53.455242
v 69.641807 1.126764 -54.087698
v 70 1.111316 -52
v 70.948683 1.103327 -51.683772
v 71.054093 1.104658 -52
v 69.641807 1.126764 -54.087698
v 72.129663 1.118245 -55.226712
v 70.232297 1.134222 -55.859167
v 69.641807 1.126764 -54.087698
v 71.539173 1.110786 -53.455242
v 72.129663 1.118245 -55.226712
v 72.290569 1.120277 -55.709431
v 70.822786 1.141681 -57.630637
v 70.709431 1.140249 -57.290569
v 72.290569 1.120277 -55.709431
v 72.720153 1.125703 -56.998181
v 70.822786 1.141681 -57.630637
v 70.709431 1.140249 -57.290569
v 72.129663 1.118245 -55.226712
v 72.290569 1.120277 -55.709431
v 70.709431 1.140249 -57.290569
v 70.232297 1.134222 -55.859167
v 72.129663 1.118245 -55.226712
v 70.822786 1.141681 -57.630637
v 73.310643 1.133162 -58.769651
v 71.413276 1.14914 -59.402107
v 70.822786 1.141681 -57.630637
v 72.720153 1.125703 -56.998181
v 73.310643 1.133162 -58.769651
v 73.720759 1.138343 -60
v 72.003766 1.156599 -61.173577
v 71.612574 1.151657 -60
v 73.720759 1.138343 -60
v 73.901133 1.140621 -60.541121
v 72.003766 1.156599 -61.173577
v 71.612574 1.151657 -60
v 73.310643 1.133162 -58.769651
v 73.720759 1.138343 -60
v 71.612574 1.151657 -60
v 71.413276 1.14914 -59.402107
v 73.310643 1.133162 -58.769651
v 74.290569 1.14554 -61.709431
v 74.491623 1.146893 -62.312591
v 73.285303 1.158238 -62.714697
v 73.285303 1.158238 -62.714697
v 73.901133 1.140621 -60.541121
v 74.290569 1.14554 -61.709431
v 73.285303 1.158238 -62.714697
v 72.003766 1.156599 -61.173577
v 73.901133 1.140621 -60.541121
v 73.285303 1.158238 -62.714697
v 72.594256 1.164058 -62.945046
v 72.003766 1.156599 -61.173577
v 73.285303 1.158238 -62.714697
v 73.184746 1.168711 -64.716516
v 72.709431 1.165512 -63.290569
v 73.285303 1.158238 -62.714697
v 75.082113 1.150867 -64.08406
v 73.184746 1.168711 -64.716516
v 73.285303 1.158238 -62.714697
v 74.491623 1.146893 -62.312591
v 75.082113 1.150867 -64.08406
v 72.709431 1.165512 -63.290569
v 72.594256 1.164058 -62.945046
v 73.285303 1.158238 -62.714697
v 73.184746 1.168711 -64.716516
v 75.672603 1.154841 -65.85553
v 73.775236 1.172685 -66.487986
v 73.184746 1.168711 -64.716516
v 75.082113 1.150867 -64.08406
v 75.672603 1.154841 -65.85553
v 75.144092 1.169339 -68
v 74.365726 1.177042 -68.259456
v 74.279241 1.176077 -68
v 74.279241 1.176077 -68
v 76 1.16129 -67.714697
v 75.144092 1.169339 -68
v 74.279241 1.176077 -68
v 76 1.157045 -66.837722
v 76 1.16129 -67.714697
v 74.279241 1.176077 -68
v 75.672603 1.154841 -65.85553
v 76 1.157045 -66.837722
v 74.279241 1.176077 -68
v 73.775236 1.172685 -66.487986
v 75.672603 1.154841 -65.85553
v 76 1.158393 -66.837722
v 76.263093 1.160187 -67.627
v 76 1.16162 -67.714697
v 76 1.175753 -69.679145
v 74.709723 1.180872 -69.290277
v 76 1.16267 -68
v 76 1.175753 -69.679145
v 74.968213 1.185275 -70.064868
v 74.709723 1.180872 -69.290277
v 74.709723 1.180872 -69.290277
v 75.144092 1.169339 -68
v 76 1.16267 -68
v 74.709723 1.180872 -69.290277
v 74.365726 1.177042 -68.259456
v 75.144092 1.169339 -68
v 75.144092 1.169339 -68
v 76 1.16129 -67.714697
v 76 1.16267 -68
v 76.387279 1.159086 -68
v 76 1.175753 -69.679145
v 76 1.16267 -68
v 76.387279 1.159086 -68
v 76.841585 1.165513 -69.364527
v 76 1.175753 -69.679145
v 76 1.16267 -68
v 76.296708 1.160506 -67.727966
v 76.387279 1.159086 -68
v 76 1.16267 -68
v 76.290545 1.160374 -67.709455
v 76.296708 1.160506 -67.727966
v 76 1.16267 -68
v 76.263093 1.160187 -67.627
v 76.290545 1.160374 -67.709455
v 76 1.16267 -68
v 76 1.16162 -67.714697
v 76.263093 1.160187 -67.627
v 76 1.180853 -70.33373
v 74.968213 1.185275 -70.064868
v 76 1.175753 -69.679145
v 76 1.180853 -70.33373
v 75.283684 1.188219 -70.698496
v 74.968213 1.185275 -70.064868
v 76 1.175753 -69.679145
v 77.065914 1.166759 -69.790941
v 76 1.180853 -70.33373
v 76 1.175753 -69.679145
v 76.841585 1.165513 -69.364527
v 77.065914 1.166759 -69.790941
vn 0.006316 0.99996 0.006316
vn 0.006316 0.99996 0.006316
vn 0.006316 0.99996 0.006316
vn 0.006316 0.99996 0.006316
vn 0.006316 0.99996 0.006316
vn 0.006316 0.99996 0.006316
vn 0.006316 0.99996 0.006316
vn 0.006316 0.99996 0.006316
vn 0.006316 0.99996 0.006316
vn 0.006316 0.99996 0.006316
vn 0.006316 0.99996 0.006316
vn 0.006316 0.99996 0.006316
vn 0.006316 0.99996 0.006316
vn 0.006316 0.99996 0.006316
vn 0.006316 0.99996 0.006316
vn 0.006316 0.99996 0.006316
vn 0.007791 0.999958 0.00484
vn 0.006316 0.99996 0.006316
vn 0.006316 0.99996 0.006316
vn 0.006316 0.99996 0.006316
vn 0.007791 0.999958 0.00484
vn 0.007791 0.999958 0.00484
vn 0.007791 0.999958 0.00484
vn 0.006316 0.99996 0.006316
vn 0.007791 0.999958 0.00484
vn 0.007791 0.999958 0.00484
vn 0.007791 0.99995 0.006315
vn 0.007791 0.999958 0.00484
vn 0.007791 0.999958 0.00484
vn 0.007791 0.999958 0.00484
vn 0.007791 0.999958 0.00484
vn 0.004223 0.999984 0.00368
vn 0.006315 0.99995 0.007791
vn 0.006315 0.99995 0.007791
vn 0.007791 0.99995 0.006315
vn 0.007791 0.99995 0.006315
vn 0.007791 0.999958 0.00484
vn 0.009254 0.999927 0.007791
vn 0.009254 0.999927 0.007791
vn 0.009255 0.999955 -0.002137
vn 0.000602 0.999973 0.007301
vn 0.004223 0.999984 0.00368
vn 0.004223 0.999984 0.00368
vn 0.006315 0.99995 0.007791
vn 0.006315 0.99995 0.007791
vn 0.009254 0.999927 0.007791
vn 0.009254 0.999927 0.007791
f 1//1 2//1 3//1
f 4//2 5//2 6//2
f 7//3 8//3 9//3
f 10//4 11//4 12//4
f 13//5 14//5 15//5
f 16//6 17//6 18//6
f 19//7 20//7 21//7
f 22//8 23//8 24//8
f 25//9 26//9 27//9
f 28//10 29//10 30//10
f 31//11 32//11 33//11
f 34//12 35//12 36//12
f 37//13 38//13 39//13
f 40//14 41//14 42//14
f 43//15 44//15 45//15
f 46//16 47//16 48//16
f 49//17 50//17 51//17
f 52//18 53//18 54//18
f 55//19 56//19 57//19
f 58//20 59//20 60//20
f 61//21 62//21 63//21
f 64//22 65//22 66//22
f 67//23 68//23 69//23
f 70//24 71//24 72//24
f 73//25 74//25 75//25
f 76//26 77//26 78//26
f 79//27 80//27 81//27
f 82//28 83//28 84//28
f 85//29 86//29 87//29
f 88//30 89//30 90//30
f 91//31 92//31 93//31
f 94//32 95//32 96//32
f 97//33 98//33 99//33
f 100//34 101//34 102//34
f 103//35 104//35 105//35
f 106//36 107//36 108//36
f 109//37 110//37 111//37
f 112//38 113//38 114//38
f 115//39 116//39 117//39
f 118//40 119//40 120//40
f 121//41 122//41 123//41
f 124//42 125//42 126//42
f 127//43 128//43 129//43
f 130//44 131//44 132//44
f 133//45 134//45 135//45
f 136//46 137//46 138//46
f 139//47 140//47 141//47
