# Static Concept B graybox, metres, identity world transform.
v 76 1.191657 -71.720465
v 75.361065 1.188723 -70.825957
v 76 1.181132 -70.369575
v 77.821839 1.167859 -70.83011
v 78.080221 1.170916 -71.191845
v 77.564572 1.175928 -71.560166
v 77.564572 1.175928 -71.560166
v 76.988532 1.166482 -69.66348
v 77.821839 1.167859 -70.83011
v 77.564572 1.175928 -71.560166
v 76 1.181132 -70.369575
v 76.988532 1.166482 -69.66348
v 77.564572 1.175928 -71.560166
v 76 1.191657 -71.720465
v 76 1.181132 -70.369575
v 77.564572 1.175928 -71.560166
v 76.452754 1.192406 -72.354321
v 76 1.191657 -71.720465
v 77.481404 1.198906 -73.794431
v 78.080221 1.170916 -71.191845
v 78.081761 1.170935 -71.194
v 77.481404 1.198906 -73.794431
v 77.564572 1.175928 -71.560166
v 78.080221 1.170916 -71.191845
v 77.481404 1.198906 -73.794431
v 77.009865 1.193326 -73.134276
v 77.564572 1.175928 -71.560166
v 77.009865 1.193326 -73.134276
v 76.452754 1.192406 -72.354321
v 77.564572 1.175928 -71.560166
v 78.081761 1.168376 -71.194
v 77.544443 1.199034 -73.882686
v 77.481404 1.198226 -73.794431
v 78.081761 1.168376 -71.194
v 79.17191 1.182357 -72.720209
v 77.544443 1.199034 -73.882686
v 79.731621 1.186194 -73.503805
v 78.636132 1.204756 -75.41105
v 78.238558 1.203869 -74.854446
v 79.731621 1.186194 -73.503805
v 80.263599 1.187381 -74.248574
v 78.636132 1.204756 -75.41105
v 78.238558 1.203869 -74.854446
v 79.445938 1.183223 -73.103848
v 79.731621 1.186194 -73.503805
v 78.238558 1.203869 -74.854446
v 78.107452 1.202505 -74.670898
v 79.445938 1.183223 -73.103848
v 78.107452 1.202505 -74.670898
v 79.21686 1.182933 -72.78314
v 79.445938 1.183223 -73.103848
v 78.107452 1.202505 -74.670898
v 77.78314 1.202095 -74.21686
v 79.21686 1.182933 -72.78314
v 77.78314 1.202095 -74.21686
v 79.17191 1.182357 -72.720209
v 79.21686 1.182933 -72.78314
v 77.78314 1.202095 -74.21686
v 77.544443 1.199034 -73.882686
v 79.17191 1.182357 -72.720209
v 81.043002 1.193149 -76
v 79.727821 1.207389 -76.939415
v 79.056811 1.205694 -76
v 79.056811 1.205694 -76
v 81.355288 1.189815 -75.776939
v 81.043002 1.193149 -76
v 79.056811 1.205694 -76
v 80.263599 1.187381 -74.248574
v 81.355288 1.189815 -75.776939
v 79.056811 1.205694 -76
v 78.636132 1.204756 -75.41105
v 80.263599 1.187381 -74.248574
v 81.514618 1.190171 -76
v 79.727821 1.207389 -76.939415
v 81.043002 1.193149 -76
v 81.514618 1.190171 -76
v 80.81951 1.210147 -78.46778
v 79.727821 1.207389 -76.939415
v 81.514618 1.190171 -76
v 82.446977 1.192526 -77.305303
v 80.81951 1.210147 -78.46778
v 81.043002 1.193149 -76
v 81.355288 1.189815 -75.776939
v 81.514618 1.190171 -76
v 82.550194 1.192787 -77.449806
v 81.911199 1.212905 -79.996144
v 81.116473 1.210897 -78.883527
v 82.550194 1.192787 -77.449806
v 83.538666 1.195284 -78.833668
v 81.911199 1.212905 -79.996144
v 81.116473 1.210897 -78.883527
v 82.446977 1.192526 -77.305303
v 82.550194 1.192787 -77.449806
v 81.116473 1.210897 -78.883527
v 80.81951 1.210147 -78.46778
v 82.446977 1.192526 -77.305303
v 84 1.204867 -80.812286
v 83.538666 1.195284 -78.833668
v 84 1.19645 -79.479535
v 84 1.204867 -80.812286
v 81.911199 1.212905 -79.996144
v 83.538666 1.195284 -78.833668
v 84 1.204867 -80.812286
v 83.002888 1.215663 -81.524509
v 81.911199 1.212905 -79.996144
v 84 1.19645 -79.479535
v 84.630355 1.198042 -80.362033
v 84 1.204867 -80.812286
v 84 1.218182 -82.920465
v 83.002888 1.215663 -81.524509
v 84 1.204867 -80.812286
v 84 1.204867 -80.812286
v 84.094578 1.218421 -83.052874
v 84 1.218182 -82.920465
v 84 1.204867 -80.812286
v 85.722044 1.2008 -81.890397
v 84.094578 1.218421 -83.052874
v 84 1.204867 -80.812286
v 84.630355 1.198042 -80.362033
v 85.722044 1.2008 -81.890397
v 86 1.212368 -84
v 85.186267 1.221179 -84.581238
v 84.771096 1.22013 -84
v 84.771096 1.22013 -84
v 86.813733 1.203558 -83.418762
v 86 1.212368 -84
v 84.771096 1.22013 -84
v 85.883527 1.201208 -82.116473
v 86.813733 1.203558 -83.418762
v 84.771096 1.22013 -84
v 84.449806 1.219318 -83.550194
v 85.883527 1.201208 -82.116473
v 84.449806 1.219318 -83.550194
v 85.722044 1.2008 -81.890397
v 85.883527 1.201208 -82.116473
v 84.449806 1.219318 -83.550194
v 84.094578 1.218421 -83.052874
v 85.722044 1.2008 -81.890397
vn 0.006315 0.99995 0.007791
vn 0.002438 0.999945 0.010193
vn 0.009254 0.999927 0.007791
vn 0.009254 0.999927 0.007791
vn 0.009254 0.999927 0.007791
vn 0.009254 0.999927 0.007791
vn 0.002438 0.999945 0.010193
vn 0.002438 0.999945 0.010193
vn 0.002438 0.999945 0.010193
vn 0.009254 0.999927 0.007791
vn 0.002453 0.999937 0.010912
vn 0.002453 0.999937 0.010912
vn 0.006316 0.999961 0.006104
vn 0.006316 0.999961 0.006104
vn 0.003108 0.999949 0.00965
vn 0.003108 0.999949 0.00965
vn 0.007269 0.999955 0.006095
vn 0.007269 0.999955 0.006095
vn 0.002453 0.999937 0.010912
vn 0.002453 0.999937 0.010912
vn 0.006316 0.99996 0.006316
vn 0.006316 0.999961 0.006104
vn 0.006316 0.999961 0.006104
vn 0.006316 0.999961 0.006104
vn 0.006316 0.99996 0.006316
vn 0.006316 0.99996 0.006316
vn 0.006316 0.99996 0.006316
vn 0.006316 0.999961 0.006104
vn 0.006316 0.99996 0.006316
vn 0.006316 0.99996 0.006316
vn 0.006316 0.99996 0.006316
vn 0.006316 0.99996 0.006316
vn 0.006316 0.99996 0.006316
vn 0.006316 0.99996 0.006316
vn 0.006316 0.99996 0.006316
vn 0.006316 0.99996 0.006316
vn 0.006316 0.99996 0.006316
vn 0.006316 0.99996 0.006316
vn 0.006316 0.99996 0.006316
vn 0.006316 0.99996 0.006316
vn 0.006316 0.99996 0.006316
vn 0.006316 0.99996 0.006316
vn 0.006316 0.99996 0.006316
vn 0.006316 0.99996 0.006316
vn 0.006316 0.99996 0.006316
vn 0.006316 0.99996 0.006316
f 1//1 2//1 3//1
f 4//2 5//2 6//2
f 7//3 8//3 9//3
f 10//4 11//4 12//4
f 13//5 14//5 15//5
f 16//6 17//6 18//6
f 19//7 20//7 21//7
f 22//8 23//8 24//8
f 25//9 26//9 27//9
f 28//10 29//10 30//10
f 31//11 32//11 33//11
f 34//12 35//12 36//12
f 37//13 38//13 39//13
f 40//14 41//14 42//14
f 43//15 44//15 45//15
f 46//16 47//16 48//16
f 49//17 50//17 51//17
f 52//18 53//18 54//18
f 55//19 56//19 57//19
f 58//20 59//20 60//20
f 61//21 62//21 63//21
f 64//22 65//22 66//22
f 67//23 68//23 69//23
f 70//24 71//24 72//24
f 73//25 74//25 75//25
f 76//26 77//26 78//26
f 79//27 80//27 81//27
f 82//28 83//28 84//28
f 85//29 86//29 87//29
f 88//30 89//30 90//30
f 91//31 92//31 93//31
f 94//32 95//32 96//32
f 97//33 98//33 99//33
f 100//34 101//34 102//34
f 103//35 104//35 105//35
f 106//36 107//36 108//36
f 109//37 110//37 111//37
f 112//38 113//38 114//38
f 115//39 116//39 117//39
f 118//40 119//40 120//40
f 121//41 122//41 123//41
f 124//42 125//42 126//42
f 127//43 128//43 129//43
f 130//44 131//44 132//44
f 133//45 134//45 135//45
f 136//46 137//46 138//46
