# Static Concept B graybox, metres, identity world transform.
v -60 1.427563 27.927583
v -61.513255 1.44622 26.486745
v -60 1.427105 28
v -60 1.427563 27.927583
v -60.651812 1.442794 26.167691
v -61.513255 1.44622 26.486745
v -61.513255 1.44622 26.486745
v -62 1.439737 28
v -60 1.427105 28
v -61.513255 1.44622 26.486745
v -62.434143 1.449882 26.827814
v -62 1.439737 28
v -62 1.439737 28
v -60 1.423365 28.592239
v -60 1.427105 28
v -62 1.439737 28
v -61.565857 1.429592 29.172186
v -60 1.423365 28.592239
v -59.973179 1.426936 28
v -60 1.427563 27.927583
v -60 1.427105 28
v -60 1.427105 28
v -59.957402 1.426567 28.042598
v -59.973179 1.426936 28
v -60 1.427105 28
v -59.783526 1.422504 28.512063
v -59.957402 1.426567 28.042598
v -60 1.427105 28
v -60 1.423365 28.592239
v -59.783526 1.422504 28.512063
v -60 1.440202 25.92628
v -60.651812 1.442794 26.167691
v -60 1.427563 27.927583
v -58.400955 1.417006 28
v -60 1.427563 27.927583
v -59.973179 1.426936 28
v -58.400955 1.417006 28
v -60 1.440202 25.92628
v -60 1.427563 27.927583
v -58.400955 1.417006 28
v -58.869481 1.435707 25.507569
v -60 1.440202 25.92628
v -58.400955 1.417006 28
v -58.001195 1.415416 27.851941
v -58.869481 1.435707 25.507569
v -59.973179 1.426936 28
v -59.567826 1.421646 28.432174
v -58.400955 1.417006 28
v -59.973179 1.426936 28
v -59.957402 1.426567 28.042598
v -59.567826 1.421646 28.432174
v -59.957402 1.426567 28.042598
v -59.783526 1.422504 28.512063
v -59.567826 1.421646 28.432174
v -58.869481 1.435707 25.507569
v -56.218863 1.408329 27.191818
v -57.087149 1.428619 24.847446
v -58.869481 1.435707 25.507569
v -58.001195 1.415416 27.851941
v -56.218863 1.408329 27.191818
v -55.006078 1.41455 24.993922
v -55.304818 1.421532 24.187323
v -55.675418 1.423005 24.324582
v -55.675418 1.423005 24.324582
v -54.436532 1.401241 26.531695
v -55.006078 1.41455 24.993922
v -55.675418 1.423005 24.324582
v -56.218863 1.408329 27.191818
v -54.436532 1.401241 26.531695
v -55.675418 1.423005 24.324582
v -57.087149 1.428619 24.847446
v -56.218863 1.408329 27.191818
v -53.729988 1.398431 26.270012
v -55.304818 1.421532 24.187323
v -55.006078 1.41455 24.993922
v -53.729988 1.398431 26.270012
v -53.522487 1.414444 23.527201
v -55.304818 1.421532 24.187323
v -53.729988 1.398431 26.270012
v -52.654201 1.394153 25.871573
v -53.522487 1.414444 23.527201
v -55.006078 1.41455 24.993922
v -54.436532 1.401241 26.531695
v -53.729988 1.398431 26.270012
v -52 1.40839 22.963317
v -52.654201 1.394153 25.871573
v -52 1.391552 25.629276
v -52 1.40839 22.963317
v -53.522487 1.414444 23.527201
v -52.654201 1.394153 25.871573
v -52 1.391552 25.629276
v -51.740156 1.407151 22.867078
v -52 1.40839 22.963317
v -52 1.391552 25.629276
v -50.87187 1.386175 25.21145
v -51.740156 1.407151 22.867078
v -51.740156 1.407151 22.867078
v -49.089539 1.37768 24.551327
v -49.957824 1.398656 22.206955
v -51.740156 1.407151 22.867078
v -50.87187 1.386175 25.21145
v -49.089539 1.37768 24.551327
v -47.89215 1.371974 24.10785
v -48.175493 1.39196 21.546833
v -49.83758 1.398083 22.16242
v -47.89215 1.371974 24.10785
v -47.307207 1.369819 23.891205
v -48.175493 1.39196 21.546833
v -49.83758 1.398083 22.16242
v -49.089539 1.37768 24.551327
v -47.89215 1.371974 24.10785
v -49.83758 1.398083 22.16242
v -49.957824 1.398656 22.206955
v -49.089539 1.37768 24.551327
v -48.175493 1.39196 21.546833
v -45.524876 1.363252 23.231082
v -46.393162 1.385393 20.88671
v -48.175493 1.39196 21.546833
v -47.307207 1.369819 23.891205
v -45.524876 1.363252 23.231082
v -44 1.363251 21.875831
v -45.524876 1.363252 23.231082
v -44 1.357634 22.666313
v -44 1.363251 21.875831
v -46.393162 1.385393 20.88671
v -45.524876 1.363252 23.231082
v -44 1.363251 21.875831
v -44.610831 1.378827 20.226587
v -46.393162 1.385393 20.88671
v -44 1.354834 22.666313
v -43.742545 1.351348 22.570959
v -44 1.36128 21.875831
v -44 1.376576 20.000354
v -44.610831 1.378827 20.226587
v -44 1.363251 21.875831
v -42.667931 1.368166 20
v -42.8285 1.371918 19.566465
v -43.999045 1.376573 20
v -43.999045 1.376573 20
v -42.307489 1.352527 20.973194
v -42.667931 1.368166 20
v -43.999045 1.376573 20
v -43.999626 1.376574 20.000215
v -42.307489 1.352527 20.973194
v -43.999626 1.376574 20.000215
v -41.960214 1.329355 21.910837
v -42.307489 1.352527 20.973194
v -43.999626 1.376574 20.000215
v -42.054312 1.328493 21.945688
v -41.960214 1.329355 21.910837
v -43.999626 1.376574 20.000215
v -43.999742 1.376573 20.000258
v -42.054312 1.328493 21.945688
v -43.999742 1.376573 20.000258
v -43.742545 1.351348 22.570959
v -42.054312 1.328493 21.945688
v -43.999742 1.376573 20.000258
v -44 1.36128 21.875831
v -43.742545 1.351348 22.570959
v -43.999742 1.376573 20.000258
v -44 1.376576 20.000354
v -44 1.36128 21.875831
v -40.64111 1.355365 20
v -42.8285 1.371918 19.566465
v -42.667931 1.368166 20
v -40.64111 1.355365 20
v -41.046168 1.36483 18.906342
v -42.8285 1.371918 19.566465
v -42.667931 1.368166 20
v -40.177883 1.335267 21.250714
v -40.64111 1.355365 20
v -42.667931 1.368166 20
v -41.17961 1.3365 21.621724
v -40.177883 1.335267 21.250714
v -42.667931 1.368166 20
v -42.307489 1.352527 20.973194
v -41.17961 1.3365 21.621724
v -42.307489 1.352527 20.973194
v -41.960214 1.329355 21.910837
v -41.17961 1.3365 21.621724
v -38.614289 1.342564 20
v -41.046168 1.36483 18.906342
v -40.64111 1.355365 20
v -38.614289 1.342564 20
v -39.263837 1.357743 18.246219
v -41.046168 1.36483 18.906342
v -40.64111 1.355365 20
v -38.395551 1.333074 20.590591
v -38.614289 1.342564 20
v -40.64111 1.355365 20
v -40.177883 1.335267 21.250714
v -38.395551 1.333074 20.590591
v -36.933037 1.337838 19.066963
v -37.481506 1.350655 17.586097
v -38.161904 1.353361 17.838096
v -38.161904 1.353361 17.838096
v -36.61322 1.330365 19.930469
v -36.933037 1.337838 19.066963
v -38.161904 1.353361 17.838096
v -36.800955 1.331111 20
v -36.61322 1.330365 19.930469
v -38.161904 1.353361 17.838096
v -38.614289 1.342564 20
v -36.800955 1.331111 20
v -38.161904 1.353361 17.838096
v -39.263837 1.357743 18.246219
v -38.614289 1.342564 20
v -38.614289 1.342564 20
v -38.395551 1.333074 20.590591
v -36.800955 1.331111 20
v -36 1.34476 17.037942
v -36.216587 1.328788 19.783413
v -36 1.327928 19.703112
v -36 1.34476 17.037942
v -36.933037 1.337838 19.066963
v -36.216587 1.328788 19.783413
v -36 1.34476 17.037942
v -37.481506 1.350655 17.586097
v -36.933037 1.337838 19.066963
v -36.933037 1.337838 19.066963
v -36.61322 1.330365 19.930469
v -36.216587 1.328788 19.783413
v -36 1.327928 19.703112
v -35.661578 1.343414 16.912727
v -36 1.34476 17.037942
v -36 1.327928 19.703112
v -34.868485 1.323431 19.283593
v -35.661578 1.343414 16.912727
v -35.661578 1.343414 16.912727
v -34.45229 1.321327 19.200523
v -34.984003 1.340113 16.757721
v -35.661578 1.343414 16.912727
v -34.868485 1.323431 19.283593
v -34.45229 1.321327 19.200523
vn 0.006316 0.99996 0.006316
vn 0.006316 0.99996 0.006316
vn 0.006316 0.99996 0.006316
vn 0.006316 0.99996 0.006316
vn 0.006316 0.99996 0.006316
vn 0.006316 0.99996 0.006316
vn 0.006316 0.99996 0.006316
vn 0.006316 0.99996 0.006316
vn 0.006316 0.99996 0.006316
vn 0.006316 0.99996 0.006316
vn 0.006316 0.99996 0.006316
vn 0.006316 0.99996 0.006316
vn 0.006316 0.99996 0.006316
vn 0.006316 0.99996 0.006316
vn 0.006316 0.99996 0.006316
vn 0.006316 0.99996 0.006316
vn 0.006316 0.99996 0.006316
vn 0.006316 0.99996 0.006316
vn 0.006316 0.99996 0.006316
vn 0.006316 0.99996 0.006316
vn 0.006316 0.99996 0.006316
vn 0.006316 0.99996 0.006316
vn 0.006316 0.99996 0.006316
vn 0.006316 0.99996 0.006316
vn 0.006316 0.99996 0.006316
vn 0.006316 0.99996 0.006316
vn 0.006316 0.99996 0.006316
vn 0.006316 0.99996 0.006316
vn 0.006316 0.99996 0.006316
vn 0.006316 0.99996 0.006316
vn 0.007105 0.999955 0.006316
vn 0.007105 0.999955 0.006316
vn 0.007105 0.999955 0.006316
vn 0.007105 0.999955 0.006316
vn 0.006316 0.999955 0.007105
vn 0.006316 0.999955 0.007105
vn 0.007105 0.999955 0.006316
vn 0.007105 0.999955 0.006316
vn 0.006316 0.999955 0.007105
vn 0.006316 0.999955 0.007105
vn 0.006316 0.999955 0.007105
vn 0.006316 0.999955 0.007105
vn 0.006316 0.999955 0.007105
vn 0.016556 0.99983 0.008154
vn 0.006316 0.999955 0.007105
vn 0.006316 0.99996 0.006316
vn 0.006315 0.999886 0.013728
vn 0.006315 0.999886 0.013728
vn 0 0.999695 0.024706
vn 0 0.999695 0.024706
vn 0 0.999695 0.024706
vn 0.016556 0.99983 0.008154
vn 0.016556 0.99983 0.008154
vn 0.016556 0.99983 0.008154
vn 0.006316 0.99996 0.006316
vn 0.006316 0.99996 0.006316
vn 0.006315 0.999886 0.013728
vn 0.006315 0.999886 0.013728
vn 0.006315 0.999886 0.013728
vn 0 0.999695 0.024706
vn 0.006316 0.99996 0.006316
vn 0.006316 0.99996 0.006316
vn 0.006315 0.999886 0.013728
vn 0.006315 0.999886 0.013728
vn 0.006316 0.99996 0.006316
vn 0.006316 0.99996 0.006316
vn 0.006316 0.99996 0.006316
vn 0.006316 0.99996 0.006316
vn 0.006316 0.99996 0.006316
vn 0.006315 0.999886 0.013728
vn 0.006316 0.99996 0.006316
vn 0.006316 0.99996 0.006316
vn 0.006316 0.99996 0.006316
vn 0.006316 0.99996 0.006316
vn 0.006316 0.99996 0.006316
vn 0.006316 0.99996 0.006316
vn 0.006316 0.99996 0.006316
vn 0.006316 0.99996 0.006316
f 1//1 2//1 3//1
f 4//2 5//2 6//2
f 7//3 8//3 9//3
f 10//4 11//4 12//4
f 13//5 14//5 15//5
f 16//6 17//6 18//6
f 19//7 20//7 21//7
f 22//8 23//8 24//8
f 25//9 26//9 27//9
f 28//10 29//10 30//10
f 31//11 32//11 33//11
f 34//12 35//12 36//12
f 37//13 38//13 39//13
f 40//14 41//14 42//14
f 43//15 44//15 45//15
f 46//16 47//16 48//16
f 49//17 50//17 51//17
f 52//18 53//18 54//18
f 55//19 56//19 57//19
f 58//20 59//20 60//20
f 61//21 62//21 63//21
f 64//22 65//22 66//22
f 67//23 68//23 69//23
f 70//24 71//24 72//24
f 73//25 74//25 75//25
f 76//26 77//26 78//26
f 79//27 80//27 81//27
f 82//28 83//28 84//28
f 85//29 86//29 87//29
f 88//30 89//30 90//30
f 91//31 92//31 93//31
f 94//32 95//32 96//32
f 97//33 98//33 99//33
f 100//34 101//34 102//34
f 103//35 104//35 105//35
f 106//36 107//36 108//36
f 109//37 110//37 111//37
f 112//38 113//38 114//38
f 115//39 116//39 117//39
f 118//40 119//40 120//40
f 121//41 122//41 123//41
f 124//42 125//42 126//42
f 127//43 128//43 129//43
f 130//44 131//44 132//44
f 133//45 134//45 135//45
f 136//46 137//46 138//46
f 139//47 140//47 141//47
f 142//48 143//48 144//48
f 145//49 146//49 147//49
f 148//50 149//50 150//50
f 151//51 152//51 153//51
f 154//52 155//52 156//52
f 157//53 158//53 159//53
f 160//54 161//54 162//54
f 163//55 164//55 165//55
f 166//56 167//56 168//56
f 169//57 170//57 171//57
f 172//58 173//58 174//58
f 175//59 176//59 177//59
f 178//60 179//60 180//60
f 181//61 182//61 183//61
f 184//62 185//62 186//62
f 187//63 188//63 189//63
f 190//64 191//64 192//64
f 193//65 194//65 195//65
f 196//66 197//66 198//66
f 199//67 200//67 201//67
f 202//68 203//68 204//68
f 205//69 206//69 207//69
f 208//70 209//70 210//70
f 211//71 212//71 213//71
f 214//72 215//72 216//72
f 217//73 218//73 219//73
f 220//74 221//74 222//74
f 223//75 224//75 225//75
f 226//76 227//76 228//76
f 229//77 230//77 231//77
f 232//78 233//78 234//78
