# Static Concept B graybox, metres, identity world transform.
v -34.810486 1.339177 16.732537
v -32.717368 1.311103 19.084341
v -32.902047 1.328016 16.591171
v -34.810486 1.339177 16.732537
v -34.625807 1.322264 19.225707
v -32.717368 1.311103 19.084341
v -30.949081 1.312778 17.050919
v -30.993608 1.316856 16.449806
v -31.511809 1.319886 16.488191
v -31.511809 1.319886 16.488191
v -30.808929 1.299943 18.942975
v -30.949081 1.312778 17.050919
v -31.511809 1.319886 16.488191
v -32.717368 1.311103 19.084341
v -30.808929 1.299943 18.942975
v -31.511809 1.319886 16.488191
v -32.902047 1.328016 16.591171
v -32.717368 1.311103 19.084341
v -29.177846 1.290404 18.822154
v -30.993608 1.316856 16.449806
v -30.949081 1.312778 17.050919
v -29.177846 1.290404 18.822154
v -29.085169 1.305695 16.30844
v -30.993608 1.316856 16.449806
v -29.177846 1.290404 18.822154
v -28.90049 1.288782 18.801609
v -29.085169 1.305695 16.30844
v -30.949081 1.312778 17.050919
v -30.808929 1.299943 18.942975
v -29.177846 1.290404 18.822154
v -28 1.299349 16.228057
v -28.90049 1.288782 18.801609
v -28 1.283516 18.734906
v -28 1.299349 16.228057
v -29.085169 1.305695 16.30844
v -28.90049 1.288782 18.801609
v -28 1.283516 18.734906
v -27.17673 1.294535 16.167074
v -28 1.299349 16.228057
v -28 1.283516 18.734906
v -26.992051 1.277622 18.660243
v -27.17673 1.294535 16.167074
v -27.17673 1.294535 16.167074
v -25.083612 1.266461 18.518877
v -25.268291 1.283374 16.025708
v -27.17673 1.294535 16.167074
v -26.992051 1.277622 18.660243
v -25.083612 1.266461 18.518877
v -23.299387 1.266676 16.700613
v -23.359852 1.272214 15.884342
v -24.063533 1.276329 15.936467
v -24.063533 1.276329 15.936467
v -23.175173 1.255301 18.377512
v -23.299387 1.266676 16.700613
v -24.063533 1.276329 15.936467
v -25.083612 1.266461 18.518877
v -23.175173 1.255301 18.377512
v -24.063533 1.276329 15.936467
v -25.268291 1.283374 16.025708
v -25.083612 1.266461 18.518877
v -21.72957 1.246847 18.27043
v -23.359852 1.272214 15.884342
v -23.299387 1.266676 16.700613
v -21.72957 1.246847 18.27043
v -21.451413 1.261053 15.742976
v -23.359852 1.272214 15.884342
v -21.72957 1.246847 18.27043
v -21.266734 1.244141 18.236146
v -21.451413 1.261053 15.742976
v -23.299387 1.266676 16.700613
v -23.175173 1.255301 18.377512
v -21.72957 1.246847 18.27043
v -20 1.252565 15.635464
v -21.266734 1.244141 18.236146
v -20 1.236733 18.142314
v -20 1.252565 15.635464
v -21.451413 1.261053 15.742976
v -21.266734 1.244141 18.236146
v -20 1.236733 18.142314
v -19.542974 1.249893 15.60161
v -20 1.252565 15.635464
v -20 1.236733 18.142314
v -19.358295 1.23298 18.09478
v -19.542974 1.249893 15.60161
v -19.542974 1.249893 15.60161
v -17.449856 1.22182 17.953414
v -17.634535 1.238732 15.460245
v -19.542974 1.249893 15.60161
v -19.358295 1.23298 18.09478
v -17.449856 1.22182 17.953414
v -15.649694 1.220575 16.350306
v -15.726096 1.227572 15.318879
v -16.615257 1.232772 15.384743
v -16.615257 1.232772 15.384743
v -15.541417 1.210659 17.812048
v -15.649694 1.220575 16.350306
v -16.615257 1.232772 15.384743
v -17.449856 1.22182 17.953414
v -15.541417 1.210659 17.812048
v -16.615257 1.232772 15.384743
v -17.634535 1.238732 15.460245
v -17.449856 1.22182 17.953414
v -14.281294 1.20329 17.718706
v -15.726096 1.227572 15.318879
v -15.649694 1.220575 16.350306
v -14.281294 1.20329 17.718706
v -13.817657 1.216411 15.177513
v -15.726096 1.227572 15.318879
v -14.281294 1.20329 17.718706
v -13.632978 1.199499 17.670682
v -13.817657 1.216411 15.177513
v -15.649694 1.220575 16.350306
v -15.541417 1.210659 17.812048
v -14.281294 1.20329 17.718706
v -12 1.205782 15.042872
v -13.632978 1.199499 17.670682
v -12 1.189949 17.549721
v -12 1.205782 15.042872
v -13.817657 1.216411 15.177513
v -13.632978 1.199499 17.670682
v -12 1.189949 17.549721
v -11.909218 1.205251 15.036147
v -12 1.205782 15.042872
v -12 1.189949 17.549721
v -11.724538 1.188338 17.529316
v -11.909218 1.205251 15.036147
v -11.909218 1.205251 15.036147
v -9.816099 1.177178 17.387951
v -10.000779 1.194091 14.894781
v -11.909218 1.205251 15.036147
v -11.724538 1.188338 17.529316
v -9.816099 1.177178 17.387951
v -8 1.174474 16
v -8.09234 1.18293 14.753415
v -9.166982 1.189215 14.833018
v -9.166982 1.189215 14.833018
v -7.90766 1.166017 17.246585
v -8 1.174474 16
v -9.166982 1.189215 14.833018
v -9.816099 1.177178 17.387951
v -7.90766 1.166017 17.246585
v -9.166982 1.189215 14.833018
v -10.000779 1.194091 14.894781
v -9.816099 1.177178 17.387951
vn 0.006316 0.99996 0.006316
vn 0.006316 0.99996 0.006316
vn 0.006316 0.99996 0.006316
vn 0.006316 0.99996 0.006316
vn 0.006316 0.99996 0.006316
vn 0.006316 0.99996 0.006316
vn 0.006316 0.99996 0.006316
vn 0.006316 0.99996 0.006316
vn 0.006316 0.99996 0.006316
vn 0.006316 0.99996 0.006316
vn 0.006316 0.99996 0.006316
vn 0.006316 0.99996 0.006316
vn 0.006316 0.99996 0.006316
vn 0.006316 0.99996 0.006316
vn 0.006316 0.99996 0.006316
vn 0.006316 0.99996 0.006316
vn 0.006316 0.99996 0.006316
vn 0.006316 0.99996 0.006316
vn 0.006316 0.99996 0.006316
vn 0.006316 0.99996 0.006316
vn 0.006316 0.99996 0.006316
vn 0.006316 0.99996 0.006316
vn 0.006316 0.99996 0.006316
vn 0.006316 0.99996 0.006316
vn 0.006316 0.99996 0.006316
vn 0.006316 0.99996 0.006316
vn 0.006316 0.99996 0.006316
vn 0.006316 0.99996 0.006316
vn 0.006316 0.99996 0.006316
vn 0.006316 0.99996 0.006316
vn 0.006316 0.99996 0.006316
vn 0.006316 0.99996 0.006316
vn 0.006316 0.99996 0.006316
vn 0.006316 0.99996 0.006316
vn 0.006316 0.99996 0.006316
vn 0.006316 0.99996 0.006316
vn 0.006316 0.99996 0.006316
vn 0.006316 0.99996 0.006316
vn 0.006316 0.99996 0.006316
vn 0.006316 0.99996 0.006316
vn 0.006316 0.99996 0.006316
vn 0.006316 0.99996 0.006316
vn 0.006316 0.99996 0.006316
vn 0.006316 0.99996 0.006316
vn 0.006316 0.99996 0.006316
vn 0.006316 0.99996 0.006316
vn 0.006316 0.99996 0.006316
vn 0.006316 0.99996 0.006316
f 1//1 2//1 3//1
f 4//2 5//2 6//2
f 7//3 8//3 9//3
f 10//4 11//4 12//4
f 13//5 14//5 15//5
f 16//6 17//6 18//6
f 19//7 20//7 21//7
f 22//8 23//8 24//8
f 25//9 26//9 27//9
f 28//10 29//10 30//10
f 31//11 32//11 33//11
f 34//12 35//12 36//12
f 37//13 38//13 39//13
f 40//14 41//14 42//14
f 43//15 44//15 45//15
f 46//16 47//16 48//16
f 49//17 50//17 51//17
f 52//18 53//18 54//18
f 55//19 56//19 57//19
f 58//20 59//20 60//20
f 61//21 62//21 63//21
f 64//22 65//22 66//22
f 67//23 68//23 69//23
f 70//24 71//24 72//24
f 73//25 74//25 75//25
f 76//26 77//26 78//26
f 79//27 80//27 81//27
f 82//28 83//28 84//28
f 85//29 86//29 87//29
f 88//30 89//30 90//30
f 91//31 92//31 93//31
f 94//32 95//32 96//32
f 97//33 98//33 99//33
f 100//34 101//34 102//34
f 103//35 104//35 105//35
f 106//36 107//36 108//36
f 109//37 110//37 111//37
f 112//38 113//38 114//38
f 115//39 116//39 117//39
f 118//40 119//40 120//40
f 121//41 122//41 123//41
f 124//42 125//42 126//42
f 127//43 128//43 129//43
f 130//44 131//44 132//44
f 133//45 134//45 135//45
f 136//46 137//46 138//46
f 139//47 140//47 141//47
f 142//48 143//48 144//48
