# Static Concept B graybox, metres, identity world transform.
v -6.430334 1.154646 17.569666
v -7.718926 1.180391 14.782011
v -8 1.174474 16
v -6.430334 1.154646 17.569666
v -5.884709 1.166133 15.205292
v -7.718926 1.180391 14.782011
v -8 1.174474 16
v -6.446857 1.154298 17.64127
v -6.430334 1.154646 17.569666
v -8 1.174474 16
v -8.281074 1.168556 17.217989
v -6.446857 1.154298 17.64127
v -6.332292 1.153408 17.667708
v -5.884709 1.166133 15.205292
v -6.430334 1.154646 17.569666
v -6.332292 1.153408 17.667708
v -4.050492 1.151875 15.628573
v -5.884709 1.166133 15.205292
v -6.332292 1.153408 17.667708
v -4.612641 1.140041 18.064551
v -4.050492 1.151875 15.628573
v -6.430334 1.154646 17.569666
v -6.446857 1.154298 17.64127
v -6.332292 1.153408 17.667708
v -4 1.151483 15.640225
v -4.612641 1.140041 18.064551
v -4 1.135278 18.205929
v -4 1.151483 15.640225
v -4.050492 1.151875 15.628573
v -4.612641 1.140041 18.064551
v -4 1.135278 18.205929
v -2.216275 1.137617 16.051854
v -4 1.151483 15.640225
v -4 1.135278 18.205929
v -2.778424 1.125783 18.487831
v -2.216275 1.137617 16.051854
v -2.216275 1.137617 16.051854
v -0.944207 1.111525 18.911112
v -0.382058 1.12336 16.475134
v -2.216275 1.137617 16.051854
v -2.778424 1.125783 18.487831
v -0.944207 1.111525 18.911112
v 1.348332 1.106916 17.348332
v 1.452159 1.109102 16.898415
v 0.732292 1.114697 16.732292
v 0.732292 1.114697 16.732292
v 0.89001 1.097267 19.334393
v 1.348332 1.106916 17.348332
v 0.732292 1.114697 16.732292
v -0.944207 1.111525 18.911112
v 0.89001 1.097267 19.334393
v 0.732292 1.114697 16.732292
v -0.382058 1.12336 16.475134
v -0.944207 1.111525 18.911112
v 2.917999 1.087088 18.917999
v 1.452159 1.109102 16.898415
v 1.348332 1.106916 17.348332
v 2.917999 1.087088 18.917999
v 3.286376 1.094844 17.321696
v 1.452159 1.109102 16.898415
v 1.348332 1.106916 17.348332
v 2.724227 1.083009 19.757674
v 2.917999 1.087088 18.917999
v 1.348332 1.106916 17.348332
v 0.89001 1.097267 19.334393
v 2.724227 1.083009 19.757674
v 4 1.089297 17.486378
v 2.917999 1.087088 18.917999
v 4 1.073421 20
v 4 1.089297 17.486378
v 3.286376 1.094844 17.321696
v 2.917999 1.087088 18.917999
v 2.917999 1.087088 18.917999
v 3.774307 1.074846 20
v 4 1.073421 20
v 2.917999 1.087088 18.917999
v 2.724227 1.083009 19.757674
v 3.774307 1.074846 20
v 3.774307 1.074846 20
v 4 1.073092 20.052083
v 4 1.073421 20
v 4.600203 1.06963 20
v 4 1.089297 17.486378
v 4 1.073421 20
v 4.600203 1.06963 20
v 5.120593 1.080586 17.744977
v 4 1.089297 17.486378
v 4 1.073421 20
v 4.558444 1.068751 20.180955
v 4.600203 1.06963 20
v 4 1.073421 20
v 4.067708 1.072566 20.067708
v 4.558444 1.068751 20.180955
v 4 1.073421 20
v 4 1.073092 20.052083
v 4.067708 1.072566 20.067708
v 6.5321 1.057429 20
v 5.120593 1.080586 17.744977
v 4.600203 1.06963 20
v 6.5321 1.057429 20
v 6.95481 1.066328 18.168258
v 5.120593 1.080586 17.744977
v 4.600203 1.06963 20
v 6.392661 1.054493 20.604236
v 6.5321 1.057429 20
v 4.600203 1.06963 20
v 4.558444 1.068751 20.180955
v 6.392661 1.054493 20.604236
v 8.745651 1.051157 18.779501
v 8.789027 1.05207 18.591538
v 8.580371 1.053692 18.543387
v 8.580371 1.053692 18.543387
v 8.463997 1.045227 20
v 8.745651 1.051157 18.779501
v 8.580371 1.053692 18.543387
v 6.5321 1.057429 20
v 8.463997 1.045227 20
v 8.580371 1.053692 18.543387
v 6.95481 1.066328 18.168258
v 6.5321 1.057429 20
v 6.5321 1.057429 20
v 8.226878 1.040235 21.027516
v 8.463997 1.045227 20
v 6.5321 1.057429 20
v 6.392661 1.054493 20.604236
v 8.226878 1.040235 21.027516
v 9.6 1.045766 18.778686
v 8.745651 1.051157 18.779501
v 9.6 1.038053 20
v 9.6 1.045766 18.778686
v 8.789027 1.05207 18.591538
v 8.745651 1.051157 18.779501
v 8.745651 1.051157 18.779501
v 8.463997 1.045227 20
v 9.6 1.038053 20
v 10.395894 1.033026 20
v 9.6 1.045766 18.778686
v 9.6 1.038053 20
v 10.395894 1.033026 20
v 10.623244 1.037812 19.014819
v 9.6 1.045766 18.778686
v 8.463997 1.045227 20
v 10.061095 1.025978 21.450797
v 10.395894 1.033026 20
v 8.463997 1.045227 20
v 8.226878 1.040235 21.027516
v 10.061095 1.025978 21.450797
v 12 1.029129 19.332532
v 11.132292 1.033855 19.132292
v 12 1.022895 20
v 11.132292 1.033855 19.132292
v 10.395894 1.033026 20
v 12 1.022895 20
v 11.132292 1.033855 19.132292
v 10.623244 1.037812 19.014819
v 10.395894 1.033026 20
v 10.395894 1.033026 20
v 12 1.013924 21.42043
v 12 1.022895 20
v 10.395894 1.033026 20
v 11.895312 1.01172 21.874078
v 12 1.013924 21.42043
v 10.395894 1.033026 20
v 10.061095 1.025978 21.450797
v 11.895312 1.01172 21.874078
v 12.327792 1.020824 20
v 12.082204 1.028952 19.351502
v 12 1.022895 20
v 12.327792 1.020824 20
v 12.457461 1.025704 19.4381
v 12.082204 1.028952 19.351502
v 12.082204 1.028952 19.351502
v 12 1.029129 19.332532
v 12 1.022895 20
v 12 1.022895 20
v 12.266331 1.018775 20.266331
v 12.327792 1.020824 20
v 12 1.022895 20
v 12 1.013924 21.42043
v 12.266331 1.018775 20.266331
v 12 1.013924 21.42043
v 11.895312 1.01172 21.874078
v 12 1.010906 21.898237
v 14.259689 1.008623 20
v 12.457461 1.025704 19.4381
v 12.327792 1.020824 20
v 14.259689 1.008623 20
v 14.291678 1.009827 19.861381
v 12.457461 1.025704 19.4381
v 12.327792 1.020824 20
v 13.835997 0.994495 21.835997
v 14.259689 1.008623 20
v 12.327792 1.020824 20
v 12.266331 1.018775 20.266331
v 13.835997 0.994495 21.835997
v 12.266331 1.018775 20.266331
v 13.729529 0.992555 22.297359
v 13.835997 0.994495 21.835997
v 12.266331 1.018775 20.266331
v 12 1.010906 21.898237
v 13.729529 0.992555 22.297359
v 12.266331 1.018775 20.266331
v 12 1.013924 21.42043
v 12 1.010906 21.898237
v 14.89236 1.004627 20
v 14.291678 1.009827 19.861381
v 14.259689 1.008623 20
v 14.259689 1.008623 20
v 16.125895 0.994231 20.284662
v 14.89236 1.004627 20
v 14.259689 1.008623 20
v 15.563746 0.975485 22.72064
v 16.125895 0.994231 20.284662
v 14.259689 1.008623 20
v 14.467708 0.984723 22.467708
v 15.563746 0.975485 22.72064
v 14.259689 1.008623 20
v 13.835997 0.994495 21.835997
v 14.467708 0.984723 22.467708
v 13.835997 0.994495 21.835997
v 13.729529 0.992555 22.297359
v 14.467708 0.984723 22.467708
v 16.125895 0.994231 20.284662
v 17.449145 0.959606 23.15461
v 17.90893 0.979193 20.697254
v 16.125895 0.994231 20.284662
v 15.563746 0.975485 22.72064
v 17.449145 0.959606 23.15461
v 17.90893 0.979193 20.697254
v 18.248361 0.954008 23.214699
v 18.407166 0.975841 20.719748
v 17.90893 0.979193 20.697254
v 17.449145 0.959606 23.15461
v 18.248361 0.954008 23.214699
vn 0.006316 0.99996 0.006316
vn 0.006316 0.99996 0.006316
vn 0.006316 0.99996 0.006316
vn 0.006316 0.99996 0.006316
vn 0.006316 0.99996 0.006316
vn 0.006316 0.99996 0.006316
vn 0.006316 0.99996 0.006316
vn 0.006316 0.99996 0.006316
vn 0.006316 0.99996 0.006316
vn 0.006316 0.99996 0.006316
vn 0.006316 0.99996 0.006316
vn 0.006316 0.99996 0.006316
vn 0.006316 0.99996 0.006316
vn 0.006316 0.99996 0.006316
vn 0.006316 0.99996 0.006316
vn 0.006316 0.99996 0.006316
vn 0.006316 0.99996 0.006316
vn 0.006316 0.99996 0.006316
vn 0.006316 0.99996 0.006316
vn 0.006316 0.99996 0.006316
vn 0.006316 0.99996 0.006316
vn 0.006316 0.99996 0.006316
vn 0.006316 0.99996 0.006316
vn 0.006316 0.99996 0.006316
vn 0.006316 0.99996 0.006316
vn 0.006316 0.99996 0.006316
vn 0.006316 0.99996 0.006316
vn 0.006316 0.99996 0.006316
vn 0.006316 0.99996 0.006316
vn 0.006316 0.99996 0.006316
vn 0.006316 0.99996 0.006316
vn 0.006316 0.99996 0.006316
vn 0.006316 0.99996 0.006316
vn 0.006316 0.99996 0.006316
vn 0.006316 0.99996 0.006316
vn 0.006316 0.99996 0.006316
vn 0.006316 0.99996 0.006316
vn 0.006316 0.99996 0.006316
vn 0.006316 0.99996 0.006316
vn 0.006316 0.99996 0.006316
vn 0.006316 0.99996 0.006316
vn 0.006316 0.99996 0.006316
vn 0.006316 0.99996 0.006316
vn 0.006316 0.99996 0.006316
vn 0.006316 0.99996 0.006316
vn 0.006316 0.99996 0.006316
vn 0.006316 0.99996 0.006316
vn 0.006316 0.99996 0.006316
vn 0.006316 0.99996 0.006316
vn 0.003291 0.999951 0.00934
vn 0.006316 0.99996 0.006316
vn 0.006316 0.99996 0.006316
vn 0.006316 0.99996 0.006316
vn 0.006316 0.99996 0.006316
vn 0.006316 0.99996 0.006316
vn 0.006315 0.999929 0.01014
vn 0.006315 0.999929 0.01014
vn 0 0.999956 0.00934
vn 0.006315 0.999938 0.009152
vn 0.009152 0.999938 0.006315
vn 0.006316 0.99996 0.006316
vn 0.006315 0.999929 0.01014
vn 0.006315 0.999929 0.01014
vn 0.006315 0.999938 0.009152
vn 0.006315 0.999938 0.009152
vn 0.009152 0.999938 0.006315
vn 0.009152 0.999938 0.006315
vn 0.009152 0.999938 0.006315
vn 0.006315 0.999929 0.01014
vn 0.006315 0.999938 0.009152
vn 0.006315 0.999938 0.009152
vn 0.006315 0.999938 0.009152
vn 0.006315 0.999938 0.009152
vn 0.009152 0.999938 0.006315
vn 0.006315 0.999938 0.009152
vn 0.006315 0.999938 0.009152
vn 0.006315 0.999938 0.009152
vn 0.006315 0.999938 0.009152
f 1//1 2//1 3//1
f 4//2 5//2 6//2
f 7//3 8//3 9//3
f 10//4 11//4 12//4
f 13//5 14//5 15//5
f 16//6 17//6 18//6
f 19//7 20//7 21//7
f 22//8 23//8 24//8
f 25//9 26//9 27//9
f 28//10 29//10 30//10
f 31//11 32//11 33//11
f 34//12 35//12 36//12
f 37//13 38//13 39//13
f 40//14 41//14 42//14
f 43//15 44//15 45//15
f 46//16 47//16 48//16
f 49//17 50//17 51//17
f 52//18 53//18 54//18
f 55//19 56//19 57//19
f 58//20 59//20 60//20
f 61//21 62//21 63//21
f 64//22 65//22 66//22
f 67//23 68//23 69//23
f 70//24 71//24 72//24
f 73//25 74//25 75//25
f 76//26 77//26 78//26
f 79//27 80//27 81//27
f 82//28 83//28 84//28
f 85//29 86//29 87//29
f 88//30 89//30 90//30
f 91//31 92//31 93//31
f 94//32 95//32 96//32
f 97//33 98//33 99//33
f 100//34 101//34 102//34
f 103//35 104//35 105//35
f 106//36 107//36 108//36
f 109//37 110//37 111//37
f 112//38 113//38 114//38
f 115//39 116//39 117//39
f 118//40 119//40 120//40
f 121//41 122//41 123//41
f 124//42 125//42 126//42
f 127//43 128//43 129//43
f 130//44 131//44 132//44
f 133//45 134//45 135//45
f 136//46 137//46 138//46
f 139//47 140//47 141//47
f 142//48 143//48 144//48
f 145//49 146//49 147//49
f 148//50 149//50 150//50
f 151//51 152//51 153//51
f 154//52 155//52 156//52
f 157//53 158//53 159//53
f 160//54 161//54 162//54
f 163//55 164//55 165//55
f 166//56 167//56 168//56
f 169//57 170//57 171//57
f 172//58 173//58 174//58
f 175//59 176//59 177//59
f 178//60 179//60 180//60
f 181//61 182//61 183//61
f 184//62 185//62 186//62
f 187//63 188//63 189//63
f 190//64 191//64 192//64
f 193//65 194//65 195//65
f 196//66 197//66 198//66
f 199//67 200//67 201//67
f 202//68 203//68 204//68
f 205//69 206//69 207//69
f 208//70 209//70 210//70
f 211//71 212//71 213//71
f 214//72 215//72 216//72
f 217//73 218//73 219//73
f 220//74 221//74 222//74
f 223//75 224//75 225//75
f 226//76 227//76 228//76
f 229//77 230//77 231//77
f 232//78 233//78 234//78
