# Static Concept B graybox, metres, identity world transform.
v 20 0.967391 20.543766
v 18.452143 0.952755 23.21102
v 20 0.944395 23.056234
v 20 0.967391 20.543766
v 18.203384 0.977094 20.723427
v 18.452143 0.952755 23.21102
v 20 0.944395 23.056234
v 20.170608 0.964492 20.526705
v 20 0.967391 20.543766
v 20 0.944395 23.056234
v 20.419367 0.937269 23.014298
v 20.170608 0.964492 20.526705
v 22.338703 0.90908 22.338703
v 22.137831 0.952021 20.329982
v 20.494332 0.958991 20.494332
v 20.494332 0.958991 20.494332
v 22.386591 0.903839 22.817575
v 22.338703 0.90908 22.338703
v 20.494332 0.958991 20.494332
v 20.419367 0.937269 23.014298
v 22.386591 0.903839 22.817575
v 20.494332 0.958991 20.494332
v 20.170608 0.964492 20.526705
v 20.419367 0.937269 23.014298
v 22.778395 0.897181 22.778395
v 22.137831 0.952021 20.329982
v 22.338703 0.90908 22.338703
v 22.778395 0.897181 22.778395
v 24.105055 0.943677 20.13326
v 22.137831 0.952021 20.329982
v 22.778395 0.897181 22.778395
v 24.353814 0.890499 22.620853
v 24.105055 0.943677 20.13326
v 22.338703 0.90908 22.338703
v 22.386591 0.903839 22.817575
v 22.778395 0.897181 22.778395
v 26.078625 0.933977 20
v 26.072279 0.935014 19.936538
v 25.437655 0.938025 20
v 25.437655 0.938025 20
v 26.321038 0.882156 22.424131
v 26.078625 0.933977 20
v 25.437655 0.938025 20
v 24.353814 0.890499 22.620853
v 26.321038 0.882156 22.424131
v 25.437655 0.938025 20
v 24.105055 0.943677 20.13326
v 24.353814 0.890499 22.620853
v 28 0.92346 19.743766
v 27.777696 0.926738 19.765996
v 28 0.921842 20
v 27.777696 0.926738 19.765996
v 27.76706 0.926972 19.76706
v 28 0.921842 20
v 27.76706 0.926972 19.76706
v 26.078625 0.933977 20
v 28 0.921842 20
v 27.76706 0.926972 19.76706
v 26.072279 0.935014 19.936538
v 26.078625 0.933977 20
v 26.078625 0.933977 20
v 28 0.875035 22.256234
v 28 0.921842 20
v 26.078625 0.933977 20
v 26.321038 0.882156 22.424131
v 28 0.875035 22.256234
v 28.065521 0.921428 20
v 28 0.92346 19.743766
v 28 0.921842 20
v 28.065521 0.921428 20
v 28.039502 0.923236 19.739815
v 28 0.92346 19.743766
v 28 0.921842 20
v 28.072801 0.920025 20.072801
v 28.065521 0.921428 20
v 28 0.921842 20
v 28.288261 0.874419 22.227408
v 28.072801 0.920025 20.072801
v 28 0.921842 20
v 28 0.875035 22.256234
v 28.288261 0.874419 22.227408
v 30.052416 0.908879 20
v 28.039502 0.923236 19.739815
v 28.065521 0.921428 20
v 30.052416 0.908879 20
v 30.006726 0.912054 19.543093
v 28.039502 0.923236 19.739815
v 28.065521 0.921428 20
v 30.255485 0.869744 22.030686
v 30.052416 0.908879 20
v 28.065521 0.921428 20
v 30.051122 0.870654 22.051122
v 30.255485 0.869744 22.030686
v 28.065521 0.921428 20
v 28.072801 0.920025 20.072801
v 30.051122 0.870654 22.051122
v 28.072801 0.920025 20.072801
v 28.288261 0.874419 22.227408
v 30.051122 0.870654 22.051122
v 32.039312 0.896331 20
v 30.006726 0.912054 19.543093
v 30.052416 0.908879 20
v 32.039312 0.896331 20
v 31.973949 0.900872 19.346371
v 30.006726 0.912054 19.543093
v 30.052416 0.908879 20
v 32.222709 0.860987 21.833964
v 32.039312 0.896331 20
v 30.052416 0.908879 20
v 30.255485 0.869744 22.030686
v 32.222709 0.860987 21.833964
v 34.026208 0.883782 20
v 31.973949 0.900872 19.346371
v 32.039312 0.896331 20
v 34.026208 0.883782 20
v 33.941173 0.88969 19.149648
v 31.973949 0.900872 19.346371
v 32.039312 0.896331 20
v 34.189932 0.852229 21.637241
v 34.026208 0.883782 20
v 32.039312 0.896331 20
v 32.222709 0.860987 21.833964
v 34.189932 0.852229 21.637241
v 36 0.872143 19.868959
v 35.039787 0.883445 19.039787
v 36 0.871316 20
v 36 0.872143 19.868959
v 35.908397 0.878507 18.952926
v 35.039787 0.883445 19.039787
v 35.039787 0.883445 19.039787
v 34.026208 0.883782 20
v 36 0.871316 20
v 35.039787 0.883445 19.039787
v 33.941173 0.88969 19.149648
v 34.026208 0.883782 20
v 34.026208 0.883782 20
v 36 0.844171 21.456234
v 36 0.871316 20
v 34.026208 0.883782 20
v 34.189932 0.852229 21.637241
v 36 0.844171 21.456234
v 36.013104 0.871233 20
v 36 0.872143 19.868959
v 36 0.871316 20
v 36 0.871316 20
v 36.01456 0.870983 20.01456
v 36.013104 0.871233 20
v 36 0.871316 20
v 36.157156 0.843802 21.440519
v 36.01456 0.870983 20.01456
v 36 0.871316 20
v 36 0.844171 21.456234
v 36.157156 0.843802 21.440519
v 36 0.877987 18.943766
v 35.908397 0.878507 18.952926
v 36 0.872143 19.868959
v 38 0.858684 20
v 36 0.872143 19.868959
v 36.013104 0.871233 20
v 38 0.858684 20
v 36 0.877987 18.943766
v 36 0.872143 19.868959
v 38 0.858684 20
v 37.87562 0.867325 18.756204
v 36 0.877987 18.943766
v 36.013104 0.871233 20
v 38.12438 0.837332 21.243796
v 38 0.858684 20
v 36.013104 0.871233 20
v 37.32385 0.841065 21.32385
v 38.12438 0.837332 21.243796
v 36.013104 0.871233 20
v 36.01456 0.870983 20.01456
v 37.32385 0.841065 21.32385
v 36.01456 0.870983 20.01456
v 36.157156 0.843802 21.440519
v 37.32385 0.841065 21.32385
vn 0.006315 0.999938 0.009152
vn 0.006315 0.999938 0.009152
vn 0.017905 0.999798 0.009151
vn 0.017905 0.999798 0.009151
vn 0.006314 0.999765 0.020741
vn 0.017905 0.999798 0.009151
vn 0.017905 0.999798 0.009151
vn 0.017905 0.999798 0.009151
vn 0.006314 0.999765 0.020741
vn 0.006314 0.999765 0.020741
vn 0.006314 0.999765 0.020741
vn 0.017905 0.999798 0.009151
vn 0.006315 0.999857 0.015704
vn 0.006314 0.999765 0.020741
vn 0.006314 0.999765 0.020741
vn 0.006314 0.999765 0.020741
vn 0.015372 0.999862 0.006315
vn 0.022017 0.999758 0
vn 0.006315 0.999857 0.015704
vn 0.006315 0.999857 0.015704
vn 0.006314 0.999765 0.020741
vn 0.006314 0.999765 0.020741
vn 0.006316 0.99996 0.006316
vn 0.006316 0.99996 0.006316
vn 0.006315 0.999806 0.018637
vn 0.00421 0.999776 0.020741
vn 0.00421 0.999776 0.020741
vn 0.006316 0.99996 0.006316
vn 0.006316 0.99996 0.006316
vn 0.006315 0.999806 0.018637
vn 0.006315 0.999806 0.018637
vn 0.006315 0.999806 0.018637
vn 0.00421 0.999776 0.020741
vn 0.006316 0.99996 0.006316
vn 0.006316 0.99996 0.006316
vn 0.006315 0.999806 0.018637
vn 0.006315 0.999806 0.018637
vn 0.006316 0.99996 0.006316
vn 0.006316 0.99996 0.006316
vn 0.006315 0.999806 0.018637
vn 0.006315 0.999806 0.018637
vn 0.006316 0.99996 0.006316
vn 0.006316 0.99996 0.006316
vn 0.006316 0.99996 0.006316
vn 0.006316 0.99996 0.006316
vn 0.006315 0.999806 0.018637
vn 0.006315 0.999806 0.018637
vn 0.006316 0.99996 0.006316
vn 0.006315 0.999843 0.016532
vn 0.00421 0.999817 0.018637
vn 0.00421 0.999817 0.018637
vn 0.006316 0.99996 0.006316
vn 0.006316 0.99996 0.006316
vn 0.006316 0.99996 0.006316
vn 0.006316 0.99996 0.006316
vn 0.006315 0.999843 0.016532
vn 0.006315 0.999843 0.016532
vn 0.006315 0.999843 0.016532
vn 0.00421 0.999817 0.018637
f 1//1 2//1 3//1
f 4//2 5//2 6//2
f 7//3 8//3 9//3
f 10//4 11//4 12//4
f 13//5 14//5 15//5
f 16//6 17//6 18//6
f 19//7 20//7 21//7
f 22//8 23//8 24//8
f 25//9 26//9 27//9
f 28//10 29//10 30//10
f 31//11 32//11 33//11
f 34//12 35//12 36//12
f 37//13 38//13 39//13
f 40//14 41//14 42//14
f 43//15 44//15 45//15
f 46//16 47//16 48//16
f 49//17 50//17 51//17
f 52//18 53//18 54//18
f 55//19 56//19 57//19
f 58//20 59//20 60//20
f 61//21 62//21 63//21
f 64//22 65//22 66//22
f 67//23 68//23 69//23
f 70//24 71//24 72//24
f 73//25 74//25 75//25
f 76//26 77//26 78//26
f 79//27 80//27 81//27
f 82//28 83//28 84//28
f 85//29 86//29 87//29
f 88//30 89//30 90//30
f 91//31 92//31 93//31
f 94//32 95//32 96//32
f 97//33 98//33 99//33
f 100//34 101//34 102//34
f 103//35 104//35 105//35
f 106//36 107//36 108//36
f 109//37 110//37 111//37
f 112//38 113//38 114//38
f 115//39 116//39 117//39
f 118//40 119//40 120//40
f 121//41 122//41 123//41
f 124//42 125//42 126//42
f 127//43 128//43 129//43
f 130//44 131//44 132//44
f 133//45 134//45 135//45
f 136//46 137//46 138//46
f 139//47 140//47 141//47
f 142//48 143//48 144//48
f 145//49 146//49 147//49
f 148//50 149//50 150//50
f 151//51 152//51 153//51
f 154//52 155//52 156//52
f 157//53 158//53 159//53
f 160//54 161//54 162//54
f 163//55 164//55 165//55
f 166//56 167//56 168//56
f 169//57 170//57 171//57
f 172//58 173//58 174//58
f 175//59 176//59 177//59
