# Static Concept B graybox, metres, identity world transform.
v -8.247987 1.403408 -20
v -9.547076 1.427484 -22.512867
v -9.420243 1.410812 -20
v -8.247987 1.403408 -20
v -8.462935 1.420971 -22.565799
v -9.547076 1.427484 -22.512867
v -9.420243 1.410812 -20
v -7.920303 1.376634 -16.088489
v -8.247987 1.403408 -20
v -9.420243 1.410812 -20
v -8.080198 1.377592 -16.080198
v -7.920303 1.376634 -16.088489
v -9.420243 1.410812 -20
v -9.283114 1.392787 -17.283114
v -8.080198 1.377592 -16.080198
v -9.283114 1.392787 -17.283114
v -9.219418 1.384414 -16.021131
v -8.080198 1.377592 -16.080198
v -7.087218 1.396077 -20
v -8.462935 1.420971 -22.565799
v -8.247987 1.403408 -20
v -7.087218 1.396077 -20
v -7.491873 1.415557 -22.679667
v -8.462935 1.420971 -22.565799
v -8.247987 1.403408 -20
v -6.521315 1.368835 -16.252536
v -7.087218 1.396077 -20
v -8.247987 1.403408 -20
v -7.920303 1.376634 -16.088489
v -6.521315 1.368835 -16.252536
v -6.438432 1.40738 -22.438432
v -6.530488 1.410609 -22.857617
v -6.806524 1.41203 -22.806524
v -6.806524 1.41203 -22.806524
v -5.902936 1.388597 -20
v -6.438432 1.40738 -22.438432
v -6.806524 1.41203 -22.806524
v -7.087218 1.396077 -20
v -5.902936 1.388597 -20
v -6.806524 1.41203 -22.806524
v -7.491873 1.415557 -22.679667
v -7.087218 1.396077 -20
v -7.087218 1.396077 -20
v -5.136268 1.361706 -16.508905
v -5.902936 1.388597 -20
v -7.087218 1.396077 -20
v -6.521315 1.368835 -16.252536
v -5.136268 1.361706 -16.508905
v -4.963145 1.388745 -20.963145
v -6.530488 1.410609 -22.857617
v -6.438432 1.40738 -22.438432
v -4.963145 1.388745 -20.963145
v -5.583004 1.406149 -23.098867
v -6.530488 1.410609 -22.857617
v -6.438432 1.40738 -22.438432
v -4.683608 1.380896 -20
v -4.963145 1.388745 -20.963145
v -6.438432 1.40738 -22.438432
v -5.902936 1.388597 -20
v -4.683608 1.380896 -20
v -5.902936 1.388597 -20
v -4 1.361703 -17.64463
v -4.683608 1.380896 -20
v -5.902936 1.388597 -20
v -4 1.356357 -16.798223
v -4 1.361703 -17.64463
v -5.902936 1.388597 -20
v -5.136268 1.361706 -16.508905
v -4 1.356357 -16.798223
v -4 1.356357 -16.798223
v -3.771249 1.354403 -16.856469
v -4 1.361703 -17.64463
v -4 1.387038 -21.65609
v -4.963145 1.388745 -20.963145
v -4 1.376579 -20
v -4 1.387038 -21.65609
v -5.583004 1.406149 -23.098867
v -4.963145 1.388745 -20.963145
v -4 1.387038 -21.65609
v -4.615011 1.402039 -23.41611
v -5.583004 1.406149 -23.098867
v -4.963145 1.388745 -20.963145
v -4.683608 1.380896 -20
v -4 1.376579 -20
v -4.683608 1.380896 -20
v -4 1.361703 -17.64463
v -4 1.376579 -20
v -3.421306 1.372924 -20
v -4 1.387038 -21.65609
v -4 1.376579 -20
v -4 1.376579 -20
v -3.23392 1.365693 -19.463744
v -3.421306 1.372924 -20
v -4 1.376579 -20
v -3.110476 1.361932 -19.110476
v -3.23392 1.365693 -19.463744
v -4 1.376579 -20
v -2.470827 1.343878 -17.279949
v -3.110476 1.361932 -19.110476
v -4 1.376579 -20
v -3.771249 1.354403 -16.856469
v -2.470827 1.343878 -17.279949
v -4 1.376579 -20
v -4 1.361703 -17.64463
v -3.771249 1.354403 -16.856469
v -4 1.399567 -23.639845
v -4.615011 1.402039 -23.41611
v -4 1.387038 -21.65609
v -1.346066 1.359817 -20
v -4 1.387038 -21.65609
v -3.421306 1.372924 -20
v -1.346066 1.359817 -20
v -4 1.399567 -23.639845
v -4 1.387038 -21.65609
v -1.346066 1.359817 -20
v -2.825074 1.394846 -24.067271
v -4 1.399567 -23.639845
v -3.421306 1.372924 -20
v -0.603744 1.332106 -17.958614
v -1.346066 1.359817 -20
v -3.421306 1.372924 -20
v -0.919678 1.332806 -17.843775
v -0.603744 1.332106 -17.958614
v -3.421306 1.372924 -20
v -3.23392 1.365693 -19.463744
v -0.919678 1.332806 -17.843775
v -3.23392 1.365693 -19.463744
v -1.597422 1.337018 -17.597422
v -0.919678 1.332806 -17.843775
v -3.23392 1.365693 -19.463744
v -3.110476 1.361932 -19.110476
v -1.597422 1.337018 -17.597422
v -3.110476 1.361932 -19.110476
v -2.470827 1.343878 -17.279949
v -1.597422 1.337018 -17.597422
v 0.724231 1.346742 -20
v -2.825074 1.394846 -24.067271
v -1.346066 1.359817 -20
v 0.724231 1.346742 -20
v -0.996563 1.387497 -24.732184
v -2.825074 1.394846 -24.067271
v -1.346066 1.359817 -20
v 1.224766 1.328056 -18.623526
v 0.724231 1.346742 -20
v -1.346066 1.359817 -20
v -0.603744 1.332106 -17.958614
v 1.224766 1.328056 -18.623526
v 2.105686 1.349981 -21.894314
v 0.831947 1.380148 -25.397097
v -0.802685 1.386718 -24.802685
v -0.802685 1.386718 -24.802685
v 2.794527 1.333666 -20
v 2.105686 1.349981 -21.894314
v -0.802685 1.386718 -24.802685
v 0.724231 1.346742 -20
v 2.794527 1.333666 -20
v -0.802685 1.386718 -24.802685
v -0.996563 1.387497 -24.732184
v 0.724231 1.346742 -20
v 0.724231 1.346742 -20
v 3.053277 1.324007 -19.288439
v 2.794527 1.333666 -20
v 0.724231 1.346742 -20
v 1.224766 1.328056 -18.623526
v 3.053277 1.324007 -19.288439
v 4 1.341073 -22.378267
v 2.105686 1.349981 -21.894314
v 4 1.326053 -20
v 4 1.341073 -22.378267
v 0.831947 1.380148 -25.397097
v 2.105686 1.349981 -21.894314
v 4 1.341073 -22.378267
v 2.660457 1.372799 -26.062009
v 0.831947 1.380148 -25.397097
v 2.105686 1.349981 -21.894314
v 2.794527 1.333666 -20
v 4 1.326053 -20
v 2.794527 1.333666 -20
v 4 1.32191 -19.632702
v 4 1.326053 -20
v 2.794527 1.333666 -20
v 3.053277 1.324007 -19.288439
v 4 1.32191 -19.632702
v 4.864824 1.320591 -20
v 4 1.341073 -22.378267
v 4 1.326053 -20
v 4 1.326053 -20
v 4.881787 1.320208 -19.953352
v 4.864824 1.320591 -20
v 4 1.326053 -20
v 4.345323 1.322443 -19.758274
v 4.881787 1.320208 -19.953352
v 4 1.326053 -20
v 4.269352 1.322905 -19.730648
v 4.345323 1.322443 -19.758274
v 4 1.326053 -20
v 4 1.32191 -19.632702
v 4.269352 1.322905 -19.730648
v 4 1.367415 -26.549116
v 2.660457 1.372799 -26.062009
v 4 1.341073 -22.378267
v 5.010069 1.319673 -20
v 4 1.341073 -22.378267
v 4.864824 1.320591 -20
v 5.010069 1.319673 -20
v 4 1.367415 -26.549116
v 4 1.341073 -22.378267
v 5.010069 1.319673 -20
v 4.488968 1.36545 -26.726922
v 4 1.367415 -26.549116
v 5.010069 1.319673 -20
v 6.710297 1.31284 -20.618265
v 4.488968 1.36545 -26.726922
v 4.864824 1.320591 -20
v 4.881787 1.320208 -19.953352
v 5.010069 1.319673 -20
v 7.294228 1.334968 -24.705772
v 6.317478 1.358101 -27.391835
v 5.063982 1.363139 -26.936018
v 5.063982 1.363139 -26.936018
v 8.538808 1.305491 -21.283178
v 7.294228 1.334968 -24.705772
v 5.063982 1.363139 -26.936018
v 6.710297 1.31284 -20.618265
v 8.538808 1.305491 -21.283178
v 5.063982 1.363139 -26.936018
v 4.488968 1.36545 -26.726922
v 6.710297 1.31284 -20.618265
v 8.166624 1.350263 -28
v 8.145988 1.350761 -28.056748
v 7.989931 1.351379 -28
v 7.989931 1.351379 -28
v 10.367318 1.298142 -21.948091
v 8.166624 1.350263 -28
v 7.989931 1.351379 -28
v 10.136018 1.299071 -21.863982
v 10.367318 1.298142 -21.948091
v 7.989931 1.351379 -28
v 7.294228 1.334968 -24.705772
v 10.136018 1.299071 -21.863982
v 7.989931 1.351379 -28
v 6.317478 1.358101 -27.391835
v 7.294228 1.334968 -24.705772
v 7.294228 1.334968 -24.705772
v 8.538808 1.305491 -21.283178
v 10.136018 1.299071 -21.863982
v 10.236921 1.337188 -28
v 8.145988 1.350761 -28.056748
v 8.166624 1.350263 -28
v 10.236921 1.337188 -28
v 9.974499 1.34351 -28.721661
v 8.145988 1.350761 -28.056748
v 8.166624 1.350263 -28
v 12 1.295431 -23.151532
v 10.236921 1.337188 -28
v 8.166624 1.350263 -28
v 12 1.29158 -22.541793
v 12 1.295431 -23.151532
v 8.166624 1.350263 -28
v 10.367318 1.298142 -21.948091
v 12 1.29158 -22.541793
v 12 1.29158 -22.541793
v 12.195828 1.290793 -22.613004
v 12 1.295431 -23.151532
v 12 1.334653 -28.844848
v 10.930648 1.339719 -29.069352
v 12 1.326053 -28
v 12 1.334653 -28.844848
v 11.803009 1.34068 -29.386574
v 10.930648 1.339719 -29.069352
v 10.930648 1.339719 -29.069352
v 10.236921 1.337188 -28
v 12 1.326053 -28
v 10.930648 1.339719 -29.069352
v 9.974499 1.34351 -28.721661
v 10.236921 1.337188 -28
v 10.236921 1.337188 -28
v 12 1.295431 -23.151532
v 12 1.326053 -28
v 12.307218 1.324112 -28
v 12.042201 1.333357 -28.728796
v 12 1.326053 -28
v 12.042201 1.333357 -28.728796
v 12 1.334653 -28.844848
v 12 1.326053 -28
v 12 1.326053 -28
v 12.48277 1.319954 -27.51723
v 12.307218 1.324112 -28
v 12 1.326053 -28
v 14.024339 1.283444 -23.277916
v 12.48277 1.319954 -27.51723
v 12 1.326053 -28
v 12.195828 1.290793 -22.613004
v 14.024339 1.283444 -23.277916
v 12 1.326053 -28
v 12 1.295431 -23.151532
v 12.195828 1.290793 -22.613004
v 12 1.340897 -29.458207
v 11.803009 1.34068 -29.386574
v 12 1.334653 -28.844848
v 14.377514 1.311037 -28
v 12.042201 1.333357 -28.728796
v 12.307218 1.324112 -28
v 14.377514 1.311037 -28
v 12.086254 1.340982 -29.489572
v 12.042201 1.333357 -28.728796
v 14.377514 1.311037 -28
v 13.631519 1.337059 -30.051487
v 12.086254 1.340982 -29.489572
v 12.086254 1.340982 -29.489572
v 12 1.334653 -28.844848
v 12.042201 1.333357 -28.728796
v 12.086254 1.340982 -29.489572
v 12 1.340897 -29.458207
v 12 1.334653 -28.844848
v 12.307218 1.324112 -28
v 15.736094 1.27886 -24.263906
v 14.377514 1.311037 -28
v 12.307218 1.324112 -28
v 12.48277 1.319954 -27.51723
v 15.736094 1.27886 -24.263906
v 12.48277 1.319954 -27.51723
v 15.852849 1.276095 -23.942829
v 15.736094 1.27886 -24.263906
v 12.48277 1.319954 -27.51723
v 14.024339 1.283444 -23.277916
v 15.852849 1.276095 -23.942829
v 16.447811 1.297961 -28
v 13.631519 1.337059 -30.051487
v 14.377514 1.311037 -28
v 16.447811 1.297961 -28
v 15.46003 1.332418 -30.716399
v 13.631519 1.337059 -30.051487
v 14.377514 1.311037 -28
v 17.681359 1.268746 -24.607742
v 16.447811 1.297961 -28
v 14.377514 1.311037 -28
v 16.002685 1.275492 -23.997315
v 17.681359 1.268746 -24.607742
v 14.377514 1.311037 -28
v 15.736094 1.27886 -24.263906
v 16.002685 1.275492 -23.997315
v 15.736094 1.27886 -24.263906
v 15.852849 1.276095 -23.942829
v 16.002685 1.275492 -23.997315
v 17.671313 1.314424 -30.328687
v 17.28854 1.329642 -31.381312
v 16.797315 1.329023 -31.202685
v 16.797315 1.329023 -31.202685
v 18.518108 1.284886 -28
v 17.671313 1.314424 -30.328687
v 16.797315 1.329023 -31.202685
v 16.447811 1.297961 -28
v 18.518108 1.284886 -28
v 16.797315 1.329023 -31.202685
v 15.46003 1.332418 -30.716399
v 16.447811 1.297961 -28
v 16.447811 1.297961 -28
v 19.50987 1.261397 -25.272655
v 18.518108 1.284886 -28
v 16.447811 1.297961 -28
v 17.681359 1.268746 -24.607742
v 19.50987 1.261397 -25.272655
v 20 1.293388 -29.618113
v 17.450773 1.329847 -31.440306
v 20 1.275526 -28
v 20 1.293388 -29.618113
v 19.11705 1.325852 -32.046225
v 17.450773 1.329847 -31.440306
v 17.450773 1.329847 -31.440306
v 17.671313 1.314424 -30.328687
v 20 1.275526 -28
v 17.450773 1.329847 -31.440306
v 17.28854 1.329642 -31.381312
v 17.671313 1.314424 -30.328687
v 17.671313 1.314424 -30.328687
v 18.518108 1.284886 -28
v 20 1.275526 -28
v 18.518108 1.284886 -28
v 20 1.259427 -25.450884
v 20 1.275526 -28
v 18.518108 1.284886 -28
v 19.50987 1.261397 -25.272655
v 20 1.259427 -25.450884
v 20.588405 1.27181 -28
v 20 1.293388 -29.618113
v 20 1.275526 -28
v 20 1.275526 -28
v 20.924636 1.263847 -27.075364
v 20.588405 1.27181 -28
v 20 1.275526 -28
v 21.33838 1.254048 -25.937568
v 20.924636 1.263847 -27.075364
v 20 1.275526 -28
v 20 1.259427 -25.450884
v 21.33838 1.254048 -25.937568
v 20 1.323736 -32.367298
v 19.11705 1.325852 -32.046225
v 20 1.293388 -29.618113
v 22.658702 1.258735 -28
v 20 1.293388 -29.618113
v 20.588405 1.27181 -28
v 22.658702 1.258735 -28
v 20 1.323736 -32.367298
v 20 1.293388 -29.618113
v 22.658702 1.258735 -28
v 20.945561 1.321559 -32.711138
v 20 1.323736 -32.367298
v 20.588405 1.27181 -28
v 23.16689 1.246698 -26.602481
v 22.658702 1.258735 -28
v 20.588405 1.27181 -28
v 21.869352 1.251913 -26.130648
v 23.16689 1.246698 -26.602481
v 20.588405 1.27181 -28
v 20.924636 1.263847 -27.075364
v 21.869352 1.251913 -26.130648
v 20.924636 1.263847 -27.075364
v 21.33838 1.254048 -25.937568
v 21.869352 1.251913 -26.130648
v 22.859855 1.314205 -33.140145
v 22.774071 1.316642 -33.376051
v 22.663982 1.317604 -33.336018
v 22.663982 1.317604 -33.336018
v 24.728998 1.245659 -28
v 22.859855 1.314205 -33.140145
v 22.663982 1.317604 -33.336018
v 22.658702 1.258735 -28
v 24.728998 1.245659 -28
v 22.663982 1.317604 -33.336018
v 20.945561 1.321559 -32.711138
v 22.658702 1.258735 -28
v 22.658702 1.258735 -28
v 24.995401 1.239349 -27.267394
v 24.728998 1.245659 -28
v 22.658702 1.258735 -28
v 23.16689 1.246698 -26.602481
v 24.995401 1.239349 -27.267394
v 26.113178 1.257745 -29.886822
v 22.774071 1.316642 -33.376051
v 22.859855 1.314205 -33.140145
v 26.113178 1.257745 -29.886822
v 24.602581 1.300657 -34.040964
v 22.774071 1.316642 -33.376051
v 22.859855 1.314205 -33.140145
v 26.799295 1.232583 -28
v 26.113178 1.257745 -29.886822
v 22.859855 1.314205 -33.140145
v 24.728998 1.245659 -28
v 26.799295 1.232583 -28
v 24.728998 1.245659 -28
v 26.823911 1.232 -27.932306
v 26.799295 1.232583 -28
v 24.728998 1.245659 -28
v 24.995401 1.239349 -27.267394
v 26.823911 1.232 -27.932306
v 28 1.240103 -30.391378
v 27.736018 1.229581 -28.263982
v 28 1.227274 -28.359975
v 28 1.240103 -30.391378
v 26.113178 1.257745 -29.886822
v 27.736018 1.229581 -28.263982
v 28 1.240103 -30.391378
v 24.602581 1.300657 -34.040964
v 26.113178 1.257745 -29.886822
v 28 1.240103 -30.391378
v 26.431092 1.284672 -34.705876
v 24.602581 1.300657 -34.040964
v 26.113178 1.257745 -29.886822
v 27.010069 1.231252 -28
v 27.736018 1.229581 -28.263982
v 26.113178 1.257745 -29.886822
v 26.799295 1.232583 -28
v 27.010069 1.231252 -28
v 26.799295 1.232583 -28
v 26.823911 1.232 -27.932306
v 27.010069 1.231252 -28
v 28 1.227274 -28.359975
v 28.652421 1.224651 -28.597219
v 28 1.240103 -30.391378
v 28 1.270956 -35.276389
v 26.431092 1.284672 -34.705876
v 28 1.240103 -30.391378
v 28 1.240103 -30.391378
v 28.259602 1.269913 -35.370789
v 28 1.270956 -35.276389
v 28 1.240103 -30.391378
v 30.480932 1.217302 -29.262132
v 28.259602 1.269913 -35.370789
v 28 1.240103 -30.391378
v 28.652421 1.224651 -28.597219
v 30.480932 1.217302 -29.262132
v 30.101095 1.262256 -36
v 30.088112 1.262564 -36.035702
v 29.989931 1.262958 -36
v 29.989931 1.262958 -36
v 31.30172 1.23382 -32.69828
v 30.101095 1.262256 -36
v 29.989931 1.262958 -36
v 28.530648 1.268823 -35.469352
v 31.30172 1.23382 -32.69828
v 28.530648 1.268823 -35.469352
v 32.309442 1.209953 -29.927045
v 31.30172 1.23382 -32.69828
v 28.530648 1.268823 -35.469352
v 30.480932 1.217302 -29.262132
v 32.309442 1.209953 -29.927045
v 28.530648 1.268823 -35.469352
v 28.259602 1.269913 -35.370789
v 30.480932 1.217302 -29.262132
v 32.14474 1.249349 -36
v 30.088112 1.262564 -36.035702
v 30.101095 1.262256 -36
v 32.14474 1.249349 -36
v 31.886244 1.255336 -36.689397
v 30.088112 1.262564 -36.035702
v 30.101095 1.262256 -36
v 34.168331 1.202483 -30.603176
v 32.14474 1.249349 -36
v 30.101095 1.262256 -36
v 33.602597 1.204757 -30.397403
v 34.168331 1.202483 -30.603176
v 30.101095 1.262256 -36
v 31.30172 1.23382 -32.69828
v 33.602597 1.204757 -30.397403
v 31.30172 1.23382 -32.69828
v 32.309442 1.209953 -29.927045
v 33.602597 1.204757 -30.397403
v 33.206071 1.242646 -36
v 31.886244 1.255336 -36.689397
v 32.14474 1.249349 -36
v 33.206071 1.242646 -36
v 32.790339 1.251894 -37.04849
v 31.886244 1.255336 -36.689397
v 32.14474 1.249349 -36
v 35.186164 1.1986 -31.006138
v 33.206071 1.242646 -36
v 32.14474 1.249349 -36
v 34.168331 1.202483 -30.603176
v 35.186164 1.1986 -31.006138
vn 0.006316 0.99996 0.006316
vn 0.006316 0.99996 0.006316
vn 0.006316 0.99996 0.006316
vn 0.006316 0.99996 0.006316
vn 0.006316 0.99996 0.006316
vn 0.006316 0.99996 0.006316
vn 0.006316 0.99996 0.006316
vn 0.006316 0.99996 0.006316
vn 0.006316 0.99996 0.006316
vn 0.006316 0.99996 0.006316
vn 0.006316 0.99996 0.006316
vn 0.006316 0.99996 0.006316
vn 0.006316 0.99996 0.006316
vn 0.006316 0.99996 0.006316
vn 0.006316 0.99996 0.006316
vn 0.006316 0.99996 0.006316
vn 0.006316 0.99996 0.006316
vn 0.006316 0.99996 0.006316
vn 0.006316 0.99996 0.006316
vn 0.006316 0.99996 0.006316
vn 0.006316 0.99996 0.006316
vn 0.006316 0.99996 0.006316
vn 0.006316 0.99996 0.006316
vn 0.01015 0.999929 0.006315
vn 0.006316 0.99996 0.006316
vn 0.006316 0.99996 0.006316
vn 0.006316 0.99996 0.006316
vn 0.006316 0.99996 0.006316
vn 0.006316 0.99996 0.006316
vn 0.006316 0.99996 0.006316
vn 0.006315 0.999916 0.011277
vn 0.008947 0.999932 0.007518
vn 0.01015 0.999929 0.006315
vn 0.01015 0.999929 0.006315
vn 0.01015 0.999929 0.006315
vn 0.006316 0.99996 0.006316
vn 0.006316 0.99996 0.006316
vn 0.006316 0.99996 0.006316
vn 0.006316 0.99996 0.006316
vn 0.006315 0.999916 0.011277
vn 0.006315 0.999916 0.011277
vn 0.006315 0.999916 0.011277
vn 0.008947 0.999932 0.007518
vn 0.008947 0.999932 0.007518
vn 0.01015 0.999929 0.006315
vn 0.006316 0.99996 0.006316
vn 0.006316 0.99996 0.006316
vn 0.006315 0.999916 0.011277
vn 0.006315 0.999916 0.011277
vn 0.006316 0.99996 0.006316
vn 0.006316 0.99996 0.006316
vn 0.006316 0.99996 0.006316
vn 0.006316 0.99996 0.006316
vn 0.006315 0.999916 0.011277
vn 0.006315 0.999916 0.011277
vn 0.006316 0.99996 0.006316
vn 0.006316 0.99996 0.006316
vn 0.006316 0.99996 0.006316
vn 0.006316 0.99996 0.006316
vn 0.006315 0.999916 0.011277
vn 0.006315 0.999916 0.011277
vn 0.006316 0.99996 0.006316
vn 0.006316 0.999963 0.00591
vn 0.006316 0.999963 0.00591
vn 0.007579 0.999963 0.004105
vn 0.000406 0.999936 0.011277
vn 0.006316 0.99996 0.006316
vn 0.006316 0.99996 0.006316
vn 0.006316 0.99996 0.006316
vn 0.006316 0.99996 0.006316
vn 0.006316 0.99996 0.006316
vn 0.006316 0.999963 0.00591
vn 0.006316 0.99996 0.006316
vn 0.006316 0.99996 0.006316
vn 0.006316 0.99996 0.006316
vn 0.006316 0.99996 0.006316
vn 0.006316 0.999959 0.006464
vn 0.006316 0.99996 0.006316
vn 0.006316 0.99996 0.006316
vn 0.006316 0.99996 0.006316
vn 0.006316 0.99996 0.006316
vn 0.006316 0.99996 0.006316
vn 0.006316 0.999959 0.006464
vn 0.006316 0.999959 0.006464
vn 0.006316 0.99996 0.006316
vn 0.006316 0.99996 0.006316
vn 0.006316 0.99996 0.006316
vn 0.006316 0.99996 0.006316
vn 0.002599 0.999945 0.01018
vn 0.002599 0.999945 0.01018
vn 0.006316 0.999959 0.006464
vn 0.006316 0.999959 0.006464
vn 0.006316 0.99996 0.006316
vn 0.006315 0.999926 0.010387
vn 0.002728 0.999944 0.01018
vn 0.006316 0.99996 0.006316
vn 0.006316 0.99996 0.006316
vn 0.006316 0.99996 0.006316
vn 0.006316 0.99996 0.006316
vn 0.002599 0.999945 0.01018
vn 0.006315 0.999926 0.010387
vn 0.006315 0.999926 0.010387
vn 0.006315 0.999926 0.010387
vn 0.002728 0.999944 0.01018
vn 0.002728 0.999944 0.01018
vn 0.006316 0.99996 0.006316
vn 0.006316 0.99996 0.006316
vn 0.006316 0.99996 0.006316
vn 0.006316 0.99996 0.006316
vn 0.006315 0.999926 0.010387
vn 0.006315 0.999926 0.010387
vn 0.006316 0.99996 0.006316
vn 0.006316 0.99996 0.006316
vn 0.006316 0.99996 0.006316
vn 0.006316 0.99996 0.006316
vn 0.00353 0.999907 0.013173
vn 0.006315 0.999926 0.010387
vn 0.006315 0.999926 0.010387
vn 0.006315 0.999926 0.010387
vn 0.006316 0.99996 0.006316
vn 0.006316 0.99996 0.006316
vn 0.006411 0.999919 0.011038
vn 0.006411 0.999919 0.011038
vn 0.00353 0.999907 0.013173
vn 0.00353 0.999907 0.013173
vn 0.006315 0.999926 0.010387
vn 0.006316 0.99996 0.006316
vn 0.006316 0.99996 0.006316
vn 0.006315 0.999919 0.011038
vn 0.006316 0.99996 0.006316
vn 0.006316 0.99996 0.006316
vn 0.006316 0.99996 0.006316
vn 0.006411 0.999919 0.011038
vn 0.006315 0.999919 0.011038
vn 0.006315 0.999919 0.011038
vn 0.006315 0.999919 0.011038
vn 0.006316 0.99996 0.006316
vn 0.006316 0.99996 0.006316
vn 0.006316 0.99996 0.006316
vn 0.006316 0.99996 0.006316
vn 0.011038 0.999919 0.006315
vn 0.006315 0.999919 0.011038
vn 0.006315 0.999919 0.011038
vn 0.006315 0.999919 0.011038
vn 0.006316 0.99996 0.006316
vn 0.006316 0.99996 0.006316
vn 0.011038 0.999919 0.006315
vn 0.011038 0.999919 0.006315
vn 0.006315 0.999919 0.011038
vn 0.006315 0.999919 0.011038
vn 0.006316 0.99996 0.006316
vn 0.006316 0.99996 0.006316
vn 0.011038 0.999919 0.006315
vn 0.011038 0.999919 0.006315
vn 0.011038 0.999919 0.006315
vn 0.011038 0.999919 0.006315
vn 0.006315 0.999919 0.011038
vn 0.006315 0.999919 0.011038
vn 0.006316 0.99996 0.006316
vn 0.006316 0.99996 0.006316
vn 0.011038 0.999919 0.006315
vn 0.006316 0.99996 0.006316
vn 0.006316 0.99996 0.006316
vn 0.006316 0.99996 0.006316
vn 0.006316 0.99996 0.006316
vn 0.006316 0.99996 0.006316
vn 0.006316 0.99996 0.006316
vn 0.006316 0.99996 0.006316
vn 0.006316 0.99996 0.006316
vn 0.006316 0.99996 0.006316
vn 0.006316 0.99996 0.006316
vn 0.006316 0.99996 0.006316
vn 0.006316 0.99996 0.006316
vn 0.006316 0.99996 0.006316
vn 0.006316 0.99996 0.006316
vn 0.006316 0.99996 0.006316
vn 0.006316 0.99996 0.006316
vn 0.006316 0.99996 0.006316
vn 0.006316 0.99996 0.006316
vn 0.006316 0.99996 0.006316
f 1//1 2//1 3//1
f 4//2 5//2 6//2
f 7//3 8//3 9//3
f 10//4 11//4 12//4
f 13//5 14//5 15//5
f 16//6 17//6 18//6
f 19//7 20//7 21//7
f 22//8 23//8 24//8
f 25//9 26//9 27//9
f 28//10 29//10 30//10
f 31//11 32//11 33//11
f 34//12 35//12 36//12
f 37//13 38//13 39//13
f 40//14 41//14 42//14
f 43//15 44//15 45//15
f 46//16 47//16 48//16
f 49//17 50//17 51//17
f 52//18 53//18 54//18
f 55//19 56//19 57//19
f 58//20 59//20 60//20
f 61//21 62//21 63//21
f 64//22 65//22 66//22
f 67//23 68//23 69//23
f 70//24 71//24 72//24
f 73//25 74//25 75//25
f 76//26 77//26 78//26
f 79//27 80//27 81//27
f 82//28 83//28 84//28
f 85//29 86//29 87//29
f 88//30 89//30 90//30
f 91//31 92//31 93//31
f 94//32 95//32 96//32
f 97//33 98//33 99//33
f 100//34 101//34 102//34
f 103//35 104//35 105//35
f 106//36 107//36 108//36
f 109//37 110//37 111//37
f 112//38 113//38 114//38
f 115//39 116//39 117//39
f 118//40 119//40 120//40
f 121//41 122//41 123//41
f 124//42 125//42 126//42
f 127//43 128//43 129//43
f 130//44 131//44 132//44
f 133//45 134//45 135//45
f 136//46 137//46 138//46
f 139//47 140//47 141//47
f 142//48 143//48 144//48
f 145//49 146//49 147//49
f 148//50 149//50 150//50
f 151//51 152//51 153//51
f 154//52 155//52 156//52
f 157//53 158//53 159//53
f 160//54 161//54 162//54
f 163//55 164//55 165//55
f 166//56 167//56 168//56
f 169//57 170//57 171//57
f 172//58 173//58 174//58
f 175//59 176//59 177//59
f 178//60 179//60 180//60
f 181//61 182//61 183//61
f 184//62 185//62 186//62
f 187//63 188//63 189//63
f 190//64 191//64 192//64
f 193//65 194//65 195//65
f 196//66 197//66 198//66
f 199//67 200//67 201//67
f 202//68 203//68 204//68
f 205//69 206//69 207//69
f 208//70 209//70 210//70
f 211//71 212//71 213//71
f 214//72 215//72 216//72
f 217//73 218//73 219//73
f 220//74 221//74 222//74
f 223//75 224//75 225//75
f 226//76 227//76 228//76
f 229//77 230//77 231//77
f 232//78 233//78 234//78
f 235//79 236//79 237//79
f 238//80 239//80 240//80
f 241//81 242//81 243//81
f 244//82 245//82 246//82
f 247//83 248//83 249//83
f 250//84 251//84 252//84
f 253//85 254//85 255//85
f 256//86 257//86 258//86
f 259//87 260//87 261//87
f 262//88 263//88 264//88
f 265//89 266//89 267//89
f 268//90 269//90 270//90
f 271//91 272//91 273//91
f 274//92 275//92 276//92
f 277//93 278//93 279//93
f 280//94 281//94 282//94
f 283//95 284//95 285//95
f 286//96 287//96 288//96
f 289//97 290//97 291//97
f 292//98 293//98 294//98
f 295//99 296//99 297//99
f 298//100 299//100 300//100
f 301//101 302//101 303//101
f 304//102 305//102 306//102
f 307//103 308//103 309//103
f 310//104 311//104 312//104
f 313//105 314//105 315//105
f 316//106 317//106 318//106
f 319//107 320//107 321//107
f 322//108 323//108 324//108
f 325//109 326//109 327//109
f 328//110 329//110 330//110
f 331//111 332//111 333//111
f 334//112 335//112 336//112
f 337//113 338//113 339//113
f 340//114 341//114 342//114
f 343//115 344//115 345//115
f 346//116 347//116 348//116
f 349//117 350//117 351//117
f 352//118 353//118 354//118
f 355//119 356//119 357//119
f 358//120 359//120 360//120
f 361//121 362//121 363//121
f 364//122 365//122 366//122
f 367//123 368//123 369//123
f 370//124 371//124 372//124
f 373//125 374//125 375//125
f 376//126 377//126 378//126
f 379//127 380//127 381//127
f 382//128 383//128 384//128
f 385//129 386//129 387//129
f 388//130 389//130 390//130
f 391//131 392//131 393//131
f 394//132 395//132 396//132
f 397//133 398//133 399//133
f 400//134 401//134 402//134
f 403//135 404//135 405//135
f 406//136 407//136 408//136
f 409//137 410//137 411//137
f 412//138 413//138 414//138
f 415//139 416//139 417//139
f 418//140 419//140 420//140
f 421//141 422//141 423//141
f 424//142 425//142 426//142
f 427//143 428//143 429//143
f 430//144 431//144 432//144
f 433//145 434//145 435//145
f 436//146 437//146 438//146
f 439//147 440//147 441//147
f 442//148 443//148 444//148
f 445//149 446//149 447//149
f 448//150 449//150 450//150
f 451//151 452//151 453//151
f 454//152 455//152 456//152
f 457//153 458//153 459//153
f 460//154 461//154 462//154
f 463//155 464//155 465//155
f 466//156 467//156 468//156
f 469//157 470//157 471//157
f 472//158 473//158 474//158
f 475//159 476//159 477//159
f 478//160 479//160 480//160
f 481//161 482//161 483//161
f 484//162 485//162 486//162
f 487//163 488//163 489//163
f 490//164 491//164 492//164
f 493//165 494//165 495//165
f 496//166 497//166 498//166
f 499//167 500//167 501//167
f 502//168 503//168 504//168
f 505//169 506//169 507//169
f 508//170 509//170 510//170
f 511//171 512//171 513//171
f 514//172 515//172 516//172
f 517//173 518//173 519//173
f 520//174 521//174 522//174
f 523//175 524//175 525//175
f 526//176 527//176 528//176
f 529//177 530//177 531//177
f 532//178 533//178 534//178
f 535//179 536//179 537//179
f 538//180 539//180 540//180
