# Static Concept B graybox, metres, identity world transform.
v -9.637812 1.449411 -24.310578
v -8.462935 1.430971 -22.565799
v -8.613203 1.443249 -24.359516
v -9.637812 1.449411 -24.310578
v -9.547076 1.437484 -22.512867
v -8.462935 1.430971 -22.565799
v -7.63634 1.432512 -23.63634
v -7.760643 1.438496 -24.459488
v -8.386141 1.441983 -24.386141
v -8.386141 1.441983 -24.386141
v -7.491873 1.425557 -22.679667
v -7.63634 1.432512 -23.63634
v -8.386141 1.441983 -24.386141
v -8.462935 1.430971 -22.565799
v -7.491873 1.425557 -22.679667
v -8.386141 1.441983 -24.386141
v -8.613203 1.443249 -24.359516
v -8.462935 1.430971 -22.565799
v -6.806524 1.42203 -22.806524
v -7.760643 1.438496 -24.459488
v -7.63634 1.432512 -23.63634
v -6.806524 1.42203 -22.806524
v -6.91658 1.434151 -24.615722
v -7.760643 1.438496 -24.459488
v -6.806524 1.42203 -22.806524
v -6.530488 1.420609 -22.857617
v -6.91658 1.434151 -24.615722
v -7.63634 1.432512 -23.63634
v -7.491873 1.425557 -22.679667
v -6.806524 1.42203 -22.806524
v -6.91658 1.434151 -24.615722
v -5.583004 1.416149 -23.098867
v -6.084721 1.430235 -24.827532
v -6.91658 1.434151 -24.615722
v -6.530488 1.420609 -22.857617
v -5.583004 1.416149 -23.098867
v -6.084721 1.430235 -24.827532
v -4.615011 1.412039 -23.41611
v -5.208785 1.426521 -25.115355
v -6.084721 1.430235 -24.827532
v -5.583004 1.416149 -23.098867
v -4.615011 1.412039 -23.41611
v -4 1.421664 -25.555204
v -4.615011 1.412039 -23.41611
v -4 1.409567 -23.639845
v -4 1.421664 -25.555204
v -5.208785 1.426521 -25.115355
v -4.615011 1.412039 -23.41611
v -4 1.409567 -23.639845
v -3.440211 1.419415 -25.758899
v -4 1.421664 -25.555204
v -4 1.409567 -23.639845
v -2.825074 1.404846 -24.067271
v -3.440211 1.419415 -25.758899
v -1.147638 1.401075 -25.147638
v -1.611701 1.412066 -26.423812
v -2.207249 1.41446 -26.207249
v -2.207249 1.41446 -26.207249
v -0.996563 1.397497 -24.732184
v -1.147638 1.401075 -25.147638
v -2.207249 1.41446 -26.207249
v -2.825074 1.404846 -24.067271
v -0.996563 1.397497 -24.732184
v -2.207249 1.41446 -26.207249
v -3.440211 1.419415 -25.758899
v -2.825074 1.404846 -24.067271
v -0.802685 1.396718 -24.802685
v -1.611701 1.412066 -26.423812
v -1.147638 1.401075 -25.147638
v -0.802685 1.396718 -24.802685
v 0.216809 1.404717 -27.088725
v -1.611701 1.412066 -26.423812
v -0.802685 1.396718 -24.802685
v 0.831947 1.390148 -25.397097
v 0.216809 1.404717 -27.088725
v -1.147638 1.401075 -25.147638
v -0.996563 1.397497 -24.732184
v -0.802685 1.396718 -24.802685
v 0.216809 1.404717 -27.088725
v 2.660457 1.382799 -26.062009
v 2.04532 1.397368 -27.753638
v 0.216809 1.404717 -27.088725
v 0.831947 1.390148 -25.397097
v 2.660457 1.382799 -26.062009
v 4 1.386995 -28.071583
v 3.659418 1.390881 -28.340582
v 4 1.386579 -28
v 4 1.386995 -28.071583
v 3.87383 1.389872 -28.41855
v 3.659418 1.390881 -28.340582
v 3.659418 1.390881 -28.340582
v 2.722816 1.394645 -28
v 4 1.386579 -28
v 2.722816 1.394645 -28
v 4 1.377415 -26.549116
v 4 1.386579 -28
v 2.722816 1.394645 -28
v 2.660457 1.382799 -26.062009
v 4 1.377415 -26.549116
v 2.722816 1.394645 -28
v 2.04532 1.397368 -27.753638
v 2.660457 1.382799 -26.062009
v 4.02603 1.386415 -28
v 4.012995 1.386729 -28.035847
v 4 1.386579 -28
v 4.012995 1.386729 -28.035847
v 4 1.387031 -28.071583
v 4 1.386579 -28
v 4 1.386579 -28
v 4.040905 1.386062 -27.959095
v 4.02603 1.386415 -28
v 4 1.386579 -28
v 4.488968 1.37545 -26.726922
v 4.040905 1.386062 -27.959095
v 4 1.386579 -28
v 4 1.377415 -26.549116
v 4.488968 1.37545 -26.726922
v 4 1.389279 -28.46443
v 3.87383 1.389872 -28.41855
v 4 1.386995 -28.071583
v 6.096327 1.373339 -28
v 4.012995 1.386729 -28.035847
v 4.02603 1.386415 -28
v 6.096327 1.373339 -28
v 4.193924 1.388812 -28.534948
v 4.012995 1.386729 -28.035847
v 6.096327 1.373339 -28
v 5.70234 1.382831 -29.083463
v 4.193924 1.388812 -28.534948
v 4.193924 1.388812 -28.534948
v 4 1.387031 -28.071583
v 4.012995 1.386729 -28.035847
v 4.193924 1.388812 -28.534948
v 4 1.389512 -28.46443
v 4 1.387031 -28.071583
v 4.02603 1.386415 -28
v 6.317478 1.368101 -27.391835
v 6.096327 1.373339 -28
v 4.02603 1.386415 -28
v 5.063982 1.373139 -26.936018
v 6.317478 1.368101 -27.391835
v 4.02603 1.386415 -28
v 4.040905 1.386062 -27.959095
v 5.063982 1.373139 -26.936018
v 4.040905 1.386062 -27.959095
v 4.488968 1.37545 -26.726922
v 5.063982 1.373139 -26.936018
v 7.989931 1.361379 -28
v 5.70234 1.382831 -29.083463
v 6.096327 1.373339 -28
v 7.989931 1.361379 -28
v 7.530851 1.37558 -29.748376
v 5.70234 1.382831 -29.083463
v 7.989931 1.361379 -28
v 8.145988 1.360761 -28.056748
v 7.530851 1.37558 -29.748376
v 6.096327 1.373339 -28
v 6.317478 1.368101 -27.391835
v 7.989931 1.361379 -28
v 7.530851 1.37558 -29.748376
v 9.974499 1.35351 -28.721661
v 9.359361 1.368329 -30.413289
v 7.530851 1.37558 -29.748376
v 8.145988 1.360761 -28.056748
v 9.974499 1.35351 -28.721661
v 10.930648 1.349719 -29.069352
v 11.187871 1.3695 -31.078202
v 9.526084 1.367668 -30.473916
v 10.930648 1.349719 -29.069352
v 11.803009 1.35068 -29.386574
v 11.187871 1.3695 -31.078202
v 9.526084 1.367668 -30.473916
v 9.974499 1.35351 -28.721661
v 10.930648 1.349719 -29.069352
v 9.526084 1.367668 -30.473916
v 9.359361 1.368329 -30.413289
v 9.974499 1.35351 -28.721661
v 12 1.370396 -31.373521
v 11.803009 1.35068 -29.386574
v 12 1.350897 -29.458207
v 12 1.370396 -31.373521
v 11.187871 1.3695 -31.078202
v 11.803009 1.35068 -29.386574
v 12.086254 1.350982 -29.489572
v 13.016382 1.368517 -31.743115
v 12.199546 1.37059 -31.446083
v 12.086254 1.350982 -29.489572
v 13.631519 1.347059 -30.051487
v 13.016382 1.368517 -31.743115
v 12.199546 1.37059 -31.446083
v 12 1.350897 -29.458207
v 12.086254 1.350982 -29.489572
v 12.199546 1.37059 -31.446083
v 12 1.370396 -31.373521
v 12 1.350897 -29.458207
v 13.016382 1.368517 -31.743115
v 15.46003 1.342418 -30.716399
v 14.844892 1.363875 -32.408028
v 13.016382 1.368517 -31.743115
v 13.631519 1.347059 -30.051487
v 15.46003 1.342418 -30.716399
v 17.090079 1.347533 -31.927079
v 16.673402 1.362853 -33.07294
v 16.332788 1.36367 -32.949081
v 16.332788 1.36367 -32.949081
v 17.28854 1.339642 -31.381312
v 17.090079 1.347533 -31.927079
v 16.332788 1.36367 -32.949081
v 16.797315 1.339023 -31.202685
v 17.28854 1.339642 -31.381312
v 16.332788 1.36367 -32.949081
v 15.392751 1.362485 -32.607249
v 16.797315 1.339023 -31.202685
v 15.392751 1.362485 -32.607249
v 15.46003 1.342418 -30.716399
v 16.797315 1.339023 -31.202685
v 15.392751 1.362485 -32.607249
v 14.844892 1.363875 -32.408028
v 15.46003 1.342418 -30.716399
v 17.450773 1.339847 -31.440306
v 16.673402 1.362853 -33.07294
v 17.090079 1.347533 -31.927079
v 17.450773 1.339847 -31.440306
v 18.501913 1.35847 -33.737853
v 16.673402 1.362853 -33.07294
v 17.450773 1.339847 -31.440306
v 19.11705 1.335852 -32.046225
v 18.501913 1.35847 -33.737853
v 17.090079 1.347533 -31.927079
v 17.28854 1.339642 -31.381312
v 17.450773 1.339847 -31.440306
v 20 1.354878 -34.282612
v 19.11705 1.335852 -32.046225
v 20 1.333736 -32.367298
v 20 1.354878 -34.282612
v 18.501913 1.35847 -33.737853
v 19.11705 1.335852 -32.046225
v 20 1.333736 -32.367298
v 20.330423 1.354118 -34.402766
v 20 1.354878 -34.282612
v 20 1.333736 -32.367298
v 20.945561 1.331559 -32.711138
v 20.330423 1.354118 -34.402766
v 22.663982 1.327604 -33.336018
v 22.158933 1.344116 -35.067679
v 21.259418 1.351979 -34.740582
v 22.663982 1.327604 -33.336018
v 22.774071 1.326642 -33.376051
v 22.158933 1.344116 -35.067679
v 21.259418 1.351979 -34.740582
v 20.945561 1.331559 -32.711138
v 22.663982 1.327604 -33.336018
v 21.259418 1.351979 -34.740582
v 20.330423 1.354118 -34.402766
v 20.945561 1.331559 -32.711138
v 22.158933 1.344116 -35.067679
v 24.602581 1.310657 -34.040964
v 23.987444 1.328131 -35.732592
v 22.158933 1.344116 -35.067679
v 22.774071 1.326642 -33.376051
v 24.602581 1.310657 -34.040964
v 25.960501 1.30804 -36
v 25.815954 1.310469 -36.397505
v 24.722816 1.321702 -36
v 24.722816 1.321702 -36
v 26.431092 1.294672 -34.705876
v 25.960501 1.30804 -36
v 24.722816 1.321702 -36
v 24.602581 1.310657 -34.040964
v 26.431092 1.294672 -34.705876
v 24.722816 1.321702 -36
v 23.987444 1.328131 -35.732592
v 24.602581 1.310657 -34.040964
v 28 1.286061 -36.084695
v 27.126084 1.297005 -36.873916
v 28 1.285526 -36
v 28 1.286061 -36.084695
v 27.644464 1.294661 -37.062417
v 27.126084 1.297005 -36.873916
v 27.126084 1.297005 -36.873916
v 25.960501 1.30804 -36
v 28 1.285526 -36
v 27.126084 1.297005 -36.873916
v 25.815954 1.310469 -36.397505
v 25.960501 1.30804 -36
v 25.960501 1.30804 -36
v 28 1.280956 -35.276389
v 28 1.285526 -36
v 25.960501 1.30804 -36
v 26.431092 1.294672 -34.705876
v 28 1.280956 -35.276389
v 28.030798 1.285332 -36
v 28 1.286061 -36.084695
v 28 1.285526 -36
v 28 1.285526 -36
v 28.048397 1.284915 -35.951603
v 28.030798 1.285332 -36
v 28 1.285526 -36
v 28.259602 1.279913 -35.370789
v 28.048397 1.284915 -35.951603
v 28 1.285526 -36
v 28 1.280956 -35.276389
v 28.259602 1.279913 -35.370789
v 28 1.293053 -37.191703
v 27.644464 1.294661 -37.062417
v 28 1.286061 -36.084695
v 29.989931 1.272958 -36
v 28 1.286061 -36.084695
v 28.030798 1.285332 -36
v 29.989931 1.272958 -36
v 28 1.293053 -37.191703
v 28 1.286061 -36.084695
v 29.989931 1.272958 -36
v 29.472975 1.287133 -37.72733
v 28 1.293053 -37.191703
v 29.989931 1.272958 -36
v 30.088112 1.272564 -36.035702
v 29.472975 1.287133 -37.72733
v 28.030798 1.285332 -36
v 28.530648 1.278823 -35.469352
v 29.989931 1.272958 -36
v 28.030798 1.285332 -36
v 28.048397 1.284915 -35.951603
v 28.530648 1.278823 -35.469352
v 28.048397 1.284915 -35.951603
v 28.259602 1.279913 -35.370789
v 28.530648 1.278823 -35.469352
v 29.472975 1.287133 -37.72733
v 31.886244 1.265336 -36.689397
v 31.254282 1.279972 -38.374811
v 29.472975 1.287133 -37.72733
v 30.088112 1.272564 -36.035702
v 31.886244 1.265336 -36.689397
v 31.254282 1.279972 -38.374811
v 32.790339 1.261894 -37.04849
v 32.12688 1.276652 -38.721757
v 31.254282 1.279972 -38.374811
v 31.886244 1.265336 -36.689397
v 32.790339 1.261894 -37.04849
v -7.904925 1.385378 -15.904925
v -7.920303 1.386634 -16.088489
v -8.080198 1.387592 -16.080198
v -8.080198 1.387592 -16.080198
v -7.770035 1.374357 -14.294772
v -7.904925 1.385378 -15.904925
v -8.080198 1.387592 -16.080198
v -9.128682 1.382487 -14.223419
v -7.770035 1.374357 -14.294772
v -8.080198 1.387592 -16.080198
v -9.219418 1.394414 -16.021131
v -9.128682 1.382487 -14.223419
v -6.449607 1.366995 -14.449607
v -7.920303 1.386634 -16.088489
v -7.904925 1.385378 -15.904925
v -6.449607 1.366995 -14.449607
v -6.521315 1.378835 -16.252536
v -7.920303 1.386634 -16.088489
v -6.449607 1.366995 -14.449607
v -6.252545 1.365896 -14.472715
v -6.521315 1.378835 -16.252536
v -7.904925 1.385378 -15.904925
v -7.770035 1.374357 -14.294772
v -6.449607 1.366995 -14.449607
v -6.521315 1.378835 -16.252536
v -4.750177 1.358164 -14.7508
v -5.136268 1.371706 -16.508905
v -6.521315 1.378835 -16.252536
v -6.252545 1.365896 -14.472715
v -4.750177 1.358164 -14.7508
v -4 1.366357 -16.798223
v -4.750177 1.358164 -14.7508
v -4 1.354632 -14.941811
v -4 1.366357 -16.798223
v -5.136268 1.371706 -16.508905
v -4.750177 1.358164 -14.7508
v -4 1.354632 -14.941811
v -3.771249 1.364403 -16.856469
v -4 1.366357 -16.798223
v -4 1.354632 -14.941811
v -3.269532 1.348393 -15.127804
v -3.771249 1.364403 -16.856469
v -3.771249 1.364403 -16.856469
v -1.877054 1.337119 -15.580704
v -2.470827 1.353878 -17.279949
v -3.771249 1.364403 -16.856469
v -3.269532 1.348393 -15.127804
v -1.877054 1.337119 -15.580704
v -0.439845 1.335987 -17.507891
v -0.603744 1.342106 -17.958614
v -0.919678 1.342806 -17.843775
v -0.919678 1.342806 -17.843775
v 0.011394 1.32262 -16.266985
v -0.439845 1.335987 -17.507891
v -0.919678 1.342806 -17.843775
v -0.192785 1.323889 -16.192785
v 0.011394 1.32262 -16.266985
v -0.919678 1.342806 -17.843775
v -1.597422 1.347018 -17.597422
v -0.192785 1.323889 -16.192785
v -1.597422 1.347018 -17.597422
v -1.877054 1.337119 -15.580704
v -0.192785 1.323889 -16.192785
v -1.597422 1.347018 -17.597422
v -2.470827 1.353878 -17.279949
v -1.877054 1.337119 -15.580704
v 0.881088 1.317216 -16.583238
v -0.603744 1.342106 -17.958614
v -0.439845 1.335987 -17.507891
v 0.881088 1.317216 -16.583238
v 1.224766 1.338056 -18.623526
v -0.603744 1.342106 -17.958614
v 0.881088 1.317216 -16.583238
v 1.839904 1.315093 -16.931898
v 1.224766 1.338056 -18.623526
v -0.439845 1.335987 -17.507891
v 0.011394 1.32262 -16.266985
v 0.881088 1.317216 -16.583238
v 1.224766 1.338056 -18.623526
v 3.668414 1.311043 -17.596811
v 3.053277 1.334007 -19.288439
v 1.224766 1.338056 -18.623526
v 1.839904 1.315093 -16.931898
v 3.668414 1.311043 -17.596811
v 4 1.33191 -19.632702
v 3.668414 1.311043 -17.596811
v 4 1.310309 -17.717388
v 4 1.33191 -19.632702
v 3.053277 1.334007 -19.288439
v 3.668414 1.311043 -17.596811
v 5.16013 1.323926 -19.187909
v 4.881787 1.330208 -19.953352
v 4.345323 1.332443 -19.758274
v 4.345323 1.332443 -19.758274
v 5.35901 1.320174 -18.64099
v 5.16013 1.323926 -19.187909
v 4.345323 1.332443 -19.758274
v 4.269352 1.332905 -19.730648
v 5.35901 1.320174 -18.64099
v 4.269352 1.332905 -19.730648
v 5.496925 1.31584 -18.261724
v 5.35901 1.320174 -18.64099
v 4.269352 1.332905 -19.730648
v 4 1.310309 -17.717388
v 5.496925 1.31584 -18.261724
v 4.269352 1.332905 -19.730648
v 4 1.33191 -19.632702
v 4 1.310309 -17.717388
v 6.935121 1.317515 -20
v 6.710297 1.32284 -20.618265
v 5.010069 1.329673 -20
v 5.010069 1.329673 -20
v 7.325435 1.308707 -18.926637
v 6.935121 1.317515 -20
v 5.010069 1.329673 -20
v 6.146046 1.313621 -18.497768
v 7.325435 1.308707 -18.926637
v 5.010069 1.329673 -20
v 5.16013 1.323926 -19.187909
v 6.146046 1.313621 -18.497768
v 5.010069 1.329673 -20
v 4.881787 1.330208 -19.953352
v 5.16013 1.323926 -19.187909
v 5.16013 1.323926 -19.187909
v 5.673916 1.316494 -18.326084
v 6.146046 1.313621 -18.497768
v 5.16013 1.323926 -19.187909
v 5.35901 1.320174 -18.64099
v 5.673916 1.316494 -18.326084
v 5.35901 1.320174 -18.64099
v 5.496925 1.31584 -18.261724
v 5.673916 1.316494 -18.326084
v 9.005418 1.304439 -20
v 6.710297 1.32284 -20.618265
v 6.935121 1.317515 -20
v 9.005418 1.304439 -20
v 8.538808 1.315491 -21.283178
v 6.710297 1.32284 -20.618265
v 6.935121 1.317515 -20
v 9.153945 1.301088 -19.59155
v 9.005418 1.304439 -20
v 6.935121 1.317515 -20
v 7.325435 1.308707 -18.926637
v 9.153945 1.301088 -19.59155
v 10.547552 1.303873 -21.452448
v 10.367318 1.308142 -21.948091
v 10.136018 1.309071 -21.863982
v 10.136018 1.309071 -21.863982
v 10.982456 1.293573 -20.256463
v 10.547552 1.303873 -21.452448
v 10.136018 1.309071 -21.863982
v 10.277184 1.296407 -20
v 10.982456 1.293573 -20.256463
v 10.136018 1.309071 -21.863982
v 9.005418 1.304439 -20
v 10.277184 1.296407 -20
v 10.136018 1.309071 -21.863982
v 8.538808 1.315491 -21.283178
v 9.005418 1.304439 -20
v 9.005418 1.304439 -20
v 9.153945 1.301088 -19.59155
v 10.277184 1.296407 -20
v 12 1.30158 -22.541793
v 11.540582 1.291329 -20.459418
v 12 1.289483 -20.626479
v 12 1.30158 -22.541793
v 10.547552 1.303873 -21.452448
v 11.540582 1.291329 -20.459418
v 12 1.30158 -22.541793
v 10.367318 1.308142 -21.948091
v 10.547552 1.303873 -21.452448
v 10.547552 1.303873 -21.452448
v 10.982456 1.293573 -20.256463
v 11.540582 1.291329 -20.459418
v 12 1.289483 -20.626479
v 12.195828 1.300793 -22.613004
v 12 1.30158 -22.541793
v 12 1.289483 -20.626479
v 12.810966 1.286224 -20.921375
v 12.195828 1.300793 -22.613004
v 12.195828 1.300793 -22.613004
v 14.639476 1.278875 -21.586288
v 14.024339 1.293444 -23.277916
v 12.195828 1.300793 -22.613004
v 12.810966 1.286224 -20.921375
v 14.639476 1.278875 -21.586288
v 14.024339 1.293444 -23.277916
v 16.467987 1.271526 -22.251201
v 15.852849 1.286095 -23.942829
v 14.024339 1.293444 -23.277916
v 14.639476 1.278875 -21.586288
v 16.467987 1.271526 -22.251201
v 17.407249 1.267751 -22.592751
v 17.681359 1.278746 -24.607742
v 16.002685 1.285492 -23.997315
v 17.407249 1.267751 -22.592751
v 18.296497 1.264177 -22.916114
v 17.681359 1.278746 -24.607742
v 16.002685 1.285492 -23.997315
v 16.467987 1.271526 -22.251201
v 17.407249 1.267751 -22.592751
v 16.002685 1.285492 -23.997315
v 15.852849 1.286095 -23.942829
v 16.467987 1.271526 -22.251201
v 20 1.259788 -23.924797
v 18.296497 1.264177 -22.916114
v 20 1.25733 -23.53557
v 20 1.259788 -23.924797
v 17.681359 1.278746 -24.607742
v 18.296497 1.264177 -22.916114
v 20 1.259788 -23.924797
v 19.50987 1.271397 -25.272655
v 17.681359 1.278746 -24.607742
v 20 1.25733 -23.53557
v 20.125007 1.256827 -23.581027
v 20 1.259788 -23.924797
v 20 1.269427 -25.450884
v 19.50987 1.271397 -25.272655
v 20 1.259788 -23.924797
v 20 1.259788 -23.924797
v 21.33838 1.264048 -25.937568
v 20 1.269427 -25.450884
v 20 1.259788 -23.924797
v 21.953518 1.249478 -24.24594
v 21.33838 1.264048 -25.937568
v 20 1.259788 -23.924797
v 20.125007 1.256827 -23.581027
v 21.953518 1.249478 -24.24594
v 23.273916 1.244172 -24.726084
v 23.16689 1.256698 -26.602481
v 21.869352 1.261913 -26.130648
v 23.273916 1.244172 -24.726084
v 23.782028 1.242129 -24.910852
v 23.16689 1.256698 -26.602481
v 21.869352 1.261913 -26.130648
v 21.953518 1.249478 -24.24594
v 23.273916 1.244172 -24.726084
v 21.869352 1.261913 -26.130648
v 21.33838 1.264048 -25.937568
v 21.953518 1.249478 -24.24594
v 23.16689 1.256698 -26.602481
v 25.610538 1.23478 -25.575765
v 24.995401 1.249349 -27.267394
v 23.16689 1.256698 -26.602481
v 23.782028 1.242129 -24.910852
v 25.610538 1.23478 -25.575765
v 24.995401 1.249349 -27.267394
v 27.439049 1.227431 -26.240678
v 26.823911 1.242 -27.932306
v 24.995401 1.249349 -27.267394
v 25.610538 1.23478 -25.575765
v 27.439049 1.227431 -26.240678
v 28 1.237274 -28.359975
v 27.736018 1.239581 -28.263982
v 28 1.235 -28
v 27.736018 1.239581 -28.263982
v 27.010069 1.241252 -28
v 28 1.235 -28
v 27.010069 1.241252 -28
v 28 1.225177 -26.44466
v 28 1.235 -28
v 27.010069 1.241252 -28
v 27.439049 1.227431 -26.240678
v 28 1.225177 -26.44466
v 27.010069 1.241252 -28
v 26.823911 1.242 -27.932306
v 27.439049 1.227431 -26.240678
v 28.869592 1.229508 -28
v 28 1.237274 -28.359975
v 28 1.235 -28
v 28.869592 1.229508 -28
v 28.652421 1.234651 -28.597219
v 28 1.237274 -28.359975
v 28 1.235 -28
v 29.267559 1.220082 -26.905591
v 28.869592 1.229508 -28
v 28 1.235 -28
v 29.140582 1.220593 -26.859418
v 29.267559 1.220082 -26.905591
v 28 1.235 -28
v 28 1.225177 -26.44466
v 29.140582 1.220593 -26.859418
v 30.939889 1.216432 -28
v 28.652421 1.234651 -28.597219
v 28.869592 1.229508 -28
v 30.939889 1.216432 -28
v 30.480932 1.227302 -29.262132
v 28.652421 1.234651 -28.597219
v 28.869592 1.229508 -28
v 31.096069 1.212733 -27.570504
v 30.939889 1.216432 -28
v 28.869592 1.229508 -28
v 29.267559 1.220082 -26.905591
v 31.096069 1.212733 -27.570504
v 32.277184 1.207986 -28
v 30.480932 1.227302 -29.262132
v 30.939889 1.216432 -28
v 32.277184 1.207986 -28
v 32.309442 1.219953 -29.927045
v 30.480932 1.227302 -29.262132
v 32.277184 1.207986 -28
v 32.92458 1.205384 -28.235417
v 32.309442 1.219953 -29.927045
v 30.939889 1.216432 -28
v 31.096069 1.212733 -27.570504
v 32.277184 1.207986 -28
v 34.631156 1.201764 -29.368844
v 34.168331 1.212483 -30.603176
v 33.602597 1.214757 -30.397403
v 33.602597 1.214757 -30.397403
v 34.800294 1.197847 -28.917761
v 34.631156 1.201764 -29.368844
v 33.602597 1.214757 -30.397403
v 32.92458 1.205384 -28.235417
v 34.800294 1.197847 -28.917761
v 33.602597 1.214757 -30.397403
v 32.309442 1.219953 -29.927045
v 32.92458 1.205384 -28.235417
v 35.002319 1.197076 -28.997681
v 34.168331 1.212483 -30.603176
v 34.631156 1.201764 -29.368844
v 35.002319 1.197076 -28.997681
v 35.186164 1.2086 -31.006138
v 34.168331 1.212483 -30.603176
v 35.002319 1.197076 -28.997681
v 35.849623 1.193842 -29.332871
v 35.186164 1.2086 -31.006138
v 34.631156 1.201764 -29.368844
v 34.800294 1.197847 -28.917761
v 35.002319 1.197076 -28.997681
vn 0.006316 0.99996 0.006316
vn 0.006316 0.99996 0.006316
vn 0.006316 0.99996 0.006316
vn 0.006316 0.99996 0.006316
vn 0.006316 0.99996 0.006316
vn 0.006316 0.99996 0.006316
vn 0.006316 0.99996 0.006316
vn 0.006316 0.99996 0.006316
vn 0.006316 0.99996 0.006316
vn 0.006316 0.99996 0.006316
vn 0.006316 0.99996 0.006316
vn 0.006316 0.99996 0.006316
vn 0.006316 0.99996 0.006316
vn 0.006316 0.99996 0.006316
vn 0.006316 0.99996 0.006316
vn 0.006316 0.99996 0.006316
vn 0.006316 0.99996 0.006316
vn 0.006316 0.99996 0.006316
vn 0.006316 0.99996 0.006316
vn 0.006316 0.99996 0.006316
vn 0.006316 0.99996 0.006316
vn 0.006316 0.99996 0.006316
vn 0.006316 0.99996 0.006316
vn 0.006316 0.99996 0.006316
vn 0.006316 0.99996 0.006316
vn 0.006316 0.99996 0.006316
vn 0.006316 0.99996 0.006316
vn 0.006316 0.99996 0.006316
vn 0.006819 0.99996 0.005812
vn 0.006819 0.99996 0.005812
vn 0.006316 0.99996 0.006316
vn 0.006316 0.99996 0.006316
vn 0.006316 0.99996 0.006316
vn 0.006316 0.99996 0.006316
vn 0.006316 0.999959 0.006464
vn 0.005907 0.999963 0.006316
vn 0.006316 0.99996 0.006316
vn 0.006316 0.99996 0.006316
vn 0.006316 0.99996 0.006316
vn 0.006819 0.99996 0.005812
vn 0.006316 0.999959 0.006464
vn 0.006316 0.999959 0.006464
vn 0.006316 0.999959 0.006464
vn 0.005907 0.999963 0.006316
vn 0.005907 0.999963 0.006316
vn 0.006316 0.99996 0.006316
vn 0.006316 0.99996 0.006316
vn 0.006316 0.99996 0.006316
vn 0.006316 0.99996 0.006316
vn 0.006316 0.999959 0.006464
vn 0.006316 0.999959 0.006464
vn 0.006316 0.999959 0.006464
vn 0.006316 0.99996 0.006316
vn 0.006316 0.999959 0.006464
vn 0.006316 0.999959 0.006464
vn 0.002599 0.999945 0.01018
vn 0.002599 0.999945 0.01018
vn 0.006316 0.999959 0.006464
vn 0.006316 0.999959 0.006464
vn 0.002599 0.999945 0.01018
vn 0.002599 0.999945 0.01018
vn 0.006315 0.999926 0.010387
vn 0.006315 0.999926 0.010387
vn 0.002728 0.999944 0.01018
vn 0.002728 0.999944 0.01018
vn 0.006315 0.999926 0.010387
vn 0.006315 0.999926 0.010387
vn 0.006411 0.999919 0.011038
vn 0.00353 0.999907 0.013173
vn 0.00353 0.999907 0.013173
vn 0.00353 0.999907 0.013173
vn 0.006315 0.999926 0.010387
vn 0.006315 0.999926 0.010387
vn 0.006411 0.999919 0.011038
vn 0.006411 0.999919 0.011038
vn 0.006411 0.999919 0.011038
vn 0.00353 0.999907 0.013173
vn 0.006411 0.999919 0.011038
vn 0.006411 0.999919 0.011038
vn 0.006315 0.999919 0.011038
vn 0.006315 0.999919 0.011038
vn 0.011038 0.999919 0.006315
vn 0.011038 0.999919 0.006315
vn 0.006315 0.999919 0.011038
vn 0.006315 0.999919 0.011038
vn 0.011038 0.999919 0.006315
vn 0.011038 0.999919 0.006315
vn 0.011038 0.999937 0.002096
vn 0.011038 0.999919 0.006315
vn 0.011038 0.999919 0.006315
vn 0.011038 0.999919 0.006315
vn 0.006819 0.999957 0.006316
vn 0.006819 0.999957 0.006316
vn 0.011038 0.999937 0.002096
vn 0.011038 0.999937 0.002096
vn 0.011038 0.999919 0.006315
vn 0.011038 0.999919 0.006315
vn 0.006316 0.99996 0.006316
vn 0.006316 0.99996 0.006316
vn 0.006316 0.99996 0.006316
vn 0.006316 0.99996 0.006316
vn 0.006819 0.999957 0.006316
vn 0.006316 0.99996 0.006316
vn 0.006316 0.99996 0.006316
vn 0.006316 0.99996 0.006316
vn 0.006316 0.99996 0.006316
vn 0.006316 0.99996 0.006316
vn 0.006316 0.99996 0.006316
vn 0.006316 0.99996 0.006316
vn 0.006316 0.99996 0.006316
vn 0.006316 0.99996 0.006316
vn 0.006316 0.99996 0.006316
vn 0.006316 0.99996 0.006316
vn 0.006316 0.99996 0.006316
vn 0.006316 0.99996 0.006316
vn 0.006316 0.99996 0.006316
vn 0.006316 0.99996 0.006316
vn 0.006316 0.99996 0.006316
vn 0.006316 0.99996 0.006316
vn 0.006316 0.99996 0.006316
vn 0.006316 0.99996 0.006316
vn 0.006316 0.99996 0.006316
vn 0.006316 0.99996 0.006316
vn 0.006316 0.99996 0.006316
vn 0.006316 0.99996 0.006316
vn 0.01015 0.999929 0.006315
vn 0.01015 0.999929 0.006315
vn 0.01015 0.999929 0.006315
vn 0.01015 0.999929 0.006315
vn 0.006315 0.999916 0.011277
vn 0.008947 0.999932 0.007518
vn 0.008947 0.999932 0.007518
vn 0.008947 0.999932 0.007518
vn 0.01015 0.999929 0.006315
vn 0.01015 0.999929 0.006315
vn 0.006315 0.999916 0.011277
vn 0.006315 0.999916 0.011277
vn 0.006315 0.999916 0.011277
vn 0.008947 0.999932 0.007518
vn 0.006315 0.999916 0.011277
vn 0.006315 0.999916 0.011277
vn 0.006315 0.999916 0.011277
vn 0.006315 0.999916 0.011277
vn 0.006316 0.999963 0.00591
vn 0.007579 0.999963 0.004105
vn 0.007579 0.999963 0.004105
vn 0.000406 0.999936 0.011277
vn 0.000406 0.999936 0.011277
vn 0.000406 0.999936 0.011277
vn 0.006316 0.99996 0.006316
vn 0.006316 0.999963 0.00591
vn 0.006316 0.999963 0.00591
vn 0.006316 0.999963 0.00591
vn 0.006316 0.999963 0.00591
vn 0.007579 0.999963 0.004105
vn 0.007579 0.999963 0.004105
vn 0.000406 0.999936 0.011277
vn 0.006316 0.99996 0.006316
vn 0.006316 0.99996 0.006316
vn 0.006316 0.999963 0.00591
vn 0.006316 0.999963 0.00591
vn 0.006316 0.99996 0.006316
vn 0.006316 0.99996 0.006316
vn 0.006316 0.99996 0.006316
vn 0.006316 0.99996 0.006316
vn 0.006316 0.99996 0.006316
vn 0.006316 0.999963 0.00591
vn 0.006316 0.99996 0.006316
vn 0.006316 0.99996 0.006316
vn 0.006316 0.99996 0.006316
vn 0.006316 0.99996 0.006316
vn 0.006316 0.99996 0.006316
vn 0.006316 0.99996 0.006316
vn 0.006316 0.99996 0.006316
vn 0.006316 0.99996 0.006316
vn 0.006316 0.99996 0.006316
vn 0.006316 0.99996 0.006316
vn 0.006316 0.99996 0.006316
vn 0.006316 0.99996 0.006316
vn 0.006316 0.99996 0.006316
vn 0.006316 0.99996 0.006316
vn 0.006316 0.99996 0.006316
vn 0.006316 0.99996 0.006316
vn 0.006316 0.99996 0.006316
vn 0.006316 0.99996 0.006316
vn 0.006316 0.99996 0.006316
vn 0.006316 0.99996 0.006316
vn 0.006316 0.99996 0.006316
vn 0.006316 0.99996 0.006316
vn 0.006316 0.99996 0.006316
vn 0.006316 0.99996 0.006316
vn 0.006316 0.99996 0.006316
vn 0.006316 0.99996 0.006316
vn 0.006316 0.99996 0.006316
vn 0.006316 0.99996 0.006316
vn 0.006316 0.99996 0.006316
vn 0.006316 0.99996 0.006316
vn 0.011038 0.999919 0.006315
vn 0.006315 0.999919 0.011038
vn 0.006316 0.99996 0.006316
vn 0.006316 0.99996 0.006316
vn 0.006316 0.99996 0.006316
vn 0.006316 0.99996 0.006316
vn 0.006316 0.99996 0.006316
vn 0.006316 0.99996 0.006316
vn 0.006316 0.99996 0.006316
vn 0.006316 0.99996 0.006316
vn 0.006316 0.99996 0.006316
vn 0.006316 0.99996 0.006316
vn 0.006316 0.99996 0.006316
vn 0.006316 0.99996 0.006316
vn 0.006316 0.99996 0.006316
vn 0.006316 0.99996 0.006316
vn 0.006316 0.99996 0.006316
vn 0.006316 0.99996 0.006316
vn 0.006316 0.99996 0.006316
vn 0.006316 0.99996 0.006316
vn 0.006316 0.99996 0.006316
vn 0.006316 0.99996 0.006316
vn 0.006316 0.99996 0.006316
vn 0.006316 0.99996 0.006316
vn 0.006316 0.99996 0.006316
vn 0.006316 0.99996 0.006316
f 1//1 2//1 3//1
f 4//2 5//2 6//2
f 7//3 8//3 9//3
f 10//4 11//4 12//4
f 13//5 14//5 15//5
f 16//6 17//6 18//6
f 19//7 20//7 21//7
f 22//8 23//8 24//8
f 25//9 26//9 27//9
f 28//10 29//10 30//10
f 31//11 32//11 33//11
f 34//12 35//12 36//12
f 37//13 38//13 39//13
f 40//14 41//14 42//14
f 43//15 44//15 45//15
f 46//16 47//16 48//16
f 49//17 50//17 51//17
f 52//18 53//18 54//18
f 55//19 56//19 57//19
f 58//20 59//20 60//20
f 61//21 62//21 63//21
f 64//22 65//22 66//22
f 67//23 68//23 69//23
f 70//24 71//24 72//24
f 73//25 74//25 75//25
f 76//26 77//26 78//26
f 79//27 80//27 81//27
f 82//28 83//28 84//28
f 85//29 86//29 87//29
f 88//30 89//30 90//30
f 91//31 92//31 93//31
f 94//32 95//32 96//32
f 97//33 98//33 99//33
f 100//34 101//34 102//34
f 103//35 104//35 105//35
f 106//36 107//36 108//36
f 109//37 110//37 111//37
f 112//38 113//38 114//38
f 115//39 116//39 117//39
f 118//40 119//40 120//40
f 121//41 122//41 123//41
f 124//42 125//42 126//42
f 127//43 128//43 129//43
f 130//44 131//44 132//44
f 133//45 134//45 135//45
f 136//46 137//46 138//46
f 139//47 140//47 141//47
f 142//48 143//48 144//48
f 145//49 146//49 147//49
f 148//50 149//50 150//50
f 151//51 152//51 153//51
f 154//52 155//52 156//52
f 157//53 158//53 159//53
f 160//54 161//54 162//54
f 163//55 164//55 165//55
f 166//56 167//56 168//56
f 169//57 170//57 171//57
f 172//58 173//58 174//58
f 175//59 176//59 177//59
f 178//60 179//60 180//60
f 181//61 182//61 183//61
f 184//62 185//62 186//62
f 187//63 188//63 189//63
f 190//64 191//64 192//64
f 193//65 194//65 195//65
f 196//66 197//66 198//66
f 199//67 200//67 201//67
f 202//68 203//68 204//68
f 205//69 206//69 207//69
f 208//70 209//70 210//70
f 211//71 212//71 213//71
f 214//72 215//72 216//72
f 217//73 218//73 219//73
f 220//74 221//74 222//74
f 223//75 224//75 225//75
f 226//76 227//76 228//76
f 229//77 230//77 231//77
f 232//78 233//78 234//78
f 235//79 236//79 237//79
f 238//80 239//80 240//80
f 241//81 242//81 243//81
f 244//82 245//82 246//82
f 247//83 248//83 249//83
f 250//84 251//84 252//84
f 253//85 254//85 255//85
f 256//86 257//86 258//86
f 259//87 260//87 261//87
f 262//88 263//88 264//88
f 265//89 266//89 267//89
f 268//90 269//90 270//90
f 271//91 272//91 273//91
f 274//92 275//92 276//92
f 277//93 278//93 279//93
f 280//94 281//94 282//94
f 283//95 284//95 285//95
f 286//96 287//96 288//96
f 289//97 290//97 291//97
f 292//98 293//98 294//98
f 295//99 296//99 297//99
f 298//100 299//100 300//100
f 301//101 302//101 303//101
f 304//102 305//102 306//102
f 307//103 308//103 309//103
f 310//104 311//104 312//104
f 313//105 314//105 315//105
f 316//106 317//106 318//106
f 319//107 320//107 321//107
f 322//108 323//108 324//108
f 325//109 326//109 327//109
f 328//110 329//110 330//110
f 331//111 332//111 333//111
f 334//112 335//112 336//112
f 337//113 338//113 339//113
f 340//114 341//114 342//114
f 343//115 344//115 345//115
f 346//116 347//116 348//116
f 349//117 350//117 351//117
f 352//118 353//118 354//118
f 355//119 356//119 357//119
f 358//120 359//120 360//120
f 361//121 362//121 363//121
f 364//122 365//122 366//122
f 367//123 368//123 369//123
f 370//124 371//124 372//124
f 373//125 374//125 375//125
f 376//126 377//126 378//126
f 379//127 380//127 381//127
f 382//128 383//128 384//128
f 385//129 386//129 387//129
f 388//130 389//130 390//130
f 391//131 392//131 393//131
f 394//132 395//132 396//132
f 397//133 398//133 399//133
f 400//134 401//134 402//134
f 403//135 404//135 405//135
f 406//136 407//136 408//136
f 409//137 410//137 411//137
f 412//138 413//138 414//138
f 415//139 416//139 417//139
f 418//140 419//140 420//140
f 421//141 422//141 423//141
f 424//142 425//142 426//142
f 427//143 428//143 429//143
f 430//144 431//144 432//144
f 433//145 434//145 435//145
f 436//146 437//146 438//146
f 439//147 440//147 441//147
f 442//148 443//148 444//148
f 445//149 446//149 447//149
f 448//150 449//150 450//150
f 451//151 452//151 453//151
f 454//152 455//152 456//152
f 457//153 458//153 459//153
f 460//154 461//154 462//154
f 463//155 464//155 465//155
f 466//156 467//156 468//156
f 469//157 470//157 471//157
f 472//158 473//158 474//158
f 475//159 476//159 477//159
f 478//160 479//160 480//160
f 481//161 482//161 483//161
f 484//162 485//162 486//162
f 487//163 488//163 489//163
f 490//164 491//164 492//164
f 493//165 494//165 495//165
f 496//166 497//166 498//166
f 499//167 500//167 501//167
f 502//168 503//168 504//168
f 505//169 506//169 507//169
f 508//170 509//170 510//170
f 511//171 512//171 513//171
f 514//172 515//172 516//172
f 517//173 518//173 519//173
f 520//174 521//174 522//174
f 523//175 524//175 525//175
f 526//176 527//176 528//176
f 529//177 530//177 531//177
f 532//178 533//178 534//178
f 535//179 536//179 537//179
f 538//180 539//180 540//180
f 541//181 542//181 543//181
f 544//182 545//182 546//182
f 547//183 548//183 549//183
f 550//184 551//184 552//184
f 553//185 554//185 555//185
f 556//186 557//186 558//186
f 559//187 560//187 561//187
f 562//188 563//188 564//188
f 565//189 566//189 567//189
f 568//190 569//190 570//190
f 571//191 572//191 573//191
f 574//192 575//192 576//192
f 577//193 578//193 579//193
f 580//194 581//194 582//194
f 583//195 584//195 585//195
f 586//196 587//196 588//196
f 589//197 590//197 591//197
f 592//198 593//198 594//198
f 595//199 596//199 597//199
f 598//200 599//200 600//200
f 601//201 602//201 603//201
f 604//202 605//202 606//202
f 607//203 608//203 609//203
f 610//204 611//204 612//204
f 613//205 614//205 615//205
f 616//206 617//206 618//206
f 619//207 620//207 621//207
f 622//208 623//208 624//208
f 625//209 626//209 627//209
f 628//210 629//210 630//210
f 631//211 632//211 633//211
f 634//212 635//212 636//212
f 637//213 638//213 639//213
f 640//214 641//214 642//214
f 643//215 644//215 645//215
f 646//216 647//216 648//216
f 649//217 650//217 651//217
f 652//218 653//218 654//218
f 655//219 656//219 657//219
f 658//220 659//220 660//220
f 661//221 662//221 663//221
f 664//222 665//222 666//222
f 667//223 668//223 669//223
