# Static Concept B graybox, metres, identity world transform.
v -85.552786 1.328877 69.105573
v -84.900062 1.308571 71.668003
v -84.005635 1.31422 69.879149
v -85.552786 1.328877 69.105573
v -86.447214 1.323228 70.894427
v -84.900062 1.308571 71.668003
v -84.005635 1.31422 69.879149
v -84 1.300044 72.118034
v -84 1.314167 69.881966
v -84.005635 1.31422 69.879149
v -84.900062 1.308571 71.668003
v -84 1.300044 72.118034
v -84 1.300044 72.118034
v -82.458483 1.299563 70.652724
v -84 1.314167 69.881966
v -84 1.300044 72.118034
v -83.35291 1.293914 72.441579
v -82.458483 1.299563 70.652724
v -82.458483 1.299563 70.652724
v -81.805759 1.279256 73.215155
v -80.911332 1.284905 71.4263
v -82.458483 1.299563 70.652724
v -83.35291 1.293914 72.441579
v -81.805759 1.279256 73.215155
v -79.509495 1.26933 72.490505
v -79.36418 1.270248 72.199876
v -80.236068 1.278508 71.763932
v -80.236068 1.278508 71.763932
v -80.258607 1.264599 73.98873
v -79.509495 1.26933 72.490505
v -80.236068 1.278508 71.763932
v -81.805759 1.279256 73.215155
v -80.258607 1.264599 73.98873
v -80.236068 1.278508 71.763932
v -80.911332 1.284905 71.4263
v -81.805759 1.279256 73.215155
v -78.220202 1.253045 73.779798
v -79.36418 1.270248 72.199876
v -79.509495 1.26933 72.490505
v -78.220202 1.253045 73.779798
v -77.817028 1.255591 72.973452
v -79.36418 1.270248 72.199876
v -79.509495 1.26933 72.490505
v -78.711455 1.249942 74.762306
v -78.220202 1.253045 73.779798
v -79.509495 1.26933 72.490505
v -80.258607 1.264599 73.98873
v -78.711455 1.249942 74.762306
v -76.930909 1.236759 75.069091
v -77.817028 1.255591 72.973452
v -78.220202 1.253045 73.779798
v -76.930909 1.236759 75.069091
v -76.269877 1.240934 73.747028
v -77.817028 1.255591 72.973452
v -78.220202 1.253045 73.779798
v -77.164304 1.235285 75.535882
v -76.930909 1.236759 75.069091
v -78.220202 1.253045 73.779798
v -78.711455 1.249942 74.762306
v -77.164304 1.235285 75.535882
v -76 1.238368 73.883348
v -76.930909 1.236759 75.069091
v -76 1.225 76
v -76 1.238368 73.883348
v -76.269877 1.240934 73.747028
v -76.930909 1.236759 75.069091
v -76.930909 1.236759 75.069091
v -76.227701 1.226438 76
v -76 1.225 76
v -76.930909 1.236759 75.069091
v -77.164304 1.235285 75.535882
v -76.227701 1.226438 76
v -76.227701 1.226438 76
v -76 1.224287 76.112833
v -76 1.225 76
v -75.382587 1.221101 76
v -76 1.238368 73.883348
v -76 1.225 76
v -75.382587 1.221101 76
v -74.828291 1.22723 74.475203
v -76 1.238368 73.883348
v -76 1.225 76
v -75.511586 1.219674 76.354859
v -75.382587 1.221101 76
v -76 1.225 76
v -75.776331 1.222175 76.223669
v -75.511586 1.219674 76.354859
v -76 1.225 76
v -76 1.224287 76.112833
v -75.776331 1.222175 76.223669
v -74.113009 1.213082 76
v -74.828291 1.22723 74.475203
v -75.382587 1.221101 76
v -74.113009 1.213082 76
v -73.871761 1.220224 74.627949
v -74.828291 1.22723 74.475203
v -75.382587 1.221101 76
v -74.218108 1.209971 76.597732
v -74.113009 1.213082 76
v -75.382587 1.221101 76
v -75.511586 1.219674 76.354859
v -74.218108 1.209971 76.597732
vn 0.006316 0.99996 0.006316
vn 0.006316 0.99996 0.006316
vn 0.006316 0.99996 0.006316
vn 0.006316 0.99996 0.006316
vn 0.006316 0.99996 0.006316
vn 0.006316 0.99996 0.006316
vn 0.006316 0.99996 0.006316
vn 0.006316 0.99996 0.006316
vn 0.006316 0.99996 0.006316
vn 0.006316 0.99996 0.006316
vn 0.006316 0.99996 0.006316
vn 0.006316 0.99996 0.006316
vn 0.006316 0.99996 0.006316
vn 0.006316 0.99996 0.006316
vn 0.006316 0.99996 0.006316
vn 0.006316 0.99996 0.006316
vn 0.006316 0.99996 0.006316
vn 0.006316 0.99996 0.006316
vn 0.006316 0.99996 0.006316
vn 0.006316 0.99996 0.006316
vn 0.006316 0.99996 0.006316
vn 0.006316 0.99996 0.006316
vn 0.006316 0.99996 0.006316
vn 0.006316 0.99996 0.006316
vn 0.006316 0.99996 0.006316
vn 0.006316 0.99996 0.006316
vn 0.006316 0.99996 0.006316
vn 0.006316 0.99996 0.006316
vn 0.006316 0.99996 0.006316
vn 0.006316 0.99996 0.006316
vn 0.006316 0.99996 0.006316
vn 0.006316 0.99996 0.006316
vn 0.006316 0.99996 0.006316
vn 0.006316 0.99996 0.006316
f 1//1 2//1 3//1
f 4//2 5//2 6//2
f 7//3 8//3 9//3
f 10//4 11//4 12//4
f 13//5 14//5 15//5
f 16//6 17//6 18//6
f 19//7 20//7 21//7
f 22//8 23//8 24//8
f 25//9 26//9 27//9
f 28//10 29//10 30//10
f 31//11 32//11 33//11
f 34//12 35//12 36//12
f 37//13 38//13 39//13
f 40//14 41//14 42//14
f 43//15 44//15 45//15
f 46//16 47//16 48//16
f 49//17 50//17 51//17
f 52//18 53//18 54//18
f 55//19 56//19 57//19
f 58//20 59//20 60//20
f 61//21 62//21 63//21
f 64//22 65//22 66//22
f 67//23 68//23 69//23
f 70//24 71//24 72//24
f 73//25 74//25 75//25
f 76//26 77//26 78//26
f 79//27 80//27 81//27
f 82//28 83//28 84//28
f 85//29 86//29 87//29
f 88//30 89//30 90//30
f 91//31 92//31 93//31
f 94//32 95//32 96//32
f 97//33 98//33 99//33
f 100//34 101//34 102//34
