# Static Concept B graybox, metres, identity world transform.
v -72.449768 1.202577 76
v -74.439084 1.223391 74.693794
v -73.878895 1.211604 76
v -72.449768 1.202577 76
v -73.544362 1.220057 74.326941
v -74.439084 1.223391 74.693794
v -72.449768 1.202577 76
v -72.445923 1.202564 75.998297
v -73.544362 1.220057 74.326941
v -73.878895 1.211604 76
v -73.650786 1.206804 76.531887
v -72.449768 1.202577 76
v -73.544362 1.220057 74.326941
v -70.993862 1.200983 74.796593
v -72.274231 1.218773 73.260151
v -73.544362 1.220057 74.326941
v -72.445923 1.202564 75.998297
v -70.993862 1.200983 74.796593
v -70.01725 1.199955 73.98275
v -70.913134 1.21734 72.125903
v -71.437295 1.217892 72.562705
v -70.01725 1.199955 73.98275
v -69.632765 1.19955 73.662346
v -70.913134 1.21734 72.125903
v -71.437295 1.217892 72.562705
v -70.993862 1.200983 74.796593
v -70.01725 1.199955 73.98275
v -71.437295 1.217892 72.562705
v -72.274231 1.218773 73.260151
v -70.993862 1.200983 74.796593
v -70.913134 1.21734 72.125903
v -68.271669 1.198117 72.528099
v -69.552038 1.215908 70.991656
v -70.913134 1.21734 72.125903
v -69.632765 1.19955 73.662346
v -68.271669 1.198117 72.528099
v -68 1.211822 70.086539
v -68.271669 1.198117 72.528099
v -68 1.197831 72.301708
v -68 1.211822 70.086539
v -69.552038 1.215908 70.991656
v -68.271669 1.198117 72.528099
v -68 1.211822 70.086539
v -68.190941 1.214475 69.857409
v -69.552038 1.215908 70.991656
v -68 1.197831 72.301708
v -66.910572 1.196685 71.393852
v -68 1.211822 70.086539
v -68 1.214274 69.698292
v -68.190941 1.214475 69.857409
v -68 1.211822 70.086539
v -65.653614 1.195361 70.346386
v -66.829845 1.213042 68.723162
v -67.073659 1.213299 68.926341
v -65.653614 1.195361 70.346386
v -65.549476 1.195252 70.259605
v -66.829845 1.213042 68.723162
v -67.073659 1.213299 68.926341
v -66.910572 1.196685 71.393852
v -65.653614 1.195361 70.346386
v -67.073659 1.213299 68.926341
v -68 1.211822 70.086539
v -66.910572 1.196685 71.393852
v -67.073659 1.213299 68.926341
v -68 1.214274 69.698292
v -68 1.211822 70.086539
v -65.126177 1.20685 68
v -65.468748 1.212753 67.588915
v -65.96205 1.212129 68
v -65.96205 1.212129 68
v -64.188379 1.193819 69.125358
v -65.126177 1.20685 68
v -65.96205 1.212129 68
v -65.549476 1.195252 70.259605
v -64.188379 1.193819 69.125358
v -65.96205 1.212129 68
v -66.829845 1.213042 68.723162
v -65.549476 1.195252 70.259605
v -62.83795 1.192398 68
v -65.468748 1.212753 67.588915
v -65.126177 1.20685 68
v -62.83795 1.192398 68
v -64.107652 1.214477 66.454668
v -65.468748 1.212753 67.588915
v -62.83795 1.192398 68
v -62.827283 1.192411 67.991111
v -64.107652 1.214477 66.454668
v -65.126177 1.20685 68
v -64.188379 1.193819 69.125358
v -62.83795 1.192398 68
v -64.107652 1.214477 66.454668
v -61.459055 1.194144 66.850864
v -62.753687 1.216191 65.32642
v -64.107652 1.214477 66.454668
v -62.827283 1.192411 67.991111
v -61.459055 1.194144 66.850864
v -61.299932 1.194511 66.700068
v -62.598573 1.215957 65.175374
v -62.713101 1.216294 65.286899
v -61.299932 1.194511 66.700068
v -61.215145 1.194248 66.619717
v -62.598573 1.215957 65.175374
v -62.713101 1.216294 65.286899
v -61.459055 1.194144 66.850864
v -61.299932 1.194511 66.700068
v -62.713101 1.216294 65.286899
v -62.753687 1.216191 65.32642
v -61.459055 1.194144 66.850864
vn 0.006316 0.99996 0.006316
vn 0.006316 0.99996 0.006316
vn 0.006316 0.99996 0.006316
vn 0.006316 0.99996 0.006316
vn 0.006316 0.99996 0.006316
vn 0.006316 0.99996 0.006316
vn 0.006316 0.99996 0.006316
vn 0.006316 0.99996 0.006316
vn 0.006316 0.99996 0.006316
vn 0.006316 0.99996 0.006316
vn 0.006316 0.99996 0.006316
vn 0.006316 0.99996 0.006316
vn 0.006316 0.99996 0.006316
vn 0.006316 0.99996 0.006316
vn 0.006316 0.99996 0.006316
vn 0.006316 0.99996 0.006316
vn 0.006316 0.99996 0.006316
vn 0.006316 0.99996 0.006316
vn 0.006316 0.99996 0.006316
vn 0.006316 0.99996 0.006316
vn 0.006316 0.99996 0.006316
vn 0.006316 0.99996 0.006316
vn 0.006315 0.999939 0.009098
vn 0.006316 0.99996 0.006316
vn 0.006316 0.99996 0.006316
vn 0.006316 0.99996 0.006316
vn 0.006315 0.999939 0.009098
vn 0.006315 0.999939 0.009098
vn 0.006315 0.999939 0.009098
vn 0.006316 0.99996 0.006316
vn 0.006315 0.999939 0.009098
vn 0.006315 0.999939 0.009098
vn 0.009094 0.999939 0.006319
vn 0.009094 0.999939 0.006319
vn 0.006315 0.999939 0.009098
vn 0.006315 0.999939 0.009098
f 1//1 2//1 3//1
f 4//2 5//2 6//2
f 7//3 8//3 9//3
f 10//4 11//4 12//4
f 13//5 14//5 15//5
f 16//6 17//6 18//6
f 19//7 20//7 21//7
f 22//8 23//8 24//8
f 25//9 26//9 27//9
f 28//10 29//10 30//10
f 31//11 32//11 33//11
f 34//12 35//12 36//12
f 37//13 38//13 39//13
f 40//14 41//14 42//14
f 43//15 44//15 45//15
f 46//16 47//16 48//16
f 49//17 50//17 51//17
f 52//18 53//18 54//18
f 55//19 56//19 57//19
f 58//20 59//20 60//20
f 61//21 62//21 63//21
f 64//22 65//22 66//22
f 67//23 68//23 69//23
f 70//24 71//24 72//24
f 73//25 74//25 75//25
f 76//26 77//26 78//26
f 79//27 80//27 81//27
f 82//28 83//28 84//28
f 85//29 86//29 87//29
f 88//30 89//30 90//30
f 91//31 92//31 93//31
f 94//32 95//32 96//32
f 97//33 98//33 99//33
f 100//34 101//34 102//34
f 103//35 104//35 105//35
f 106//36 107//36 108//36
