# Static Concept B graybox, metres, identity world transform.
v -60 1.192528 65.143081
v -61.166919 1.194122 66.570218
v -60 1.191621 65.286607
v -60 1.192528 65.143081
v -62.646799 1.216083 65.224872
v -61.166919 1.194122 66.570218
v -60 1.192528 65.143081
v -61.408442 1.213429 63.862679
v -62.646799 1.216083 65.224872
v -60 1.191621 65.286607
v -59.928562 1.191666 65.208025
v -60 1.192528 65.143081
v -60 1.20825 62.655108
v -61.408442 1.213429 63.862679
v -60 1.192528 65.143081
v -60 1.20825 62.655108
v -60.170085 1.210774 62.500486
v -61.408442 1.213429 63.862679
v -60 1.192528 65.143081
v -58.690204 1.192453 63.845832
v -60 1.20825 62.655108
v -60 1.192528 65.143081
v -59.928562 1.191666 65.208025
v -58.690204 1.192453 63.845832
v -60 1.21041 62.313393
v -60.170085 1.210774 62.500486
v -60 1.20825 62.655108
v -57.482568 1.193221 62.517432
v -57.451847 1.19324 62.483639
v -58.161506 1.201799 61.838494
v -58.161506 1.201799 61.838494
v -58.690204 1.192453 63.845832
v -57.482568 1.193221 62.517432
v -58.161506 1.201799 61.838494
v -60 1.20825 62.655108
v -58.690204 1.192453 63.845832
v -58.161506 1.201799 61.838494
v -60 1.21041 62.313393
v -60 1.20825 62.655108
v -58.161506 1.201799 61.838494
v -58.931727 1.211088 61.138293
v -60 1.21041 62.313393
v -57.44708 1.208876 60
v -57.69337 1.212631 59.7761
v -57.896915 1.211717 60
v -57.896915 1.211739 60
v -56.21349 1.194018 61.121445
v -57.44708 1.208896 60
v -57.896915 1.211739 60
v -57.451847 1.19324 62.483639
v -56.21349 1.194018 61.121445
v -57.896915 1.211739 60
v -58.161506 1.201799 61.838494
v -57.451847 1.19324 62.483639
v -57.896915 1.211739 60
v -58.898384 1.21111 61.101616
v -58.161506 1.201799 61.838494
v -58.898384 1.21111 61.101616
v -58.931727 1.211088 61.138293
v -58.161506 1.201799 61.838494
v -55.193994 1.194646 60
v -57.69337 1.212631 59.7761
v -57.44708 1.208876 60
v -55.193994 1.194646 60
v -56.455012 1.218192 58.413907
v -57.69337 1.212631 59.7761
v -55.193994 1.194646 60
v -54.975132 1.195629 59.759252
v -56.455012 1.218192 58.413907
v -57.44708 1.208896 60
v -56.21349 1.194018 61.121445
v -55.193994 1.194658 60
v -56.455012 1.218192 58.413907
v -53.736775 1.20119 58.397059
v -55.216655 1.223753 57.051714
v -56.455012 1.218192 58.413907
v -54.975132 1.195629 59.759252
v -53.736775 1.20119 58.397059
v -53.673044 1.201476 58.326956
v -53.978297 1.221132 55.68952
v -55.08886 1.224327 56.91114
v -53.673044 1.201476 58.326956
v -52.498417 1.198097 57.034866
v -53.978297 1.221132 55.68952
v -55.08886 1.224327 56.91114
v -53.736775 1.20119 58.397059
v -53.673044 1.201476 58.326956
v -55.08886 1.224327 56.91114
v -55.216655 1.223753 57.051714
v -53.736775 1.20119 58.397059
v -52 1.206053 55
v -52.498417 1.198097 57.034866
v -52 1.196664 56.486607
v -52 1.206053 55
v -53.978297 1.221132 55.68952
v -52.498417 1.198097 57.034866
v -52 1.206053 55
v -52.73994 1.21757 54.327327
v -53.978297 1.221132 55.68952
v -52 1.196664 56.486607
v -51.26006 1.197131 55.672673
v -52 1.206053 55
vn 0.009094 0.999939 0.006319
vn 0.009094 0.999939 0.006319
vn 0.009094 0.999939 0.006319
vn 0.006316 0.99996 0.006319
vn 0.009094 0.999939 0.006319
vn 0.009094 0.999939 0.006319
vn 0.006316 0.99996 0.006319
vn 0.006316 0.99996 0.006319
vn 0.009094 0.999939 0.006319
vn 0.006319 0.99996 0.006316
vn 0.006316 0.99996 0.006319
vn 0.006316 0.99996 0.006319
vn 0.006316 0.99996 0.006319
vn 0.006316 0.99996 0.006319
vn 0.006315 0.999932 0.009823
vn 0.006319 0.99996 0.006316
vn 0.006319 0.99996 0.006316
vn 0.006319 0.99996 0.006316
vn 0.006319 0.99996 0.006316
vn 0.006316 0.99996 0.006319
vn 0.006315 0.999932 0.009823
vn 0.006315 0.999932 0.009823
vn 0.006315 0.999932 0.009823
vn 0.006319 0.99996 0.006316
vn 0.006315 0.999932 0.009823
vn 0.006315 0.999932 0.009823
vn 0.009823 0.999932 0.006315
vn 0.009823 0.999932 0.006315
vn 0.006315 0.999932 0.009823
vn 0.006315 0.999932 0.009823
vn 0.009823 0.999932 0.006315
vn 0.009823 0.999932 0.006315
vn 0.009823 0.999932 0.006315
vn 0.006316 0.99996 0.006316
f 1//1 2//1 3//1
f 4//2 5//2 6//2
f 7//3 8//3 9//3
f 10//4 11//4 12//4
f 13//5 14//5 15//5
f 16//6 17//6 18//6
f 19//7 20//7 21//7
f 22//8 23//8 24//8
f 25//9 26//9 27//9
f 28//10 29//10 30//10
f 31//11 32//11 33//11
f 34//12 35//12 36//12
f 37//13 38//13 39//13
f 40//14 41//14 42//14
f 43//15 44//15 45//15
f 46//16 47//16 48//16
f 49//17 50//17 51//17
f 52//18 53//18 54//18
f 55//19 56//19 57//19
f 58//20 59//20 60//20
f 61//21 62//21 63//21
f 64//22 65//22 66//22
f 67//23 68//23 69//23
f 70//24 71//24 72//24
f 73//25 74//25 75//25
f 76//26 77//26 78//26
f 79//27 80//27 81//27
f 82//28 83//28 84//28
f 85//29 86//29 87//29
f 88//30 89//30 90//30
f 91//31 92//31 93//31
f 94//32 95//32 96//32
f 97//33 98//33 99//33
f 100//34 101//34 102//34
