# Static Concept B graybox, metres, identity world transform.
v 36 1.214895 -34.4
v 32.336004 1.220756 -31.663996
v 36 1.202243 -32.396796
v 36 1.214895 -34.4
v 31.494424 1.231386 -32.505576
v 32.336004 1.220756 -31.663996
v 36 1.214895 -34.4
v 31.303403 1.238625 -33.460681
v 31.494424 1.231386 -32.505576
v 31.494424 1.231386 -32.505576
v 31.688635 1.224027 -31.534523
v 32.336004 1.220756 -31.663996
v 36.696597 1.211375 -34.539319
v 36 1.202243 -32.396796
v 37.081828 1.196777 -32.613161
v 36.696597 1.211375 -34.539319
v 36 1.214895 -34.4
v 36 1.202243 -32.396796
v 36 1.202243 -32.396796
v 34.005341 1.199669 -29.994659
v 36 1.189591 -30.393591
v 36 1.202243 -32.396796
v 32.336004 1.220756 -31.663996
v 34.005341 1.199669 -29.994659
v 32.336004 1.220756 -31.663996
v 32.073866 1.209428 -29.608365
v 34.005341 1.199669 -29.994659
v 32.336004 1.220756 -31.663996
v 31.688635 1.224027 -31.534523
v 32.073866 1.209428 -29.608365
v 37.081828 1.196777 -32.613161
v 36 1.189591 -30.393591
v 37.46706 1.182179 -30.687003
v 37.081828 1.196777 -32.613161
v 36 1.202243 -32.396796
v 36 1.189591 -30.393591
v 36 1.189591 -30.393591
v 35.674678 1.178583 -28.325322
v 36 1.176939 -28.390387
v 36 1.189591 -30.393591
v 34.005341 1.199669 -29.994659
v 35.674678 1.178583 -28.325322
v 34.005341 1.199669 -29.994659
v 34.048065 1.186802 -28
v 35.674678 1.178583 -28.325322
v 34.005341 1.199669 -29.994659
v 32.395539 1.197239 -28
v 34.048065 1.186802 -28
v 34.005341 1.199669 -29.994659
v 32.073866 1.209428 -29.608365
v 32.395539 1.197239 -28
v 32.395539 1.197239 -28
v 32.459098 1.19483 -27.682207
v 34.048065 1.186802 -28
v 37.46706 1.182179 -30.687003
v 36 1.176939 -28.390387
v 37.852292 1.16758 -28.760845
v 37.46706 1.182179 -30.687003
v 36 1.189591 -30.393591
v 36 1.176939 -28.390387
v 36 1.176939 -28.390387
v 35.674678 1.178583 -28.325322
v 36 1.174474 -28
v 35.674678 1.178583 -28.325322
v 34.048065 1.186802 -28
v 36 1.174474 -28
v 34.048065 1.186802 -28
v 36 1.164287 -26.387183
v 36 1.174474 -28
v 34.048065 1.186802 -28
v 32.84433 1.180232 -25.756049
v 36 1.164287 -26.387183
v 34.048065 1.186802 -28
v 32.459098 1.19483 -27.682207
v 32.84433 1.180232 -25.756049
v 37.852292 1.16758 -28.760845
v 36 1.174474 -28
v 38.004461 1.161814 -28
v 37.852292 1.16758 -28.760845
v 36 1.176939 -28.390387
v 36 1.174474 -28
v 36 1.174474 -28
v 38.237523 1.152982 -26.834687
v 38.004461 1.161814 -28
v 36 1.174474 -28
v 37.344014 1.157497 -26.655986
v 38.237523 1.152982 -26.834687
v 36 1.174474 -28
v 36 1.164287 -26.387183
v 37.344014 1.157497 -26.655986
v 36 1.164287 -26.387183
v 33.229561 1.165634 -23.829891
v 36 1.151636 -24.383978
v 36 1.164287 -26.387183
v 32.84433 1.180232 -25.756049
v 33.229561 1.165634 -23.829891
v 38.237523 1.152982 -26.834687
v 37.344014 1.157497 -26.655986
v 38.505576 1.142824 -25.494424
v 37.344014 1.157497 -26.655986
v 38.622755 1.138384 -24.908529
v 38.505576 1.142824 -25.494424
v 37.344014 1.157497 -26.655986
v 36 1.151636 -24.383978
v 38.622755 1.138384 -24.908529
v 37.344014 1.157497 -26.655986
v 36 1.164287 -26.387183
v 36 1.151636 -24.383978
v 36 1.151636 -24.383978
v 34.016022 1.149008 -21.983978
v 36 1.138984 -22.380774
v 36 1.151636 -24.383978
v 33.494424 1.155597 -22.505576
v 34.016022 1.149008 -21.983978
v 36 1.151636 -24.383978
v 33.229561 1.165634 -23.829891
v 33.494424 1.155597 -22.505576
v 33.494424 1.155597 -22.505576
v 33.614793 1.151035 -21.903732
v 34.016022 1.149008 -21.983978
v 38.622755 1.138384 -24.908529
v 36 1.138984 -22.380774
v 39.007986 1.123786 -22.982371
v 38.622755 1.138384 -24.908529
v 36 1.151636 -24.383978
v 36 1.138984 -22.380774
v 36 1.138984 -22.380774
v 35.685359 1.127922 -20.314641
v 36 1.126332 -20.37757
v 36 1.138984 -22.380774
v 34.016022 1.149008 -21.983978
v 35.685359 1.127922 -20.314641
v 34.016022 1.149008 -21.983978
v 34.112152 1.135871 -20
v 35.685359 1.127922 -20.314641
v 34.016022 1.149008 -21.983978
v 33.995539 1.136607 -20
v 34.112152 1.135871 -20
v 34.016022 1.149008 -21.983978
v 33.614793 1.151035 -21.903732
v 33.995539 1.136607 -20
v 33.995539 1.136607 -20
v 34.000024 1.136437 -19.977574
v 34.112152 1.135871 -20
v 39.007986 1.123786 -22.982371
v 36 1.126332 -20.37757
v 39.393218 1.109187 -21.056213
v 39.007986 1.123786 -22.982371
v 36 1.138984 -22.380774
v 36 1.126332 -20.37757
v 36 1.126332 -20.37757
v 35.685359 1.127922 -20.314641
v 36 1.123947 -20
v 35.685359 1.127922 -20.314641
v 34.112152 1.135871 -20
v 36 1.123947 -20
v 34.112152 1.135871 -20
v 36 1.11368 -18.374365
v 36 1.123947 -20
v 34.112152 1.135871 -20
v 34.385256 1.121839 -18.051416
v 36 1.11368 -18.374365
v 34.112152 1.135871 -20
v 34.000024 1.136437 -19.977574
v 34.385256 1.121839 -18.051416
v 39.393218 1.109187 -21.056213
v 36 1.123947 -20
v 39.604461 1.101182 -20
v 39.393218 1.109187 -21.056213
v 36 1.126332 -20.37757
v 36 1.123947 -20
v 36 1.123947 -20
v 39.77845 1.094589 -19.130055
v 39.604461 1.101182 -20
v 36 1.123947 -20
v 37.354696 1.106835 -18.645304
v 39.77845 1.094589 -19.130055
v 36 1.123947 -20
v 36 1.11368 -18.374365
v 37.354696 1.106835 -18.645304
v 36 1.11368 -18.374365
v 34.770488 1.107241 -16.125258
v 36 1.101028 -16.371161
v 36 1.11368 -18.374365
v 34.385256 1.121839 -18.051416
v 34.770488 1.107241 -16.125258
v 39.77845 1.094589 -19.130055
v 39.024033 1.085749 -16.975967
v 40.163681 1.079991 -17.203897
v 39.77845 1.094589 -19.130055
v 37.354696 1.106835 -18.645304
v 39.024033 1.085749 -16.975967
v 37.354696 1.106835 -18.645304
v 36 1.101028 -16.371161
v 39.024033 1.085749 -16.975967
v 37.354696 1.106835 -18.645304
v 36 1.11368 -18.374365
v 36 1.101028 -16.371161
v 36 1.101028 -16.371161
v 35.155719 1.092642 -14.1991
v 36 1.088377 -14.367957
v 36 1.101028 -16.371161
v 34.770488 1.107241 -16.125258
v 35.155719 1.092642 -14.1991
v 40.163681 1.079991 -17.203897
v 39.024033 1.085749 -16.975967
v 40.505576 1.067035 -15.494424
v 39.024033 1.085749 -16.975967
v 40.548913 1.065393 -15.277739
v 40.505576 1.067035 -15.494424
v 39.024033 1.085749 -16.975967
v 36 1.088377 -14.367957
v 40.548913 1.065393 -15.277739
v 39.024033 1.085749 -16.975967
v 36 1.101028 -16.371161
v 36 1.088377 -14.367957
v 36 1.088377 -14.367957
v 35.69604 1.077261 -12.30396
v 36 1.075725 -12.364752
v 36 1.088377 -14.367957
v 35.494424 1.079807 -12.505576
v 35.69604 1.077261 -12.30396
v 36 1.088377 -14.367957
v 35.155719 1.092642 -14.1991
v 35.494424 1.079807 -12.505576
v 35.494424 1.079807 -12.505576
v 35.540951 1.078044 -12.272942
v 35.69604 1.077261 -12.30396
v 40.548913 1.065393 -15.277739
v 36 1.075725 -12.364752
v 40.934145 1.050794 -13.351581
v 40.548913 1.065393 -15.277739
v 36 1.088377 -14.367957
v 36 1.075725 -12.364752
v 36 1.075725 -12.364752
v 35.69604 1.077261 -12.30396
v 36 1.073421 -12
v 35.69604 1.077261 -12.30396
v 35.595539 1.075976 -12
v 36 1.073421 -12
v 35.69604 1.077261 -12.30396
v 35.540951 1.078044 -12.272942
v 35.595539 1.075976 -12
v 35.595539 1.075976 -12
v 36 1.063073 -10.361548
v 36 1.073421 -12
v 35.595539 1.075976 -12
v 35.926182 1.063446 -10.346784
v 36 1.063073 -10.361548
v 40.934145 1.050794 -13.351581
v 36 1.073421 -12
v 41.204461 1.040551 -12
v 40.934145 1.050794 -13.351581
v 36 1.075725 -12.364752
v 36 1.073421 -12
v 36 1.073421 -12
v 41.319376 1.035561 -11.425423
v 41.204461 1.040551 -12
v 36 1.073421 -12
v 37.365377 1.054665 -10.634623
v 41.319376 1.035561 -11.425423
v 36 1.073421 -12
v 36 1.063073 -10.361548
v 37.365377 1.054665 -10.634623
v 36 1.063073 -10.361548
v 35.926182 1.063446 -10.346784
v 36 1.060649 -9.977696
v 41.319376 1.035561 -11.425423
v 39.034714 1.031734 -8.965286
v 41.704608 1.018834 -9.499265
v 41.319376 1.035561 -11.425423
v 37.365377 1.054665 -10.634623
v 39.034714 1.031734 -8.965286
v 37.365377 1.054665 -10.634623
v 36.311414 1.048503 -8.420626
v 39.034714 1.031734 -8.965286
v 37.365377 1.054665 -10.634623
v 36 1.060649 -9.977696
v 36.311414 1.048503 -8.420626
v 37.365377 1.054665 -10.634623
v 36 1.063073 -10.361548
v 36 1.060649 -9.977696
v 41.704608 1.018834 -9.499265
v 40.704051 1.008802 -7.295949
v 42.089839 1.002107 -7.573107
v 41.704608 1.018834 -9.499265
v 39.034714 1.031734 -8.965286
v 40.704051 1.008802 -7.295949
v 39.034714 1.031734 -8.965286
v 36.696646 1.033479 -6.494468
v 40.704051 1.008802 -7.295949
v 39.034714 1.031734 -8.965286
v 36.311414 1.048503 -8.420626
v 36.696646 1.033479 -6.494468
v 42.089839 1.002107 -7.573107
v 42.431698 0.98507 -5.568302
v 42.487937 0.984787 -5.578067
v 42.089839 1.002107 -7.573107
v 40.704051 1.008802 -7.295949
v 42.431698 0.98507 -5.568302
v 40.704051 1.008802 -7.295949
v 37.069011 1.018986 -4.637192
v 42.431698 0.98507 -5.568302
v 40.704051 1.008802 -7.295949
v 36.696646 1.033479 -6.494468
v 37.069011 1.018986 -4.637192
v 42.487937 0.984787 -5.578067
v 42.431698 0.98507 -5.568302
v 42.497816 0.984162 -5.502184
v 42.431698 0.98507 -5.568302
v 42.648539 0.975731 -4.344494
v 42.497816 0.984162 -5.502184
v 42.431698 0.98507 -5.568302
v 39.956187 0.993536 -4
v 42.648539 0.975731 -4.344494
v 42.431698 0.98507 -5.568302
v 37.148765 1.01437 -4
v 39.956187 0.993536 -4
v 42.431698 0.98507 -5.568302
v 37.069011 1.018986 -4.637192
v 37.148765 1.01437 -4
v 37.148765 1.01437 -4
v 37.193017 1.012174 -3.646444
v 39.956187 0.993536 -4
vn 0.006316 0.99996 0.006316
vn 0.006316 0.99996 0.006316
vn 0.006316 0.99996 0.006316
vn 0.006316 0.99996 0.006316
vn 0.006316 0.99996 0.006316
vn 0.006316 0.99996 0.006316
vn 0.006316 0.99996 0.006316
vn 0.006316 0.99996 0.006316
vn 0.006316 0.99996 0.006316
vn 0.006316 0.99996 0.006316
vn 0.006316 0.99996 0.006316
vn 0.006316 0.99996 0.006316
vn 0.006316 0.99996 0.006316
vn 0.006316 0.99996 0.006316
vn 0.006316 0.99996 0.006316
vn 0.006316 0.99996 0.006316
vn 0.006316 0.99996 0.006316
vn 0.006316 0.99996 0.006316
vn 0.006316 0.99996 0.006316
vn 0.006316 0.99996 0.006316
vn 0.006316 0.99996 0.006316
vn 0.006316 0.99996 0.006316
vn 0.006316 0.99996 0.006316
vn 0.006316 0.99996 0.006316
vn 0.006316 0.99996 0.006316
vn 0.006316 0.99996 0.006316
vn 0.006316 0.99996 0.006316
vn 0.006316 0.99996 0.006316
vn 0.006316 0.99996 0.006316
vn 0.006316 0.99996 0.006316
vn 0.006316 0.99996 0.006316
vn 0.006316 0.99996 0.006316
vn 0.006316 0.99996 0.006316
vn 0.006316 0.99996 0.006316
vn 0.006316 0.99996 0.006316
vn 0.006316 0.99996 0.006316
vn 0.006316 0.99996 0.006316
vn 0.006316 0.99996 0.006316
vn 0.006316 0.99996 0.006316
vn 0.006316 0.99996 0.006316
vn 0.006316 0.99996 0.006316
vn 0.006316 0.99996 0.006316
vn 0.006316 0.99996 0.006316
vn 0.006316 0.99996 0.006316
vn 0.006316 0.99996 0.006316
vn 0.006316 0.99996 0.006316
vn 0.006316 0.99996 0.006316
vn 0.006316 0.99996 0.006316
vn 0.006316 0.99996 0.006316
vn 0.006316 0.99996 0.006316
vn 0.006316 0.99996 0.006316
vn 0.006316 0.99996 0.006316
vn 0.006316 0.99996 0.006316
vn 0.006316 0.99996 0.006316
vn 0.006316 0.99996 0.006316
vn 0.006316 0.99996 0.006316
vn 0.006316 0.99996 0.006316
vn 0.006316 0.99996 0.006316
vn 0.006316 0.99996 0.006316
vn 0.006316 0.99996 0.006316
vn 0.006316 0.99996 0.006316
vn 0.006316 0.99996 0.006316
vn 0.006316 0.99996 0.006316
vn 0.006316 0.99996 0.006316
vn 0.006316 0.99996 0.006316
vn 0.006316 0.99996 0.006316
vn 0.006316 0.99996 0.006316
vn 0.006316 0.99996 0.006316
vn 0.006316 0.99996 0.006316
vn 0.006316 0.99996 0.006316
vn 0.006316 0.99996 0.006316
vn 0.006316 0.99996 0.006316
vn 0.006316 0.99996 0.006316
vn 0.006316 0.99996 0.006316
vn 0.006316 0.99996 0.006316
vn 0.006316 0.99996 0.006316
vn 0.006316 0.99996 0.006316
vn 0.006316 0.99996 0.006316
vn 0.006316 0.99996 0.006316
vn 0.006316 0.99996 0.006316
vn 0.006316 0.99996 0.006316
vn 0.006316 0.99996 0.006316
vn 0.006316 0.99996 0.006316
vn 0.006316 0.99996 0.006316
vn 0.006316 0.99996 0.006316
vn 0.006315 0.999953 0.007421
vn 0.006315 0.999953 0.007421
vn 0.007421 0.999953 0.006315
vn 0.006316 0.99996 0.006316
vn 0.006315 0.999953 0.007421
vn 0.006315 0.999953 0.007421
vn 0.007421 0.999953 0.006315
vn 0.007421 0.999953 0.006315
vn 0.007421 0.999953 0.006315
vn 0.006315 0.999953 0.007421
vn 0.006315 0.999953 0.007421
vn 0.007421 0.999953 0.006315
vn 0.007421 0.999953 0.006315
vn 0.006315 0.999953 0.007421
vn 0.006315 0.999953 0.007421
vn 0.007421 0.999953 0.006315
vn 0.007421 0.999953 0.006315
vn 0.006315 0.999953 0.007421
vn 0.007421 0.999953 0.006315
vn 0.007421 0.999953 0.006315
vn 0.007421 0.999953 0.006315
vn 0.007421 0.999953 0.006315
vn 0.007421 0.999959 0.005282
f 1//1 2//1 3//1
f 4//2 5//2 6//2
f 7//3 8//3 9//3
f 10//4 11//4 12//4
f 13//5 14//5 15//5
f 16//6 17//6 18//6
f 19//7 20//7 21//7
f 22//8 23//8 24//8
f 25//9 26//9 27//9
f 28//10 29//10 30//10
f 31//11 32//11 33//11
f 34//12 35//12 36//12
f 37//13 38//13 39//13
f 40//14 41//14 42//14
f 43//15 44//15 45//15
f 46//16 47//16 48//16
f 49//17 50//17 51//17
f 52//18 53//18 54//18
f 55//19 56//19 57//19
f 58//20 59//20 60//20
f 61//21 62//21 63//21
f 64//22 65//22 66//22
f 67//23 68//23 69//23
f 70//24 71//24 72//24
f 73//25 74//25 75//25
f 76//26 77//26 78//26
f 79//27 80//27 81//27
f 82//28 83//28 84//28
f 85//29 86//29 87//29
f 88//30 89//30 90//30
f 91//31 92//31 93//31
f 94//32 95//32 96//32
f 97//33 98//33 99//33
f 100//34 101//34 102//34
f 103//35 104//35 105//35
f 106//36 107//36 108//36
f 109//37 110//37 111//37
f 112//38 113//38 114//38
f 115//39 116//39 117//39
f 118//40 119//40 120//40
f 121//41 122//41 123//41
f 124//42 125//42 126//42
f 127//43 128//43 129//43
f 130//44 131//44 132//44
f 133//45 134//45 135//45
f 136//46 137//46 138//46
f 139//47 140//47 141//47
f 142//48 143//48 144//48
f 145//49 146//49 147//49
f 148//50 149//50 150//50
f 151//51 152//51 153//51
f 154//52 155//52 156//52
f 157//53 158//53 159//53
f 160//54 161//54 162//54
f 163//55 164//55 165//55
f 166//56 167//56 168//56
f 169//57 170//57 171//57
f 172//58 173//58 174//58
f 175//59 176//59 177//59
f 178//60 179//60 180//60
f 181//61 182//61 183//61
f 184//62 185//62 186//62
f 187//63 188//63 189//63
f 190//64 191//64 192//64
f 193//65 194//65 195//65
f 196//66 197//66 198//66
f 199//67 200//67 201//67
f 202//68 203//68 204//68
f 205//69 206//69 207//69
f 208//70 209//70 210//70
f 211//71 212//71 213//71
f 214//72 215//72 216//72
f 217//73 218//73 219//73
f 220//74 221//74 222//74
f 223//75 224//75 225//75
f 226//76 227//76 228//76
f 229//77 230//77 231//77
f 232//78 233//78 234//78
f 235//79 236//79 237//79
f 238//80 239//80 240//80
f 241//81 242//81 243//81
f 244//82 245//82 246//82
f 247//83 248//83 249//83
f 250//84 251//84 252//84
f 253//85 254//85 255//85
f 256//86 257//86 258//86
f 259//87 260//87 261//87
f 262//88 263//88 264//88
f 265//89 266//89 267//89
f 268//90 269//90 270//90
f 271//91 272//91 273//91
f 274//92 275//92 276//92
f 277//93 278//93 279//93
f 280//94 281//94 282//94
f 283//95 284//95 285//95
f 286//96 287//96 288//96
f 289//97 290//97 291//97
f 292//98 293//98 294//98
f 295//99 296//99 297//99
f 298//100 299//100 300//100
f 301//101 302//101 303//101
f 304//102 305//102 306//102
f 307//103 308//103 309//103
f 310//104 311//104 312//104
f 313//105 314//105 315//105
f 316//106 317//106 318//106
f 319//107 320//107 321//107
f 322//108 323//108 324//108
