# Static Concept B graybox, metres, identity world transform.
v 39.572475 0.996383 -4
v 37.171011 1.014402 -4.031238
v 37.170688 1.014207 -4
v 37.170688 1.014207 -4
v 42.670546 0.973179 -3.959701
v 39.572475 0.996383 -4
v 37.170688 1.014207 -4
v 42.651697 0.966756 -2.717127
v 42.670546 0.973179 -3.959701
v 37.170688 1.014207 -4
v 37.160692 1.009166 -3.031547
v 42.651697 0.966756 -2.717127
v 42.651697 0.966756 -2.717127
v 38.963214 0.985253 -1.036786
v 42.488119 0.957542 -0.743044
v 42.651697 0.966756 -2.717127
v 37.145821 1.008339 -2.854179
v 38.963214 0.985253 -1.036786
v 42.651697 0.966756 -2.717127
v 37.160692 1.009166 -3.031547
v 37.145821 1.008339 -2.854179
v 37.145821 1.008339 -2.854179
v 37.007117 0.998776 -1.199794
v 38.963214 0.985253 -1.036786
v 42.488119 0.957542 -0.743044
v 41.053541 0.958699 1.053541
v 42.329543 0.948668 1.159875
v 42.488119 0.957542 -0.743044
v 38.963214 0.985253 -1.036786
v 41.053541 0.958699 1.053541
v 38.963214 0.985253 -1.036786
v 36.848541 0.987771 0.703124
v 41.053541 0.958699 1.053541
v 38.963214 0.985253 -1.036786
v 37.007117 0.998776 -1.199794
v 36.848541 0.987771 0.703124
v 42.329543 0.948668 1.159875
v 41.053541 0.958699 1.053541
v 42.239568 0.943632 2.239568
v 41.053541 0.958699 1.053541
v 42.170966 0.938871 3.062793
v 42.239568 0.943632 2.239568
v 41.053541 0.958699 1.053541
v 36.689964 0.976765 2.606042
v 42.170966 0.938871 3.062793
v 41.053541 0.958699 1.053541
v 36.848541 0.987771 0.703124
v 36.689964 0.976765 2.606042
v 42.170966 0.938871 3.062793
v 36.573801 0.968703 4
v 42.092865 0.933451 4
v 42.170966 0.938871 3.062793
v 36.689964 0.976765 2.606042
v 36.573801 0.968703 4
v 36.573801 0.968703 4
v 42.01239 0.927935 4.965711
v 42.092865 0.933451 4
v 36.573801 0.968703 4
v 36.531388 0.965796 4.508961
v 42.01239 0.927935 4.965711
v 42.01239 0.927935 4.965711
v 38.597248 0.939561 6.597248
v 41.853813 0.917066 6.868629
v 42.01239 0.927935 4.965711
v 36.529663 0.965678 4.529663
v 38.597248 0.939561 6.597248
v 42.01239 0.927935 4.965711
v 36.531388 0.965796 4.508961
v 36.529663 0.965678 4.529663
v 36.529663 0.965678 4.529663
v 36.372811 0.954781 6.411879
v 38.597248 0.939561 6.597248
v 41.853813 0.917066 6.868629
v 40.687575 0.913157 8.687575
v 41.695237 0.906196 8.771547
v 41.853813 0.917066 6.868629
v 38.597248 0.939561 6.597248
v 40.687575 0.913157 8.687575
v 38.597248 0.939561 6.597248
v 36.214235 0.943764 8.314797
v 40.687575 0.913157 8.687575
v 38.597248 0.939561 6.597248
v 36.372811 0.954781 6.411879
v 36.214235 0.943764 8.314797
v 41.695237 0.906196 8.771547
v 40.687575 0.913157 8.687575
v 41.624183 0.901326 9.624183
v 40.687575 0.913157 8.687575
v 41.53666 0.895246 10.674465
v 41.624183 0.901326 9.624183
v 40.687575 0.913157 8.687575
v 36.055658 0.932747 10.217715
v 41.53666 0.895246 10.674465
v 40.687575 0.913157 8.687575
v 36.214235 0.943764 8.314797
v 36.055658 0.932747 10.217715
v 36 0.92888 10.885615
v 35.914278 0.922925 11.914278
v 36 0.921842 12
v 35.914278 0.922925 11.914278
v 35.907135 0.922429 12
v 36 0.921842 12
v 35.907135 0.922429 12
v 36 0.921026 12.129209
v 36 0.921842 12
v 35.907135 0.922429 12
v 35.897082 0.92173 12.120633
v 36 0.921026 12.129209
v 41.53666 0.895246 10.674465
v 36 0.921842 12
v 41.426199 0.887571 12
v 41.53666 0.895246 10.674465
v 36 0.92888 10.885615
v 36 0.921842 12
v 41.53666 0.895246 10.674465
v 36.055658 0.932747 10.217715
v 36 0.92888 10.885615
v 36 0.921842 12
v 41.378084 0.884229 12.577383
v 41.426199 0.887571 12
v 36 0.921842 12
v 36.140956 0.920062 12.140956
v 41.378084 0.884229 12.577383
v 36 0.921842 12
v 36 0.921026 12.129209
v 36.140956 0.920062 12.140956
v 36 0.921026 12.129209
v 35.738505 0.910713 14.023551
v 36 0.908924 14.045342
v 36 0.921026 12.129209
v 35.897082 0.92173 12.120633
v 35.738505 0.910713 14.023551
v 41.378084 0.884229 12.577383
v 38.231282 0.893657 14.231282
v 41.219507 0.873212 14.480301
v 41.378084 0.884229 12.577383
v 36.140956 0.920062 12.140956
v 38.231282 0.893657 14.231282
v 36.140956 0.920062 12.140956
v 36 0.908924 14.045342
v 38.231282 0.893657 14.231282
v 36.140956 0.920062 12.140956
v 36 0.921026 12.129209
v 36 0.908924 14.045342
v 36 0.908924 14.045342
v 35.579929 0.899696 15.926469
v 36 0.896822 15.961475
v 36 0.908924 14.045342
v 35.738505 0.910713 14.023551
v 35.579929 0.899696 15.926469
v 41.219507 0.873212 14.480301
v 40.321609 0.867253 16.321609
v 41.06093 0.862195 16.383219
v 41.219507 0.873212 14.480301
v 38.231282 0.893657 14.231282
v 40.321609 0.867253 16.321609
v 38.231282 0.893657 14.231282
v 36 0.896822 15.961475
v 40.321609 0.867253 16.321609
v 38.231282 0.893657 14.231282
v 36 0.908924 14.045342
v 36 0.896822 15.961475
v 36 0.896822 15.961475
v 35.417347 0.88836 17.884016
v 36 0.884447 17.920902
v 36 0.896822 15.961475
v 35.579929 0.899696 15.926469
v 35.417347 0.88836 17.884016
v 41.06093 0.862195 16.383219
v 40.321609 0.867253 16.321609
v 41.008628 0.858575 17.008628
v 40.321609 0.867253 16.321609
v 40.906359 0.851498 18.231508
v 41.008628 0.858575 17.008628
v 40.321609 0.867253 16.321609
v 36 0.884447 17.920902
v 40.906359 0.851498 18.231508
v 40.321609 0.867253 16.321609
v 36 0.896822 15.961475
v 36 0.884447 17.920902
v 36 0.884447 17.920902
v 35.391317 0.880764 19.112715
v 36 0.877059 19.090585
v 36 0.884447 17.920902
v 35.417347 0.88836 17.884016
v 35.391317 0.880764 19.112715
v 40.906359 0.851498 18.231508
v 36 0.877059 19.090585
v 40.887686 0.847312 18.912879
v 40.906359 0.851498 18.231508
v 36 0.884447 17.920902
v 36 0.877059 19.090585
v 36 0.877059 19.090585
v 35.419532 0.878648 19.419532
v 36 0.871316 20
v 36 0.877059 19.090585
v 35.391317 0.880764 19.112715
v 35.419532 0.878648 19.419532
v 35.419532 0.878648 19.419532
v 35.472911 0.874645 20
v 36 0.871316 20
v 35.472911 0.874645 20
v 36 0.867984 20.178725
v 36 0.871316 20
v 35.472911 0.874645 20
v 35.493833 0.870272 20.22751
v 36 0.867984 20.178725
v 40.887686 0.847312 18.912879
v 37.854379 0.859604 20
v 40.968464 0.841832 19.699864
v 40.887686 0.847312 18.912879
v 36 0.871316 20
v 37.854379 0.859604 20
v 40.887686 0.847312 18.912879
v 36 0.877059 19.090585
v 36 0.871316 20
v 36 0.871316 20
v 36.163014 0.867591 20.163014
v 37.854379 0.859604 20
v 36 0.871316 20
v 36 0.867984 20.178725
v 36.163014 0.867591 20.163014
vn 0.007421 0.999953 0.006315
vn 0.007421 0.999959 0.005282
vn 0.007421 0.999959 0.005282
vn 0.007421 0.999959 0.005282
vn 0.007421 0.999959 0.005282
vn 0.007421 0.999959 0.005282
vn 0.007421 0.999959 0.005282
vn 0.006387 0.99996 0.006316
vn 0.007421 0.999959 0.005282
vn 0.007421 0.999959 0.005282
vn 0.006387 0.99996 0.006316
vn 0.006387 0.99996 0.006316
vn 0.007421 0.999959 0.005282
vn 0.006387 0.99996 0.006316
vn 0.006387 0.99996 0.006316
vn 0.006387 0.99996 0.006316
vn 0.006387 0.99996 0.006316
vn 0.006387 0.99996 0.006316
vn 0.006387 0.99996 0.006244
vn 0.006387 0.99996 0.006244
vn 0.006387 0.99996 0.006244
vn 0.006387 0.99996 0.006244
vn 0.006387 0.99996 0.006244
vn 0.006316 0.99996 0.006316
vn 0.006387 0.99996 0.006244
vn 0.006387 0.99996 0.006244
vn 0.006316 0.99996 0.006316
vn 0.006316 0.99996 0.006316
vn 0.006387 0.99996 0.006244
vn 0.006316 0.99996 0.006316
vn 0.006316 0.99996 0.006316
vn 0.006316 0.99996 0.006316
vn 0.006316 0.99996 0.006316
vn 0.006316 0.99996 0.006316
vn 0.006316 0.99996 0.006316
vn 0.006316 0.99996 0.006316
vn 0.006316 0.99996 0.006316
vn 0.006316 0.99996 0.006316
vn 0.006316 0.99996 0.006316
vn 0.006316 0.99996 0.006316
vn 0.006316 0.99996 0.006316
vn 0.006316 0.99996 0.006316
vn 0.006316 0.99996 0.006316
vn 0.006316 0.99996 0.006316
vn 0.006316 0.99996 0.006316
vn 0.006316 0.99996 0.006316
vn 0.006316 0.99996 0.006316
vn 0.006316 0.99996 0.006316
vn 0.006316 0.99996 0.006316
vn 0.006316 0.99996 0.006316
vn 0.006316 0.99996 0.006316
vn 0.006316 0.99996 0.006316
vn 0.006316 0.99996 0.006316
vn 0.006316 0.99996 0.006316
vn 0.006316 0.99996 0.006316
vn 0.006316 0.99996 0.006316
vn 0.006316 0.99996 0.006316
vn 0.006316 0.99996 0.006316
vn 0.006316 0.99996 0.006316
vn 0.006316 0.99996 0.006316
vn 0.006316 0.99996 0.006316
vn 0.006316 0.99996 0.006316
vn 0.006316 0.99996 0.006316
vn 0.006316 0.99996 0.006316
vn 0.006316 0.99996 0.006316
vn 0.006316 0.99996 0.006316
vn 0.006316 0.99996 0.006316
vn 0.006315 0.999806 0.018637
vn 0.006315 0.999806 0.018637
vn 0.006316 0.99996 0.006316
vn 0.006316 0.99996 0.006316
vn 0.006316 0.99996 0.006316
vn 0.006315 0.999843 0.016532
vn 0.00421 0.999817 0.018637
f 1//1 2//1 3//1
f 4//2 5//2 6//2
f 7//3 8//3 9//3
f 10//4 11//4 12//4
f 13//5 14//5 15//5
f 16//6 17//6 18//6
f 19//7 20//7 21//7
f 22//8 23//8 24//8
f 25//9 26//9 27//9
f 28//10 29//10 30//10
f 31//11 32//11 33//11
f 34//12 35//12 36//12
f 37//13 38//13 39//13
f 40//14 41//14 42//14
f 43//15 44//15 45//15
f 46//16 47//16 48//16
f 49//17 50//17 51//17
f 52//18 53//18 54//18
f 55//19 56//19 57//19
f 58//20 59//20 60//20
f 61//21 62//21 63//21
f 64//22 65//22 66//22
f 67//23 68//23 69//23
f 70//24 71//24 72//24
f 73//25 74//25 75//25
f 76//26 77//26 78//26
f 79//27 80//27 81//27
f 82//28 83//28 84//28
f 85//29 86//29 87//29
f 88//30 89//30 90//30
f 91//31 92//31 93//31
f 94//32 95//32 96//32
f 97//33 98//33 99//33
f 100//34 101//34 102//34
f 103//35 104//35 105//35
f 106//36 107//36 108//36
f 109//37 110//37 111//37
f 112//38 113//38 114//38
f 115//39 116//39 117//39
f 118//40 119//40 120//40
f 121//41 122//41 123//41
f 124//42 125//42 126//42
f 127//43 128//43 129//43
f 130//44 131//44 132//44
f 133//45 134//45 135//45
f 136//46 137//46 138//46
f 139//47 140//47 141//47
f 142//48 143//48 144//48
f 145//49 146//49 147//49
f 148//50 149//50 150//50
f 151//51 152//51 153//51
f 154//52 155//52 156//52
f 157//53 158//53 159//53
f 160//54 161//54 162//54
f 163//55 164//55 165//55
f 166//56 167//56 168//56
f 169//57 170//57 171//57
f 172//58 173//58 174//58
f 175//59 176//59 177//59
f 178//60 179//60 180//60
f 181//61 182//61 183//61
f 184//62 185//62 186//62
f 187//63 188//63 189//63
f 190//64 191//64 192//64
f 193//65 194//65 195//65
f 196//66 197//66 198//66
f 199//67 200//67 201//67
f 202//68 203//68 204//68
f 205//69 206//69 207//69
f 208//70 209//70 210//70
f 211//71 212//71 213//71
f 214//72 215//72 216//72
f 217//73 218//73 219//73
f 220//74 221//74 222//74
