# Static Concept B graybox, metres, identity world transform.
v 36 0.862886 20.452239
v 35.789048 0.841995 21.644442
v 36 0.841774 21.584852
v 36 0.862886 20.452239
v 35.544796 0.863903 20.551914
v 35.789048 0.841995 21.644442
v 40.917501 0.844202 19.37546
v 38.065312 0.858272 20
v 41.050202 0.83942 20
v 38.065312 0.858272 20
v 41.081926 0.836751 20.149304
v 41.050202 0.83942 20
v 38.065312 0.858272 20
v 37.235771 0.843077 21.235771
v 41.081926 0.836751 20.149304
v 38.065312 0.858272 20
v 36.371001 0.862838 20.371001
v 37.235771 0.843077 21.235771
v 36.371001 0.862838 20.371001
v 36 0.841774 21.584852
v 37.235771 0.843077 21.235771
v 36.371001 0.862838 20.371001
v 36 0.862886 20.452239
v 36 0.841774 21.584852
v 36 0.841774 21.584852
v 35.789048 0.841995 21.644442
v 36 0.829282 22.254979
v 41.081926 0.836751 20.149304
v 38.066515 0.824094 22.066515
v 41.310306 0.824608 20.796399
v 41.081926 0.836751 20.149304
v 37.235771 0.843077 21.235771
v 38.066515 0.824094 22.066515
v 37.235771 0.843077 21.235771
v 36.188902 0.818296 22.801699
v 38.066515 0.824094 22.066515
v 37.235771 0.843077 21.235771
v 36 0.829282 22.254979
v 36.188902 0.818296 22.801699
v 37.235771 0.843077 21.235771
v 36 0.841774 21.584852
v 36 0.829282 22.254979
v 41.310306 0.824608 20.796399
v 39.369499 0.79432 23.369499
v 41.937322 0.795793 22.299573
v 41.310306 0.824608 20.796399
v 38.066515 0.824094 22.066515
v 39.369499 0.79432 23.369499
v 38.066515 0.824094 22.066515
v 36.860399 0.785397 24.414957
v 39.369499 0.79432 23.369499
v 38.066515 0.824094 22.066515
v 36.188902 0.818296 22.801699
v 36.860399 0.785397 24.414957
v 41.937322 0.795793 22.299573
v 40.660374 0.764822 24.660374
v 42.586578 0.765927 23.857788
v 41.937322 0.795793 22.299573
v 39.369499 0.79432 23.369499
v 40.660374 0.764822 24.660374
v 39.369499 0.79432 23.369499
v 37.509655 0.753617 25.973173
v 40.660374 0.764822 24.660374
v 39.369499 0.79432 23.369499
v 36.860399 0.785397 24.414957
v 37.509655 0.753617 25.973173
v 42.586578 0.765927 23.857788
v 41.951248 0.735325 25.951248
v 43.235835 0.736062 25.416004
v 42.586578 0.765927 23.857788
v 40.660374 0.764822 24.660374
v 41.951248 0.735325 25.951248
v 40.660374 0.764822 24.660374
v 38.158912 0.721838 27.531389
v 41.951248 0.735325 25.951248
v 40.660374 0.764822 24.660374
v 37.509655 0.753617 25.973173
v 38.158912 0.721838 27.531389
v 43.235835 0.736062 25.416004
v 43.242123 0.705827 27.242123
v 43.885092 0.706196 26.97422
v 43.235835 0.736062 25.416004
v 41.951248 0.735325 25.951248
v 43.242123 0.705827 27.242123
v 41.951248 0.735325 25.951248
v 41.423219 0.699358 28
v 43.242123 0.705827 27.242123
v 41.951248 0.735325 25.951248
v 38.354167 0.712281 28
v 41.423219 0.699358 28
v 41.951248 0.735325 25.951248
v 38.158912 0.721838 27.531389
v 38.354167 0.712281 28
v 38.354167 0.712281 28
v 38.808168 0.665829 29.089604
v 41.423219 0.699358 28
v 43.885092 0.706196 26.97422
v 44 0.688509 28
v 44 0.70091 27.25
v 43.885092 0.706196 26.97422
v 43.242123 0.705827 27.242123
v 44 0.688509 28
v 43.242123 0.705827 27.242123
v 41.423219 0.699358 28
v 44 0.688509 28
v 41.423219 0.699358 28
v 44 0.657643 28.75508
v 44 0.688509 28
v 41.423219 0.699358 28
v 40.460088 0.612256 30.230044
v 44 0.657643 28.75508
v 41.423219 0.699358 28
v 38.973684 0.648894 29.486842
v 40.460088 0.612256 30.230044
v 41.423219 0.699358 28
v 38.808168 0.665829 29.089604
v 38.973684 0.648894 29.486842
v 38.973684 0.648894 29.486842
v 39.457425 0.59166 30.64782
v 40.460088 0.612256 30.230044
v 44.3125 0.687502 28
v 44 0.70091 27.25
v 44 0.688509 28
v 44 0.688509 28
v 44.394737 0.680441 28.197368
v 44.3125 0.687471 28
v 44 0.688509 28
v 44.534348 0.666744 28.532435
v 44.394737 0.680441 28.197368
v 44 0.688509 28
v 44.532998 0.666721 28.532998
v 44.534348 0.666744 28.532435
v 44 0.688509 28
v 44 0.657643 28.75508
v 44.532998 0.666721 28.532998
v 44 0.657643 28.75508
v 42.450067 0.563204 31.225034
v 44 0.581586 30.61571
v 44 0.657643 28.75508
v 40.460088 0.612256 30.230044
v 42.450067 0.563204 31.225034
v 40.460088 0.612256 30.230044
v 40.478789 0.525 32
v 42.450067 0.563204 31.225034
v 40.460088 0.612256 30.230044
v 40.02138 0.525 32
v 40.478789 0.525 32
v 40.460088 0.612256 30.230044
v 39.457425 0.59166 30.64782
v 40.02138 0.525 32
v 44.534348 0.666744 28.532435
v 44.532998 0.666721 28.532998
v 44.535712 0.66661 28.535712
v 44.532998 0.666721 28.532998
v 45.204473 0.600942 30.142197
v 44.535712 0.66661 28.535712
v 44.532998 0.666721 28.532998
v 44 0.581586 30.61571
v 45.204473 0.600942 30.142197
v 44.532998 0.666721 28.532998
v 44 0.657643 28.75508
v 44 0.581586 30.61571
v 40.13511 0.525 32.13511
v 40.02138 0.525 32
v 40.036677 0.525 32.036677
v 40.13511 0.525 32.13511
v 40.478789 0.525 32
v 40.02138 0.525 32
v 40.036677 0.525 32.036677
v 40.085813 0.525 32.15449
v 40.13511 0.525 32.13511
v 44 0.581586 30.61571
v 43.583898 0.535257 31.791949
v 44 0.539471 31.645983
v 44 0.581586 30.61571
v 42.450067 0.563204 31.225034
v 43.583898 0.535257 31.791949
v 42.450067 0.563204 31.225034
v 42.990808 0.525 32
v 43.583898 0.535257 31.791949
v 42.450067 0.563204 31.225034
v 40.478789 0.525 32
v 42.990808 0.525 32
v 45.204473 0.600942 30.142197
v 44 0.539471 31.645983
v 45.544007 0.561611 31.104358
v 45.204473 0.600942 30.142197
v 44 0.581586 30.61571
v 44 0.539471 31.645983
v 40.776694 0.525 32.776694
v 40.478789 0.525 32
v 40.13511 0.525 32.13511
v 40.776694 0.525 32.776694
v 42.990808 0.525 32
v 40.478789 0.525 32
v 40.13511 0.525 32.13511
v 40.354069 0.525 32.924948
v 40.776694 0.525 32.776694
v 40.13511 0.525 32.13511
v 40.085813 0.525 32.15449
v 40.354069 0.525 32.924948
vn 0.006315 0.999806 0.018637
vn 0.006315 0.999806 0.018637
vn 0.006316 0.99996 0.006316
vn 0.006315 0.999843 0.016532
vn 0.006315 0.999843 0.016532
vn 0.006315 0.999843 0.016532
vn 0.00421 0.999817 0.018637
vn 0.00421 0.999817 0.018637
vn 0.006315 0.999806 0.018637
vn 0.006315 0.999843 0.016532
vn 0.006315 0.999843 0.016532
vn 0.00421 0.999817 0.018637
vn 0.00421 0.999817 0.018637
vn 0.00421 0.999817 0.018637
vn 0.006315 0.999843 0.016532
vn 0.006315 0.999843 0.016532
vn 0.00421 0.999817 0.018637
vn 0.00421 0.999817 0.018637
vn 0.006315 0.999843 0.016532
vn 0.006315 0.999843 0.016532
vn 0.00421 0.999817 0.018637
vn 0.00421 0.999817 0.018637
vn 0.006315 0.999843 0.016532
vn 0.006315 0.999843 0.016532
vn 0.00421 0.999817 0.018637
vn 0.00421 0.999817 0.018637
vn 0.006315 0.999843 0.016532
vn 0.006315 0.999843 0.016532
vn 0.00421 0.999817 0.018637
vn 0.00421 0.999817 0.018637
vn 0.00421 0.999817 0.018637
vn 0.004207 0.999157 0.040843
vn 0.006315 0.999843 0.016532
vn 0.006315 0.999843 0.016532
vn 0.00421 0.999817 0.018637
vn 0.004207 0.999157 0.040843
vn 0.004207 0.999157 0.040843
vn 0.004207 0.999157 0.040843
vn 0.004207 0.999157 0.040843
vn 0 0.998787 0.049238
vn 0.00322 0.999858 0.016533
vn 0.003318 0.999409 0.034217
vn 0 0.999166 0.040843
vn 0 0.999166 0.040843
vn 0 0.999166 0.040843
vn 0.004207 0.999157 0.040843
vn 0.004207 0.999157 0.040843
vn 0 0.998787 0.049238
vn 0 0.998787 0.049238
vn 0 0.998787 0.049238
vn 0 0.999166 0.040843
vn 0 0.999166 0.040843
vn 0 0.999166 0.040843
vn 0 0.999166 0.040843
vn 0 1 0
vn 0 1 0
vn 0 1 0
vn 0.004207 0.999157 0.040843
vn 0.004207 0.999157 0.040843
vn 0 0.998787 0.049238
vn 0 0.998787 0.049238
vn 0 0.999166 0.040843
vn 0 0.999166 0.040843
vn 0 1 0
vn 0 1 0
vn 0 1 0
vn 0 1 0
f 1//1 2//1 3//1
f 4//2 5//2 6//2
f 7//3 8//3 9//3
f 10//4 11//4 12//4
f 13//5 14//5 15//5
f 16//6 17//6 18//6
f 19//7 20//7 21//7
f 22//8 23//8 24//8
f 25//9 26//9 27//9
f 28//10 29//10 30//10
f 31//11 32//11 33//11
f 34//12 35//12 36//12
f 37//13 38//13 39//13
f 40//14 41//14 42//14
f 43//15 44//15 45//15
f 46//16 47//16 48//16
f 49//17 50//17 51//17
f 52//18 53//18 54//18
f 55//19 56//19 57//19
f 58//20 59//20 60//20
f 61//21 62//21 63//21
f 64//22 65//22 66//22
f 67//23 68//23 69//23
f 70//24 71//24 72//24
f 73//25 74//25 75//25
f 76//26 77//26 78//26
f 79//27 80//27 81//27
f 82//28 83//28 84//28
f 85//29 86//29 87//29
f 88//30 89//30 90//30
f 91//31 92//31 93//31
f 94//32 95//32 96//32
f 97//33 98//33 99//33
f 100//34 101//34 102//34
f 103//35 104//35 105//35
f 106//36 107//36 108//36
f 109//37 110//37 111//37
f 112//38 113//38 114//38
f 115//39 116//39 117//39
f 118//40 119//40 120//40
f 121//41 122//41 123//41
f 124//42 125//42 126//42
f 127//43 128//43 129//43
f 130//44 131//44 132//44
f 133//45 134//45 135//45
f 136//46 137//46 138//46
f 139//47 140//47 141//47
f 142//48 143//48 144//48
f 145//49 146//49 147//49
f 148//50 149//50 150//50
f 151//51 152//51 153//51
f 154//52 155//52 156//52
f 157//53 158//53 159//53
f 160//54 161//54 162//54
f 163//55 164//55 165//55
f 166//56 167//56 168//56
f 169//57 170//57 171//57
f 172//58 173//58 174//58
f 175//59 176//59 177//59
f 178//60 179//60 180//60
f 181//61 182//61 183//61
f 184//62 185//62 186//62
f 187//63 188//63 189//63
f 190//64 191//64 192//64
f 193//65 194//65 195//65
f 196//66 197//66 198//66
f 199//67 200//67 201//67
