# Static Concept B graybox, metres, identity world transform.
v 44 0.534123 31.776811
v 43.692708 0.532574 31.846354
v 44 0.525 32
v 43.692708 0.532574 31.846354
v 43.013785 0.525 32
v 44 0.525 32
v 45.631211 0.549213 31.407655
v 44 0.525 32
v 45.764002 0.525 32
v 45.631211 0.549213 31.407655
v 44 0.534123 31.776811
v 44 0.525 32
v 44 0.525 32
v 41.261272 0.525 33.261272
v 44 0.525 32.752475
v 44 0.525 32
v 40.556177 0.525 32.556177
v 41.261272 0.525 33.261272
v 44 0.525 32
v 43.013785 0.525 32
v 40.556177 0.525 32.556177
v 40.556177 0.525 32.556177
v 40.447941 0.525 33.412371
v 41.261272 0.525 33.261272
v 40.556177 0.525 32.556177
v 40.266864 0.525 32.621651
v 40.447941 0.525 33.412371
v 44 0.525 32.752475
v 45.764002 0.525 32
v 44 0.525 32
v 44 0.525 32.752475
v 45.855417 0.525 32.407778
v 45.764002 0.525 32
v 44 0.525 32.752475
v 42.903127 0.525 34.903127
v 44 0.525 34.720315
v 44 0.525 32.752475
v 41.261272 0.525 33.261272
v 42.903127 0.525 34.903127
v 41.261272 0.525 33.261272
v 40.755576 0.525 35.261052
v 42.903127 0.525 34.903127
v 41.261272 0.525 33.261272
v 40.447941 0.525 33.412371
v 40.755576 0.525 35.261052
v 45.535622 0.525 34.464378
v 46.180742 0.525 34.356858
v 46.103845 0.525 33.896155
v 46.103845 0.525 33.896155
v 44 0.525 34.720315
v 45.535622 0.525 34.464378
v 46.103845 0.525 33.896155
v 44 0.525 32.752475
v 44 0.525 34.720315
v 46.103845 0.525 33.896155
v 45.855417 0.525 32.407778
v 44 0.525 32.752475
v 44 0.525 34.720315
v 42.903127 0.525 34.903127
v 44 0.525 36
v 42.903127 0.525 34.903127
v 40.878734 0.525 36
v 44 0.525 36
v 42.903127 0.525 34.903127
v 40.755576 0.525 35.261052
v 40.878734 0.525 36
v 40.878734 0.525 36
v 44 0.525 36.671942
v 44 0.525 36
v 40.878734 0.525 36
v 41.072056 0.525 37.159933
v 44 0.525 36.671942
v 46.454599 0.525 36
v 45.535622 0.525 34.464378
v 44 0.525 36
v 46.454599 0.525 36
v 46.180742 0.525 34.356858
v 45.535622 0.525 34.464378
v 45.535622 0.525 34.464378
v 44 0.525 34.720315
v 44 0.525 36
v 44 0.525 36
v 46.497223 0.525 36.255739
v 46.454599 0.525 36
v 44 0.525 36
v 44.575951 0.525 36.575951
v 46.497223 0.525 36.255739
v 44 0.525 36
v 44 0.525 36.671942
v 44.575951 0.525 36.575951
v 44 0.525 36.671942
v 41.388536 0.525 39.058814
v 44 0.525 38.62357
v 44 0.525 36.671942
v 41.072056 0.525 37.159933
v 41.388536 0.525 39.058814
v 46.497223 0.525 36.255739
v 46.248774 0.525 38.248774
v 46.813703 0.525 38.154619
v 46.497223 0.525 36.255739
v 44.575951 0.525 36.575951
v 46.248774 0.525 38.248774
v 44.575951 0.525 36.575951
v 44 0.525 38.62357
v 46.248774 0.525 38.248774
v 44.575951 0.525 36.575951
v 44 0.525 36.671942
v 44 0.525 38.62357
v 44 0.525 38.62357
v 41.705016 0.525 40.957694
v 44 0.525 40.575197
v 44 0.525 38.62357
v 41.388536 0.525 39.058814
v 41.705016 0.525 40.957694
v 46.813703 0.525 38.154619
v 46.248774 0.525 38.248774
v 46.945519 0.525 38.945519
v 46.248774 0.525 38.248774
v 47.130183 0.525 40.0535
v 46.945519 0.525 38.945519
v 46.248774 0.525 38.248774
v 44 0.525 40.575197
v 47.130183 0.525 40.0535
v 46.248774 0.525 38.248774
v 44 0.525 38.62357
v 44 0.525 40.575197
v 44 0.525 40.575197
v 42.737278 0.525 42.737278
v 44 0.525 42.526824
v 44 0.525 40.575197
v 41.854481 0.525 41.854481
v 42.737278 0.525 42.737278
v 44 0.525 40.575197
v 41.705016 0.525 40.957694
v 41.854481 0.525 41.854481
v 41.854481 0.525 41.854481
v 42.021496 0.525 42.856575
v 42.737278 0.525 42.737278
v 47.130183 0.525 40.0535
v 44 0.525 42.526824
v 47.446663 0.525 41.95238
v 47.130183 0.525 40.0535
v 44 0.525 40.575197
v 44 0.525 42.526824
v 44 0.525 42.526824
v 42.737278 0.525 42.737278
v 44 0.525 44
v 42.737278 0.525 42.737278
v 42.212067 0.525 44
v 44 0.525 44
v 42.737278 0.525 42.737278
v 42.021496 0.525 42.856575
v 42.212067 0.525 44
v 42.212067 0.525 44
v 44 0.525 44.478451
v 44 0.525 44
v 42.212067 0.525 44
v 42.337976 0.525 44.755455
v 44 0.525 44.478451
v 47.446663 0.525 41.95238
v 46.870709 0.525 44
v 47.763143 0.525 43.851261
v 47.446663 0.525 41.95238
v 44 0.525 44
v 46.870709 0.525 44
v 47.446663 0.525 41.95238
v 44 0.525 42.526824
v 44 0.525 44
v 44 0.525 44
v 44.410101 0.525 44.410101
v 46.870709 0.525 44
v 44 0.525 44
v 44 0.525 44.478451
v 44.410101 0.525 44.410101
v 44 0.525 44.478451
v 42.654457 0.525 46.654336
v 44 0.525 46.430079
v 44 0.525 44.478451
v 42.337976 0.525 44.755455
v 42.654457 0.525 46.654336
v 47.763143 0.525 43.851261
v 46.870709 0.525 44
v 47.787933 0.525 44
v 46.870709 0.525 44
v 48.079623 0.525 45.750142
v 47.787933 0.525 44
v 46.870709 0.525 44
v 46.082925 0.525 46.082925
v 48.079623 0.525 45.750142
v 46.870709 0.525 44
v 44.410101 0.525 44.410101
v 46.082925 0.525 46.082925
v 44.410101 0.525 44.410101
v 44 0.525 46.430079
v 46.082925 0.525 46.082925
v 44.410101 0.525 44.410101
v 44 0.525 44.478451
v 44 0.525 46.430079
v 44 0.525 46.430079
v 42.970937 0.525 48.553217
v 44 0.525 48.381706
v 44 0.525 46.430079
v 42.654457 0.525 46.654336
v 42.970937 0.525 48.553217
v 48.079623 0.525 45.750142
v 47.755748 0.525 47.755748
v 48.396103 0.525 47.649022
v 48.079623 0.525 45.750142
v 46.082925 0.525 46.082925
v 47.755748 0.525 47.755748
v 46.082925 0.525 46.082925
v 44 0.525 48.381706
v 47.755748 0.525 47.755748
v 46.082925 0.525 46.082925
v 44 0.525 46.430079
v 44 0.525 48.381706
v 44 0.525 48.381706
v 43.287417 0.525 50.452097
v 44 0.525 50.333333
v 44 0.525 48.381706
v 42.970937 0.525 48.553217
v 43.287417 0.525 50.452097
v 48.396103 0.525 47.649022
v 47.755748 0.525 47.755748
v 48.545519 0.525 48.545519
v 47.755748 0.525 47.755748
v 48.712583 0.525 49.547903
v 48.545519 0.525 48.545519
v 47.755748 0.525 47.755748
v 44 0.525 50.333333
v 48.712583 0.525 49.547903
v 47.755748 0.525 47.755748
v 44 0.525 48.381706
v 44 0.525 50.333333
vn 0.004207 0.999157 0.040843
vn 0 0.998787 0.049238
vn 0 0.999166 0.040843
vn 0 0.999166 0.040843
vn 0 1 0
vn 0 1 0
vn 0 1 0
vn 0 1 0
vn 0 1 0
vn 0 1 0
vn 0 1 0
vn 0 1 0
vn 0 1 0
vn 0 1 0
vn 0 1 0
vn 0 1 0
vn 0 1 0
vn 0 1 0
vn 0 1 0
vn 0 1 0
vn 0 1 0
vn 0 1 0
vn 0 1 0
vn 0 1 0
vn 0 1 0
vn 0 1 0
vn 0 1 0
vn 0 1 0
vn 0 1 0
vn 0 1 0
vn 0 1 0
vn 0 1 0
vn 0 1 0
vn 0 1 0
vn 0 1 0
vn 0 1 0
vn 0 1 0
vn 0 1 0
vn 0 1 0
vn 0 1 0
vn 0 1 0
vn 0 1 0
vn 0 1 0
vn 0 1 0
vn 0 1 0
vn 0 1 0
vn 0 1 0
vn 0 1 0
vn 0 1 0
vn 0 1 0
vn 0 1 0
vn 0 1 0
vn 0 1 0
vn 0 1 0
vn 0 1 0
vn 0 1 0
vn 0 1 0
vn 0 1 0
vn 0 1 0
vn 0 1 0
vn 0 1 0
vn 0 1 0
vn 0 1 0
vn 0 1 0
vn 0 1 0
vn 0 1 0
vn 0 1 0
vn 0 1 0
vn 0 1 0
vn 0 1 0
vn 0 1 0
vn 0 1 0
vn 0 1 0
vn 0 1 0
vn 0 1 0
vn 0 1 0
vn 0 1 0
vn 0 1 0
f 1//1 2//1 3//1
f 4//2 5//2 6//2
f 7//3 8//3 9//3
f 10//4 11//4 12//4
f 13//5 14//5 15//5
f 16//6 17//6 18//6
f 19//7 20//7 21//7
f 22//8 23//8 24//8
f 25//9 26//9 27//9
f 28//10 29//10 30//10
f 31//11 32//11 33//11
f 34//12 35//12 36//12
f 37//13 38//13 39//13
f 40//14 41//14 42//14
f 43//15 44//15 45//15
f 46//16 47//16 48//16
f 49//17 50//17 51//17
f 52//18 53//18 54//18
f 55//19 56//19 57//19
f 58//20 59//20 60//20
f 61//21 62//21 63//21
f 64//22 65//22 66//22
f 67//23 68//23 69//23
f 70//24 71//24 72//24
f 73//25 74//25 75//25
f 76//26 77//26 78//26
f 79//27 80//27 81//27
f 82//28 83//28 84//28
f 85//29 86//29 87//29
f 88//30 89//30 90//30
f 91//31 92//31 93//31
f 94//32 95//32 96//32
f 97//33 98//33 99//33
f 100//34 101//34 102//34
f 103//35 104//35 105//35
f 106//36 107//36 108//36
f 109//37 110//37 111//37
f 112//38 113//38 114//38
f 115//39 116//39 117//39
f 118//40 119//40 120//40
f 121//41 122//41 123//41
f 124//42 125//42 126//42
f 127//43 128//43 129//43
f 130//44 131//44 132//44
f 133//45 134//45 135//45
f 136//46 137//46 138//46
f 139//47 140//47 141//47
f 142//48 143//48 144//48
f 145//49 146//49 147//49
f 148//50 149//50 150//50
f 151//51 152//51 153//51
f 154//52 155//52 156//52
f 157//53 158//53 159//53
f 160//54 161//54 162//54
f 163//55 164//55 165//55
f 166//56 167//56 168//56
f 169//57 170//57 171//57
f 172//58 173//58 174//58
f 175//59 176//59 177//59
f 178//60 179//60 180//60
f 181//61 182//61 183//61
f 184//62 185//62 186//62
f 187//63 188//63 189//63
f 190//64 191//64 192//64
f 193//65 194//65 195//65
f 196//66 197//66 198//66
f 199//67 200//67 201//67
f 202//68 203//68 204//68
f 205//69 206//69 207//69
f 208//70 209//70 210//70
f 211//71 212//71 213//71
f 214//72 215//72 216//72
f 217//73 218//73 219//73
f 220//74 221//74 222//74
f 223//75 224//75 225//75
f 226//76 227//76 228//76
f 229//77 230//77 231//77
f 232//78 233//78 234//78
