# Static Concept B graybox, metres, identity world transform.
v -52.676694 1.789337 -36.676694
v -52.575589 1.79551 -37.755145
v -53.877168 1.804501 -37.877168
v -53.877168 1.804501 -37.877168
v -52.740134 1.785464 -36
v -52.676694 1.789337 -36.676694
v -53.877168 1.804501 -37.877168
v -55 1.799737 -36
v -52.740134 1.785464 -36
v -53.877168 1.804501 -37.877168
v -57.240177 1.815212 -36.210017
v -55 1.799737 -36
v -53.877168 1.804501 -37.877168
v -57.055943 1.82646 -38.175178
v -57.240177 1.815212 -36.210017
v -55 1.799737 -36
v -52.759823 1.784262 -35.789983
v -52.740134 1.785464 -36
v -53.877168 1.804501 -37.877168
v -52.391355 1.806758 -39.720307
v -56.064681 1.832133 -40.064681
v -53.877168 1.804501 -37.877168
v -52.575589 1.79551 -37.755145
v -52.391355 1.806758 -39.720307
v -56.064681 1.832133 -40.064681
v -57.055943 1.82646 -38.175178
v -53.877168 1.804501 -37.877168
v -56.064681 1.832133 -40.064681
v -56.871709 1.837708 -40.14034
v -57.055943 1.82646 -38.175178
v -56.064681 1.832133 -40.064681
v -56.687475 1.848956 -42.105502
v -56.80902 1.841535 -40.80902
v -56.064681 1.832133 -40.064681
v -52.207121 1.818006 -41.685469
v -56.687475 1.848956 -42.105502
v -56.064681 1.832133 -40.064681
v -52.391355 1.806758 -39.720307
v -52.207121 1.818006 -41.685469
v -56.80902 1.841535 -40.80902
v -56.871709 1.837708 -40.14034
v -56.064681 1.832133 -40.064681
v -55.749494 1.854997 -44
v -56.503241 1.860204 -44.070664
v -56.509866 1.859799 -44
v -56.509866 1.859799 -44
v -52.022887 1.829254 -43.650631
v -55.749494 1.854997 -44
v -56.509866 1.859799 -44
v -52.207121 1.818006 -41.685469
v -52.022887 1.829254 -43.650631
v -56.509866 1.859799 -44
v -56.687475 1.848956 -42.105502
v -52.207121 1.818006 -41.685469
v -52 1.841616 -45.630919
v -53.799634 1.854048 -45.799634
v -52 1.831316 -44
v -53.799634 1.854048 -45.799634
v -55.749494 1.854997 -44
v -52 1.831316 -44
v -53.799634 1.854048 -45.799634
v -56.503241 1.860204 -44.070664
v -55.749494 1.854997 -44
v -53.799634 1.854048 -45.799634
v -56.319007 1.871452 -46.035826
v -56.503241 1.860204 -44.070664
v -55.749494 1.854997 -44
v -52 1.830651 -43.894762
v -52 1.831316 -44
v -55.749494 1.854997 -44
v -52.022887 1.829254 -43.650631
v -52 1.830651 -43.894762
v -51.990134 1.831227 -44
v -52 1.841616 -45.630919
v -52 1.831316 -44
v -51.990134 1.831227 -44
v -51.838653 1.840074 -45.615792
v -52 1.841616 -45.630919
v -52 1.831316 -44
v -51.990613 1.831213 -43.994895
v -51.990134 1.831227 -44
v -52 1.831316 -44
v -51.99098 1.831202 -43.99098
v -51.990613 1.831213 -43.994895
v -52 1.831316 -44
v -52 1.830651 -43.894762
v -51.99098 1.831202 -43.99098
v -52 1.854137 -47.613352
v -53.799634 1.854048 -45.799634
v -52 1.841616 -45.630919
v -52 1.854137 -47.613352
v -55.987148 1.88168 -47.987148
v -53.799634 1.854048 -45.799634
v -55.987148 1.88168 -47.987148
v -56.319007 1.871452 -46.035826
v -53.799634 1.854048 -45.799634
v -55.987148 1.88168 -47.987148
v -56.134773 1.8827 -48.000987
v -56.319007 1.871452 -46.035826
v -52 1.841616 -45.630919
v -51.654419 1.850833 -47.580954
v -52 1.854137 -47.613352
v -52 1.841616 -45.630919
v -51.838653 1.840074 -45.615792
v -51.654419 1.850833 -47.580954
v -52 1.866658 -49.595786
v -55.987148 1.88168 -47.987148
v -52 1.854137 -47.613352
v -52 1.866658 -49.595786
v -56.123306 1.8834 -48.123306
v -55.987148 1.88168 -47.987148
v -52 1.866658 -49.595786
v -55.95054 1.893948 -49.966149
v -56.123306 1.8834 -48.123306
v -56.123306 1.8834 -48.123306
v -56.134773 1.8827 -48.000987
v -55.987148 1.88168 -47.987148
v -52 1.854137 -47.613352
v -51.470186 1.861592 -49.546116
v -52 1.866658 -49.595786
v -52 1.854137 -47.613352
v -51.654419 1.850833 -47.580954
v -51.470186 1.861592 -49.546116
v -52 1.879178 -51.57822
v -55.95054 1.893948 -49.966149
v -52 1.866658 -49.595786
v -52 1.879178 -51.57822
v -55.766306 1.905195 -51.931311
v -55.95054 1.893948 -49.966149
v -51.287163 1.871712 -51.49836
v -51.285952 1.871777 -51.511278
v -51.308526 1.872016 -51.513394
v -51.308526 1.872016 -51.513394
v -51.305265 1.871049 -51.305265
v -51.287163 1.871712 -51.49836
v -51.308526 1.872016 -51.513394
v -51.534588 1.874612 -51.534588
v -51.305265 1.871049 -51.305265
v -51.534588 1.874612 -51.534588
v -51.31327 1.870756 -51.219887
v -51.305265 1.871049 -51.305265
v -51.534588 1.874612 -51.534588
v -51.595311 1.875309 -51.54028
v -51.31327 1.870756 -51.219887
v -51.595311 1.875309 -51.54028
v -51.470186 1.861592 -49.546116
v -51.31327 1.870756 -51.219887
v -51.595311 1.875309 -51.54028
v -52 1.866658 -49.595786
v -51.470186 1.861592 -49.546116
v -51.595311 1.875309 -51.54028
v -52 1.879178 -51.57822
v -52 1.866658 -49.595786
v -52 1.891699 -53.560654
v -53.722101 1.917462 -53.722101
v -52 1.881842 -52
v -53.722101 1.917462 -53.722101
v -55.759866 1.905589 -52
v -52 1.881842 -52
v -53.722101 1.917462 -53.722101
v -55.582072 1.931715 -53.896473
v -55.759866 1.905589 -52
v -55.759866 1.905589 -52
v -52 1.879178 -51.57822
v -52 1.881842 -52
v -55.759866 1.905589 -52
v -55.766306 1.905195 -51.931311
v -52 1.879178 -51.57822
v -51.240134 1.874207 -52
v -52 1.891699 -53.560654
v -52 1.881842 -52
v -51.240134 1.874207 -52
v -51.101718 1.882141 -53.47644
v -52 1.891699 -53.560654
v -52 1.881842 -52
v -51.285952 1.871777 -51.511278
v -51.240134 1.874207 -52
v -52 1.881842 -52
v -51.308526 1.872016 -51.513394
v -51.285952 1.871777 -51.511278
v -52 1.881842 -52
v -51.534588 1.874612 -51.534588
v -51.308526 1.872016 -51.513394
v -52 1.881842 -52
v -51.595311 1.875309 -51.54028
v -51.534588 1.874612 -51.534588
v -52 1.881842 -52
v -52 1.879178 -51.57822
v -51.595311 1.875309 -51.54028
v -52 1.904219 -55.543087
v -53.722101 1.917462 -53.722101
v -52 1.891699 -53.560654
v -52 1.904219 -55.543087
v -55.437592 1.952946 -55.437592
v -53.722101 1.917462 -53.722101
v -52 1.904219 -55.543087
v -55.397838 1.955053 -55.861635
v -55.437592 1.952946 -55.437592
v -55.437592 1.952946 -55.437592
v -55.582072 1.931715 -53.896473
v -53.722101 1.917462 -53.722101
v -52 1.891699 -53.560654
v -50.917484 1.892701 -55.441602
v -52 1.904219 -55.543087
v -52 1.891699 -53.560654
v -51.101718 1.882141 -53.47644
v -50.917484 1.892701 -55.441602
v -52 1.91674 -57.525521
v -55.397838 1.955053 -55.861635
v -52 1.904219 -55.543087
v -52 1.91674 -57.525521
v -55.213604 1.964817 -57.826797
v -55.397838 1.955053 -55.861635
v -52 1.904219 -55.543087
v -50.73325 1.903262 -57.406763
v -52 1.91674 -57.525521
v -52 1.904219 -55.543087
v -50.917484 1.892701 -55.441602
v -50.73325 1.903262 -57.406763
v -52 1.929261 -59.507955
v -55.213604 1.964817 -57.826797
v -52 1.91674 -57.525521
v -52 1.929261 -59.507955
v -55.02937 1.974582 -59.791958
v -55.213604 1.964817 -57.826797
v -50.619551 1.909779 -58.619551
v -50.549016 1.916893 -59.371925
v -51.457054 1.923484 -59.457054
v -51.457054 1.923484 -59.457054
v -50.73325 1.903262 -57.406763
v -50.619551 1.909779 -58.619551
v -51.457054 1.923484 -59.457054
v -52 1.91674 -57.525521
v -50.73325 1.903262 -57.406763
v -51.457054 1.923484 -59.457054
v -52 1.929261 -59.507955
v -52 1.91674 -57.525521
v -52 1.94171 -61.479013
v -53.666595 1.957567 -61.666595
v -52 1.932368 -60
v -53.666595 1.957567 -61.666595
v -55.009826 1.975615 -60
v -52 1.932368 -60
v -53.666595 1.957567 -61.666595
v -54.840841 1.974538 -61.798762
v -55.009826 1.975615 -60
v -55.009826 1.975615 -60
v -52 1.929261 -59.507955
v -52 1.932368 -60
v -55.009826 1.975615 -60
v -55.02937 1.974582 -59.791958
v -52 1.929261 -59.507955
v -50.490262 1.922833 -60
v -52 1.94171 -61.479013
v -52 1.932368 -60
v -50.490262 1.922833 -60
v -50.369077 1.93025 -61.295445
v -52 1.94171 -61.479013
v -52 1.932368 -60
v -50.549016 1.916893 -59.371925
v -50.490262 1.922833 -60
v -52 1.932368 -60
v -51.457054 1.923484 -59.457054
v -50.549016 1.916893 -59.371925
v -52 1.932368 -60
v -52 1.929261 -59.507955
v -51.457054 1.923484 -59.457054
v -52 1.94903 -62.638073
v -53.666595 1.957567 -61.666595
v -52 1.94171 -61.479013
v -52 1.94903 -62.638073
v -54.708687 1.973323 -62.708687
v -53.666595 1.957567 -61.666595
v -52 1.94903 -62.638073
v -54.644086 1.975563 -63.153493
v -54.708687 1.973323 -62.708687
v -54.708687 1.973323 -62.708687
v -54.840841 1.974538 -61.798762
v -53.666595 1.957567 -61.666595
v -52 1.94171 -61.479013
v -50.227221 1.935651 -62.2925
v -52 1.94903 -62.638073
v -52 1.94171 -61.479013
v -50.369077 1.93025 -61.295445
v -50.227221 1.935651 -62.2925
v -52 1.956565 -63.831097
v -54.644086 1.975563 -63.153493
v -52 1.94903 -62.638073
v -52 1.956565 -63.831097
v -54.305947 1.981237 -64.523143
v -54.644086 1.975563 -63.153493
v -52 1.94903 -62.638073
v -49.995863 1.940108 -63.229629
v -52 1.956565 -63.831097
v -52 1.94903 -62.638073
v -50.227221 1.935651 -62.2925
v -49.995863 1.940108 -63.229629
v -52 1.964563 -65.097463
v -54.305947 1.981237 -64.523143
v -52 1.956565 -63.831097
v -52 1.964563 -65.097463
v -53.834034 1.985479 -65.852645
v -54.305947 1.981237 -64.523143
v -52 1.956565 -63.831097
v -49.672975 1.943814 -64.139288
v -52 1.964563 -65.097463
v -52 1.956565 -63.831097
v -49.995863 1.940108 -63.229629
v -49.672975 1.943814 -64.139288
v -52 1.973243 -66.471878
v -53.834034 1.985479 -65.852645
v -52 1.964563 -65.097463
v -52 1.973243 -66.471878
v -53.232972 1.988248 -67.128969
v -53.834034 1.985479 -65.852645
v -52 1.964563 -65.097463
v -49.261723 1.946732 -65.012562
v -52 1.973243 -66.471878
v -52 1.964563 -65.097463
v -49.672975 1.943814 -64.139288
v -49.261723 1.946732 -65.012562
v -52.157964 1.984285 -68
v -52.568203 1.990857 -68.245445
v -52.714345 1.989184 -68
v -52.714345 1.989184 -68
v -52 1.982298 -67.905491
v -52.157964 1.984285 -68
v -52.714345 1.989184 -68
v -52 1.973243 -66.471878
v -52 1.982298 -67.905491
v -52.714345 1.989184 -68
v -53.232972 1.988248 -67.128969
v -52 1.973243 -66.471878
v -49.168114 1.947124 -65.168114
v -48.706586 1.949052 -65.935053
v -51.764729 1.979923 -67.764729
v -51.764729 1.979923 -67.764729
v -49.261723 1.946732 -65.012562
v -49.168114 1.947124 -65.168114
v -51.764729 1.979923 -67.764729
v -52 1.973243 -66.471878
v -49.261723 1.946732 -65.012562
v -51.764729 1.979923 -67.764729
v -52 1.982298 -67.905491
v -52 1.973243 -66.471878
vn 0.006316 0.99996 0.006316
vn 0.006316 0.99996 0.006316
vn 0.006316 0.99996 0.006316
vn 0.006316 0.99996 0.006316
vn 0.006316 0.99996 0.006316
vn 0.006316 0.99996 0.006316
vn 0.006316 0.99996 0.006316
vn 0.006316 0.99996 0.006316
vn 0.006316 0.99996 0.006316
vn 0.006316 0.99996 0.006316
vn 0.006316 0.99996 0.006316
vn 0.006316 0.99996 0.006316
vn 0.006316 0.99996 0.006316
vn 0.006316 0.99996 0.006316
vn 0.006316 0.99996 0.006316
vn 0.006316 0.99996 0.006316
vn 0.006316 0.99996 0.006316
vn 0.006316 0.99996 0.006316
vn 0.006316 0.99996 0.006316
vn 0.006316 0.99996 0.006316
vn 0.006316 0.99996 0.006316
vn 0.006316 0.99996 0.006316
vn 0.006316 0.99996 0.006316
vn 0.006316 0.99996 0.006316
vn 0.008968 0.99994 0.006315
vn 0.008968 0.99994 0.006315
vn 0.008968 0.999953 0.003623
vn 0.00892 0.999953 0.003711
vn 0.006316 0.99996 0.006316
vn 0.006316 0.99996 0.006316
vn 0.006316 0.99996 0.006316
vn 0.006316 0.99996 0.006316
vn 0.006316 0.99996 0.006316
vn 0.008968 0.99994 0.006315
vn 0.008968 0.99994 0.006315
vn 0.006316 0.99996 0.006316
vn 0.006316 0.99996 0.006316
vn 0.006316 0.99996 0.006316
vn 0.006316 0.99996 0.006316
vn 0.008968 0.99994 0.006315
vn 0.008968 0.99994 0.006315
vn 0.006316 0.99996 0.006316
vn 0.006316 0.99996 0.006316
vn 0.010047 0.999932 0.005914
vn 0.011064 0.999929 0.00447
vn 0.011064 0.999929 0.00447
vn 0.011064 0.999929 0.00447
vn 0.011064 0.999929 0.00447
vn 0.008968 0.99994 0.006315
vn 0.008968 0.99994 0.006315
vn 0.008968 0.99994 0.006315
vn 0.014367 0.999877 0.006315
vn 0.006315 0.999877 0.014367
vn 0.006315 0.999877 0.014367
vn 0.006316 0.99996 0.006316
vn 0.006316 0.99996 0.006316
vn 0.010047 0.99993 0.006315
vn 0.010047 0.99993 0.006315
vn 0.010047 0.999932 0.005914
vn 0.010047 0.999932 0.005914
vn 0.011064 0.999929 0.00447
vn 0.011064 0.999929 0.00447
vn 0.008968 0.99994 0.006315
vn 0.014367 0.999877 0.006315
vn 0.014367 0.999877 0.006315
vn 0.014367 0.999877 0.006315
vn 0.006315 0.999877 0.014367
vn 0.010047 0.99993 0.006315
vn 0.010047 0.99993 0.006315
vn 0.014367 0.999877 0.006315
vn 0.014367 0.999877 0.006315
vn 0.010047 0.99993 0.006315
vn 0.010047 0.99993 0.006315
vn 0.014367 0.999877 0.006315
vn 0.014367 0.999877 0.006315
vn 0.006315 0.99993 0.010047
vn 0.010047 0.99993 0.006315
vn 0.010047 0.99993 0.006315
vn 0.010047 0.99993 0.006315
vn 0.008803 0.999941 0.006315
vn 0.014367 0.999897 0.000751
vn 0.014367 0.999897 0.000751
vn 0.014367 0.999877 0.006315
vn 0.014367 0.999877 0.006315
vn 0.006316 0.99996 0.006316
vn 0.006316 0.99996 0.006316
vn 0.006315 0.99993 0.010047
vn 0.006315 0.99993 0.010047
vn 0.010047 0.99993 0.006315
vn 0.008803 0.999941 0.006315
vn 0.008803 0.999941 0.006315
vn 0.008803 0.999941 0.006315
vn 0.014367 0.999897 0.000751
vn 0.006316 0.99996 0.006316
vn 0.006316 0.99996 0.006316
vn 0.008803 0.999941 0.006315
vn 0.008803 0.999941 0.006315
vn 0.006316 0.99996 0.006316
vn 0.006316 0.99996 0.006316
vn 0.008803 0.999941 0.006315
vn 0.008803 0.999941 0.006315
vn 0.006316 0.99996 0.006316
vn 0.006316 0.99996 0.006316
vn 0.008803 0.999941 0.006315
vn 0.008803 0.999941 0.006315
vn 0.006316 0.99996 0.006316
vn 0.006316 0.99996 0.006316
vn 0.008803 0.999889 0.012056
vn 0.008803 0.999941 0.006315
vn 0.008803 0.999941 0.006315
vn 0.008803 0.999941 0.006315
vn 0.006316 0.99996 0.006316
vn 0.006316 0.99996 0.006316
vn 0.006316 0.99996 0.006316
vn 0.006316 0.99996 0.006316
f 1//1 2//1 3//1
f 4//2 5//2 6//2
f 7//3 8//3 9//3
f 10//4 11//4 12//4
f 13//5 14//5 15//5
f 16//6 17//6 18//6
f 19//7 20//7 21//7
f 22//8 23//8 24//8
f 25//9 26//9 27//9
f 28//10 29//10 30//10
f 31//11 32//11 33//11
f 34//12 35//12 36//12
f 37//13 38//13 39//13
f 40//14 41//14 42//14
f 43//15 44//15 45//15
f 46//16 47//16 48//16
f 49//17 50//17 51//17
f 52//18 53//18 54//18
f 55//19 56//19 57//19
f 58//20 59//20 60//20
f 61//21 62//21 63//21
f 64//22 65//22 66//22
f 67//23 68//23 69//23
f 70//24 71//24 72//24
f 73//25 74//25 75//25
f 76//26 77//26 78//26
f 79//27 80//27 81//27
f 82//28 83//28 84//28
f 85//29 86//29 87//29
f 88//30 89//30 90//30
f 91//31 92//31 93//31
f 94//32 95//32 96//32
f 97//33 98//33 99//33
f 100//34 101//34 102//34
f 103//35 104//35 105//35
f 106//36 107//36 108//36
f 109//37 110//37 111//37
f 112//38 113//38 114//38
f 115//39 116//39 117//39
f 118//40 119//40 120//40
f 121//41 122//41 123//41
f 124//42 125//42 126//42
f 127//43 128//43 129//43
f 130//44 131//44 132//44
f 133//45 134//45 135//45
f 136//46 137//46 138//46
f 139//47 140//47 141//47
f 142//48 143//48 144//48
f 145//49 146//49 147//49
f 148//50 149//50 150//50
f 151//51 152//51 153//51
f 154//52 155//52 156//52
f 157//53 158//53 159//53
f 160//54 161//54 162//54
f 163//55 164//55 165//55
f 166//56 167//56 168//56
f 169//57 170//57 171//57
f 172//58 173//58 174//58
f 175//59 176//59 177//59
f 178//60 179//60 180//60
f 181//61 182//61 183//61
f 184//62 185//62 186//62
f 187//63 188//63 189//63
f 190//64 191//64 192//64
f 193//65 194//65 195//65
f 196//66 197//66 198//66
f 199//67 200//67 201//67
f 202//68 203//68 204//68
f 205//69 206//69 207//69
f 208//70 209//70 210//70
f 211//71 212//71 213//71
f 214//72 215//72 216//72
f 217//73 218//73 219//73
f 220//74 221//74 222//74
f 223//75 224//75 225//75
f 226//76 227//76 228//76
f 229//77 230//77 231//77
f 232//78 233//78 234//78
f 235//79 236//79 237//79
f 238//80 239//80 240//80
f 241//81 242//81 243//81
f 244//82 245//82 246//82
f 247//83 248//83 249//83
f 250//84 251//84 252//84
f 253//85 254//85 255//85
f 256//86 257//86 258//86
f 259//87 260//87 261//87
f 262//88 263//88 264//88
f 265//89 266//89 267//89
f 268//90 269//90 270//90
f 271//91 272//91 273//91
f 274//92 275//92 276//92
f 277//93 278//93 279//93
f 280//94 281//94 282//94
f 283//95 284//95 285//95
f 286//96 287//96 288//96
f 289//97 290//97 291//97
f 292//98 293//98 294//98
f 295//99 296//99 297//99
f 298//100 299//100 300//100
f 301//101 302//101 303//101
f 304//102 305//102 306//102
f 307//103 308//103 309//103
f 310//104 311//104 312//104
f 313//105 314//105 315//105
f 316//106 317//106 318//106
f 319//107 320//107 321//107
f 322//108 323//108 324//108
f 325//109 326//109 327//109
f 328//110 329//110 330//110
f 331//111 332//111 333//111
f 334//112 335//112 336//112
f 337//113 338//113 339//113
f 340//114 341//114 342//114
f 343//115 344//115 345//115
