# Static Concept B graybox, metres, identity world transform.
v -52 1.989383 -69.02732
v -52.391027 1.991052 -68.391027
v -52 1.983532 -68.100978
v -52 1.989383 -69.02732
v -52.438617 1.992045 -68.438617
v -52.391027 1.991052 -68.391027
v -52.438617 1.992045 -68.438617
v -52.444515 1.992001 -68.430702
v -52.391027 1.991052 -68.391027
v -49.87555 1.969477 -68
v -52 1.983532 -68.100978
v -51.863868 1.982035 -68
v -49.87555 1.969477 -68
v -52 1.989383 -69.02732
v -52 1.983532 -68.100978
v -49.87555 1.969477 -68
v -51.668175 1.9901 -69.472687
v -52 1.989383 -69.02732
v -51.863868 1.982035 -68
v -48.191072 1.950098 -66.616159
v -49.87555 1.969477 -68
v -51.863868 1.982035 -68
v -48.830274 1.948664 -65.749795
v -48.191072 1.950098 -66.616159
v -48.209569 1.958955 -68
v -51.668175 1.9901 -69.472687
v -49.87555 1.969477 -68
v -48.209569 1.958955 -68
v -50.719777 1.990707 -70.51711
v -51.668175 1.9901 -69.472687
v -49.87555 1.969477 -68
v -47.542168 1.950513 -67.330764
v -48.209569 1.958955 -68
v -49.87555 1.969477 -68
v -48.191072 1.950098 -66.616159
v -47.542168 1.950513 -67.330764
v -46.843999 1.950331 -68
v -50.719777 1.990707 -70.51711
v -48.209569 1.958955 -68
v -46.843999 1.950331 -68
v -49.672754 1.990066 -71.462637
v -50.719777 1.990707 -70.51711
v -48.209569 1.958955 -68
v -46.825784 1.950075 -67.977704
v -46.843999 1.950331 -68
v -48.209569 1.958955 -68
v -47.542168 1.950513 -67.330764
v -46.825784 1.950075 -67.977704
v -46.795553 1.950025 -68
v -49.672754 1.990066 -71.462637
v -46.843999 1.950331 -68
v -46.795553 1.950025 -68
v -48.537369 1.988183 -72.3
v -49.672754 1.990066 -71.462637
v -46.795553 1.950025 -68
v -46.048941 1.948787 -68.550637
v -48.537369 1.988183 -72.3
v -46.843999 1.950331 -68
v -46.825784 1.950075 -67.977704
v -46.795553 1.950025 -68
v -45.330021 1.949169 -69.330021
v -47.361316 1.985184 -73.001199
v -48.388663 1.987804 -72.388663
v -48.388663 1.987804 -72.388663
v -45.182686 1.946556 -69.063741
v -45.330021 1.949169 -69.330021
v -48.388663 1.987804 -72.388663
v -46.048941 1.948787 -68.550637
v -45.182686 1.946556 -69.063741
v -48.388663 1.987804 -72.388663
v -48.537369 1.988183 -72.3
v -46.048941 1.948787 -68.550637
v -44 1.951348 -71.00514
v -45.104902 1.946325 -69.104902
v -44 1.943039 -69.689571
v -44 1.951348 -71.00514
v -45.330021 1.949169 -69.330021
v -45.104902 1.946325 -69.104902
v -44 1.951348 -71.00514
v -47.361316 1.985184 -73.001199
v -45.330021 1.949169 -69.330021
v -44 1.951348 -71.00514
v -45.561433 1.979838 -73.954513
v -47.361316 1.985184 -73.001199
v -45.330021 1.949169 -69.330021
v -45.182686 1.946556 -69.063741
v -45.104902 1.946325 -69.104902
v -44 1.943039 -69.689571
v -43.455938 1.940605 -69.977467
v -44 1.951348 -71.00514
v -44 1.975197 -74.781154
v -45.561433 1.979838 -73.954513
v -44 1.951348 -71.00514
v -44 1.951348 -71.00514
v -43.798117 1.974294 -74.888033
v -44 1.975197 -74.781154
v -44 1.951348 -71.00514
v -41.692622 1.93272 -70.910987
v -43.798117 1.974294 -74.888033
v -44 1.951348 -71.00514
v -43.455938 1.940605 -69.977467
v -41.692622 1.93272 -70.910987
v -40.024705 1.926718 -72.024705
v -42.034801 1.969088 -75.821553
v -43.203062 1.971633 -75.203062
v -43.203062 1.971633 -75.203062
v -39.929306 1.924834 -71.844508
v -40.024705 1.926718 -72.024705
v -43.203062 1.971633 -75.203062
v -41.692622 1.93272 -70.910987
v -39.929306 1.924834 -71.844508
v -43.203062 1.971633 -75.203062
v -43.798117 1.974294 -74.888033
v -41.692622 1.93272 -70.910987
v -39.871741 1.956822 -76
v -40.271485 1.964115 -76.755073
v -41.697735 1.968354 -76
v -41.697735 1.968354 -76
v -38.165991 1.920866 -72.778028
v -39.871741 1.956822 -76
v -41.697735 1.968354 -76
v -39.873861 1.924586 -71.873861
v -38.165991 1.920866 -72.778028
v -41.697735 1.968354 -76
v -40.024705 1.926718 -72.024705
v -39.873861 1.924586 -71.873861
v -41.697735 1.968354 -76
v -42.034801 1.969088 -75.821553
v -40.024705 1.926718 -72.024705
v -40.024705 1.926718 -72.024705
v -39.929306 1.924834 -71.844508
v -39.873861 1.924586 -71.873861
v -37.614209 1.942563 -76
v -40.271485 1.964115 -76.755073
v -39.871741 1.956822 -76
v -37.614209 1.942563 -76
v -38.50817 1.958874 -77.688593
v -40.271485 1.964115 -76.755073
v -39.871741 1.956822 -76
v -36.402675 1.917026 -73.711548
v -37.614209 1.942563 -76
v -39.871741 1.956822 -76
v -38.165991 1.920866 -72.778028
v -36.402675 1.917026 -73.711548
v -36 1.940043 -77.215167
v -37.972293 1.957282 -77.972293
v -36 1.932368 -76
v -36 1.940043 -77.215167
v -36.744854 1.953633 -78.622113
v -37.972293 1.957282 -77.972293
v -37.972293 1.957282 -77.972293
v -37.614209 1.942563 -76
v -36 1.932368 -76
v -37.972293 1.957282 -77.972293
v -38.50817 1.958874 -77.688593
v -37.614209 1.942563 -76
v -37.614209 1.942563 -76
v -36 1.916149 -73.924729
v -36 1.932368 -76
v -37.614209 1.942563 -76
v -36.402675 1.917026 -73.711548
v -36 1.916149 -73.924729
v -35.356676 1.928305 -76
v -36 1.940043 -77.215167
v -36 1.932368 -76
v -36 1.932368 -76
v -35.075137 1.912654 -75.468204
v -35.356676 1.928305 -76
v -36 1.932368 -76
v -34.639359 1.88214 -74.645068
v -35.075137 1.912654 -75.468204
v -36 1.932368 -76
v -34.643092 1.882067 -74.643092
v -34.639359 1.88214 -74.645068
v -36 1.932368 -76
v -36 1.912879 -73.924729
v -34.643092 1.882067 -74.643092
v -36 1.95142 -79.016448
v -36.744854 1.953633 -78.622113
v -36 1.940043 -77.215167
v -33.099144 1.914047 -76
v -36 1.940043 -77.215167
v -35.356676 1.928305 -76
v -33.099144 1.914047 -76
v -36 1.95142 -79.016448
v -36 1.940043 -77.215167
v -33.099144 1.914047 -76
v -34.981538 1.948393 -79.555634
v -36 1.95142 -79.016448
v -35.356676 1.928305 -76
v -32.876044 1.901645 -75.578588
v -33.099144 1.914047 -76
v -35.356676 1.928305 -76
v -34.120926 1.892314 -74.919532
v -32.876044 1.901645 -75.578588
v -35.356676 1.928305 -76
v -35.075137 1.912654 -75.468204
v -34.120926 1.892314 -74.919532
v -35.075137 1.912654 -75.468204
v -34.639359 1.88214 -74.645068
v -34.120926 1.892314 -74.919532
v -32.080043 1.907611 -76
v -34.981538 1.948393 -79.555634
v -33.099144 1.914047 -76
v -32.080043 1.907611 -76
v -33.218223 1.943152 -80.489154
v -34.981538 1.948393 -79.555634
v -32.080043 1.907611 -76
v -31.112728 1.904736 -76.512108
v -33.218223 1.943152 -80.489154
v -33.099144 1.914047 -76
v -32.876044 1.901645 -75.578588
v -32.080043 1.907611 -76
v -29.412323 1.899682 -77.412323
v -31.454907 1.937911 -81.422674
v -32.741524 1.941735 -80.741524
v -29.412323 1.899682 -77.412323
v -29.349412 1.899495 -77.445628
v -31.454907 1.937911 -81.422674
v -32.741524 1.941735 -80.741524
v -31.112728 1.904736 -76.512108
v -29.412323 1.899682 -77.412323
v -32.741524 1.941735 -80.741524
v -33.218223 1.943152 -80.489154
v -31.112728 1.904736 -76.512108
v -28 1.901806 -79.160966
v -29.349412 1.899495 -77.445628
v -28 1.895484 -78.160023
v -28 1.901806 -79.160966
v -31.454907 1.937911 -81.422674
v -29.349412 1.899495 -77.445628
v -28 1.901806 -79.160966
v -29.691591 1.93267 -82.356194
v -31.454907 1.937911 -81.422674
v -28 1.895484 -78.160023
v -27.586096 1.894254 -78.379148
v -28 1.901806 -79.160966
v -28 1.927643 -83.251742
v -29.691591 1.93267 -82.356194
v -28 1.901806 -79.160966
v -28 1.901806 -79.160966
v -27.928275 1.927429 -83.289714
v -28 1.927643 -83.251742
v -28 1.901806 -79.160966
v -25.822781 1.889013 -79.312668
v -27.928275 1.927429 -83.289714
v -28 1.901806 -79.160966
v -27.586096 1.894254 -78.379148
v -25.822781 1.889013 -79.312668
v -26.046777 1.920032 -84
v -26.16496 1.922189 -84.223234
v -26.586624 1.923442 -84
v -26.586624 1.923442 -84
v -24.059465 1.883773 -80.246188
v -26.046777 1.920032 -84
v -26.586624 1.923442 -84
v -24.181553 1.884135 -80.181553
v -24.059465 1.883773 -80.246188
v -26.586624 1.923442 -84
v -27.510754 1.926188 -83.510754
v -24.181553 1.884135 -80.181553
v -27.510754 1.926188 -83.510754
v -25.822781 1.889013 -79.312668
v -24.181553 1.884135 -80.181553
v -27.510754 1.926188 -83.510754
v -27.928275 1.927429 -83.289714
v -25.822781 1.889013 -79.312668
v -23.789245 1.905774 -84
v -26.16496 1.922189 -84.223234
v -26.046777 1.920032 -84
v -23.789245 1.905774 -84
v -24.401644 1.916948 -85.156754
v -26.16496 1.922189 -84.223234
v -26.046777 1.920032 -84
v -22.296149 1.878532 -81.179708
v -23.789245 1.905774 -84
v -26.046777 1.920032 -84
v -24.059465 1.883773 -80.246188
v -22.296149 1.878532 -81.179708
v -21.533872 1.89153 -84
v -24.401644 1.916948 -85.156754
v -23.789245 1.905774 -84
v -21.533872 1.89153 -84
v -22.604937 1.911605 -86.107596
v -24.401644 1.916948 -85.156754
v -23.789245 1.905774 -84
v -20.566225 1.873392 -82.095906
v -21.533872 1.89153 -84
v -23.789245 1.905774 -84
v -22.296149 1.878532 -81.179708
v -20.566225 1.873392 -82.095906
v -20.572464 1.889073 -84.572464
v -21.437994 1.907698 -86.655844
v -22.266567 1.910472 -86.266567
v -22.266567 1.910472 -86.266567
v -20.334637 1.883956 -84
v -20.572464 1.889073 -84.572464
v -22.266567 1.910472 -86.266567
v -21.533872 1.89153 -84
v -20.334637 1.883956 -84
v -22.266567 1.910472 -86.266567
v -22.604937 1.911605 -86.107596
v -21.533872 1.89153 -84
v -21.533872 1.89153 -84
v -20 1.876755 -83.194509
v -20.334637 1.883956 -84
v -21.533872 1.89153 -84
v -20 1.871508 -82.363751
v -20 1.876755 -83.194509
v -21.533872 1.89153 -84
v -20.566225 1.873392 -82.095906
v -20 1.871508 -82.363751
v -20 1.871508 -82.363751
v -19.711552 1.870548 -82.500197
v -20 1.876755 -83.194509
v -20 1.897591 -86.49357
v -20.572464 1.889073 -84.572464
v -20 1.881842 -84
v -20 1.897591 -86.49357
v -21.437994 1.907698 -86.655844
v -20.572464 1.889073 -84.572464
v -20 1.897591 -86.49357
v -20.190256 1.902669 -87.107313
v -21.437994 1.907698 -86.655844
v -20.572464 1.889073 -84.572464
v -20.334637 1.883956 -84
v -20 1.881842 -84
v -20.334637 1.883956 -84
v -20 1.876755 -83.194509
v -20 1.881842 -84
v -19.227009 1.87696 -84
v -20 1.897591 -86.49357
v -20 1.881842 -84
v -20 1.881842 -84
v -18.879734 1.867691 -82.879734
v -19.227009 1.87696 -84
v -20 1.881842 -84
v -18.857837 1.867107 -82.809097
v -18.879734 1.867691 -82.879734
v -20 1.881842 -84
v -19.711552 1.870548 -82.500197
v -18.857837 1.867107 -82.809097
v -20 1.881842 -84
v -20 1.876755 -83.194509
v -19.711552 1.870548 -82.500197
v -20 1.901779 -87.15671
v -20.190256 1.902669 -87.107313
v -20 1.897591 -86.49357
v -18.181729 1.870358 -84
v -20 1.897591 -86.49357
v -19.227009 1.87696 -84
v -18.181729 1.870358 -84
v -20 1.901779 -87.15671
v -20 1.897591 -86.49357
v -18.181729 1.870358 -84
v -18.905935 1.896663 -87.440766
v -20 1.901779 -87.15671
v -19.227009 1.87696 -84
v -17.979091 1.862998 -83.037249
v -18.181729 1.870358 -84
v -19.227009 1.87696 -84
v -18.819143 1.866926 -82.819143
v -17.979091 1.862998 -83.037249
v -19.227009 1.87696 -84
v -18.879734 1.867691 -82.879734
v -18.819143 1.866926 -82.819143
v -18.879734 1.867691 -82.879734
v -18.857837 1.867107 -82.809097
v -18.819143 1.866926 -82.819143
v -17.10944 1.863586 -84
v -18.905935 1.896663 -87.440766
v -18.181729 1.870358 -84
v -17.10944 1.863586 -84
v -17.699959 1.890298 -87.638941
v -18.905935 1.896663 -87.440766
v -18.181729 1.870358 -84
v -16.979139 1.857692 -83.197047
v -17.10944 1.863586 -84
v -18.181729 1.870358 -84
v -17.979091 1.862998 -83.037249
v -16.979139 1.857692 -83.197047
vn 0.014544 0.999874 0.006315
vn 0.014544 0.999874 0.006315
vn 0.008803 0.999889 0.012056
vn 0.006316 0.99996 0.006316
vn 0.006316 0.99996 0.006316
vn 0.006316 0.99996 0.006316
vn 0.006316 0.99996 0.006316
vn 0.006316 0.99996 0.006316
vn 0.006316 0.99996 0.006316
vn 0.006316 0.99996 0.006316
vn 0.006316 0.99996 0.006316
vn 0.006316 0.99996 0.006316
vn 0.006316 0.99996 0.006316
vn 0.006316 0.99996 0.006316
vn 0.006316 0.99996 0.006316
vn 0.006316 0.99996 0.006316
vn 0.006316 0.99996 0.006316
vn 0.006316 0.99996 0.006316
vn 0.006316 0.99996 0.006316
vn 0.006316 0.99996 0.006316
vn 0.006316 0.99996 0.006316
vn 0.006316 0.99996 0.006316
vn 0.006316 0.99996 0.006316
vn 0.006316 0.99996 0.006316
vn 0.006316 0.99996 0.006316
vn 0.006316 0.99996 0.006316
vn 0.006316 0.99996 0.006316
vn 0.006316 0.99996 0.006316
vn 0.006316 0.99996 0.006316
vn 0.007815 0.99995 0.006315
vn 0.006316 0.99996 0.006316
vn 0.007815 0.99995 0.006315
vn 0.007815 0.99995 0.006315
vn 0.007815 0.99995 0.006315
vn 0.006315 0.99995 0.007815
vn 0.007815 0.99995 0.006315
vn 0.007815 0.99995 0.006315
vn 0.007815 0.99995 0.006315
vn 0.006316 0.99996 0.006316
vn 0.006315 0.99995 0.007815
vn 0.006315 0.99995 0.007815
vn 0.006315 0.99995 0.007815
vn 0.006315 0.99995 0.007815
vn 0.007815 0.99995 0.006315
vn 0.006316 0.99996 0.006316
vn 0.006316 0.99996 0.006316
vn 0.006315 0.99995 0.007815
vn 0.006315 0.99995 0.007815
vn 0.006316 0.99996 0.006316
vn 0.006316 0.99996 0.006316
vn 0.006316 0.99996 0.006316
vn 0.006316 0.99996 0.006316
vn 0.006315 0.99995 0.007815
vn 0.006315 0.99995 0.007815
vn 0.006316 0.99996 0.006316
vn 0.006314 0.99964 0.026078
vn 0 0.999314 0.037045
vn 0 0.999314 0.037045
vn 0.027668 0.999573 0.009387
vn 0.006316 0.99996 0.006316
vn 0.006316 0.99996 0.006316
vn 0.006316 0.99996 0.006316
vn 0.006316 0.99996 0.006316
vn 0.006314 0.99964 0.026078
vn 0.006314 0.99964 0.026078
vn 0.006314 0.99964 0.026078
vn 0 0.999314 0.037045
vn 0.006316 0.99996 0.006316
vn 0.006316 0.99996 0.006316
vn 0.006316 0.99996 0.006316
vn 0.006314 0.99964 0.026078
vn 0.006316 0.99996 0.006316
vn 0.006316 0.99996 0.006316
vn 0.006316 0.99996 0.006316
vn 0.006316 0.99996 0.006316
vn 0.006316 0.99996 0.006316
vn 0.006316 0.99996 0.006316
vn 0.006316 0.99996 0.006316
vn 0.006316 0.99996 0.006316
vn 0.006316 0.99996 0.006316
vn 0.006316 0.99996 0.006316
vn 0.006316 0.99996 0.006316
vn 0.006316 0.99996 0.006316
vn 0.006316 0.99996 0.006316
vn 0.006316 0.99996 0.006316
vn 0.006316 0.99996 0.006316
vn 0.006316 0.99996 0.006316
vn 0.006316 0.99996 0.006316
vn 0.006316 0.99996 0.006316
vn 0.006316 0.99996 0.006316
vn 0.006316 0.99996 0.006316
vn 0.006316 0.99996 0.006316
vn 0.006316 0.99996 0.006316
vn 0.006316 0.99996 0.006316
vn 0.006316 0.99996 0.006316
vn 0.006316 0.99996 0.006316
vn 0.006316 0.99996 0.006316
vn 0.006316 0.99996 0.006316
vn 0.006316 0.99996 0.006316
vn 0.006316 0.99996 0.006316
vn 0.006316 0.99996 0.006316
vn 0.006316 0.99996 0.006316
vn 0.006316 0.99996 0.006316
vn 0.006316 0.99996 0.006316
vn 0.006316 0.99996 0.006316
vn 0.006316 0.99996 0.006316
vn 0.006316 0.99996 0.006316
vn 0.006316 0.99996 0.006316
vn 0.006316 0.99996 0.006316
vn 0.006316 0.99996 0.006316
vn 0.006316 0.99996 0.006316
vn 0.006316 0.99996 0.006316
vn 0.006316 0.99996 0.006316
vn 0.006316 0.99996 0.006316
vn 0.006316 0.99996 0.006316
vn 0.006316 0.99996 0.006316
vn 0.006316 0.99996 0.006316
vn 0.006316 0.99996 0.006316
vn 0.006316 0.99996 0.006316
vn 0.006316 0.99996 0.006316
vn 0.006316 0.99996 0.006316
vn 0.006316 0.99996 0.006316
vn 0.006316 0.99996 0.006316
vn 0.006316 0.99996 0.006316
vn 0.006316 0.99996 0.006316
vn 0.006316 0.99996 0.006316
vn 0.006316 0.99996 0.006316
f 1//1 2//1 3//1
f 4//2 5//2 6//2
f 7//3 8//3 9//3
f 10//4 11//4 12//4
f 13//5 14//5 15//5
f 16//6 17//6 18//6
f 19//7 20//7 21//7
f 22//8 23//8 24//8
f 25//9 26//9 27//9
f 28//10 29//10 30//10
f 31//11 32//11 33//11
f 34//12 35//12 36//12
f 37//13 38//13 39//13
f 40//14 41//14 42//14
f 43//15 44//15 45//15
f 46//16 47//16 48//16
f 49//17 50//17 51//17
f 52//18 53//18 54//18
f 55//19 56//19 57//19
f 58//20 59//20 60//20
f 61//21 62//21 63//21
f 64//22 65//22 66//22
f 67//23 68//23 69//23
f 70//24 71//24 72//24
f 73//25 74//25 75//25
f 76//26 77//26 78//26
f 79//27 80//27 81//27
f 82//28 83//28 84//28
f 85//29 86//29 87//29
f 88//30 89//30 90//30
f 91//31 92//31 93//31
f 94//32 95//32 96//32
f 97//33 98//33 99//33
f 100//34 101//34 102//34
f 103//35 104//35 105//35
f 106//36 107//36 108//36
f 109//37 110//37 111//37
f 112//38 113//38 114//38
f 115//39 116//39 117//39
f 118//40 119//40 120//40
f 121//41 122//41 123//41
f 124//42 125//42 126//42
f 127//43 128//43 129//43
f 130//44 131//44 132//44
f 133//45 134//45 135//45
f 136//46 137//46 138//46
f 139//47 140//47 141//47
f 142//48 143//48 144//48
f 145//49 146//49 147//49
f 148//50 149//50 150//50
f 151//51 152//51 153//51
f 154//52 155//52 156//52
f 157//53 158//53 159//53
f 160//54 161//54 162//54
f 163//55 164//55 165//55
f 166//56 167//56 168//56
f 169//57 170//57 171//57
f 172//58 173//58 174//58
f 175//59 176//59 177//59
f 178//60 179//60 180//60
f 181//61 182//61 183//61
f 184//62 185//62 186//62
f 187//63 188//63 189//63
f 190//64 191//64 192//64
f 193//65 194//65 195//65
f 196//66 197//66 198//66
f 199//67 200//67 201//67
f 202//68 203//68 204//68
f 205//69 206//69 207//69
f 208//70 209//70 210//70
f 211//71 212//71 213//71
f 214//72 215//72 216//72
f 217//73 218//73 219//73
f 220//74 221//74 222//74
f 223//75 224//75 225//75
f 226//76 227//76 228//76
f 229//77 230//77 231//77
f 232//78 233//78 234//78
f 235//79 236//79 237//79
f 238//80 239//80 240//80
f 241//81 242//81 243//81
f 244//82 245//82 246//82
f 247//83 248//83 249//83
f 250//84 251//84 252//84
f 253//85 254//85 255//85
f 256//86 257//86 258//86
f 259//87 260//87 261//87
f 262//88 263//88 264//88
f 265//89 266//89 267//89
f 268//90 269//90 270//90
f 271//91 272//91 273//91
f 274//92 275//92 276//92
f 277//93 278//93 279//93
f 280//94 281//94 282//94
f 283//95 284//95 285//95
f 286//96 287//96 288//96
f 289//97 290//97 291//97
f 292//98 293//98 294//98
f 295//99 296//99 297//99
f 298//100 299//100 300//100
f 301//101 302//101 303//101
f 304//102 305//102 306//102
f 307//103 308//103 309//103
f 310//104 311//104 312//104
f 313//105 314//105 315//105
f 316//106 317//106 318//106
f 319//107 320//107 321//107
f 322//108 323//108 324//108
f 325//109 326//109 327//109
f 328//110 329//110 330//110
f 331//111 332//111 333//111
f 334//112 335//112 336//112
f 337//113 338//113 339//113
f 340//114 341//114 342//114
f 343//115 344//115 345//115
f 346//116 347//116 348//116
f 349//117 350//117 351//117
f 352//118 353//118 354//118
f 355//119 356//119 357//119
f 358//120 359//120 360//120
f 361//121 362//121 363//121
f 364//122 365//122 366//122
f 367//123 368//123 369//123
f 370//124 371//124 372//124
f 373//125 374//125 375//125
f 376//126 377//126 378//126
f 379//127 380//127 381//127
