# Static Concept B graybox, metres, identity world transform.
v -16.193122 1.857799 -84
v -17.491815 1.889135 -87.662836
v -17.243367 1.864432 -84
v -16.193122 1.857799 -84
v -16.272304 1.881939 -87.743109
v -17.491815 1.889135 -87.662836
v -17.243367 1.864432 -84
v -16.177132 1.852924 -83.244116
v -16.193122 1.857799 -84
v -17.243367 1.864432 -84
v -17.187283 1.858855 -83.173152
v -16.177132 1.852924 -83.244116
v -14.997194 1.869175 -86.997194
v -14.945829 1.873349 -87.709377
v -15.729301 1.878423 -87.729301
v -15.729301 1.878423 -87.729301
v -15.213363 1.851611 -84
v -14.997194 1.869175 -86.997194
v -15.729301 1.878423 -87.729301
v -16.193122 1.857799 -84
v -15.213363 1.851611 -84
v -15.729301 1.878423 -87.729301
v -16.272304 1.881939 -87.743109
v -16.193122 1.857799 -84
v -16.193122 1.857799 -84
v -15.269545 1.847046 -83.221036
v -15.213363 1.851611 -84
v -16.193122 1.857799 -84
v -16.177132 1.852924 -83.244116
v -15.269545 1.847046 -83.221036
v -13.911854 1.855466 -85.911854
v -14.945829 1.873349 -87.709377
v -14.997194 1.869175 -86.997194
v -13.911854 1.855466 -85.911854
v -13.666398 1.864315 -87.558433
v -14.945829 1.873349 -87.709377
v -14.997194 1.869175 -86.997194
v -14.196854 1.845191 -84
v -13.911854 1.855466 -85.911854
v -14.997194 1.869175 -86.997194
v -15.213363 1.851611 -84
v -14.196854 1.845191 -84
v -15.213363 1.851611 -84
v -14.329882 1.840395 -83.107614
v -14.196854 1.845191 -84
v -15.213363 1.851611 -84
v -15.269545 1.847046 -83.221036
v -14.329882 1.840395 -83.107614
v -12 1.852038 -87.280991
v -12.240147 1.834349 -84.240147
v -12 1.841933 -85.681031
v -12 1.852038 -87.280991
v -13.911854 1.855466 -85.911854
v -12.240147 1.834349 -84.240147
v -12 1.852038 -87.280991
v -13.666398 1.864315 -87.558433
v -13.911854 1.855466 -85.911854
v -13.911854 1.855466 -85.911854
v -12.280172 1.833085 -84
v -12.240147 1.834349 -84.240147
v -13.911854 1.855466 -85.911854
v -14.196854 1.845191 -84
v -12.280172 1.833085 -84
v -14.196854 1.845191 -84
v -12.480335 1.826764 -82.79902
v -12.280172 1.833085 -84
v -14.196854 1.845191 -84
v -14.329882 1.840395 -83.107614
v -12.480335 1.826764 -82.79902
v -12 1.841933 -85.681031
v -11.74054 1.850126 -87.237793
v -12 1.852038 -87.280991
v -12 1.841933 -85.681031
v -12.240147 1.834349 -84.240147
v -12 1.831316 -84
v -12.240147 1.834349 -84.240147
v -12.280172 1.833085 -84
v -12 1.831316 -84
v -12.280172 1.833085 -84
v -12 1.823225 -82.718964
v -12 1.831316 -84
v -12.280172 1.833085 -84
v -12.480335 1.826764 -82.79902
v -12 1.823225 -82.718964
v -10.340033 1.820832 -84
v -12 1.841933 -85.681031
v -12 1.831316 -84
v -10.340033 1.820832 -84
v -11.74054 1.850126 -87.237793
v -12 1.841933 -85.681031
v -10.340033 1.820832 -84
v -9.852837 1.836217 -86.923175
v -11.74054 1.850126 -87.237793
v -12 1.831316 -84
v -10.577171 1.813343 -82.577171
v -10.340033 1.820832 -84
v -12 1.831316 -84
v -10.592632 1.812855 -82.484403
v -10.577171 1.813343 -82.577171
v -12 1.831316 -84
v -12 1.823225 -82.718964
v -10.592632 1.812855 -82.484403
v -8.399894 1.808578 -84
v -9.852837 1.836217 -86.923175
v -10.340033 1.820832 -84
v -8.399894 1.808578 -84
v -7.965134 1.822308 -86.608558
v -9.852837 1.836217 -86.923175
v -10.340033 1.820832 -84
v -8.704929 1.798946 -82.169786
v -8.399894 1.808578 -84
v -10.340033 1.820832 -84
v -10.462757 1.811898 -82.462757
v -8.704929 1.798946 -82.169786
v -10.340033 1.820832 -84
v -10.577171 1.813343 -82.577171
v -10.462757 1.811898 -82.462757
v -10.577171 1.813343 -82.577171
v -10.592632 1.812855 -82.484403
v -10.462757 1.811898 -82.462757
v -6.108361 1.807421 -86.108361
v -6.077431 1.808398 -86.293941
v -6.337243 1.810313 -86.337243
v -6.337243 1.810313 -86.337243
v -6.459754 1.796325 -84
v -6.108361 1.807421 -86.108361
v -6.337243 1.810313 -86.337243
v -8.399894 1.808578 -84
v -6.459754 1.796325 -84
v -6.337243 1.810313 -86.337243
v -7.965134 1.822308 -86.608558
v -8.399894 1.808578 -84
v -8.399894 1.808578 -84
v -6.817226 1.785036 -81.855168
v -6.459754 1.796325 -84
v -8.399894 1.808578 -84
v -8.704929 1.798946 -82.169786
v -6.817226 1.785036 -81.855168
v -4.445385 1.786415 -84.445385
v -6.077431 1.808398 -86.293941
v -6.108361 1.807421 -86.108361
v -4.445385 1.786415 -84.445385
v -4.189728 1.794489 -85.979324
v -6.077431 1.808398 -86.293941
v -6.108361 1.807421 -86.108361
v -4.519615 1.784071 -84
v -4.445385 1.786415 -84.445385
v -6.108361 1.807421 -86.108361
v -6.459754 1.796325 -84
v -4.519615 1.784071 -84
v -6.459754 1.796325 -84
v -4.929523 1.771127 -81.540551
v -4.519615 1.784071 -84
v -6.459754 1.796325 -84
v -6.817226 1.785036 -81.855168
v -4.929523 1.771127 -81.540551
v -4 1.793091 -85.947703
v -4.445385 1.786415 -84.445385
v -4 1.780789 -84
v -4 1.793091 -85.947703
v -4.189728 1.794489 -85.979324
v -4.445385 1.786415 -84.445385
v -4.445385 1.786415 -84.445385
v -4.519615 1.784071 -84
v -4 1.780789 -84
v -4.519615 1.784071 -84
v -4 1.764278 -81.385631
v -4 1.780789 -84
v -4.519615 1.784071 -84
v -4.929523 1.771127 -81.540551
v -4 1.764278 -81.385631
v -2.579476 1.771818 -84
v -4 1.793091 -85.947703
v -4 1.780789 -84
v -2.579476 1.771818 -84
v -2.302025 1.780579 -85.664707
v -4 1.793091 -85.947703
v -4 1.780789 -84
v -2.782408 1.765409 -82.782408
v -2.579476 1.771818 -84
v -4 1.780789 -84
v -3.041821 1.757217 -81.225934
v -2.782408 1.765409 -82.782408
v -4 1.780789 -84
v -4 1.764278 -81.385631
v -3.041821 1.757217 -81.225934
v -0.639337 1.759564 -84
v -2.302025 1.780579 -85.664707
v -2.579476 1.771818 -84
v -0.639337 1.759564 -84
v -0.414322 1.76667 -85.35009
v -2.302025 1.780579 -85.664707
v -2.579476 1.771818 -84
v -1.119432 1.744403 -81.119432
v -0.639337 1.759564 -84
v -2.579476 1.771818 -84
v -2.782408 1.765409 -82.782408
v -1.119432 1.744403 -81.119432
v -2.782408 1.765409 -82.782408
v -1.154118 1.743308 -80.911317
v -1.119432 1.744403 -81.119432
v -2.782408 1.765409 -82.782408
v -3.041821 1.757217 -81.225934
v -1.154118 1.743308 -80.911317
v 1.300802 1.747311 -84
v -0.414322 1.76667 -85.35009
v -0.639337 1.759564 -84
v 1.300802 1.747311 -84
v 1.473381 1.752761 -85.035472
v -0.414322 1.76667 -85.35009
v -0.639337 1.759564 -84
v 0.733585 1.729399 -80.5967
v 1.300802 1.747311 -84
v -0.639337 1.759564 -84
v -0.862757 1.741161 -80.862757
v 0.733585 1.729399 -80.5967
v -0.639337 1.759564 -84
v -1.119432 1.744403 -81.119432
v -0.862757 1.741161 -80.862757
v -1.119432 1.744403 -81.119432
v -1.154118 1.743308 -80.911317
v -0.862757 1.741161 -80.862757
v 3.349378 1.738482 -84.650622
v 3.361084 1.738851 -84.720855
v 3.262757 1.739576 -84.737243
v 3.262757 1.739576 -84.737243
v 3.240941 1.735057 -84
v 3.349378 1.738482 -84.650622
v 3.262757 1.739576 -84.737243
v 1.300802 1.747311 -84
v 3.240941 1.735057 -84
v 3.262757 1.739576 -84.737243
v 1.473381 1.752761 -85.035472
v 1.300802 1.747311 -84
v 1.300802 1.747311 -84
v 2.621288 1.715489 -80.282083
v 3.240941 1.735057 -84
v 1.300802 1.747311 -84
v 0.733585 1.729399 -80.5967
v 2.621288 1.715489 -80.282083
v 4 1.734143 -84.614369
v 3.349378 1.738482 -84.650622
v 4 1.730263 -84
v 4 1.734143 -84.614369
v 3.361084 1.738851 -84.720855
v 3.349378 1.738482 -84.650622
v 3.349378 1.738482 -84.650622
v 3.240941 1.735057 -84
v 4 1.730263 -84
v 3.240941 1.735057 -84
v 4 1.70533 -80.052297
v 4 1.730263 -84
v 3.240941 1.735057 -84
v 2.621288 1.715489 -80.282083
v 4 1.70533 -80.052297
v 5.18108 1.722804 -84
v 4 1.734143 -84.614369
v 4 1.730263 -84
v 5.18108 1.722804 -84
v 5.248787 1.724942 -84.406238
v 4 1.734143 -84.614369
v 4 1.730263 -84
v 5.012355 1.717476 -82.987645
v 5.18108 1.722804 -84
v 4 1.730263 -84
v 4.508991 1.70158 -79.967466
v 5.012355 1.717476 -82.987645
v 4 1.730263 -84
v 4 1.70533 -80.052297
v 4.508991 1.70158 -79.967466
v 7.121219 1.71055 -84
v 5.248787 1.724942 -84.406238
v 5.18108 1.722804 -84
v 7.121219 1.71055 -84
v 7.13649 1.711032 -84.091621
v 5.248787 1.724942 -84.406238
v 5.18108 1.722804 -84
v 6.675331 1.69647 -81.324669
v 7.121219 1.71055 -84
v 5.18108 1.722804 -84
v 5.012355 1.717476 -82.987645
v 6.675331 1.69647 -81.324669
v 5.012355 1.717476 -82.987645
v 6.396694 1.68767 -79.652848
v 6.675331 1.69647 -81.324669
v 5.012355 1.717476 -82.987645
v 4.508991 1.70158 -79.967466
v 6.396694 1.68767 -79.652848
v 7.686216 1.706982 -84
v 7.13649 1.711032 -84.091621
v 7.121219 1.71055 -84
v 7.121219 1.71055 -84
v 9.024193 1.697123 -83.777004
v 7.686216 1.706982 -84
v 7.121219 1.71055 -84
v 8.338307 1.675463 -79.661693
v 9.024193 1.697123 -83.777004
v 7.121219 1.71055 -84
v 6.675331 1.69647 -81.324669
v 8.338307 1.675463 -79.661693
v 6.675331 1.69647 -81.324669
v 8.284397 1.673761 -79.338231
v 8.338307 1.675463 -79.661693
v 6.675331 1.69647 -81.324669
v 6.396694 1.68767 -79.652848
v 8.284397 1.673761 -79.338231
v 9.024193 1.697123 -83.777004
v 10.1721 1.659852 -79.023614
v 10.911895 1.683214 -83.462387
v 9.024193 1.697123 -83.777004
v 8.737243 1.670424 -79.262757
v 10.1721 1.659852 -79.023614
v 9.024193 1.697123 -83.777004
v 8.338307 1.675463 -79.661693
v 8.737243 1.670424 -79.262757
v 8.338307 1.675463 -79.661693
v 8.284397 1.673761 -79.338231
v 8.737243 1.670424 -79.262757
v 10.911895 1.683214 -83.462387
v 12 1.646383 -78.718964
v 12 1.675196 -83.281036
v 10.911895 1.683214 -83.462387
v 10.1721 1.659852 -79.023614
v 12 1.646383 -78.718964
v 12 1.646383 -78.718964
v 12.799598 1.669304 -83.14777
v 12 1.675196 -83.281036
v 12 1.646383 -78.718964
v 12.059803 1.645942 -78.708997
v 12.799598 1.669304 -83.14777
v 14.470094 1.648536 -81.529906
v 14.687301 1.655395 -82.833152
v 12.862757 1.668839 -83.137243
v 12.862757 1.668839 -83.137243
v 13.947506 1.632033 -78.39438
v 14.470094 1.648536 -81.529906
v 12.862757 1.668839 -83.137243
v 12.059803 1.645942 -78.708997
v 13.947506 1.632033 -78.39438
v 12.862757 1.668839 -83.137243
v 12.799598 1.669304 -83.14777
v 12.059803 1.645942 -78.708997
v 16.13307 1.62753 -79.86693
v 14.687301 1.655395 -82.833152
v 14.470094 1.648536 -81.529906
v 16.13307 1.62753 -79.86693
v 16.575004 1.641485 -82.518535
v 14.687301 1.655395 -82.833152
v 14.470094 1.648536 -81.529906
v 15.835209 1.618123 -78.079763
v 16.13307 1.62753 -79.86693
v 14.470094 1.648536 -81.529906
v 13.947506 1.632033 -78.39438
v 15.835209 1.618123 -78.079763
v 17.796046 1.606524 -78.203954
v 16.575004 1.641485 -82.518535
v 16.13307 1.62753 -79.86693
v 17.796046 1.606524 -78.203954
v 18.462707 1.627576 -82.203918
v 16.575004 1.641485 -82.518535
v 16.13307 1.62753 -79.86693
v 17.722912 1.604214 -77.765145
v 17.796046 1.606524 -78.203954
v 16.13307 1.62753 -79.86693
v 15.835209 1.618123 -78.079763
v 17.722912 1.604214 -77.765145
v 20 1.616249 -81.947703
v 19.610615 1.590305 -77.450528
v 20 1.602601 -79.78684
v 20 1.616249 -81.947703
v 18.337243 1.599687 -77.662757
v 19.610615 1.590305 -77.450528
v 20 1.616249 -81.947703
v 17.796046 1.606524 -78.203954
v 18.337243 1.599687 -77.662757
v 20 1.616249 -81.947703
v 18.462707 1.627576 -82.203918
v 17.796046 1.606524 -78.203954
v 17.796046 1.606524 -78.203954
v 17.722912 1.604214 -77.765145
v 18.337243 1.599687 -77.662757
v 20 1.602601 -79.78684
v 20.35041 1.613667 -81.889301
v 20 1.616249 -81.947703
v 20 1.602601 -79.78684
v 19.610615 1.590305 -77.450528
v 20 1.587436 -77.385631
v 20 1.587436 -77.385631
v 20.35041 1.613667 -81.889301
v 20 1.602601 -79.78684
v 20 1.587436 -77.385631
v 22.238113 1.599757 -81.574684
v 20.35041 1.613667 -81.889301
v 20 1.587436 -77.385631
v 21.498318 1.576395 -77.135911
v 22.238113 1.599757 -81.574684
v 23.927833 1.579596 -80.072167
v 24.125816 1.585848 -81.260067
v 22.462757 1.598102 -81.537243
v 22.462757 1.598102 -81.537243
v 23.386021 1.562486 -76.821294
v 23.927833 1.579596 -80.072167
v 22.462757 1.598102 -81.537243
v 21.498318 1.576395 -77.135911
v 23.386021 1.562486 -76.821294
v 22.462757 1.598102 -81.537243
v 22.238113 1.599757 -81.574684
v 21.498318 1.576395 -77.135911
v 25.590809 1.55859 -78.409191
v 24.125816 1.585848 -81.260067
v 23.927833 1.579596 -80.072167
v 25.590809 1.55859 -78.409191
v 26.013519 1.571939 -80.945449
v 24.125816 1.585848 -81.260067
v 23.927833 1.579596 -80.072167
v 25.273723 1.548577 -76.506677
v 25.590809 1.55859 -78.409191
v 23.927833 1.579596 -80.072167
v 23.386021 1.562486 -76.821294
v 25.273723 1.548577 -76.506677
v 27.224653 1.537952 -76.775347
v 26.013519 1.571939 -80.945449
v 25.590809 1.55859 -78.409191
v 27.224653 1.537952 -76.775347
v 27.945846 1.557697 -80.622932
v 26.013519 1.571939 -80.945449
v 25.590809 1.55859 -78.409191
v 27.116802 1.534999 -76.19996
v 27.224653 1.537952 -76.775347
v 25.590809 1.55859 -78.409191
v 25.273723 1.548577 -76.506677
v 27.116802 1.534999 -76.19996
v 28 1.55728 -80.610943
v 27.990651 1.528276 -76.009349
v 28 1.528204 -76.00731
v 28 1.55728 -80.610943
v 27.224653 1.537952 -76.775347
v 27.990651 1.528276 -76.009349
v 28 1.55728 -80.610943
v 27.945846 1.557697 -80.622932
v 27.224653 1.537952 -76.775347
v 27.224653 1.537952 -76.775347
v 27.116802 1.534999 -76.19996
v 27.990651 1.528276 -76.009349
v 28.146323 1.527234 -76
v 28 1.528204 -76.00731
v 28.033511 1.527946 -76
v 28.146323 1.527234 -76
v 28 1.55728 -80.610943
v 28 1.528204 -76.00731
v 28.146323 1.527234 -76
v 29.33137 1.547009 -80.316197
v 28 1.55728 -80.610943
v 28.033511 1.527946 -76
v 28.139949 1.527127 -75.976783
v 28.146323 1.527234 -76
v 29.324671 1.519792 -76
v 29.33137 1.547009 -80.316197
v 28.146323 1.527234 -76
v 29.324671 1.519792 -76
v 30.61285 1.536259 -79.895571
v 29.33137 1.547009 -80.316197
v 28.146323 1.527234 -76
v 29.20004 1.518198 -75.623104
v 29.324671 1.519792 -76
v 28.146323 1.527234 -76
v 28.139949 1.527127 -75.976783
v 29.20004 1.518198 -75.623104
vn 0.006316 0.99996 0.006316
vn 0.006316 0.99996 0.006316
vn 0.006316 0.99996 0.006316
vn 0.006316 0.99996 0.006316
vn 0.006316 0.99996 0.006316
vn 0.006316 0.99996 0.006316
vn 0.006316 0.99996 0.006316
vn 0.006316 0.99996 0.006316
vn 0.006316 0.99996 0.006316
vn 0.006316 0.99996 0.006316
vn 0.006316 0.99996 0.006316
vn 0.006316 0.99996 0.006316
vn 0.006316 0.99996 0.006316
vn 0.006316 0.99996 0.006316
vn 0.006316 0.99996 0.006316
vn 0.006316 0.99996 0.006316
vn 0.006316 0.99996 0.006316
vn 0.006316 0.99996 0.006316
vn 0.006316 0.99996 0.006316
vn 0.006316 0.99996 0.006316
vn 0.006316 0.99996 0.006316
vn 0.006316 0.99996 0.006316
vn 0.006316 0.99996 0.006316
vn 0.006316 0.99996 0.006316
vn 0.006316 0.99996 0.006316
vn 0.006316 0.99996 0.006316
vn 0.006316 0.99996 0.006316
vn 0.006316 0.99996 0.006316
vn 0.006316 0.99996 0.006316
vn 0.006316 0.99996 0.006316
vn 0.006316 0.99996 0.006316
vn 0.006316 0.99996 0.006316
vn 0.006316 0.99996 0.006316
vn 0.006316 0.99996 0.006316
vn 0.006316 0.99996 0.006316
vn 0.006316 0.99996 0.006316
vn 0.006316 0.99996 0.006316
vn 0.006316 0.99996 0.006316
vn 0.006316 0.99996 0.006316
vn 0.006316 0.99996 0.006316
vn 0.006316 0.99996 0.006316
vn 0.006316 0.99996 0.006316
vn 0.006316 0.99996 0.006316
vn 0.006316 0.99996 0.006316
vn 0.006316 0.99996 0.006316
vn 0.006316 0.99996 0.006316
vn 0.006316 0.99996 0.006316
vn 0.006316 0.99996 0.006316
vn 0.006316 0.99996 0.006316
vn 0.006316 0.99996 0.006316
vn 0.006316 0.99996 0.006316
vn 0.006316 0.99996 0.006316
vn 0.006316 0.99996 0.006316
vn 0.006316 0.99996 0.006316
vn 0.006316 0.99996 0.006316
vn 0.006316 0.99996 0.006316
vn 0.006316 0.99996 0.006316
vn 0.006316 0.99996 0.006316
vn 0.006316 0.99996 0.006316
vn 0.006316 0.99996 0.006316
vn 0.006316 0.99996 0.006316
vn 0.006316 0.99996 0.006316
vn 0.006316 0.99996 0.006316
vn 0.006316 0.99996 0.006316
vn 0.006316 0.99996 0.006316
vn 0.006316 0.99996 0.006316
vn 0.006316 0.99996 0.006316
vn 0.006316 0.99996 0.006316
vn 0.006316 0.99996 0.006316
vn 0.006316 0.99996 0.006316
vn 0.006316 0.99996 0.006316
vn 0.006316 0.99996 0.006316
vn 0.006316 0.99996 0.006316
vn 0.006316 0.99996 0.006316
vn 0.006316 0.99996 0.006316
vn 0.006316 0.99996 0.006316
vn 0.006316 0.99996 0.006316
vn 0.006316 0.99996 0.006316
vn 0.006316 0.99996 0.006316
vn 0.006316 0.99996 0.006316
vn 0.006316 0.99996 0.006316
vn 0.006316 0.99996 0.006316
vn 0.006316 0.99996 0.006316
vn 0.006316 0.99996 0.006316
vn 0.006316 0.99996 0.006316
vn 0.006316 0.99996 0.006316
vn 0.006316 0.99996 0.006316
vn 0.006316 0.99996 0.006316
vn 0.006316 0.99996 0.006316
vn 0.006316 0.99996 0.006316
vn 0.006316 0.99996 0.006316
vn 0.006316 0.99996 0.006316
vn 0.006316 0.99996 0.006316
vn 0.006316 0.99996 0.006316
vn 0.006316 0.99996 0.006316
vn 0.006316 0.99996 0.006316
vn 0.006316 0.99996 0.006316
vn 0.006316 0.99996 0.006316
vn 0.006316 0.99996 0.006316
vn 0.006316 0.99996 0.006316
vn 0.006316 0.99996 0.006316
vn 0.006316 0.99996 0.006316
vn 0.006316 0.99996 0.006316
vn 0.006316 0.99996 0.006316
vn 0.006316 0.99996 0.006316
vn 0.006316 0.99996 0.006316
vn 0.006316 0.99996 0.006316
vn 0.006316 0.99996 0.006316
vn 0.006316 0.99996 0.006316
vn 0.006316 0.99996 0.006316
vn 0.006316 0.99996 0.006316
vn 0.006316 0.99996 0.006316
vn 0.006316 0.99996 0.006316
vn 0.006316 0.99996 0.006316
vn 0.006316 0.99996 0.006316
vn 0.006316 0.99996 0.006316
vn 0.006316 0.99996 0.006316
vn 0.006316 0.99996 0.006316
vn 0.006316 0.99996 0.006316
vn 0.006316 0.99996 0.006316
vn 0.006316 0.99996 0.006316
vn 0.006316 0.99996 0.006316
vn 0.006316 0.99996 0.006316
vn 0.006316 0.99996 0.006316
vn 0.006316 0.99996 0.006316
vn 0.006316 0.99996 0.006316
vn 0.006316 0.99996 0.006316
vn 0.006316 0.99996 0.006316
vn 0.006316 0.99996 0.006316
vn 0.006316 0.99996 0.006316
vn 0.006316 0.99996 0.006316
vn 0.006316 0.99996 0.006316
vn 0.006316 0.99996 0.006316
vn 0.006316 0.99996 0.006316
vn 0.006316 0.99996 0.006316
vn 0.006316 0.99996 0.006316
vn 0.006316 0.99996 0.006316
vn 0.006316 0.99996 0.006316
vn 0.006316 0.99996 0.006316
vn 0.006316 0.99996 0.006316
vn 0.006316 0.99996 0.006316
vn 0.006316 0.99996 0.006316
vn 0.006316 0.99996 0.006316
vn 0.006316 0.99996 0.006316
vn 0.006316 0.99996 0.006316
vn 0.006316 0.99996 0.006316
vn 0.006316 0.99996 0.006316
vn 0.006316 0.99996 0.006316
vn 0.006316 0.99996 0.006316
vn 0.006316 0.99996 0.006316
vn 0.006316 0.99996 0.006316
vn 0.006316 0.99996 0.006316
vn 0.006316 0.99996 0.006316
vn 0.006316 0.99996 0.006316
vn 0.006316 0.99996 0.006316
vn 0.006316 0.99996 0.006316
f 1//1 2//1 3//1
f 4//2 5//2 6//2
f 7//3 8//3 9//3
f 10//4 11//4 12//4
f 13//5 14//5 15//5
f 16//6 17//6 18//6
f 19//7 20//7 21//7
f 22//8 23//8 24//8
f 25//9 26//9 27//9
f 28//10 29//10 30//10
f 31//11 32//11 33//11
f 34//12 35//12 36//12
f 37//13 38//13 39//13
f 40//14 41//14 42//14
f 43//15 44//15 45//15
f 46//16 47//16 48//16
f 49//17 50//17 51//17
f 52//18 53//18 54//18
f 55//19 56//19 57//19
f 58//20 59//20 60//20
f 61//21 62//21 63//21
f 64//22 65//22 66//22
f 67//23 68//23 69//23
f 70//24 71//24 72//24
f 73//25 74//25 75//25
f 76//26 77//26 78//26
f 79//27 80//27 81//27
f 82//28 83//28 84//28
f 85//29 86//29 87//29
f 88//30 89//30 90//30
f 91//31 92//31 93//31
f 94//32 95//32 96//32
f 97//33 98//33 99//33
f 100//34 101//34 102//34
f 103//35 104//35 105//35
f 106//36 107//36 108//36
f 109//37 110//37 111//37
f 112//38 113//38 114//38
f 115//39 116//39 117//39
f 118//40 119//40 120//40
f 121//41 122//41 123//41
f 124//42 125//42 126//42
f 127//43 128//43 129//43
f 130//44 131//44 132//44
f 133//45 134//45 135//45
f 136//46 137//46 138//46
f 139//47 140//47 141//47
f 142//48 143//48 144//48
f 145//49 146//49 147//49
f 148//50 149//50 150//50
f 151//51 152//51 153//51
f 154//52 155//52 156//52
f 157//53 158//53 159//53
f 160//54 161//54 162//54
f 163//55 164//55 165//55
f 166//56 167//56 168//56
f 169//57 170//57 171//57
f 172//58 173//58 174//58
f 175//59 176//59 177//59
f 178//60 179//60 180//60
f 181//61 182//61 183//61
f 184//62 185//62 186//62
f 187//63 188//63 189//63
f 190//64 191//64 192//64
f 193//65 194//65 195//65
f 196//66 197//66 198//66
f 199//67 200//67 201//67
f 202//68 203//68 204//68
f 205//69 206//69 207//69
f 208//70 209//70 210//70
f 211//71 212//71 213//71
f 214//72 215//72 216//72
f 217//73 218//73 219//73
f 220//74 221//74 222//74
f 223//75 224//75 225//75
f 226//76 227//76 228//76
f 229//77 230//77 231//77
f 232//78 233//78 234//78
f 235//79 236//79 237//79
f 238//80 239//80 240//80
f 241//81 242//81 243//81
f 244//82 245//82 246//82
f 247//83 248//83 249//83
f 250//84 251//84 252//84
f 253//85 254//85 255//85
f 256//86 257//86 258//86
f 259//87 260//87 261//87
f 262//88 263//88 264//88
f 265//89 266//89 267//89
f 268//90 269//90 270//90
f 271//91 272//91 273//91
f 274//92 275//92 276//92
f 277//93 278//93 279//93
f 280//94 281//94 282//94
f 283//95 284//95 285//95
f 286//96 287//96 288//96
f 289//97 290//97 291//97
f 292//98 293//98 294//98
f 295//99 296//99 297//99
f 298//100 299//100 300//100
f 301//101 302//101 303//101
f 304//102 305//102 306//102
f 307//103 308//103 309//103
f 310//104 311//104 312//104
f 313//105 314//105 315//105
f 316//106 317//106 318//106
f 319//107 320//107 321//107
f 322//108 323//108 324//108
f 325//109 326//109 327//109
f 328//110 329//110 330//110
f 331//111 332//111 333//111
f 334//112 335//112 336//112
f 337//113 338//113 339//113
f 340//114 341//114 342//114
f 343//115 344//115 345//115
f 346//116 347//116 348//116
f 349//117 350//117 351//117
f 352//118 353//118 354//118
f 355//119 356//119 357//119
f 358//120 359//120 360//120
f 361//121 362//121 363//121
f 364//122 365//122 366//122
f 367//123 368//123 369//123
f 370//124 371//124 372//124
f 373//125 374//125 375//125
f 376//126 377//126 378//126
f 379//127 380//127 381//127
f 382//128 383//128 384//128
f 385//129 386//129 387//129
f 388//130 389//130 390//130
f 391//131 392//131 393//131
f 394//132 395//132 396//132
f 397//133 398//133 399//133
f 400//134 401//134 402//134
f 403//135 404//135 405//135
f 406//136 407//136 408//136
f 409//137 410//137 411//137
f 412//138 413//138 414//138
f 415//139 416//139 417//139
f 418//140 419//140 420//140
f 421//141 422//141 423//141
f 424//142 425//142 426//142
f 427//143 428//143 429//143
f 430//144 431//144 432//144
f 433//145 434//145 435//145
f 436//146 437//146 438//146
f 439//147 440//147 441//147
f 442//148 443//148 444//148
f 445//149 446//149 447//149
f 448//150 449//150 450//150
f 451//151 452//151 453//151
f 454//152 455//152 456//152
f 457//153 458//153 459//153
f 460//154 461//154 462//154
f 463//155 464//155 465//155
f 466//156 467//156 468//156
