# Static Concept B graybox, metres, identity world transform.
v -12 1.413731 -17.882353
v -12.878863 1.406461 -15.852512
v -12 1.401237 -15.904209
v -12 1.413731 -17.882353
v -12.994823 1.419644 -17.823834
v -12.878863 1.406461 -15.852512
v -7.005177 1.38404 -18.176166
v -8.131753 1.378243 -16.131753
v -6.889217 1.370857 -16.204844
v -7.005177 1.38404 -18.176166
v -10 1.401842 -18
v -8.131753 1.378243 -16.131753
v -10 1.401842 -18
v -12 1.401237 -15.904209
v -8.131753 1.378243 -16.131753
v -10 1.401842 -18
v -12 1.413731 -17.882353
v -12 1.401237 -15.904209
v -12 1.401237 -15.904209
v -12.762903 1.393278 -13.881189
v -12 1.388744 -13.926066
v -12 1.401237 -15.904209
v -12.878863 1.406461 -15.852512
v -12.762903 1.393278 -13.881189
v -6.889217 1.370857 -16.204844
v -8.131753 1.378243 -16.131753
v -6.80699 1.361509 -14.80699
v -8.131753 1.378243 -16.131753
v -6.773257 1.357674 -14.233521
v -6.80699 1.361509 -14.80699
v -8.131753 1.378243 -16.131753
v -12 1.388744 -13.926066
v -6.773257 1.357674 -14.233521
v -8.131753 1.378243 -16.131753
v -12 1.401237 -15.904209
v -12 1.388744 -13.926066
v -12 1.388744 -13.926066
v -12.69301 1.385333 -12.69301
v -12 1.376579 -12
v -12 1.388744 -13.926066
v -12.762903 1.393278 -13.881189
v -12.69301 1.385333 -12.69301
v -12.69301 1.385333 -12.69301
v -12.652245 1.379154 -12
v -12 1.376579 -12
v -12.652245 1.37935 -12
v -12 1.37625 -11.947922
v -12 1.376579 -12
v -12.652245 1.37935 -12
v -12.646943 1.378758 -11.909867
v -12 1.37625 -11.947922
v -6.773257 1.357674 -14.233521
v -11.114679 1.370987 -12
v -6.657296 1.344492 -12.262199
v -6.773257 1.357674 -14.233521
v -12 1.376579 -12
v -11.114679 1.370987 -12
v -6.773257 1.357674 -14.233521
v -12 1.388744 -13.926066
v -12 1.376579 -12
v -12 1.376579 -12
v -11.950815 1.375958 -11.950815
v -11.114679 1.370987 -12
v -12 1.376579 -12
v -12 1.37625 -11.947922
v -11.950815 1.375958 -11.950815
v -12 1.37625 -11.947922
v -12.530983 1.365815 -9.938544
v -12 1.363756 -9.969779
v -12 1.37625 -11.947922
v -12.646943 1.378758 -11.909867
v -12.530983 1.365815 -9.938544
v -6.657296 1.344492 -12.262199
v -11.114679 1.370987 -12
v -6.641873 1.342738 -12
v -11.114679 1.370987 -12
v -6.541336 1.331309 -10.290877
v -6.641873 1.342738 -12
v -11.114679 1.370987 -12
v -10.082569 1.352359 -10.082569
v -6.541336 1.331309 -10.290877
v -11.114679 1.370987 -12
v -11.950815 1.375958 -11.950815
v -10.082569 1.352359 -10.082569
v -11.950815 1.375958 -11.950815
v -12 1.363756 -9.969779
v -10.082569 1.352359 -10.082569
v -11.950815 1.375958 -11.950815
v -12 1.37625 -11.947922
v -12 1.363756 -9.969779
v -12 1.363756 -9.969779
v -12.415022 1.352872 -7.967222
v -12 1.351263 -7.991635
v -12 1.363756 -9.969779
v -12.530983 1.365815 -9.938544
v -12.415022 1.352872 -7.967222
v -6.541336 1.331309 -10.290877
v -8.214322 1.32876 -8.214322
v -6.425376 1.318126 -8.319554
v -6.541336 1.331309 -10.290877
v -10.082569 1.352359 -10.082569
v -8.214322 1.32876 -8.214322
v -10.082569 1.352359 -10.082569
v -12 1.351263 -7.991635
v -8.214322 1.32876 -8.214322
v -10.082569 1.352359 -10.082569
v -12 1.363756 -9.969779
v -12 1.351263 -7.991635
v -12 1.351263 -7.991635
v -12.299062 1.339929 -5.9959
v -12 1.338769 -6.013492
v -12 1.351263 -7.991635
v -12.415022 1.352872 -7.967222
v -12.299062 1.339929 -5.9959
v -6.425376 1.318126 -8.319554
v -6.346075 1.305161 -6.346075
v -6.309416 1.304943 -6.348232
v -6.425376 1.318126 -8.319554
v -8.214322 1.32876 -8.214322
v -6.346075 1.305161 -6.346075
v -8.214322 1.32876 -8.214322
v -12 1.338769 -6.013492
v -6.346075 1.305161 -6.346075
v -8.214322 1.32876 -8.214322
v -12 1.351263 -7.991635
v -12 1.338769 -6.013492
v -12 1.338769 -6.013492
v -12.027812 1.326384 -4.033712
v -12 1.326276 -4.035348
v -12 1.338769 -6.013492
v -12.195603 1.328381 -4.237095
v -12.027812 1.326384 -4.033712
v -12 1.338769 -6.013492
v -12.299062 1.339929 -5.9959
v -12.195603 1.328381 -4.237095
v -12.195603 1.328381 -4.237095
v -12.033384 1.326408 -4.033384
v -12.027812 1.326384 -4.033712
v -12.195603 1.328381 -4.237095
v -12.19301 1.328105 -4.19301
v -12.033384 1.326408 -4.033384
v -12.19301 1.328105 -4.19301
v -12.183102 1.327983 -4.024577
v -12.033384 1.326408 -4.033384
v -6.309416 1.304943 -6.348232
v -6.346075 1.305161 -6.346075
v -6.30699 1.304667 -6.30699
v -6.346075 1.305161 -6.346075
v -6.193456 1.29176 -4.376909
v -6.30699 1.304667 -6.30699
v -6.346075 1.305161 -6.346075
v -12 1.326276 -4.035348
v -6.193456 1.29176 -4.376909
v -6.346075 1.305161 -6.346075
v -12 1.338769 -6.013492
v -12 1.326276 -4.035348
v -12 1.326276 -4.035348
v -12.027812 1.326384 -4.033712
v -12 1.326053 -4
v -12.027812 1.326384 -4.033712
v -12.033384 1.326408 -4.033384
v -12 1.326053 -4
v -12.033384 1.326408 -4.033384
v -12.181656 1.327965 -4
v -12 1.326053 -4
v -12.033384 1.326408 -4.033384
v -12.183102 1.327983 -4.024577
v -12.181656 1.327965 -4
v -12.181656 1.327965 -4
v -12 1.313782 -2.057204
v -12 1.326053 -4
v -12.181656 1.327965 -4
v -12.067142 1.314464 -2.053255
v -12 1.313782 -2.057204
v -6.193456 1.29176 -4.376909
v -12 1.326053 -4
v -6.171285 1.28924 -4
v -6.193456 1.29176 -4.376909
v -12 1.326276 -4.035348
v -12 1.326053 -4
v -12 1.326053 -4
v -6.077496 1.278577 -2.405587
v -6.171285 1.28924 -4
v -12 1.326053 -4
v -10.165138 1.302875 -2.165138
v -6.077496 1.278577 -2.405587
v -12 1.326053 -4
v -12 1.313782 -2.057204
v -10.165138 1.302875 -2.165138
v -12 1.313782 -2.057204
v -12.067142 1.314464 -2.053255
v -12 1.306548 -0.911841
v -6.077496 1.278577 -2.405587
v -8.296891 1.279277 -0.296891
v -5.961536 1.265395 -0.434265
v -6.077496 1.278577 -2.405587
v -10.165138 1.302875 -2.165138
v -8.296891 1.279277 -0.296891
v -10.165138 1.302875 -2.165138
v -11.951182 1.300999 -0.081933
v -8.296891 1.279277 -0.296891
v -10.165138 1.302875 -2.165138
v -12 1.306548 -0.911841
v -11.951182 1.300999 -0.081933
v -10.165138 1.302875 -2.165138
v -12 1.313782 -2.057204
v -12 1.306548 -0.911841
v -5.961536 1.265395 -0.434265
v -6.428644 1.255678 1.571356
v -5.845575 1.252212 1.537058
v -5.961536 1.265395 -0.434265
v -8.296891 1.279277 -0.296891
v -6.428644 1.255678 1.571356
v -8.296891 1.279277 -0.296891
v -11.835222 1.287816 1.88939
v -6.428644 1.255678 1.571356
v -8.296891 1.279277 -0.296891
v -11.951182 1.300999 -0.081933
v -11.835222 1.287816 1.88939
v -5.845575 1.252212 1.537058
v -6.428644 1.255678 1.571356
v -5.80699 1.247825 2.19301
v -6.428644 1.255678 1.571356
v -5.729615 1.239029 3.50838
v -5.80699 1.247825 2.19301
v -6.428644 1.255678 1.571356
v -11.719262 1.274633 3.860712
v -5.729615 1.239029 3.50838
v -6.428644 1.255678 1.571356
v -11.835222 1.287816 1.88939
v -11.719262 1.274633 3.860712
v -5.729615 1.239029 3.50838
v -11.711068 1.273701 4
v -5.700697 1.235741 4
v -5.729615 1.239029 3.50838
v -11.719262 1.274633 3.860712
v -11.711068 1.273701 4
v -11.711068 1.273701 4
v -5.613655 1.225846 5.479702
v -5.700697 1.235741 4
v -11.711068 1.273701 4
v -10.247706 1.253392 5.752294
v -5.613655 1.225846 5.479702
v -11.711068 1.273701 4
v -11.69301 1.271649 4.30699
v -10.247706 1.253392 5.752294
v -11.69301 1.271649 4.30699
v -11.603301 1.26145 5.832035
v -10.247706 1.253392 5.752294
v -5.613655 1.225846 5.479702
v -8.37946 1.229793 7.62054
v -5.497695 1.212663 7.451025
v -5.613655 1.225846 5.479702
v -10.247706 1.253392 5.752294
v -8.37946 1.229793 7.62054
v -10.247706 1.253392 5.752294
v -11.487341 1.248267 7.803357
v -8.37946 1.229793 7.62054
v -10.247706 1.253392 5.752294
v -11.603301 1.26145 5.832035
v -11.487341 1.248267 7.803357
v -5.497695 1.212663 7.451025
v -6.511213 1.206194 9.488787
v -5.381735 1.19948 9.422347
v -5.497695 1.212663 7.451025
v -8.37946 1.229793 7.62054
v -6.511213 1.206194 9.488787
v -8.37946 1.229793 7.62054
v -11.371381 1.235084 9.774679
v -6.511213 1.206194 9.488787
v -8.37946 1.229793 7.62054
v -11.487341 1.248267 7.803357
v -11.371381 1.235084 9.774679
v -5.381735 1.19948 9.422347
v -6.511213 1.206194 9.488787
v -5.30699 1.190983 10.69301
v -6.511213 1.206194 9.488787
v -5.265775 1.186298 11.39367
v -5.30699 1.190983 10.69301
v -6.511213 1.206194 9.488787
v -11.255421 1.221902 11.746002
v -5.265775 1.186298 11.39367
v -6.511213 1.206194 9.488787
v -11.371381 1.235084 9.774679
v -11.255421 1.221902 11.746002
v -5.265775 1.186298 11.39367
v -11.24041 1.220203 12
v -5.230285 1.182244 12
v -5.265775 1.186298 11.39367
v -11.255421 1.221902 11.746002
v -11.24041 1.220203 12
v -11.24041 1.220203 12
v -5.153765 1.173504 13.307321
v -5.230285 1.182244 12
v -11.24041 1.220203 12
v -10.29103 1.203413 13.70897
v -5.153765 1.173504 13.307321
v -11.24041 1.220203 12
v -11.1927 1.214803 12.8073
v -10.29103 1.203413 13.70897
v -11.1927 1.214803 12.8073
v -11.135511 1.20833 13.774995
v -10.29103 1.203413 13.70897
v -5.153765 1.173504 13.307321
v -9.079679 1.188112 14.920321
v -5.050421 1.16677 14.270169
v -5.153765 1.173504 13.307321
v -10.29103 1.203413 13.70897
v -9.079679 1.188112 14.920321
v -10.29103 1.203413 13.70897
v -10.973805 1.198144 15.225952
v -9.079679 1.188112 14.920321
v -10.29103 1.203413 13.70897
v -11.135511 1.20833 13.774995
v -10.973805 1.198144 15.225952
v -5.050421 1.16677 14.270169
v -8.010663 1.174608 15.989337
v -4.824586 1.158787 15.308283
v -5.050421 1.16677 14.270169
v -9.079679 1.188112 14.920321
v -8.010663 1.174608 15.989337
v -9.079679 1.188112 14.920321
v -10.692033 1.187923 16.562505
v -8.010663 1.174608 15.989337
v -9.079679 1.188112 14.920321
v -10.973805 1.198144 15.225952
v -10.692033 1.187923 16.562505
vn 0.006316 0.99996 0.006316
vn 0.006316 0.99996 0.006316
vn 0.006316 0.99996 0.006316
vn 0.006316 0.99996 0.006316
vn 0.006316 0.99996 0.006316
vn 0.006316 0.99996 0.006316
vn 0.006316 0.99996 0.006316
vn 0.006316 0.99996 0.006316
vn 0.006316 0.99996 0.006316
vn 0.006316 0.99996 0.006316
vn 0.006316 0.99996 0.006316
vn 0.006316 0.99996 0.006316
vn 0.006316 0.99996 0.006316
vn 0.006316 0.99996 0.006316
vn 0.003947 0.999955 0.008684
vn 0.004249 0.999971 0.006316
vn 0.004249 0.999971 0.006316
vn 0.006316 0.99996 0.006316
vn 0.006316 0.99996 0.006316
vn 0.006316 0.99996 0.006316
vn 0.006316 0.99996 0.006316
vn 0.006316 0.99996 0.006316
vn 0.004249 0.999971 0.006316
vn 0.004249 0.999971 0.006316
vn 0.006316 0.99996 0.006316
vn 0.006316 0.99996 0.006316
vn 0.006316 0.99996 0.006316
vn 0.006316 0.99996 0.006316
vn 0.006316 0.99996 0.006316
vn 0.006316 0.99996 0.006316
vn 0.004249 0.999971 0.006316
vn 0.004249 0.999971 0.006316
vn 0.006316 0.99996 0.006316
vn 0.006316 0.99996 0.006316
vn 0.006316 0.99996 0.006316
vn 0.006316 0.99996 0.006316
vn 0.004249 0.999971 0.006316
vn 0.004249 0.999971 0.006316
vn 0.006316 0.99996 0.006316
vn 0.006316 0.99996 0.006316
vn 0.006316 0.99996 0.006316
vn 0.006316 0.99996 0.006316
vn 0.004249 0.999971 0.006316
vn 0.004249 0.999971 0.006316
vn 0.004249 0.999971 0.006316
vn 0.004631 0.999971 0.006
vn 0.004631 0.999971 0.006
vn 0.010526 0.999945 0.000105
vn 0.006316 0.99996 0.006316
vn 0.006316 0.99996 0.006316
vn 0.006316 0.99996 0.006316
vn 0.006316 0.99996 0.006316
vn 0.004249 0.999971 0.006316
vn 0.004631 0.999971 0.006
vn 0.010526 0.999945 0.000105
vn 0.010526 0.999945 0.000105
vn 0.010526 0.999925 0.006315
vn 0.010526 0.999925 0.006315
vn 0.006316 0.99996 0.006316
vn 0.006316 0.99996 0.006316
vn 0.006316 0.99996 0.006316
vn 0.006316 0.99996 0.006316
vn 0.006316 0.99996 0.006316
vn 0.010526 0.999925 0.006315
vn 0.006316 0.99996 0.006316
vn 0.006316 0.99996 0.006316
vn 0.006316 0.99996 0.006316
vn 0.006316 0.99996 0.006316
vn 0.006316 0.99996 0.006316
vn 0.006316 0.99996 0.006316
vn 0.006316 0.99996 0.006316
vn 0.006316 0.99996 0.006316
vn 0.006316 0.99996 0.006316
vn 0.006316 0.99996 0.006316
vn 0.006316 0.99996 0.006316
vn 0.006316 0.99996 0.006316
vn 0.006316 0.99996 0.006316
vn 0.006316 0.99996 0.006316
vn 0.006316 0.99996 0.006316
vn 0.006316 0.99996 0.006316
vn 0.006316 0.99996 0.006316
vn 0.006316 0.99996 0.006316
vn 0.006316 0.99996 0.006316
vn 0.006316 0.99996 0.006316
vn 0.006316 0.99996 0.006316
vn 0.006316 0.99996 0.006316
vn 0.006316 0.99996 0.006316
vn 0.006316 0.99996 0.006316
vn 0.006316 0.99996 0.006316
vn 0.006316 0.99996 0.006316
vn 0.006316 0.99996 0.006316
vn 0.006316 0.99996 0.006316
vn 0.006316 0.99996 0.006316
vn 0.006316 0.99996 0.006316
vn 0.006316 0.99996 0.006316
vn 0.006316 0.99996 0.006316
vn 0.006316 0.99996 0.006316
vn 0.006316 0.99996 0.006316
vn 0.006316 0.99996 0.006316
vn 0.006316 0.99996 0.006316
vn 0.006316 0.99996 0.006316
vn 0.006316 0.99996 0.006316
vn 0.006316 0.99996 0.006316
vn 0.006316 0.99996 0.006316
vn 0.006316 0.99996 0.006316
vn 0.006316 0.99996 0.006316
vn 0.006316 0.99996 0.006316
vn 0.006316 0.99996 0.006316
vn 0.006316 0.99996 0.006316
f 1//1 2//1 3//1
f 4//2 5//2 6//2
f 7//3 8//3 9//3
f 10//4 11//4 12//4
f 13//5 14//5 15//5
f 16//6 17//6 18//6
f 19//7 20//7 21//7
f 22//8 23//8 24//8
f 25//9 26//9 27//9
f 28//10 29//10 30//10
f 31//11 32//11 33//11
f 34//12 35//12 36//12
f 37//13 38//13 39//13
f 40//14 41//14 42//14
f 43//15 44//15 45//15
f 46//16 47//16 48//16
f 49//17 50//17 51//17
f 52//18 53//18 54//18
f 55//19 56//19 57//19
f 58//20 59//20 60//20
f 61//21 62//21 63//21
f 64//22 65//22 66//22
f 67//23 68//23 69//23
f 70//24 71//24 72//24
f 73//25 74//25 75//25
f 76//26 77//26 78//26
f 79//27 80//27 81//27
f 82//28 83//28 84//28
f 85//29 86//29 87//29
f 88//30 89//30 90//30
f 91//31 92//31 93//31
f 94//32 95//32 96//32
f 97//33 98//33 99//33
f 100//34 101//34 102//34
f 103//35 104//35 105//35
f 106//36 107//36 108//36
f 109//37 110//37 111//37
f 112//38 113//38 114//38
f 115//39 116//39 117//39
f 118//40 119//40 120//40
f 121//41 122//41 123//41
f 124//42 125//42 126//42
f 127//43 128//43 129//43
f 130//44 131//44 132//44
f 133//45 134//45 135//45
f 136//46 137//46 138//46
f 139//47 140//47 141//47
f 142//48 143//48 144//48
f 145//49 146//49 147//49
f 148//50 149//50 150//50
f 151//51 152//51 153//51
f 154//52 155//52 156//52
f 157//53 158//53 159//53
f 160//54 161//54 162//54
f 163//55 164//55 165//55
f 166//56 167//56 168//56
f 169//57 170//57 171//57
f 172//58 173//58 174//58
f 175//59 176//59 177//59
f 178//60 179//60 180//60
f 181//61 182//61 183//61
f 184//62 185//62 186//62
f 187//63 188//63 189//63
f 190//64 191//64 192//64
f 193//65 194//65 195//65
f 196//66 197//66 198//66
f 199//67 200//67 201//67
f 202//68 203//68 204//68
f 205//69 206//69 207//69
f 208//70 209//70 210//70
f 211//71 212//71 213//71
f 214//72 215//72 216//72
f 217//73 218//73 219//73
f 220//74 221//74 222//74
f 223//75 224//75 225//75
f 226//76 227//76 228//76
f 229//77 230//77 231//77
f 232//78 233//78 234//78
f 235//79 236//79 237//79
f 238//80 239//80 240//80
f 241//81 242//81 243//81
f 244//82 245//82 246//82
f 247//83 248//83 249//83
f 250//84 251//84 252//84
f 253//85 254//85 255//85
f 256//86 257//86 258//86
f 259//87 260//87 261//87
f 262//88 263//88 264//88
f 265//89 266//89 267//89
f 268//90 269//90 270//90
f 271//91 272//91 273//91
f 274//92 275//92 276//92
f 277//93 278//93 279//93
f 280//94 281//94 282//94
f 283//95 284//95 285//95
f 286//96 287//96 288//96
f 289//97 290//97 291//97
f 292//98 293//98 294//98
f 295//99 296//99 297//99
f 298//100 299//100 300//100
f 301//101 302//101 303//101
f 304//102 305//102 306//102
f 307//103 308//103 309//103
f 310//104 311//104 312//104
f 313//105 314//105 315//105
f 316//106 317//106 318//106
f 319//107 320//107 321//107
f 322//108 323//108 324//108
f 325//109 326//109 327//109
