# Static Concept B graybox, metres, identity world transform.
v -5.507765 1.385139 -18.264249
v -6.889217 1.380857 -16.204844
v -5.391805 1.371956 -16.292927
v -5.507765 1.385139 -18.264249
v -7.005177 1.39404 -18.176166
v -6.889217 1.380857 -16.204844
v -5.391805 1.371956 -16.292927
v -6.263507 1.364644 -14.263507
v -5.275845 1.358773 -14.321604
v -5.391805 1.371956 -16.292927
v -6.80699 1.371509 -14.80699
v -6.263507 1.364644 -14.263507
v -5.391805 1.371956 -16.292927
v -6.889217 1.380857 -16.204844
v -6.80699 1.371509 -14.80699
v -6.80699 1.371509 -14.80699
v -6.773257 1.367674 -14.233521
v -6.263507 1.364644 -14.263507
v -5.275845 1.358773 -14.321604
v -6.263507 1.364644 -14.263507
v -5.210485 1.351343 -13.210485
v -6.263507 1.364644 -14.263507
v -5.159885 1.345591 -12.350282
v -5.210485 1.351343 -13.210485
v -6.263507 1.364644 -14.263507
v -6.657296 1.354492 -12.262199
v -5.159885 1.345591 -12.350282
v -6.263507 1.364644 -14.263507
v -6.773257 1.367674 -14.233521
v -6.657296 1.354492 -12.262199
v -5.159885 1.345591 -12.350282
v -6.641873 1.352738 -12
v -5.13928 1.343248 -12
v -5.159885 1.345591 -12.350282
v -6.657296 1.354492 -12.262199
v -6.641873 1.352738 -12
v -6.641873 1.352738 -12
v -5.043925 1.332408 -10.37896
v -5.13928 1.343248 -12
v -6.641873 1.352738 -12
v -6.541336 1.341309 -10.290877
v -5.043925 1.332408 -10.37896
v -5.043925 1.332408 -10.37896
v -6.425376 1.328126 -8.319554
v -4.927965 1.319225 -8.407637
v -5.043925 1.332408 -10.37896
v -6.541336 1.341309 -10.290877
v -6.425376 1.328126 -8.319554
v -4.927965 1.319225 -8.407637
v -6.309416 1.314943 -6.348232
v -4.812004 1.306042 -6.436315
v -4.927965 1.319225 -8.407637
v -6.425376 1.328126 -8.319554
v -6.309416 1.314943 -6.348232
v -4.812004 1.306042 -6.436315
v -6.30699 1.314667 -6.30699
v -4.710485 1.294501 -4.710485
v -4.812004 1.306042 -6.436315
v -6.309416 1.314943 -6.348232
v -6.30699 1.314667 -6.30699
v -6.30699 1.314667 -6.30699
v -4.696044 1.292859 -4.464992
v -4.710485 1.294501 -4.710485
v -6.30699 1.314667 -6.30699
v -6.193456 1.30176 -4.376909
v -4.696044 1.292859 -4.464992
v -4.696044 1.292859 -4.464992
v -6.171285 1.29924 -4
v -4.668692 1.28975 -4
v -4.696044 1.292859 -4.464992
v -6.193456 1.30176 -4.376909
v -6.171285 1.29924 -4
v -6.171285 1.29924 -4
v -4.580084 1.279676 -2.49367
v -4.668692 1.28975 -4
v -6.171285 1.29924 -4
v -6.077496 1.288577 -2.405587
v -4.580084 1.279676 -2.49367
v -4.580084 1.279676 -2.49367
v -5.961536 1.275395 -0.434265
v -4.464124 1.266494 -0.522348
v -4.580084 1.279676 -2.49367
v -6.077496 1.288577 -2.405587
v -5.961536 1.275395 -0.434265
v -4.464124 1.266494 -0.522348
v -5.845575 1.262212 1.537058
v -4.348164 1.253311 1.448975
v -4.464124 1.266494 -0.522348
v -5.961536 1.275395 -0.434265
v -5.845575 1.262212 1.537058
v -4.348164 1.253311 1.448975
v -4.560397 1.242079 3.439603
v -4.232204 1.240128 3.420297
v -4.348164 1.253311 1.448975
v -5.80699 1.257825 2.19301
v -4.560397 1.242079 3.439603
v -4.348164 1.253311 1.448975
v -5.845575 1.262212 1.537058
v -5.80699 1.257825 2.19301
v -5.80699 1.257825 2.19301
v -5.729615 1.249029 3.50838
v -4.560397 1.242079 3.439603
v -4.232204 1.240128 3.420297
v -4.560397 1.242079 3.439603
v -4.210485 1.237659 3.789515
v -4.560397 1.242079 3.439603
v -4.198104 1.236251 4
v -4.210485 1.237659 3.789515
v -4.560397 1.242079 3.439603
v -5.700697 1.245741 4
v -4.198104 1.236251 4
v -4.560397 1.242079 3.439603
v -5.729615 1.249029 3.50838
v -5.700697 1.245741 4
v -5.700697 1.245741 4
v -4.116244 1.226945 5.391619
v -4.198104 1.236251 4
v -5.700697 1.245741 4
v -5.613655 1.235846 5.479702
v -4.116244 1.226945 5.391619
v -4.116244 1.226945 5.391619
v -5.497695 1.222663 7.451025
v -4.000284 1.213762 7.362942
v -4.116244 1.226945 5.391619
v -5.613655 1.235846 5.479702
v -5.497695 1.222663 7.451025
v -4.000284 1.213762 7.362942
v -4 1.201267 9.341069
v -4 1.21373 7.367761
v -4.000284 1.213762 7.362942
v -5.381735 1.20948 9.422347
v -4 1.201267 9.341069
v -4.000284 1.213762 7.362942
v -5.497695 1.222663 7.451025
v -5.381735 1.20948 9.422347
v -4 1.201267 9.341069
v -3.884323 1.200579 9.334264
v -4 1.21373 7.367761
v -4 1.201267 9.341069
v -4.642966 1.192595 11.357034
v -4 1.188773 11.319212
v -4 1.201267 9.341069
v -5.30699 1.200983 10.69301
v -4.642966 1.192595 11.357034
v -4 1.201267 9.341069
v -5.381735 1.20948 9.422347
v -5.30699 1.200983 10.69301
v -5.30699 1.200983 10.69301
v -5.265775 1.196298 11.39367
v -4.642966 1.192595 11.357034
v -4 1.188773 11.319212
v -3.884323 1.200579 9.334264
v -4 1.201267 9.341069
v -4 1.188773 11.319212
v -3.768363 1.187396 11.305586
v -3.884323 1.200579 9.334264
v -4 1.188773 11.319212
v -4.642966 1.192595 11.357034
v -4 1.184474 12
v -4.642966 1.192595 11.357034
v -5.230285 1.192244 12
v -4 1.184474 12
v -4.642966 1.192595 11.357034
v -5.265775 1.196298 11.39367
v -5.230285 1.192244 12
v -5.230285 1.192244 12
v -4 1.176787 13.217116
v -4 1.184474 12
v -5.230285 1.192244 12
v -5.153765 1.183504 13.307321
v -4 1.176787 13.217116
v -3.727824 1.182755 12
v -4 1.188773 11.319212
v -4 1.184474 12
v -3.727824 1.182755 12
v -3.768363 1.187396 11.305586
v -4 1.188773 11.319212
v -4 1.184474 12
v -3.710949 1.180823 12.289051
v -3.727824 1.182755 12
v -4 1.184474 12
v -3.658329 1.174797 13.190403
v -3.710949 1.180823 12.289051
v -4 1.184474 12
v -4 1.176787 13.217116
v -3.658329 1.174797 13.190403
v -4 1.176787 13.217116
v -5.050421 1.17677 14.270169
v -4 1.171206 14.100675
v -4 1.176787 13.217116
v -5.153765 1.183504 13.307321
v -5.050421 1.17677 14.270169
v -3.658329 1.174797 13.190403
v -4 1.171206 14.100675
v -3.569575 1.168926 14.031223
v -3.658329 1.174797 13.190403
v -4 1.176787 13.217116
v -4 1.171206 14.100675
v -4 1.171206 14.100675
v -4.824586 1.168787 15.308283
v -4 1.164693 15.132019
v -4 1.171206 14.100675
v -5.050421 1.17677 14.270169
v -4.824586 1.168787 15.308283
v -4 1.164693 15.132019
v -3.569575 1.168926 14.031223
v -4 1.171206 14.100675
v -4 1.164693 15.132019
v -3.357725 1.161503 14.994727
v -3.569575 1.168926 14.031223
v -12.994823 1.429644 -17.823834
v -14.376275 1.425362 -15.764429
v -12.878863 1.416461 -15.852512
v -12.994823 1.429644 -17.823834
v -14.492235 1.438545 -17.735751
v -14.376275 1.425362 -15.764429
v -12.878863 1.416461 -15.852512
v -13.819062 1.409557 -13.819062
v -12.762903 1.403278 -13.881189
v -12.878863 1.416461 -15.852512
v -14.289515 1.415499 -14.289515
v -13.819062 1.409557 -13.819062
v -12.878863 1.416461 -15.852512
v -14.376275 1.425362 -15.764429
v -14.289515 1.415499 -14.289515
v -14.289515 1.415499 -14.289515
v -14.260314 1.411073 -13.793106
v -13.819062 1.409557 -13.819062
v -12.762903 1.403278 -13.881189
v -13.819062 1.409557 -13.819062
v -12.69301 1.395333 -12.69301
v -13.819062 1.409557 -13.819062
v -12.652245 1.389154 -12
v -12.69301 1.395333 -12.69301
v -13.819062 1.409557 -13.819062
v -14.154838 1.395085 -12
v -12.652245 1.389154 -12
v -13.819062 1.409557 -13.819062
v -14.260314 1.411073 -13.793106
v -14.154838 1.395085 -12
v -14.154838 1.395734 -12
v -12.646943 1.388758 -11.909867
v -12.652245 1.38935 -12
v -14.154838 1.395734 -12
v -14.144354 1.394564 -11.821784
v -12.646943 1.388758 -11.909867
v -12.646943 1.388758 -11.909867
v -14.028394 1.381621 -9.850461
v -12.530983 1.375815 -9.938544
v -12.646943 1.388758 -11.909867
v -14.144354 1.394564 -11.821784
v -14.028394 1.381621 -9.850461
v -12.530983 1.375815 -9.938544
v -13.912434 1.368678 -7.879139
v -12.415022 1.362872 -7.967222
v -12.530983 1.375815 -9.938544
v -14.028394 1.381621 -9.850461
v -13.912434 1.368678 -7.879139
v -12.415022 1.362872 -7.967222
v -13.584248 1.354912 -5.920301
v -12.299062 1.349929 -5.9959
v -12.415022 1.362872 -7.967222
v -13.813558 1.357642 -6.198252
v -13.584248 1.354912 -5.920301
v -12.415022 1.362872 -7.967222
v -13.912434 1.368678 -7.879139
v -13.813558 1.357642 -6.198252
v -13.813558 1.357642 -6.198252
v -13.796474 1.35582 -5.907817
v -13.584248 1.354912 -5.920301
v -12.299062 1.349929 -5.9959
v -13.584248 1.354912 -5.920301
v -12.195603 1.338381 -4.237095
v -13.584248 1.354912 -5.920301
v -12.19301 1.338105 -4.19301
v -12.195603 1.338381 -4.237095
v -13.584248 1.354912 -5.920301
v -13.789515 1.355078 -5.789515
v -12.19301 1.338105 -4.19301
v -13.584248 1.354912 -5.920301
v -13.796474 1.35582 -5.907817
v -13.789515 1.355078 -5.789515
v -13.789515 1.355078 -5.789515
v -12.183102 1.337983 -4.024577
v -12.19301 1.338105 -4.19301
v -13.789515 1.355078 -5.789515
v -12.600917 1.342378 -4
v -12.183102 1.337983 -4.024577
v -13.789515 1.355078 -5.789515
v -13.684249 1.353782 -4
v -12.600917 1.342378 -4
v -13.684249 1.353782 -4
v -13.680514 1.353341 -3.936494
v -12.600917 1.342378 -4
v -12.183102 1.337983 -4.024577
v -12.600917 1.342378 -4
v -12.181656 1.337965 -4
v -12.600917 1.342378 -4
v -12.067142 1.324464 -2.053255
v -12.181656 1.337965 -4
v -12.600917 1.342378 -4
v -13.564554 1.33967 -1.965172
v -12.067142 1.324464 -2.053255
v -12.600917 1.342378 -4
v -13.680514 1.353341 -3.936494
v -13.564554 1.33967 -1.965172
v -12.067142 1.324464 -2.053255
v -12 1.311289 -0.079061
v -12 1.316548 -0.911841
v -12.067142 1.324464 -2.053255
v -13.448593 1.325999 0.00615
v -12 1.311289 -0.079061
v -12.067142 1.324464 -2.053255
v -13.564554 1.33967 -1.965172
v -13.448593 1.325999 0.00615
v -12 1.311289 -0.079061
v -11.951182 1.310999 -0.081933
v -12 1.316548 -0.911841
v -12 1.311289 -0.079061
v -13.332633 1.312328 1.977473
v -12 1.298795 1.899083
v -12 1.311289 -0.079061
v -13.448593 1.325999 0.00615
v -13.332633 1.312328 1.977473
v -12 1.298795 1.899083
v -11.951182 1.310999 -0.081933
v -12 1.311289 -0.079061
v -12 1.298795 1.899083
v -11.835222 1.297816 1.88939
v -11.951182 1.310999 -0.081933
v -12 1.298795 1.899083
v -12.0966 1.287283 3.882909
v -12 1.286302 3.877226
v -12 1.298795 1.899083
v -13.30684 1.309287 2.415951
v -12.0966 1.287283 3.882909
v -12 1.298795 1.899083
v -13.332633 1.312328 1.977473
v -13.30684 1.309287 2.415951
v -13.30684 1.309287 2.415951
v -12.115953 1.287635 3.884047
v -12.0966 1.287283 3.882909
v -13.30684 1.309287 2.415951
v -13.289515 1.308972 2.710485
v -12.115953 1.287635 3.884047
v -13.289515 1.308972 2.710485
v -13.216673 1.302116 3.948795
v -12.115953 1.287635 3.884047
v -12 1.286302 3.877226
v -11.835222 1.297816 1.88939
v -12 1.298795 1.899083
v -12 1.286302 3.877226
v -11.719262 1.284633 3.860712
v -11.835222 1.297816 1.88939
v -12 1.286302 3.877226
v -12.0966 1.287283 3.882909
v -12 1.285526 4
v -12.0966 1.287283 3.882909
v -12.115953 1.287635 3.884047
v -12 1.285526 4
v -12.115953 1.287635 3.884047
v -13.213661 1.301832 4
v -12 1.285526 4
v -12.115953 1.287635 3.884047
v -13.216673 1.302116 3.948795
v -13.213661 1.301832 4
v -13.213661 1.299515 4
v -12 1.273808 5.85537
v -12 1.285526 4
v -13.213661 1.299515 4
v -13.100713 1.286086 5.920118
v -12 1.273808 5.85537
v -11.711068 1.283701 4
v -12 1.286302 3.877226
v -12 1.285526 4
v -11.711068 1.283701 4
v -11.719262 1.284633 3.860712
v -12 1.286302 3.877226
v -12 1.285526 4
v -11.69301 1.281649 4.30699
v -11.711068 1.283701 4
v -12 1.285526 4
v -11.603301 1.27145 5.832035
v -11.69301 1.281649 4.30699
v -12 1.285526 4
v -12 1.273808 5.85537
v -11.603301 1.27145 5.832035
v -12 1.273808 5.85537
v -12.984753 1.272299 7.89144
v -12 1.261315 7.833513
v -12 1.273808 5.85537
v -13.100713 1.286086 5.920118
v -12.984753 1.272299 7.89144
v -11.603301 1.27145 5.832035
v -12 1.261315 7.833513
v -11.487341 1.258267 7.803357
v -11.603301 1.27145 5.832035
v -12 1.273808 5.85537
v -12 1.261315 7.833513
v -12 1.261315 7.833513
v -12.868793 1.258512 9.862762
v -12 1.248821 9.811657
v -12 1.261315 7.833513
v -12.984753 1.272299 7.89144
v -12.868793 1.258512 9.862762
v -11.487341 1.258267 7.803357
v -12 1.248821 9.811657
v -11.371381 1.245084 9.774679
v -11.487341 1.258267 7.803357
v -12 1.261315 7.833513
v -12 1.248821 9.811657
v -12 1.248821 9.811657
v -12.198522 1.238542 11.801478
v -12 1.236328 11.7898
v -12 1.248821 9.811657
v -12.789515 1.249087 11.210485
v -12.198522 1.238542 11.801478
v -12 1.248821 9.811657
v -12.868793 1.258512 9.862762
v -12.789515 1.249087 11.210485
v -12.789515 1.249087 11.210485
v -12.752833 1.241667 11.834085
v -12.198522 1.238542 11.801478
v -11.371381 1.245084 9.774679
v -12 1.236328 11.7898
v -11.255421 1.231902 11.746002
v -11.371381 1.245084 9.774679
v -12 1.248821 9.811657
v -12 1.236328 11.7898
v -12 1.236328 11.7898
v -12.198522 1.238542 11.801478
v -12 1.235 12
v -12.198522 1.238542 11.801478
v -12.743005 1.239693 12
v -12 1.235 12
v -12.198522 1.238542 11.801478
v -12.752833 1.241667 11.834085
v -12.743005 1.239693 12
v -12.743005 1.239693 12
v -12 1.223363 13.842584
v -12 1.235 12
v -12.743005 1.239693 12
v -12.630947 1.227036 13.891913
v -12 1.223363 13.842584
v -11.255421 1.231902 11.746002
v -12 1.235 12
v -11.24041 1.230203 12
v -11.255421 1.231902 11.746002
v -12 1.236328 11.7898
v -12 1.235 12
v -12 1.235 12
v -11.1927 1.224803 12.8073
v -11.24041 1.230203 12
v -12 1.235 12
v -11.135511 1.21833 13.774995
v -11.1927 1.224803 12.8073
v -12 1.235 12
v -12 1.223363 13.842584
v -11.135511 1.21833 13.774995
v -12 1.223363 13.842584
v -12.454651 1.215988 15.464898
v -12 1.21358 15.391537
v -12 1.223363 13.842584
v -12.630947 1.227036 13.891913
v -12.454651 1.215988 15.464898
v -11.135511 1.21833 13.774995
v -12 1.21358 15.391537
v -10.973805 1.208144 15.225952
v -11.135511 1.21833 13.774995
v -12 1.223363 13.842584
v -12 1.21358 15.391537
v -12 1.21358 15.391537
v -12.158894 1.205207 16.876061
v -12 1.204418 16.842096
v -12 1.21358 15.391537
v -12.454651 1.215988 15.464898
v -12.158894 1.205207 16.876061
v -10.973805 1.208144 15.225952
v -12 1.204418 16.842096
v -10.692033 1.197923 16.562505
v -10.973805 1.208144 15.225952
v -12 1.21358 15.391537
v -12 1.204418 16.842096
vn 0.006316 0.99996 0.006316
vn 0.006316 0.99996 0.006316
vn 0.006316 0.99996 0.006316
vn 0.006316 0.99996 0.006316
vn 0.006316 0.99996 0.006316
vn 0.006316 0.99996 0.006316
vn 0.006316 0.99996 0.006316
vn 0.006316 0.99996 0.006316
vn 0.006316 0.99996 0.006316
vn 0.006316 0.99996 0.006316
vn 0.006316 0.99996 0.006316
vn 0.006316 0.99996 0.006316
vn 0.006316 0.99996 0.006316
vn 0.006316 0.99996 0.006316
vn 0.006316 0.99996 0.006316
vn 0.006316 0.99996 0.006316
vn 0.006316 0.99996 0.006316
vn 0.006316 0.99996 0.006316
vn 0.006316 0.99996 0.006316
vn 0.006316 0.99996 0.006316
vn 0.006316 0.99996 0.006316
vn 0.006316 0.99996 0.006316
vn 0.006316 0.99996 0.006316
vn 0.006316 0.99996 0.006316
vn 0.006316 0.99996 0.006316
vn 0.006316 0.99996 0.006316
vn 0.006316 0.99996 0.006316
vn 0.006316 0.99996 0.006316
vn 0.006316 0.99996 0.006316
vn 0.006316 0.99996 0.006316
vn 0.006316 0.99996 0.006316
vn 0.006316 0.99996 0.006316
vn 0.006316 0.99996 0.006316
vn 0.006316 0.99996 0.006316
vn 0.006316 0.99996 0.006316
vn 0.006316 0.99996 0.006316
vn 0.006316 0.99996 0.006316
vn 0.006316 0.99996 0.006316
vn 0.006316 0.99996 0.006316
vn 0.006316 0.99996 0.006316
vn 0.006316 0.99996 0.006316
vn 0.006316 0.99996 0.006316
vn 0.006316 0.99996 0.006316
vn 0.006316 0.99996 0.006316
vn 0.006316 0.99996 0.006316
vn 0.006316 0.99996 0.006316
vn 0.006316 0.99996 0.006316
vn 0.006316 0.99996 0.006316
vn 0.006316 0.99996 0.006316
vn 0.006316 0.99996 0.006316
vn 0.006316 0.99996 0.006316
vn 0.006316 0.99996 0.006316
vn 0.006316 0.99996 0.006316
vn 0.006316 0.99996 0.006316
vn 0.006316 0.99996 0.006316
vn 0.006316 0.99996 0.006316
vn 0.006316 0.99996 0.006316
vn 0.006316 0.99996 0.006316
vn 0.006316 0.99996 0.006316
vn 0.006316 0.99996 0.006316
vn 0.006316 0.99996 0.006316
vn 0.006316 0.99996 0.006316
vn 0.006316 0.99996 0.006316
vn 0.006316 0.99996 0.006316
vn 0.006316 0.99996 0.006316
vn 0.006316 0.99996 0.006316
vn 0.006316 0.99996 0.006316
vn 0.006316 0.99996 0.006316
vn 0.006316 0.99996 0.006316
vn 0.006316 0.99996 0.006316
vn 0.006316 0.99996 0.006316
vn 0.006316 0.99996 0.006316
vn 0.006316 0.99996 0.006316
vn 0.006316 0.99996 0.006316
vn 0.006316 0.99996 0.006316
vn 0.003947 0.999955 0.008684
vn 0.006316 0.99996 0.006316
vn 0.003947 0.999955 0.008684
vn 0.003947 0.999955 0.008684
vn 0.003947 0.999955 0.008684
vn 0.004249 0.999971 0.006316
vn 0.004249 0.999971 0.006316
vn 0.004249 0.999971 0.006316
vn 0.004249 0.999971 0.006316
vn 0.004249 0.999971 0.006316
vn 0.004249 0.999971 0.006316
vn 0.004249 0.999971 0.006316
vn 0.004249 0.999971 0.006316
vn 0.004249 0.999971 0.006316
vn 0.004631 0.999971 0.006
vn 0.004249 0.999971 0.006316
vn 0.004631 0.999971 0.006
vn 0.004631 0.999971 0.006
vn 0.004631 0.999971 0.006
vn 0.010526 0.999945 0.000105
vn 0.010526 0.999945 0.000105
vn 0.010526 0.999945 0.000105
vn 0.010526 0.999925 0.006315
vn 0.010526 0.999945 0.000105
vn 0.010526 0.999925 0.006315
vn 0.010526 0.999925 0.006315
vn 0.010526 0.999925 0.006315
vn 0.010526 0.999925 0.006315
vn 0.010526 0.999925 0.006315
vn 0.010526 0.999925 0.006315
vn 0.006316 0.99996 0.006316
vn 0.010526 0.999925 0.006315
vn 0.010526 0.999925 0.006315
vn 0.006316 0.99996 0.006316
vn 0.006316 0.99996 0.006316
vn 0.010526 0.999925 0.006315
vn 0.010526 0.999925 0.006315
vn 0.010526 0.999925 0.006315
vn 0.018179 0.999835 0
vn 0.018179 0.999835 0
vn 0.013434 0.999898 0.004746
vn 0.006316 0.99996 0.006316
vn 0.006316 0.99996 0.006316
vn 0.010526 0.999925 0.006315
vn 0.018179 0.999835 0
vn 0.013434 0.999898 0.004746
vn 0.013434 0.999898 0.004746
vn 0.011525 0.999914 0.006315
vn 0.011525 0.999914 0.006315
vn 0.006316 0.99996 0.006316
vn 0.006316 0.99996 0.006316
vn 0.006316 0.99996 0.006316
vn 0.006316 0.99996 0.006316
vn 0.006316 0.99996 0.006316
vn 0.011525 0.999914 0.006315
vn 0.011525 0.999914 0.006315
vn 0.006316 0.99996 0.006316
vn 0.006316 0.99996 0.006316
vn 0.011525 0.999914 0.006315
vn 0.011525 0.999914 0.006315
vn 0.006316 0.99996 0.006316
vn 0.006316 0.99996 0.006316
vn 0.011525 0.999914 0.006315
vn 0.011525 0.999914 0.006315
vn 0.011525 0.999914 0.006315
vn 0.006315 0.999914 0.011525
vn 0.006316 0.99996 0.006316
vn 0.006316 0.99996 0.006316
vn 0.011525 0.999914 0.006315
vn 0.006315 0.999914 0.011525
vn 0.006315 0.999914 0.011525
vn 0.006316 0.99996 0.006316
vn 0.006316 0.99996 0.006316
vn 0.006316 0.99996 0.006316
vn 0.006316 0.99996 0.006316
vn 0.006316 0.99996 0.006316
vn 0.006316 0.99996 0.006316
vn 0.006316 0.99996 0.006316
vn 0.006316 0.99996 0.006316
vn 0.006316 0.99996 0.006316
vn 0.006316 0.99996 0.006316
vn 0.006316 0.99996 0.006316
vn 0.006316 0.99996 0.006316
vn 0.006316 0.99996 0.006316
vn 0.006316 0.99996 0.006316
vn 0.006316 0.99996 0.006316
f 1//1 2//1 3//1
f 4//2 5//2 6//2
f 7//3 8//3 9//3
f 10//4 11//4 12//4
f 13//5 14//5 15//5
f 16//6 17//6 18//6
f 19//7 20//7 21//7
f 22//8 23//8 24//8
f 25//9 26//9 27//9
f 28//10 29//10 30//10
f 31//11 32//11 33//11
f 34//12 35//12 36//12
f 37//13 38//13 39//13
f 40//14 41//14 42//14
f 43//15 44//15 45//15
f 46//16 47//16 48//16
f 49//17 50//17 51//17
f 52//18 53//18 54//18
f 55//19 56//19 57//19
f 58//20 59//20 60//20
f 61//21 62//21 63//21
f 64//22 65//22 66//22
f 67//23 68//23 69//23
f 70//24 71//24 72//24
f 73//25 74//25 75//25
f 76//26 77//26 78//26
f 79//27 80//27 81//27
f 82//28 83//28 84//28
f 85//29 86//29 87//29
f 88//30 89//30 90//30
f 91//31 92//31 93//31
f 94//32 95//32 96//32
f 97//33 98//33 99//33
f 100//34 101//34 102//34
f 103//35 104//35 105//35
f 106//36 107//36 108//36
f 109//37 110//37 111//37
f 112//38 113//38 114//38
f 115//39 116//39 117//39
f 118//40 119//40 120//40
f 121//41 122//41 123//41
f 124//42 125//42 126//42
f 127//43 128//43 129//43
f 130//44 131//44 132//44
f 133//45 134//45 135//45
f 136//46 137//46 138//46
f 139//47 140//47 141//47
f 142//48 143//48 144//48
f 145//49 146//49 147//49
f 148//50 149//50 150//50
f 151//51 152//51 153//51
f 154//52 155//52 156//52
f 157//53 158//53 159//53
f 160//54 161//54 162//54
f 163//55 164//55 165//55
f 166//56 167//56 168//56
f 169//57 170//57 171//57
f 172//58 173//58 174//58
f 175//59 176//59 177//59
f 178//60 179//60 180//60
f 181//61 182//61 183//61
f 184//62 185//62 186//62
f 187//63 188//63 189//63
f 190//64 191//64 192//64
f 193//65 194//65 195//65
f 196//66 197//66 198//66
f 199//67 200//67 201//67
f 202//68 203//68 204//68
f 205//69 206//69 207//69
f 208//70 209//70 210//70
f 211//71 212//71 213//71
f 214//72 215//72 216//72
f 217//73 218//73 219//73
f 220//74 221//74 222//74
f 223//75 224//75 225//75
f 226//76 227//76 228//76
f 229//77 230//77 231//77
f 232//78 233//78 234//78
f 235//79 236//79 237//79
f 238//80 239//80 240//80
f 241//81 242//81 243//81
f 244//82 245//82 246//82
f 247//83 248//83 249//83
f 250//84 251//84 252//84
f 253//85 254//85 255//85
f 256//86 257//86 258//86
f 259//87 260//87 261//87
f 262//88 263//88 264//88
f 265//89 266//89 267//89
f 268//90 269//90 270//90
f 271//91 272//91 273//91
f 274//92 275//92 276//92
f 277//93 278//93 279//93
f 280//94 281//94 282//94
f 283//95 284//95 285//95
f 286//96 287//96 288//96
f 289//97 290//97 291//97
f 292//98 293//98 294//98
f 295//99 296//99 297//99
f 298//100 299//100 300//100
f 301//101 302//101 303//101
f 304//102 305//102 306//102
f 307//103 308//103 309//103
f 310//104 311//104 312//104
f 313//105 314//105 315//105
f 316//106 317//106 318//106
f 319//107 320//107 321//107
f 322//108 323//108 324//108
f 325//109 326//109 327//109
f 328//110 329//110 330//110
f 331//111 332//111 333//111
f 334//112 335//112 336//112
f 337//113 338//113 339//113
f 340//114 341//114 342//114
f 343//115 344//115 345//115
f 346//116 347//116 348//116
f 349//117 350//117 351//117
f 352//118 353//118 354//118
f 355//119 356//119 357//119
f 358//120 359//120 360//120
f 361//121 362//121 363//121
f 364//122 365//122 366//122
f 367//123 368//123 369//123
f 370//124 371//124 372//124
f 373//125 374//125 375//125
f 376//126 377//126 378//126
f 379//127 380//127 381//127
f 382//128 383//128 384//128
f 385//129 386//129 387//129
f 388//130 389//130 390//130
f 391//131 392//131 393//131
f 394//132 395//132 396//132
f 397//133 398//133 399//133
f 400//134 401//134 402//134
f 403//135 404//135 405//135
f 406//136 407//136 408//136
f 409//137 410//137 411//137
f 412//138 413//138 414//138
f 415//139 416//139 417//139
f 418//140 419//140 420//140
f 421//141 422//141 423//141
f 424//142 425//142 426//142
f 427//143 428//143 429//143
f 430//144 431//144 432//144
f 433//145 434//145 435//145
f 436//146 437//146 438//146
f 439//147 440//147 441//147
f 442//148 443//148 444//148
f 445//149 446//149 447//149
f 448//150 449//150 450//150
f 451//151 452//151 453//151
f 454//152 455//152 456//152
f 457//153 458//153 459//153
f 460//154 461//154 462//154
f 463//155 464//155 465//155
f 466//156 467//156 468//156
f 469//157 470//157 471//157
f 472//158 473//158 474//158
f 475//159 476//159 477//159
f 478//160 479//160 480//160
f 481//161 482//161 483//161
