# Static Concept B graybox, metres, identity world transform.
v -4.902973 1.161134 15.015039
v -7.04009 1.162349 16.95991
v -4.580705 1.152705 16.027376
v -4.902973 1.161134 15.015039
v -7.989944 1.174347 16.010056
v -7.04009 1.162349 16.95991
v -7.989944 1.174347 16.010056
v -10.190944 1.174703 18.15463
v -7.04009 1.162349 16.95991
v -7.989944 1.174347 16.010056
v -10.613646 1.185576 16.855749
v -10.190944 1.174703 18.15463
v -4.580705 1.152705 16.027376
v -6.152263 1.151134 17.847737
v -4.189865 1.144641 16.913309
v -4.580705 1.152705 16.027376
v -7.04009 1.162349 16.95991
v -6.152263 1.151134 17.847737
v -7.04009 1.162349 16.95991
v -9.607079 1.162564 19.492804
v -6.152263 1.151134 17.847737
v -7.04009 1.162349 16.95991
v -10.190944 1.174703 18.15463
v -9.607079 1.162564 19.492804
v -4.189865 1.144641 16.913309
v -4 1.130481 18.965496
v -4 1.141046 17.292764
v -4.189865 1.144641 16.913309
v -4.689669 1.132659 19.310331
v -4 1.130481 18.965496
v -4.189865 1.144641 16.913309
v -6.152263 1.151134 17.847737
v -4.689669 1.132659 19.310331
v -6.152263 1.151134 17.847737
v -6.069008 1.137015 20
v -4.689669 1.132659 19.310331
v -6.152263 1.151134 17.847737
v -9.353654 1.15776 20
v -6.069008 1.137015 20
v -6.152263 1.151134 17.847737
v -9.607079 1.162564 19.492804
v -9.353654 1.15776 20
v -9.353654 1.15776 20
v -8.697083 1.145314 21.314037
v -6.069008 1.137015 20
v -4 1.130481 18.965496
v -3.33052 1.128367 18.630756
v -4 1.141046 17.292764
v -4 1.130481 18.965496
v -4.689669 1.132659 19.310331
v -4 1.123947 20
v -4.689669 1.132659 19.310331
v -6.069008 1.137015 20
v -4 1.123947 20
v -6.069008 1.137015 20
v -4 1.116513 21.17717
v -4 1.123947 20
v -6.069008 1.137015 20
v -7.812413 1.128552 23.083377
v -4 1.116513 21.17717
v -6.069008 1.137015 20
v -8.697083 1.145314 21.314037
v -7.812413 1.128552 23.083377
v -2.645898 1.115395 20
v -4 1.130481 18.965496
v -4 1.123947 20
v -2.645898 1.115395 20
v -3.33052 1.128367 18.630756
v -4 1.130481 18.965496
v -4 1.123947 20
v -2.44585 1.111605 20.400096
v -2.645898 1.115395 20
v -4 1.123947 20
v -3.21522 1.114034 20.78478
v -2.44585 1.111605 20.400096
v -4 1.123947 20
v -4 1.116513 21.17717
v -3.21522 1.114034 20.78478
v -4 1.116513 21.17717
v -6.927744 1.11179 24.852717
v -4 1.102544 23.388845
v -4 1.116513 21.17717
v -7.812413 1.128552 23.083377
v -6.927744 1.11179 24.852717
v -2.44585 1.111605 20.400096
v -1.74077 1.09541 22.25923
v -1.56118 1.094843 22.169435
v -2.44585 1.111605 20.400096
v -3.21522 1.114034 20.78478
v -1.74077 1.09541 22.25923
v -3.21522 1.114034 20.78478
v -4 1.102544 23.388845
v -1.74077 1.09541 22.25923
v -3.21522 1.114034 20.78478
v -4 1.116513 21.17717
v -4 1.102544 23.388845
v -4 1.102544 23.388845
v -5.599653 1.093627 26.400347
v -4 1.088576 25.60052
v -4 1.102544 23.388845
v -6.708204 1.10763 25.291796
v -5.599653 1.093627 26.400347
v -4 1.102544 23.388845
v -6.927744 1.11179 24.852717
v -6.708204 1.10763 25.291796
v -6.708204 1.10763 25.291796
v -6.043074 1.095027 26.622057
v -5.599653 1.093627 26.400347
v -1.56118 1.094843 22.169435
v -1.74077 1.09541 22.25923
v -1.291796 1.089738 22.708204
v -1.74077 1.09541 22.25923
v -0.67651 1.07808 23.938775
v -1.291796 1.089738 22.708204
v -1.74077 1.09541 22.25923
v -4 1.088576 25.60052
v -0.67651 1.07808 23.938775
v -1.74077 1.09541 22.25923
v -4 1.102544 23.388845
v -4 1.088576 25.60052
v -4 1.088576 25.60052
v -4.125204 1.075003 27.874796
v -4 1.074607 27.812195
v -4 1.088576 25.60052
v -5.599653 1.093627 26.400347
v -4.125204 1.075003 27.874796
v -5.599653 1.093627 26.400347
v -4.375611 1.075793 28
v -4.125204 1.075003 27.874796
v -5.599653 1.093627 26.400347
v -5.354102 1.081973 28
v -4.375611 1.075793 28
v -5.599653 1.093627 26.400347
v -6.043074 1.095027 26.622057
v -5.354102 1.081973 28
v -5.354102 1.081973 28
v -5.158404 1.07915 28.391396
v -4.375611 1.075793 28
v -0.67651 1.07808 23.938775
v -4 1.074607 27.812195
v 0.208159 1.061318 25.708115
v -0.67651 1.07808 23.938775
v -4 1.088576 25.60052
v -4 1.074607 27.812195
v -4 1.074607 27.812195
v -4.125204 1.075003 27.874796
v -4 1.073421 28
v -4.125204 1.075003 27.874796
v -4.375611 1.075793 28
v -4 1.073421 28
v -4.375611 1.075793 28
v -4 1.065215 30.023869
v -4 1.073421 28
v -4.375611 1.075793 28
v -4.273734 1.066389 30.160736
v -4 1.065215 30.023869
v -4.375611 1.075793 28
v -5.158404 1.07915 28.391396
v -4.273734 1.066389 30.160736
v 0.208159 1.061318 25.708115
v 0.047739 1.047856 28
v 1.092829 1.044556 27.477455
v 0.208159 1.061318 25.708115
v -4 1.073421 28
v 0.047739 1.047856 28
v 0.208159 1.061318 25.708115
v -4 1.074607 27.812195
v -4 1.073421 28
v -4 1.073421 28
v -2.650754 1.056378 29.349246
v 0.047739 1.047856 28
v -4 1.073421 28
v -4 1.065215 30.023869
v -2.650754 1.056378 29.349246
v -4 1.065215 30.023869
v -4.273734 1.066389 30.160736
v -4 1.06244 30.708204
v 1.092829 1.044556 27.477455
v 0.047739 1.047856 28
v 1.354102 1.039606 28
v 0.047739 1.047856 28
v 1.977499 1.027794 29.246794
v 1.354102 1.039606 28
v 0.047739 1.047856 28
v -1.176304 1.037753 30.823696
v 1.977499 1.027794 29.246794
v 0.047739 1.047856 28
v -2.650754 1.056378 29.349246
v -1.176304 1.037753 30.823696
v -2.650754 1.056378 29.349246
v -3.389064 1.052246 31.930076
v -1.176304 1.037753 30.823696
v -2.650754 1.056378 29.349246
v -4 1.06244 30.708204
v -3.389064 1.052246 31.930076
v -2.650754 1.056378 29.349246
v -4 1.065215 30.023869
v -4 1.06244 30.708204
v 1.977499 1.027794 29.246794
v 0.298146 1.019129 32.298146
v 2.862169 1.011032 31.016134
v 1.977499 1.027794 29.246794
v -1.176304 1.037753 30.823696
v 0.298146 1.019129 32.298146
v -1.176304 1.037753 30.823696
v -2.504394 1.037484 33.699416
v 0.298146 1.019129 32.298146
v -1.176304 1.037753 30.823696
v -3.389064 1.052246 31.930076
v -2.504394 1.037484 33.699416
v 2.862169 1.011032 31.016134
v 1.772596 1.000504 33.772596
v 3.746839 0.99427 32.785474
v 2.862169 1.011032 31.016134
v 0.298146 1.019129 32.298146
v 1.772596 1.000504 33.772596
v 0.298146 1.019129 32.298146
v -1.619724 1.022722 35.468755
v 1.772596 1.000504 33.772596
v 0.298146 1.019129 32.298146
v -2.504394 1.037484 33.699416
v -1.619724 1.022722 35.468755
v 3.746839 0.99427 32.785474
v 4 0.979502 34.870568
v 4 0.989473 33.291796
v 3.746839 0.99427 32.785474
v 3.247045 0.981879 35.247045
v 4 0.979502 34.870568
v 3.746839 0.99427 32.785474
v 1.772596 1.000504 33.772596
v 3.247045 0.981879 35.247045
v 1.772596 1.000504 33.772596
v 1.741136 0.991742 36
v 3.247045 0.981879 35.247045
v 1.772596 1.000504 33.772596
v -1.354102 1.01829 36
v 1.741136 0.991742 36
v 1.772596 1.000504 33.772596
v -1.619724 1.022722 35.468755
v -1.354102 1.01829 36
v -1.354102 1.01829 36
v -0.735054 1.005161 37.238095
v 1.741136 0.991742 36
v 4 0.979502 34.870568
v 4.631509 0.977507 34.554814
v 4 0.989473 33.291796
v 4 0.979502 34.870568
v 3.247045 0.981879 35.247045
v 4 0.972368 36
v 3.247045 0.981879 35.247045
v 1.741136 0.991742 36
v 4 0.972368 36
v 1.741136 0.991742 36
v 4 0.965533 37.082243
v 4 0.972368 36
v 1.741136 0.991742 36
v 0.149616 0.986398 39.007435
v 4 0.965533 37.082243
v 1.741136 0.991742 36
v -0.735054 1.005161 37.238095
v 0.149616 0.986398 39.007435
v 5.354102 0.963816 36
v 4 0.979502 34.870568
v 4 0.972368 36
v 5.354102 0.963816 36
v 4.631509 0.977507 34.554814
v 4 0.979502 34.870568
v 4 0.972368 36
v 5.516179 0.960745 36.324153
v 5.354102 0.963816 36
v 4 0.972368 36
v 4.721495 0.963255 36.721495
v 5.516179 0.960745 36.324153
v 4 0.972368 36
v 4 0.965533 37.082243
v 4.721495 0.963255 36.721495
v 4 0.965533 37.082243
v 1.034285 0.967636 40.776775
v 4 0.951565 39.293917
v 4 0.965533 37.082243
v 0.149616 0.986398 39.007435
v 1.034285 0.967636 40.776775
v 5.516179 0.960745 36.324153
v 6.195945 0.94463 38.195945
v 6.400849 0.943983 38.093493
v 5.516179 0.960745 36.324153
v 4.721495 0.963255 36.721495
v 6.195945 0.94463 38.195945
v 4.721495 0.963255 36.721495
v 4 0.951565 39.293917
v 6.195945 0.94463 38.195945
v 4.721495 0.963255 36.721495
v 4 0.965533 37.082243
v 4 0.951565 39.293917
v 4 0.951565 39.293917
v 2.337061 0.946608 42.337061
v 4 0.937596 41.505592
v 4 0.951565 39.293917
v 1.291796 0.962174 41.291796
v 2.337061 0.946608 42.337061
v 4 0.951565 39.293917
v 1.034285 0.967636 40.776775
v 1.291796 0.962174 41.291796
v 1.291796 0.962174 41.291796
v 1.918955 0.951317 42.546115
v 2.337061 0.946608 42.337061
v 6.400849 0.943983 38.093493
v 6.195945 0.94463 38.195945
v 6.708204 0.93816 38.708204
v 6.195945 0.94463 38.195945
v 7.285518 0.927221 39.862833
v 6.708204 0.93816 38.708204
v 6.195945 0.94463 38.195945
v 4 0.937596 41.505592
v 7.285518 0.927221 39.862833
v 6.195945 0.94463 38.195945
v 4 0.951565 39.293917
v 4 0.937596 41.505592
v 4 0.937596 41.505592
v 3.811511 0.924649 43.811511
v 4 0.923628 43.717267
v 4 0.937596 41.505592
v 2.337061 0.946608 42.337061
v 3.811511 0.924649 43.811511
v 2.337061 0.946608 42.337061
v 3.434534 0.928896 44
v 3.811511 0.924649 43.811511
v 2.337061 0.946608 42.337061
v 2.645898 0.938733 44
v 3.434534 0.928896 44
v 2.337061 0.946608 42.337061
v 1.918955 0.951317 42.546115
v 2.645898 0.938733 44
v 2.645898 0.938733 44
v 2.803625 0.934773 44.315454
v 3.434534 0.928896 44
v 7.285518 0.927221 39.862833
v 4 0.923628 43.717267
v 8.170188 0.910459 41.632173
v 7.285518 0.927221 39.862833
v 4 0.937596 41.505592
v 4 0.923628 43.717267
v 4 0.923628 43.717267
v 3.811511 0.924649 43.811511
v 4 0.921842 44
v 3.811511 0.924649 43.811511
v 3.434534 0.928896 44
v 4 0.921842 44
v 3.434534 0.928896 44
v 4 0.909659 45.928942
v 4 0.921842 44
v 3.434534 0.928896 44
v 3.688295 0.912563 46.084794
v 4 0.909659 45.928942
v 3.434534 0.928896 44
v 2.803625 0.934773 44.315454
v 3.688295 0.912563 46.084794
v 8.170188 0.910459 41.632173
v 7.857883 0.897477 44
v 9.054858 0.893697 43.401512
v 8.170188 0.910459 41.632173
v 4 0.921842 44
v 7.857883 0.897477 44
v 8.170188 0.910459 41.632173
v 4 0.923628 43.717267
v 4 0.921842 44
v 4 0.921842 44
v 5.285961 0.905598 45.285961
v 7.857883 0.897477 44
v 4 0.921842 44
v 4 0.909659 45.928942
v 5.285961 0.905598 45.285961
v 4 0.909659 45.928942
v 3.688295 0.912563 46.084794
v 4 0.90474 46.707877
v 9.054858 0.893697 43.401512
v 7.857883 0.897477 44
v 9.353953 0.888028 44
v 7.857883 0.897477 44
v 9.961189 0.876518 45.215079
v 9.353953 0.888028 44
v 7.857883 0.897477 44
v 6.75359 0.88706 46.75359
v 9.961189 0.876518 45.215079
v 7.857883 0.897477 44
v 5.285961 0.905598 45.285961
v 6.75359 0.88706 46.75359
v 5.285961 0.905598 45.285961
v 4.551304 0.894298 47.809907
v 6.75359 0.88706 46.75359
v 5.285961 0.905598 45.285961
v 4 0.90474 46.707877
v 4.551304 0.894298 47.809907
v 5.285961 0.905598 45.285961
v 4 0.909659 45.928942
v 4 0.90474 46.707877
v 9.961189 0.876518 45.215079
v 7.570713 0.876738 47.570713
v 10.498032 0.86546 46.429117
v 9.961189 0.876518 45.215079
v 6.75359 0.88706 46.75359
v 7.570713 0.876738 47.570713
v 6.75359 0.88706 46.75359
v 4.908067 0.886997 48.609093
v 7.570713 0.876738 47.570713
v 6.75359 0.88706 46.75359
v 4.551304 0.894298 47.809907
v 4.908067 0.886997 48.609093
v 10.498032 0.86546 46.429117
v 8.434429 0.865828 48.434429
v 10.897741 0.855529 47.601857
v 10.498032 0.86546 46.429117
v 7.570713 0.876738 47.570713
v 8.434429 0.865828 48.434429
v 7.570713 0.876738 47.570713
v 5.21363 0.879295 49.523023
v 8.434429 0.865828 48.434429
v 7.570713 0.876738 47.570713
v 4.908067 0.886997 48.609093
v 5.21363 0.879295 49.523023
vn 0.006316 0.99996 0.006316
vn 0.006316 0.99996 0.006316
vn 0.006316 0.99996 0.006316
vn 0.006316 0.99996 0.006316
vn 0.006316 0.99996 0.006316
vn 0.006316 0.99996 0.006316
vn 0.006316 0.99996 0.006316
vn 0.006316 0.99996 0.006316
vn 0.006316 0.99996 0.006316
vn 0.006316 0.99996 0.006316
vn 0.006316 0.99996 0.006316
vn 0.006316 0.99996 0.006316
vn 0.006316 0.99996 0.006316
vn 0.006316 0.99996 0.006316
vn 0.006316 0.99996 0.006316
vn 0.006316 0.99996 0.006316
vn 0.006316 0.99996 0.006316
vn 0.006316 0.99996 0.006316
vn 0.006316 0.99996 0.006316
vn 0.006316 0.99996 0.006316
vn 0.006316 0.99996 0.006316
vn 0.006316 0.99996 0.006316
vn 0.006316 0.99996 0.006316
vn 0.006316 0.99996 0.006316
vn 0.006316 0.99996 0.006316
vn 0.006316 0.99996 0.006316
vn 0.006316 0.99996 0.006316
vn 0.006316 0.99996 0.006316
vn 0.006316 0.99996 0.006316
vn 0.006316 0.99996 0.006316
vn 0.006316 0.99996 0.006316
vn 0.006316 0.99996 0.006316
vn 0.006316 0.99996 0.006316
vn 0.006316 0.99996 0.006316
vn 0.006316 0.99996 0.006316
vn 0.006316 0.99996 0.006316
vn 0.006316 0.99996 0.006316
vn 0.006316 0.99996 0.006316
vn 0.006316 0.99996 0.006316
vn 0.006316 0.99996 0.006316
vn 0.006316 0.99996 0.006316
vn 0.006316 0.99996 0.006316
vn 0.006316 0.99996 0.006316
vn 0.006316 0.99996 0.006316
vn 0.006316 0.99996 0.006316
vn 0.006316 0.999972 0.004055
vn 0.006316 0.99996 0.006316
vn 0.006316 0.99996 0.006316
vn 0.006316 0.99996 0.006316
vn 0.006316 0.99996 0.006316
vn 0.006316 0.999972 0.004055
vn 0.006316 0.999972 0.004055
vn 0.006316 0.999972 0.004055
vn 0.006316 0.99996 0.006316
vn 0.006316 0.99996 0.006316
vn 0.006316 0.99996 0.006316
vn 0.006316 0.99996 0.006316
vn 0.008576 0.999955 0.004055
vn 0.006316 0.999972 0.004055
vn 0.006316 0.99996 0.006316
vn 0.006316 0.99996 0.006316
vn 0.006316 0.99996 0.006316
vn 0.006316 0.99996 0.006316
vn 0.008576 0.999955 0.004055
vn 0.008576 0.999955 0.004055
vn 0.008576 0.999955 0.004055
vn 0.006316 0.99996 0.006316
vn 0.006316 0.99996 0.006316
vn 0.008576 0.999955 0.004055
vn 0.008576 0.999955 0.004055
vn 0.006316 0.99996 0.006316
vn 0.006316 0.99996 0.006316
vn 0.008576 0.999955 0.004055
vn 0.008576 0.999955 0.004055
vn 0.006316 0.99996 0.006316
vn 0.006316 0.99996 0.006316
vn 0.006316 0.99996 0.006316
vn 0.008576 0.999955 0.004055
vn 0.008576 0.999955 0.004055
vn 0.008576 0.999955 0.004055
vn 0.008576 0.999943 0.006315
vn 0.006316 0.99996 0.006316
vn 0.006316 0.99996 0.006316
vn 0.008576 0.999955 0.004055
vn 0.008576 0.999943 0.006315
vn 0.008576 0.999943 0.006315
vn 0.008576 0.999943 0.006315
vn 0.006316 0.99996 0.006316
vn 0.006316 0.99996 0.006316
vn 0.006316 0.99996 0.006316
vn 0.006316 0.99996 0.006316
vn 0.006316 0.99996 0.006316
vn 0.008576 0.999943 0.006315
vn 0.008576 0.999943 0.006315
vn 0.006316 0.99996 0.006316
vn 0.006316 0.99996 0.006316
vn 0.006316 0.99996 0.006316
vn 0.006316 0.99996 0.006316
vn 0.008576 0.999943 0.006315
vn 0.008576 0.999943 0.006315
vn 0.008576 0.999943 0.006315
vn 0.012473 0.999919 0.002419
vn 0.006316 0.99996 0.006316
vn 0.006316 0.99996 0.006316
vn 0.006316 0.99996 0.006316
vn 0.006316 0.99996 0.006316
vn 0.008576 0.999943 0.006315
vn 0.008576 0.999943 0.006315
vn 0.012473 0.999919 0.002419
vn 0.012473 0.999919 0.002419
vn 0.012473 0.999919 0.002419
vn 0.012472 0.999902 0.006315
vn 0.006316 0.99996 0.006316
vn 0.006316 0.99996 0.006316
vn 0.008576 0.999943 0.006315
vn 0.012473 0.999919 0.002419
vn 0.012472 0.999902 0.006315
vn 0.012472 0.999902 0.006315
vn 0.012472 0.999902 0.006315
vn 0.006316 0.99996 0.006316
vn 0.006316 0.99996 0.006316
vn 0.006316 0.99996 0.006316
vn 0.006316 0.99996 0.006316
vn 0.006316 0.99996 0.006316
vn 0.012472 0.999902 0.006315
vn 0.006316 0.99996 0.006316
vn 0.006316 0.99996 0.006316
vn 0.006316 0.99996 0.006316
vn 0.006316 0.99996 0.006316
vn 0.006316 0.99996 0.006316
vn 0.006316 0.99996 0.006316
vn 0.006316 0.99996 0.006316
vn 0.006316 0.99996 0.006316
vn 0.006316 0.99996 0.006316
vn 0.006316 0.99996 0.006316
vn 0.006316 0.99996 0.006316
vn 0.006316 0.99996 0.006316
vn 0.006316 0.99996 0.006316
vn 0.006316 0.99996 0.006316
vn 0.006316 0.99996 0.006316
f 1//1 2//1 3//1
f 4//2 5//2 6//2
f 7//3 8//3 9//3
f 10//4 11//4 12//4
f 13//5 14//5 15//5
f 16//6 17//6 18//6
f 19//7 20//7 21//7
f 22//8 23//8 24//8
f 25//9 26//9 27//9
f 28//10 29//10 30//10
f 31//11 32//11 33//11
f 34//12 35//12 36//12
f 37//13 38//13 39//13
f 40//14 41//14 42//14
f 43//15 44//15 45//15
f 46//16 47//16 48//16
f 49//17 50//17 51//17
f 52//18 53//18 54//18
f 55//19 56//19 57//19
f 58//20 59//20 60//20
f 61//21 62//21 63//21
f 64//22 65//22 66//22
f 67//23 68//23 69//23
f 70//24 71//24 72//24
f 73//25 74//25 75//25
f 76//26 77//26 78//26
f 79//27 80//27 81//27
f 82//28 83//28 84//28
f 85//29 86//29 87//29
f 88//30 89//30 90//30
f 91//31 92//31 93//31
f 94//32 95//32 96//32
f 97//33 98//33 99//33
f 100//34 101//34 102//34
f 103//35 104//35 105//35
f 106//36 107//36 108//36
f 109//37 110//37 111//37
f 112//38 113//38 114//38
f 115//39 116//39 117//39
f 118//40 119//40 120//40
f 121//41 122//41 123//41
f 124//42 125//42 126//42
f 127//43 128//43 129//43
f 130//44 131//44 132//44
f 133//45 134//45 135//45
f 136//46 137//46 138//46
f 139//47 140//47 141//47
f 142//48 143//48 144//48
f 145//49 146//49 147//49
f 148//50 149//50 150//50
f 151//51 152//51 153//51
f 154//52 155//52 156//52
f 157//53 158//53 159//53
f 160//54 161//54 162//54
f 163//55 164//55 165//55
f 166//56 167//56 168//56
f 169//57 170//57 171//57
f 172//58 173//58 174//58
f 175//59 176//59 177//59
f 178//60 179//60 180//60
f 181//61 182//61 183//61
f 184//62 185//62 186//62
f 187//63 188//63 189//63
f 190//64 191//64 192//64
f 193//65 194//65 195//65
f 196//66 197//66 198//66
f 199//67 200//67 201//67
f 202//68 203//68 204//68
f 205//69 206//69 207//69
f 208//70 209//70 210//70
f 211//71 212//71 213//71
f 214//72 215//72 216//72
f 217//73 218//73 219//73
f 220//74 221//74 222//74
f 223//75 224//75 225//75
f 226//76 227//76 228//76
f 229//77 230//77 231//77
f 232//78 233//78 234//78
f 235//79 236//79 237//79
f 238//80 239//80 240//80
f 241//81 242//81 243//81
f 244//82 245//82 246//82
f 247//83 248//83 249//83
f 250//84 251//84 252//84
f 253//85 254//85 255//85
f 256//86 257//86 258//86
f 259//87 260//87 261//87
f 262//88 263//88 264//88
f 265//89 266//89 267//89
f 268//90 269//90 270//90
f 271//91 272//91 273//91
f 274//92 275//92 276//92
f 277//93 278//93 279//93
f 280//94 281//94 282//94
f 283//95 284//95 285//95
f 286//96 287//96 288//96
f 289//97 290//97 291//97
f 292//98 293//98 294//98
f 295//99 296//99 297//99
f 298//100 299//100 300//100
f 301//101 302//101 303//101
f 304//102 305//102 306//102
f 307//103 308//103 309//103
f 310//104 311//104 312//104
f 313//105 314//105 315//105
f 316//106 317//106 318//106
f 319//107 320//107 321//107
f 322//108 323//108 324//108
f 325//109 326//109 327//109
f 328//110 329//110 330//110
f 331//111 332//111 333//111
f 334//112 335//112 336//112
f 337//113 338//113 339//113
f 340//114 341//114 342//114
f 343//115 344//115 345//115
f 346//116 347//116 348//116
f 349//117 350//117 351//117
f 352//118 353//118 354//118
f 355//119 356//119 357//119
f 358//120 359//120 360//120
f 361//121 362//121 363//121
f 364//122 365//122 366//122
f 367//123 368//123 369//123
f 370//124 371//124 372//124
f 373//125 374//125 375//125
f 376//126 377//126 378//126
f 379//127 380//127 381//127
f 382//128 383//128 384//128
f 385//129 386//129 387//129
f 388//130 389//130 390//130
f 391//131 392//131 393//131
f 394//132 395//132 396//132
f 397//133 398//133 399//133
f 400//134 401//134 402//134
f 403//135 404//135 405//135
f 406//136 407//136 408//136
f 409//137 410//137 411//137
f 412//138 413//138 414//138
f 415//139 416//139 417//139
f 418//140 419//140 420//140
