# Static Concept B graybox, metres, identity world transform.
v -4 1.16727 14.723986
v -4.580705 1.162705 16.027376
v -4 1.160428 15.807188
v -4 1.16727 14.723986
v -4.902973 1.171134 15.015039
v -4.580705 1.162705 16.027376
v -4 1.160428 15.807188
v -3.475304 1.165024 14.554862
v -4 1.16727 14.723986
v -4 1.160428 15.807188
v -3.178145 1.157206 15.495562
v -3.475304 1.165024 14.554862
v -4 1.160428 15.807188
v -4.189865 1.154641 16.913309
v -4 1.154013 16.822902
v -4 1.160428 15.807188
v -4.580705 1.162705 16.027376
v -4.189865 1.154641 16.913309
v -4 1.154013 16.822902
v -3.178145 1.157206 15.495562
v -4 1.160428 15.807188
v -4 1.154013 16.822902
v -2.835561 1.150161 16.268436
v -3.178145 1.157206 15.495562
v -4 1.154013 16.822902
v -4.189865 1.154641 16.913309
v -4 1.151046 17.292764
v -4 1.151046 17.292764
v -2.835561 1.150161 16.268436
v -4 1.154013 16.822902
v -4 1.151046 17.292764
v -1.988879 1.13413 17.959935
v -2.835561 1.150161 16.268436
v -4 1.151046 17.292764
v -3.33052 1.138367 18.630756
v -1.988879 1.13413 17.959935
v -1.645659 1.119078 20
v -3.33052 1.138367 18.630756
v -2.645898 1.125395 20
v -1.645659 1.119078 20
v -1.988879 1.13413 17.959935
v -3.33052 1.138367 18.630756
v -1.645659 1.119078 20
v -1.104209 1.117368 19.729275
v -1.988879 1.13413 17.959935
v -2.645898 1.125395 20
v -2.44585 1.121605 20.400096
v -1.645659 1.119078 20
v -0.968847 1.114803 20
v -1.104209 1.117368 19.729275
v -1.645659 1.119078 20
v -1.645659 1.119078 20
v -0.21954 1.100606 21.498615
v -0.968847 1.114803 20
v -1.645659 1.119078 20
v -1.56118 1.104843 22.169435
v -0.21954 1.100606 21.498615
v -1.645659 1.119078 20
v -2.44585 1.121605 20.400096
v -1.56118 1.104843 22.169435
v -0.21954 1.100606 21.498615
v -0.26632 1.086785 23.73368
v 0.66513 1.083844 23.267955
v -0.21954 1.100606 21.498615
v -1.291796 1.099738 22.708204
v -0.26632 1.086785 23.73368
v -0.21954 1.100606 21.498615
v -1.56118 1.104843 22.169435
v -1.291796 1.099738 22.708204
v -1.291796 1.099738 22.708204
v -0.67651 1.08808 23.938775
v -0.26632 1.086785 23.73368
v 0.66513 1.083844 23.267955
v 1.20813 1.06816 25.20813
v 1.5498 1.067082 25.037294
v 0.66513 1.083844 23.267955
v -0.26632 1.086785 23.73368
v 1.20813 1.06816 25.20813
v -0.26632 1.086785 23.73368
v 0.208159 1.071318 25.708115
v 1.20813 1.06816 25.20813
v -0.26632 1.086785 23.73368
v -0.67651 1.08808 23.938775
v 0.208159 1.071318 25.708115
v 1.5498 1.067082 25.037294
v 1.20813 1.06816 25.20813
v 2.062306 1.057371 26.062306
v 1.20813 1.06816 25.20813
v 2.43447 1.050319 26.806634
v 2.062306 1.057371 26.062306
v 1.20813 1.06816 25.20813
v 1.092829 1.054556 27.477455
v 2.43447 1.050319 26.806634
v 1.20813 1.06816 25.20813
v 0.208159 1.071318 25.708115
v 1.092829 1.054556 27.477455
v 2.43447 1.050319 26.806634
v 1.354102 1.049606 28
v 3.031153 1.039014 28
v 2.43447 1.050319 26.806634
v 1.092829 1.054556 27.477455
v 1.354102 1.049606 28
v 1.354102 1.049606 28
v 3.31914 1.033557 28.575974
v 3.031153 1.039014 28
v 1.354102 1.049606 28
v 1.977499 1.037794 29.246794
v 3.31914 1.033557 28.575974
v 3.31914 1.033557 28.575974
v 4 1.017439 30.447219
v 4 1.020657 29.937694
v 3.31914 1.033557 28.575974
v 2.862169 1.021032 31.016134
v 4 1.017439 30.447219
v 3.31914 1.033557 28.575974
v 1.977499 1.037794 29.246794
v 2.862169 1.021032 31.016134
v 4 1.017439 30.447219
v 4.20381 1.016795 30.345314
v 4 1.020657 29.937694
v 4 1.017439 30.447219
v 3.746839 1.00427 32.785474
v 4 1.00347 32.658893
v 4 1.017439 30.447219
v 2.862169 1.021032 31.016134
v 3.746839 1.00427 32.785474
v 4 1.00347 32.658893
v 4.20381 1.016795 30.345314
v 4 1.017439 30.447219
v 4 1.00347 32.658893
v 5.08848 1.000033 32.114654
v 4.20381 1.016795 30.345314
v 4 1.00347 32.658893
v 3.746839 1.00427 32.785474
v 4 0.999473 33.291796
v 4 0.999473 33.291796
v 5.08848 1.000033 32.114654
v 4 1.00347 32.658893
v 4 0.999473 33.291796
v 5.97315 0.983271 33.883993
v 5.08848 1.000033 32.114654
v 4 0.999473 33.291796
v 4.631509 0.987507 34.554814
v 5.97315 0.983271 33.883993
v 6.164486 0.968698 36
v 4.631509 0.987507 34.554814
v 5.354102 0.973816 36
v 6.164486 0.968698 36
v 5.97315 0.983271 33.883993
v 4.631509 0.987507 34.554814
v 6.164486 0.968698 36
v 6.857819 0.966509 35.653333
v 5.97315 0.983271 33.883993
v 5.354102 0.973816 36
v 5.516179 0.970745 36.324153
v 6.164486 0.968698 36
v 7.031153 0.963224 36
v 6.857819 0.966509 35.653333
v 6.164486 0.968698 36
v 6.164486 0.968698 36
v 7.742489 0.949746 37.422673
v 7.031153 0.963224 36
v 6.164486 0.968698 36
v 6.400849 0.953983 38.093493
v 7.742489 0.949746 37.422673
v 6.164486 0.968698 36
v 5.516179 0.970745 36.324153
v 6.400849 0.953983 38.093493
v 7.742489 0.949746 37.422673
v 7.670395 0.936006 39.670395
v 8.627159 0.932984 39.192013
v 7.742489 0.949746 37.422673
v 6.708204 0.94816 38.708204
v 7.670395 0.936006 39.670395
v 7.742489 0.949746 37.422673
v 6.400849 0.953983 38.093493
v 6.708204 0.94816 38.708204
v 6.708204 0.94816 38.708204
v 7.285518 0.937221 39.862833
v 7.670395 0.936006 39.670395
v 8.627159 0.932984 39.192013
v 9.144845 0.917381 41.144845
v 9.511829 0.916222 40.961352
v 8.627159 0.932984 39.192013
v 7.670395 0.936006 39.670395
v 9.144845 0.917381 41.144845
v 7.670395 0.936006 39.670395
v 8.170188 0.920459 41.632173
v 9.144845 0.917381 41.144845
v 7.670395 0.936006 39.670395
v 7.285518 0.937221 39.862833
v 8.170188 0.920459 41.632173
v 9.511829 0.916222 40.961352
v 9.144845 0.917381 41.144845
v 10.062306 0.905792 42.062306
v 9.144845 0.917381 41.144845
v 10.396499 0.89946 42.730692
v 10.062306 0.905792 42.062306
v 9.144845 0.917381 41.144845
v 9.054858 0.903697 43.401512
v 10.396499 0.89946 42.730692
v 9.144845 0.917381 41.144845
v 8.170188 0.920459 41.632173
v 9.054858 0.903697 43.401512
v 10.396499 0.89946 42.730692
v 9.353953 0.898028 44
v 11.030684 0.887438 44
v 10.396499 0.89946 42.730692
v 9.054858 0.903697 43.401512
v 9.353953 0.898028 44
v 9.353953 0.898028 44
v 11.313661 0.882073 44.566372
v 11.030684 0.887438 44
v 9.353953 0.898028 44
v 9.961189 0.886518 45.215079
v 11.313661 0.882073 44.566372
v 11.313661 0.882073 44.566372
v 10.498032 0.87546 46.429117
v 11.895523 0.870076 45.884123
v 11.313661 0.882073 44.566372
v 9.961189 0.886518 45.215079
v 10.498032 0.87546 46.429117
v 11.895523 0.870076 45.884123
v 12 0.86092 47.229306
v 12 0.867487 46.189581
v 11.895523 0.870076 45.884123
v 10.897741 0.865529 47.601857
v 12 0.86092 47.229306
v 11.895523 0.870076 45.884123
v 10.498032 0.87546 46.429117
v 10.897741 0.865529 47.601857
v 12 0.86092 47.229306
v 12.318769 0.85633 47.121566
v 12 0.867487 46.189581
v -12 1.20151 17.302609
v -12.041314 1.201687 17.315926
v -12 1.200627 17.442368
v -12 1.200627 17.442368
v -10.613646 1.195576 16.855749
v -12 1.20151 17.302609
v -12 1.200627 17.442368
v -10.190944 1.184703 18.15463
v -10.613646 1.195576 16.855749
v -12 1.200627 17.442368
v -11.593504 1.190202 18.686444
v -10.190944 1.184703 18.15463
v -10.672244 1.176088 20
v -11.593504 1.190202 18.686444
v -11.021351 1.178293 20
v -10.672244 1.176088 20
v -10.190944 1.184703 18.15463
v -11.593504 1.190202 18.686444
v -10.672244 1.176088 20
v -9.607079 1.172564 19.492804
v -10.190944 1.184703 18.15463
v -11.021351 1.178293 20
v -10.961382 1.177044 20.137678
v -10.672244 1.176088 20
v -9.353654 1.16776 20
v -9.607079 1.172564 19.492804
v -10.672244 1.176088 20
v -10.672244 1.176088 20
v -8.697083 1.155314 21.314037
v -9.353654 1.16776 20
v -10.672244 1.176088 20
v -10.023003 1.159501 21.976997
v -8.697083 1.155314 21.314037
v -10.672244 1.176088 20
v -10.062258 1.159997 21.937742
v -10.023003 1.159501 21.976997
v -10.672244 1.176088 20
v -10.961382 1.177044 20.137678
v -10.062258 1.159997 21.937742
v -10.062258 1.159997 21.937742
v -10.038724 1.159551 21.984858
v -10.023003 1.159501 21.976997
v -8.697083 1.155314 21.314037
v -8.548553 1.140876 23.451447
v -7.812413 1.138552 23.083377
v -8.697083 1.155314 21.314037
v -10.023003 1.159501 21.976997
v -8.548553 1.140876 23.451447
v -10.023003 1.159501 21.976997
v -9.154054 1.142789 23.754198
v -8.548553 1.140876 23.451447
v -10.023003 1.159501 21.976997
v -10.038724 1.159551 21.984858
v -9.154054 1.142789 23.754198
v -7.812413 1.138552 23.083377
v -7.074103 1.122252 24.925897
v -6.927744 1.12179 24.852717
v -7.812413 1.138552 23.083377
v -8.548553 1.140876 23.451447
v -7.074103 1.122252 24.925897
v -8.548553 1.140876 23.451447
v -8.269384 1.126026 25.523537
v -7.074103 1.122252 24.925897
v -8.548553 1.140876 23.451447
v -9.154054 1.142789 23.754198
v -8.269384 1.126026 25.523537
v -6.927744 1.12179 24.852717
v -7.074103 1.122252 24.925897
v -6.708204 1.11763 25.291796
v -7.074103 1.122252 24.925897
v -6.043074 1.105027 26.622057
v -6.708204 1.11763 25.291796
v -7.074103 1.122252 24.925897
v -7.384714 1.109264 27.292877
v -6.043074 1.105027 26.622057
v -7.074103 1.122252 24.925897
v -8.269384 1.126026 25.523537
v -7.384714 1.109264 27.292877
v -6.043074 1.105027 26.622057
v -7.031153 1.102565 28
v -5.354102 1.091973 28
v -6.043074 1.105027 26.622057
v -7.384714 1.109264 27.292877
v -7.031153 1.102565 28
v -7.031153 1.102565 28
v -5.158404 1.08915 28.391396
v -5.354102 1.091973 28
v -7.031153 1.102565 28
v -6.500045 1.094904 29.062217
v -5.158404 1.08915 28.391396
v -5.158404 1.08915 28.391396
v -5.615375 1.082142 30.831557
v -4.273734 1.076389 30.160736
v -5.158404 1.08915 28.391396
v -6.500045 1.094904 29.062217
v -5.615375 1.082142 30.831557
v -4.273734 1.076389 30.160736
v -4 1.066247 32.235544
v -4 1.07244 30.708204
v -4.273734 1.076389 30.160736
v -4.730705 1.069381 32.600896
v -4 1.066247 32.235544
v -4.273734 1.076389 30.160736
v -5.615375 1.082142 30.831557
v -4.730705 1.069381 32.600896
v -4 1.066247 32.235544
v -3.389064 1.062246 31.930076
v -4 1.07244 30.708204
v -4 1.066247 32.235544
v -4.730705 1.069381 32.600896
v -4 1.05884 34.062306
v -4 1.05884 34.062306
v -3.389064 1.062246 31.930076
v -4 1.066247 32.235544
v -4 1.05884 34.062306
v -2.504394 1.047484 33.699416
v -3.389064 1.062246 31.930076
v -4 1.05884 34.062306
v -3.846035 1.056271 34.370236
v -2.504394 1.047484 33.699416
v -2.682213 1.039681 36
v -3.846035 1.056271 34.370236
v -3.031153 1.042674 36
v -2.682213 1.039681 36
v -2.504394 1.047484 33.699416
v -3.846035 1.056271 34.370236
v -2.682213 1.039681 36
v -1.619724 1.032722 35.468755
v -2.504394 1.047484 33.699416
v -3.031153 1.042674 36
v -2.961365 1.041193 36.139576
v -2.682213 1.039681 36
v -1.354102 1.02829 36
v -1.619724 1.032722 35.468755
v -2.682213 1.039681 36
v -2.682213 1.039681 36
v -0.735054 1.015161 37.238095
v -1.354102 1.02829 36
v -2.682213 1.039681 36
v -2.076695 1.022431 37.908916
v -0.735054 1.015161 37.238095
v -2.682213 1.039681 36
v -2.961365 1.041193 36.139576
v -2.076695 1.022431 37.908916
v -0.735054 1.015161 37.238095
v -0.611838 1.000525 39.388162
v 0.149616 0.996398 39.007435
v -0.735054 1.015161 37.238095
v -2.062306 1.022126 37.937694
v -0.611838 1.000525 39.388162
v -0.735054 1.015161 37.238095
v -2.076695 1.022431 37.908916
v -2.062306 1.022126 37.937694
v -2.062306 1.022126 37.937694
v -1.192025 1.00706 39.678255
v -0.611838 1.000525 39.388162
v 0.149616 0.996398 39.007435
v 0.862612 0.978566 40.862612
v 1.034285 0.977636 40.776775
v 0.149616 0.996398 39.007435
v -0.611838 1.000525 39.388162
v 0.862612 0.978566 40.862612
v -0.611838 1.000525 39.388162
v -0.307355 0.991745 41.447595
v 0.862612 0.978566 40.862612
v -0.611838 1.000525 39.388162
v -1.192025 1.00706 39.678255
v -0.307355 0.991745 41.447595
v 1.034285 0.977636 40.776775
v 0.862612 0.978566 40.862612
v 1.291796 0.972174 41.291796
v 0.862612 0.978566 40.862612
v 1.918955 0.961317 42.546115
v 1.291796 0.972174 41.291796
v 0.862612 0.978566 40.862612
v 0.577315 0.97643 43.216935
v 1.918955 0.961317 42.546115
v 0.862612 0.978566 40.862612
v -0.307355 0.991745 41.447595
v 0.577315 0.97643 43.216935
v 1.918955 0.961317 42.546115
v 0.968847 0.969652 44
v 2.645898 0.948733 44
v 1.918955 0.961317 42.546115
v 0.577315 0.97643 43.216935
v 0.968847 0.969652 44
v 0.968847 0.969652 44
v 2.803625 0.944773 44.315454
v 2.645898 0.948733 44
v 0.968847 0.969652 44
v 1.461984 0.957271 44.986275
v 2.803625 0.944773 44.315454
v 2.803625 0.944773 44.315454
v 2.346654 0.935062 46.755614
v 3.688295 0.922563 46.084794
v 2.803625 0.944773 44.315454
v 1.461984 0.957271 44.986275
v 2.346654 0.935062 46.755614
v 3.688295 0.922563 46.084794
v 4 0.906109 48.074338
v 4 0.91474 46.707877
v 3.688295 0.922563 46.084794
v 3.198832 0.913676 48.458614
v 4 0.906109 48.074338
v 3.688295 0.922563 46.084794
v 2.346654 0.935062 46.755614
v 3.198832 0.913676 48.458614
v 4 0.906109 48.074338
v 4.551304 0.904298 47.809907
v 4 0.91474 46.707877
v 4 0.906109 48.074338
v 3.510576 0.905395 49.154087
v 4 0.900495 48.963221
v 4 0.906109 48.074338
v 3.198832 0.913676 48.458614
v 3.510576 0.905395 49.154087
v 4 0.900495 48.963221
v 4.551304 0.904298 47.809907
v 4 0.906109 48.074338
v 4 0.900495 48.963221
v 4.908067 0.896997 48.609093
v 4.551304 0.904298 47.809907
v 4 0.900495 48.963221
v 3.792602 0.896513 50.003314
v 4 0.894369 49.933216
v 4 0.900495 48.963221
v 3.510576 0.905395 49.154087
v 3.792602 0.896513 50.003314
v 4 0.894369 49.933216
v 4.908067 0.896997 48.609093
v 4 0.900495 48.963221
v 4 0.894369 49.933216
v 5.21363 0.889295 49.523023
v 4.908067 0.896997 48.609093
vn 0.006316 0.99996 0.006316
vn 0.006316 0.99996 0.006316
vn 0.006316 0.99996 0.006316
vn 0.006316 0.99996 0.006316
vn 0.006316 0.99996 0.006316
vn 0.006316 0.99996 0.006316
vn 0.006316 0.99996 0.006316
vn 0.006316 0.99996 0.006316
vn 0.006316 0.99996 0.006316
vn 0.006316 0.99996 0.006316
vn 0.006316 0.99996 0.006316
vn 0.006316 0.99996 0.006316
vn 0.006316 0.99996 0.006316
vn 0.006316 0.99996 0.006316
vn 0.006316 0.99996 0.006316
vn 0.006316 0.99996 0.006316
vn 0.006316 0.99996 0.006316
vn 0.006316 0.99996 0.006316
vn 0.006316 0.99996 0.006316
vn 0.006316 0.99996 0.006316
vn 0.006316 0.99996 0.006316
vn 0.006316 0.99996 0.006316
vn 0.006316 0.99996 0.006316
vn 0.006316 0.99996 0.006316
vn 0.006316 0.99996 0.006316
vn 0.006316 0.99996 0.006316
vn 0.006316 0.99996 0.006316
vn 0.006316 0.99996 0.006316
vn 0.006316 0.99996 0.006316
vn 0.006316 0.99996 0.006316
vn 0.006316 0.99996 0.006316
vn 0.006316 0.99996 0.006316
vn 0.006316 0.99996 0.006316
vn 0.006316 0.99996 0.006316
vn 0.006316 0.99996 0.006316
vn 0.006316 0.99996 0.006316
vn 0.006316 0.99996 0.006316
vn 0.006316 0.99996 0.006316
vn 0.006316 0.99996 0.006316
vn 0.006316 0.99996 0.006316
vn 0.006316 0.99996 0.006316
vn 0.006316 0.99996 0.006316
vn 0.006316 0.99996 0.006316
vn 0.006316 0.99996 0.006316
vn 0.006316 0.99996 0.006316
vn 0.006316 0.99996 0.006316
vn 0.006316 0.99996 0.006316
vn 0.006316 0.99996 0.006316
vn 0.006316 0.99996 0.006316
vn 0.006316 0.99996 0.006316
vn 0.006316 0.99996 0.006316
vn 0.006316 0.99996 0.006316
vn 0.006316 0.99996 0.006316
vn 0.006316 0.99996 0.006316
vn 0.006316 0.99996 0.006316
vn 0.006316 0.99996 0.006316
vn 0.006316 0.99996 0.006316
vn 0.006316 0.99996 0.006316
vn 0.006316 0.99996 0.006316
vn 0.006316 0.99996 0.006316
vn 0.006316 0.99996 0.006316
vn 0.006316 0.99996 0.006316
vn 0.006316 0.99996 0.006316
vn 0.006316 0.99996 0.006316
vn 0.006316 0.99996 0.006316
vn 0.006316 0.99996 0.006316
vn 0.006316 0.99996 0.006316
vn 0.006316 0.99996 0.006316
vn 0.006316 0.99996 0.006316
vn 0.006316 0.99996 0.006316
vn 0.006316 0.99996 0.006316
vn 0.006316 0.99996 0.006316
vn 0.006316 0.99996 0.006316
vn 0.006316 0.99996 0.006316
vn 0.006316 0.99996 0.006316
vn 0.006316 0.99996 0.006316
vn 0.006316 0.99996 0.006316
vn 0.016532 0.999843 0.006315
vn 0.006316 0.99996 0.006316
vn 0.006316 0.99996 0.006316
vn 0.006316 0.99996 0.006316
vn 0.006316 0.99996 0.006316
vn 0.006316 0.99996 0.006316
vn 0.006316 0.99996 0.006316
vn 0.006316 0.99996 0.006316
vn 0.006316 0.99996 0.006316
vn 0.006316 0.99996 0.006316
vn 0.006316 0.99996 0.006316
vn 0.006316 0.99996 0.006316
vn 0.006316 0.99996 0.006316
vn 0.006316 0.99996 0.006316
vn 0.006316 0.99996 0.006316
vn 0.006316 0.99996 0.006316
vn 0.006316 0.99996 0.006316
vn 0.006316 0.99996 0.006316
vn 0.006316 0.99996 0.006316
vn 0.006316 0.99996 0.006316
vn 0.006316 0.99996 0.006316
vn 0.006316 0.99996 0.006316
vn 0.006316 0.99996 0.006316
vn 0.006316 0.99996 0.006316
vn 0.006316 0.99996 0.006316
vn 0.006316 0.99996 0.006316
vn 0.006316 0.99996 0.006316
vn 0.006316 0.99996 0.006316
vn 0.006316 0.99996 0.006316
vn 0.006316 0.999972 0.004055
vn 0.006316 0.999972 0.004055
vn 0.006316 0.999972 0.004055
vn 0.006316 0.999972 0.004055
vn 0.006316 0.999972 0.004055
vn 0.006316 0.999972 0.004055
vn 0.006316 0.999972 0.004055
vn 0.008576 0.999955 0.004055
vn 0.006316 0.999972 0.004055
vn 0.008576 0.999955 0.004055
vn 0.008576 0.999955 0.004055
vn 0.008576 0.999955 0.004055
vn 0.008576 0.999955 0.004055
vn 0.008576 0.999955 0.004055
vn 0.008576 0.999955 0.004055
vn 0.008576 0.999943 0.006315
vn 0.008576 0.999955 0.004055
vn 0.008576 0.999943 0.006315
vn 0.008576 0.999943 0.006315
vn 0.008576 0.999943 0.006315
vn 0.008576 0.999943 0.006315
vn 0.008576 0.999943 0.006315
vn 0.008576 0.999943 0.006315
vn 0.012473 0.999919 0.002419
vn 0.008576 0.999943 0.006315
vn 0.008576 0.999943 0.006315
vn 0.012473 0.999919 0.002419
vn 0.012473 0.999919 0.002419
vn 0.008576 0.999943 0.006315
vn 0.012473 0.999919 0.002419
vn 0.012473 0.999919 0.002419
vn 0.012473 0.999919 0.002419
vn 0.012473 0.999919 0.002419
vn 0.012473 0.999919 0.002419
vn 0.012472 0.999902 0.006315
vn 0.012472 0.999902 0.006315
vn 0.012472 0.999902 0.006315
vn 0.012472 0.999902 0.006315
vn 0.012472 0.999902 0.006315
vn 0.012472 0.999902 0.006315
vn 0.012472 0.999902 0.006315
vn 0.006316 0.99996 0.006316
vn 0.012472 0.999902 0.006315
vn 0.012472 0.999902 0.006315
vn 0.006316 0.99996 0.006316
vn 0.006316 0.99996 0.006316
vn 0.012472 0.999902 0.006315
vn 0.012472 0.999902 0.006315
vn 0.006316 0.99996 0.006316
vn 0.006316 0.99996 0.006316
f 1//1 2//1 3//1
f 4//2 5//2 6//2
f 7//3 8//3 9//3
f 10//4 11//4 12//4
f 13//5 14//5 15//5
f 16//6 17//6 18//6
f 19//7 20//7 21//7
f 22//8 23//8 24//8
f 25//9 26//9 27//9
f 28//10 29//10 30//10
f 31//11 32//11 33//11
f 34//12 35//12 36//12
f 37//13 38//13 39//13
f 40//14 41//14 42//14
f 43//15 44//15 45//15
f 46//16 47//16 48//16
f 49//17 50//17 51//17
f 52//18 53//18 54//18
f 55//19 56//19 57//19
f 58//20 59//20 60//20
f 61//21 62//21 63//21
f 64//22 65//22 66//22
f 67//23 68//23 69//23
f 70//24 71//24 72//24
f 73//25 74//25 75//25
f 76//26 77//26 78//26
f 79//27 80//27 81//27
f 82//28 83//28 84//28
f 85//29 86//29 87//29
f 88//30 89//30 90//30
f 91//31 92//31 93//31
f 94//32 95//32 96//32
f 97//33 98//33 99//33
f 100//34 101//34 102//34
f 103//35 104//35 105//35
f 106//36 107//36 108//36
f 109//37 110//37 111//37
f 112//38 113//38 114//38
f 115//39 116//39 117//39
f 118//40 119//40 120//40
f 121//41 122//41 123//41
f 124//42 125//42 126//42
f 127//43 128//43 129//43
f 130//44 131//44 132//44
f 133//45 134//45 135//45
f 136//46 137//46 138//46
f 139//47 140//47 141//47
f 142//48 143//48 144//48
f 145//49 146//49 147//49
f 148//50 149//50 150//50
f 151//51 152//51 153//51
f 154//52 155//52 156//52
f 157//53 158//53 159//53
f 160//54 161//54 162//54
f 163//55 164//55 165//55
f 166//56 167//56 168//56
f 169//57 170//57 171//57
f 172//58 173//58 174//58
f 175//59 176//59 177//59
f 178//60 179//60 180//60
f 181//61 182//61 183//61
f 184//62 185//62 186//62
f 187//63 188//63 189//63
f 190//64 191//64 192//64
f 193//65 194//65 195//65
f 196//66 197//66 198//66
f 199//67 200//67 201//67
f 202//68 203//68 204//68
f 205//69 206//69 207//69
f 208//70 209//70 210//70
f 211//71 212//71 213//71
f 214//72 215//72 216//72
f 217//73 218//73 219//73
f 220//74 221//74 222//74
f 223//75 224//75 225//75
f 226//76 227//76 228//76
f 229//77 230//77 231//77
f 232//78 233//78 234//78
f 235//79 236//79 237//79
f 238//80 239//80 240//80
f 241//81 242//81 243//81
f 244//82 245//82 246//82
f 247//83 248//83 249//83
f 250//84 251//84 252//84
f 253//85 254//85 255//85
f 256//86 257//86 258//86
f 259//87 260//87 261//87
f 262//88 263//88 264//88
f 265//89 266//89 267//89
f 268//90 269//90 270//90
f 271//91 272//91 273//91
f 274//92 275//92 276//92
f 277//93 278//93 279//93
f 280//94 281//94 282//94
f 283//95 284//95 285//95
f 286//96 287//96 288//96
f 289//97 290//97 291//97
f 292//98 293//98 294//98
f 295//99 296//99 297//99
f 298//100 299//100 300//100
f 301//101 302//101 303//101
f 304//102 305//102 306//102
f 307//103 308//103 309//103
f 310//104 311//104 312//104
f 313//105 314//105 315//105
f 316//106 317//106 318//106
f 319//107 320//107 321//107
f 322//108 323//108 324//108
f 325//109 326//109 327//109
f 328//110 329//110 330//110
f 331//111 332//111 333//111
f 334//112 335//112 336//112
f 337//113 338//113 339//113
f 340//114 341//114 342//114
f 343//115 344//115 345//115
f 346//116 347//116 348//116
f 349//117 350//117 351//117
f 352//118 353//118 354//118
f 355//119 356//119 357//119
f 358//120 359//120 360//120
f 361//121 362//121 363//121
f 364//122 365//122 366//122
f 367//123 368//123 369//123
f 370//124 371//124 372//124
f 373//125 374//125 375//125
f 376//126 377//126 378//126
f 379//127 380//127 381//127
f 382//128 383//128 384//128
f 385//129 386//129 387//129
f 388//130 389//130 390//130
f 391//131 392//131 393//131
f 394//132 395//132 396//132
f 397//133 398//133 399//133
f 400//134 401//134 402//134
f 403//135 404//135 405//135
f 406//136 407//136 408//136
f 409//137 410//137 411//137
f 412//138 413//138 414//138
f 415//139 416//139 417//139
f 418//140 419//140 420//140
f 421//141 422//141 423//141
f 424//142 425//142 426//142
f 427//143 428//143 429//143
f 430//144 431//144 432//144
f 433//145 434//145 435//145
f 436//146 437//146 438//146
f 439//147 440//147 441//147
f 442//148 443//148 444//148
f 445//149 446//149 447//149
f 448//150 449//150 450//150
f 451//151 452//151 453//151
f 454//152 455//152 456//152
f 457//153 458//153 459//153
f 460//154 461//154 462//154
f 463//155 464//155 465//155
f 466//156 467//156 468//156
