# Static Concept B graybox, metres, identity world transform.
v 10.973838 0.853377 47.866462
v 9.406505 0.853549 49.406505
v 11.248651 0.844328 49.024383
v 10.973838 0.853377 47.866462
v 8.464854 0.865444 48.464854
v 9.406505 0.853549 49.406505
v 8.464854 0.865444 48.464854
v 5.373715 0.873736 50.243039
v 9.406505 0.853549 49.406505
v 8.464854 0.865444 48.464854
v 5.137533 0.881447 49.258418
v 5.373715 0.873736 50.243039
v 11.248651 0.844328 49.024383
v 11.130573 0.831772 51.130573
v 11.632043 0.829208 51.035056
v 11.248651 0.844328 49.024383
v 9.406505 0.853549 49.406505
v 11.130573 0.831772 51.130573
v 9.406505 0.853549 49.406505
v 6.566084 0.855109 52
v 11.130573 0.831772 51.130573
v 9.406505 0.853549 49.406505
v 5.708001 0.860528 52
v 6.566084 0.855109 52
v 9.406505 0.853549 49.406505
v 5.373715 0.873736 50.243039
v 5.708001 0.860528 52
v 5.708001 0.860528 52
v 5.738011 0.859343 52.157728
v 6.566084 0.855109 52
v 11.632043 0.829208 51.035056
v 11.130573 0.831772 51.130573
v 11.77251 0.823663 51.77251
v 11.130573 0.831772 51.130573
v 11.815842 0.821953 52
v 11.77251 0.823663 51.77251
v 11.130573 0.831772 51.130573
v 6.566084 0.855109 52
v 11.815842 0.821953 52
v 6.566084 0.855109 52
v 12 0.814683 52.966831
v 11.815842 0.821953 52
v 6.566084 0.855109 52
v 12 0.814481 52.998858
v 12 0.814683 52.966831
v 6.566084 0.855109 52
v 6.11904 0.844549 54.11904
v 12 0.814481 52.998858
v 6.566084 0.855109 52
v 6.109843 0.844665 54.109843
v 6.11904 0.844549 54.11904
v 6.566084 0.855109 52
v 5.738011 0.859343 52.157728
v 6.109843 0.844665 54.109843
v 6.109843 0.844665 54.109843
v 6.111855 0.844586 54.120409
v 6.11904 0.844549 54.11904
v 12 0.814481 52.998858
v 12.005887 0.814403 52.997736
v 12 0.814683 52.966831
v 12 0.814481 52.998858
v 7.827508 0.822968 55.827508
v 12 0.801635 55.032747
v 12 0.814481 52.998858
v 6.11904 0.844549 54.11904
v 7.827508 0.822968 55.827508
v 6.11904 0.844549 54.11904
v 6.485699 0.829829 56.08309
v 7.827508 0.822968 55.827508
v 6.11904 0.844549 54.11904
v 6.111855 0.844586 54.120409
v 6.485699 0.829829 56.08309
v 12 0.801635 55.032747
v 12.005887 0.814403 52.997736
v 12 0.814481 52.998858
v 12 0.801635 55.032747
v 12.379731 0.796613 54.960417
v 12.005887 0.814403 52.997736
v 12 0.801635 55.032747
v 9.535975 0.801388 57.535975
v 12 0.78879 57.066636
v 12 0.801635 55.032747
v 7.827508 0.822968 55.827508
v 9.535975 0.801388 57.535975
v 7.827508 0.822968 55.827508
v 6.859543 0.815072 58.045771
v 9.535975 0.801388 57.535975
v 7.827508 0.822968 55.827508
v 6.485699 0.829829 56.08309
v 6.859543 0.815072 58.045771
v 12 0.78879 57.066636
v 12.379731 0.796613 54.960417
v 12 0.801635 55.032747
v 12 0.78879 57.066636
v 12.753575 0.778822 56.923098
v 12.379731 0.796613 54.960417
v 12 0.78879 57.066636
v 11.244442 0.779807 59.244442
v 12 0.775944 59.100526
v 12 0.78879 57.066636
v 9.535975 0.801388 57.535975
v 11.244442 0.779807 59.244442
v 9.535975 0.801388 57.535975
v 7.27776 0.800088 60
v 11.244442 0.779807 59.244442
v 9.535975 0.801388 57.535975
v 7.231777 0.800378 60
v 7.27776 0.800088 60
v 9.535975 0.801388 57.535975
v 6.859543 0.815072 58.045771
v 7.231777 0.800378 60
v 7.231777 0.800378 60
v 7.233387 0.800315 60.008452
v 7.27776 0.800088 60
v 12 0.775944 59.100526
v 12.753575 0.778822 56.923098
v 12 0.78879 57.066636
v 12 0.775944 59.100526
v 13.127419 0.761032 58.885779
v 12.753575 0.778822 56.923098
v 12 0.775944 59.100526
v 11.244442 0.779807 59.244442
v 12 0.770263 60
v 11.244442 0.779807 59.244442
v 7.27776 0.800088 60
v 12 0.770263 60
v 7.27776 0.800088 60
v 12 0.763098 61.134415
v 12 0.770263 60
v 7.27776 0.800088 60
v 7.607231 0.785558 61.971133
v 12 0.763098 61.134415
v 7.27776 0.800088 60
v 7.233387 0.800315 60.008452
v 7.607231 0.785558 61.971133
v 13.339651 0.750932 60
v 12 0.775944 59.100526
v 12 0.770263 60
v 13.339651 0.750932 60
v 13.127419 0.761032 58.885779
v 12 0.775944 59.100526
v 12 0.770263 60
v 13.501263 0.745028 60.84846
v 13.339651 0.750932 60
v 12 0.770263 60
v 12.952909 0.752501 60.952909
v 13.501263 0.745028 60.84846
v 12 0.770263 60
v 12 0.763098 61.134415
v 12.952909 0.752501 60.952909
v 12 0.763098 61.134415
v 7.981075 0.770801 63.933814
v 12 0.750253 63.168304
v 12 0.763098 61.134415
v 7.607231 0.785558 61.971133
v 7.981075 0.770801 63.933814
v 13.501263 0.745028 60.84846
v 12.952909 0.752501 60.952909
v 13.654863 0.739416 61.654863
v 12.952909 0.752501 60.952909
v 13.875107 0.729399 62.811141
v 13.654863 0.739416 61.654863
v 12.952909 0.752501 60.952909
v 12 0.750253 63.168304
v 13.875107 0.729399 62.811141
v 12.952909 0.752501 60.952909
v 12 0.763098 61.134415
v 12 0.750253 63.168304
v 12 0.750253 63.168304
v 9.649843 0.749423 65.649843
v 12 0.737407 65.202194
v 12 0.750253 63.168304
v 7.992196 0.770362 63.992196
v 9.649843 0.749423 65.649843
v 12 0.750253 63.168304
v 7.981075 0.770801 63.933814
v 7.992196 0.770362 63.992196
v 7.992196 0.770362 63.992196
v 8.354919 0.756044 65.896495
v 9.649843 0.749423 65.649843
v 13.875107 0.729399 62.811141
v 12 0.737407 65.202194
v 14.248951 0.712395 64.773822
v 13.875107 0.729399 62.811141
v 12 0.750253 63.168304
v 12 0.737407 65.202194
v 12 0.737407 65.202194
v 11.35831 0.727842 67.35831
v 12 0.724562 67.236083
v 12 0.737407 65.202194
v 9.649843 0.749423 65.649843
v 11.35831 0.727842 67.35831
v 9.649843 0.749423 65.649843
v 8.728763 0.741287 67.859176
v 11.35831 0.727842 67.35831
v 9.649843 0.749423 65.649843
v 8.354919 0.756044 65.896495
v 8.728763 0.741287 67.859176
v 14.248951 0.712395 64.773822
v 12 0.724562 67.236083
v 14.622795 0.695392 66.736503
v 14.248951 0.712395 64.773822
v 12 0.737407 65.202194
v 12 0.724562 67.236083
v 12 0.724562 67.236083
v 11.35831 0.727842 67.35831
v 12 0.719737 68
v 11.35831 0.727842 67.35831
v 8.755587 0.740228 68
v 12 0.719737 68
v 11.35831 0.727842 67.35831
v 8.728763 0.741287 67.859176
v 8.755587 0.740228 68
v 8.755587 0.740228 68
v 12 0.711716 69.269972
v 12 0.719737 68
v 8.755587 0.740228 68
v 9.102607 0.72653 69.821857
v 12 0.711716 69.269972
v 14.622795 0.695392 66.736503
v 12 0.719737 68
v 14.863461 0.684446 68
v 14.622795 0.695392 66.736503
v 12 0.724562 67.236083
v 12 0.719737 68
v 12 0.719737 68
v 14.996639 0.679861 68.699184
v 14.863461 0.684446 68
v 12 0.719737 68
v 13.066777 0.702098 69.066777
v 14.996639 0.679861 68.699184
v 12 0.719737 68
v 12 0.711716 69.269972
v 13.066777 0.702098 69.066777
v 12 0.711716 69.269972
v 9.476451 0.711773 71.784538
v 12 0.69887 71.303862
v 12 0.711716 69.269972
v 9.102607 0.72653 69.821857
v 9.476451 0.711773 71.784538
v 14.996639 0.679861 68.699184
v 14.775244 0.673848 70.775244
v 15.370483 0.666989 70.661865
v 14.996639 0.679861 68.699184
v 13.066777 0.702098 69.066777
v 14.775244 0.673848 70.775244
v 13.066777 0.702098 69.066777
v 12 0.69887 71.303862
v 14.775244 0.673848 70.775244
v 13.066777 0.702098 69.066777
v 12 0.711716 69.269972
v 12 0.69887 71.303862
v 12 0.69887 71.303862
v 9.850295 0.697016 73.747218
v 12 0.686025 73.337751
v 12 0.69887 71.303862
v 9.476451 0.711773 71.784538
v 9.850295 0.697016 73.747218
v 15.370483 0.666989 70.661865
v 14.775244 0.673848 70.775244
v 15.537216 0.661249 71.537216
v 14.775244 0.673848 70.775244
v 15.744327 0.652265 72.624546
v 15.537216 0.661249 71.537216
v 14.775244 0.673848 70.775244
v 12 0.686025 73.337751
v 15.744327 0.652265 72.624546
v 14.775244 0.673848 70.775244
v 12 0.69887 71.303862
v 12 0.686025 73.337751
v 12 0.686025 73.337751
v 11.472178 0.675878 75.472178
v 12 0.673179 75.37164
v 12 0.686025 73.337751
v 9.874549 0.696058 73.874549
v 11.472178 0.675878 75.472178
v 12 0.686025 73.337751
v 9.850295 0.697016 73.747218
v 9.874549 0.696058 73.874549
v 9.874549 0.696058 73.874549
v 10.224139 0.682259 75.709899
v 11.472178 0.675878 75.472178
v 15.744327 0.652265 72.624546
v 12 0.673179 75.37164
v 16.118171 0.636048 74.587227
v 15.744327 0.652265 72.624546
v 12 0.686025 73.337751
v 12 0.673179 75.37164
v 12 0.673179 75.37164
v 11.472178 0.675878 75.472178
v 12 0.669211 76
v 11.472178 0.675878 75.472178
v 10.279396 0.680077 76
v 12 0.669211 76
v 11.472178 0.675878 75.472178
v 10.224139 0.682259 75.709899
v 10.279396 0.680077 76
v 10.279396 0.680077 76
v 12 0.660333 77.40553
v 12 0.669211 76
v 10.279396 0.680077 76
v 10.597983 0.667502 77.67258
v 12 0.660333 77.40553
v 16.118171 0.636048 74.587227
v 12 0.669211 76
v 16.38727 0.624376 76
v 16.118171 0.636048 74.587227
v 12 0.673179 75.37164
v 12 0.669211 76
v 12 0.669211 76
v 16.492015 0.621809 76.549908
v 16.38727 0.624376 76
v 12 0.669211 76
v 13.180645 0.653933 77.180645
v 16.492015 0.621809 76.549908
v 12 0.669211 76
v 12 0.660333 77.40553
v 13.180645 0.653933 77.180645
v 12 0.660333 77.40553
v 10.971827 0.652745 79.635261
v 12 0.647488 79.439419
v 12 0.660333 77.40553
v 10.597983 0.667502 77.67258
v 10.971827 0.652745 79.635261
v 16.492015 0.621809 76.549908
v 14.889112 0.631825 78.889112
v 16.865859 0.612649 78.512589
v 16.492015 0.621809 76.549908
v 13.180645 0.653933 77.180645
v 14.889112 0.631825 78.889112
v 13.180645 0.653933 77.180645
v 12 0.647488 79.439419
v 14.889112 0.631825 78.889112
v 13.180645 0.653933 77.180645
v 12 0.660333 77.40553
v 12 0.647488 79.439419
v 12 0.647488 79.439419
v 11.345671 0.637988 81.597942
v 12 0.634642 81.473308
v 12 0.647488 79.439419
v 10.971827 0.652745 79.635261
v 11.345671 0.637988 81.597942
v 16.865859 0.612649 78.512589
v 16.597579 0.609717 80.597579
v 17.239703 0.603488 80.47527
v 16.865859 0.612649 78.512589
v 14.889112 0.631825 78.889112
v 16.597579 0.609717 80.597579
v 14.889112 0.631825 78.889112
v 12 0.634642 81.473308
v 16.597579 0.609717 80.597579
v 14.889112 0.631825 78.889112
v 12 0.647488 79.439419
v 12 0.634642 81.473308
v 12 0.634642 81.473308
v 11.719515 0.623231 83.560623
v 12 0.621797 83.507198
v 12 0.634642 81.473308
v 11.345671 0.637988 81.597942
v 11.719515 0.623231 83.560623
v 17.239703 0.603488 80.47527
v 16.597579 0.609717 80.597579
v 17.419569 0.599081 81.419569
v 16.597579 0.609717 80.597579
v 17.613547 0.591364 82.437951
v 17.419569 0.599081 81.419569
v 16.597579 0.609717 80.597579
v 12 0.621797 83.507198
v 17.613547 0.591364 82.437951
v 16.597579 0.609717 80.597579
v 12 0.634642 81.473308
v 12 0.621797 83.507198
v 12 0.621797 83.507198
v 11.756901 0.621755 83.756901
v 12 0.618684 84
v 12 0.621797 83.507198
v 11.719515 0.623231 83.560623
v 11.756901 0.621755 83.756901
v 11.756901 0.621755 83.756901
v 11.803206 0.619927 84
v 12 0.618684 84
v 11.803206 0.619927 84
v 12 0.612159 85.033169
v 12 0.618684 84
v 17.613547 0.591364 82.437951
v 12 0.618684 84
v 17.91108 0.579527 84
v 17.613547 0.591364 82.437951
v 12 0.621797 83.507198
v 12 0.618684 84
v 12 0.618684 84
v 12.95 0.606684 84.95
v 12.95 0.612684 84
v 12.95 0.612684 84
v 17.987391 0.578339 84.400631
v 17.91108 0.581351 84
v 12.95 0.612684 84
v 14.29647 0.59721 85.103664
v 17.987391 0.578339 84.400631
v 12.95 0.612684 84
v 13.904451 0.599214 85.178334
v 14.29647 0.59721 85.103664
v 12.95 0.612684 84
v 13.294513 0.602332 85.294513
v 13.904451 0.599214 85.178334
v 12.95 0.612684 84
v 12.95 0.606684 84.95
v 13.294513 0.602332 85.294513
v 12 0.618684 84
v 12.15 0.608184 85.512515
v 12.15 0.616789 84.15
v 12 0.618684 84
v 12.093359 0.608474 85.523304
v 12.15 0.608184 85.512515
v 12 0.618684 84
v 12.024946 0.611174 85.164134
v 12.093359 0.608474 85.523304
v 12 0.618684 84
v 12 0.612159 85.033169
v 12.024946 0.611174 85.164134
v 12.15 0.616789 84.15
v 12.95 0.604094 85.360134
v 12.95 0.606684 84.95
v 12.15 0.616789 84.15
v 12.367899 0.60707 85.471011
v 12.95 0.604094 85.360134
v 12.15 0.616789 84.15
v 12.15 0.608184 85.512515
v 12.367899 0.60707 85.471011
v 12.95 0.606684 84.95
v 12.95 0.604094 85.360134
v 13.294513 0.602332 85.294513
v 17.987391 0.578339 84.400631
v 16.309926 0.57407 86.754038
v 18.361235 0.563582 86.363312
v 17.987391 0.578339 84.400631
v 14.29647 0.59721 85.103664
v 16.309926 0.57407 86.754038
v 14.29647 0.59721 85.103664
v 15.331697 0.579071 86.940367
v 16.309926 0.57407 86.754038
v 14.29647 0.59721 85.103664
v 13.904451 0.599214 85.178334
v 15.331697 0.579071 86.940367
v 13.904451 0.599214 85.178334
v 15.00298 0.580752 87.00298
v 15.331697 0.579071 86.940367
v 13.904451 0.599214 85.178334
v 13.294513 0.602332 85.294513
v 15.00298 0.580752 87.00298
v 12.15 0.608184 85.512515
v 12.093359 0.608474 85.523304
v 12.15 0.606238 85.820669
v 12.95 0.604094 85.360134
v 12.693166 0.592561 87.442944
v 12.95 0.591248 87.394024
v 12.95 0.604094 85.360134
v 12.367899 0.60707 85.471011
v 12.693166 0.592561 87.442944
v 12.367899 0.60707 85.471011
v 12.467203 0.593717 87.485985
v 12.693166 0.592561 87.442944
v 12.367899 0.60707 85.471011
v 12.15 0.606238 85.820669
v 12.467203 0.593717 87.485985
v 12.367899 0.60707 85.471011
v 12.15 0.608184 85.512515
v 12.15 0.606238 85.820669
v 13.294513 0.602332 85.294513
v 12.95 0.591248 87.394024
v 15.00298 0.580752 87.00298
v 13.294513 0.602332 85.294513
v 12.95 0.604094 85.360134
v 12.95 0.591248 87.394024
v 18.361235 0.563582 86.363312
v 18.368206 0.550415 88.441152
v 18.744189 0.548451 88.376134
v 18.361235 0.563582 86.363312
v 16.309926 0.57407 86.754038
v 18.368206 0.550415 88.441152
v 16.309926 0.57407 86.754038
v 16.771049 0.558758 88.717344
v 18.368206 0.550415 88.441152
v 16.309926 0.57407 86.754038
v 15.331697 0.579071 86.940367
v 16.771049 0.558758 88.717344
v 15.331697 0.579071 86.940367
v 16.725262 0.558997 88.725262
v 16.771049 0.558758 88.717344
v 15.331697 0.579071 86.940367
v 15.00298 0.580752 87.00298
v 16.725262 0.558997 88.725262
v 12.95 0.591248 87.394024
v 12.693166 0.592561 87.442944
v 12.95 0.581105 89
v 12.693166 0.592561 87.442944
v 12.755936 0.582331 89
v 12.95 0.581105 89
v 12.693166 0.592561 87.442944
v 12.467203 0.593717 87.485985
v 12.755936 0.582331 89
v 12.95 0.581105 89
v 12.831937 0.579334 89.398525
v 12.95 0.578717 89.378109
v 12.95 0.581105 89
v 12.818588 0.57986 89.328529
v 12.831937 0.579334 89.398525
v 12.95 0.581105 89
v 12.755936 0.582331 89
v 12.818588 0.57986 89.328529
v 15.00298 0.580752 87.00298
v 15.136516 0.567296 89
v 16.725262 0.558997 88.725262
v 15.00298 0.580752 87.00298
v 12.95 0.581105 89
v 15.136516 0.567296 89
v 15.00298 0.580752 87.00298
v 12.95 0.591248 87.394024
v 12.95 0.581105 89
v 12.95 0.578717 89.378109
v 15.136516 0.567296 89
v 12.95 0.581105 89
v 18.744189 0.548451 88.376134
v 18.368206 0.550415 88.441152
v 18.80476 0.545397 88.798984
v 18.368206 0.550415 88.441152
v 18.833555 0.543946 89
v 18.80476 0.545397 88.798984
v 18.368206 0.550415 88.441152
v 17 0.555526 89
v 18.833555 0.543946 89
v 18.368206 0.550415 88.441152
v 16.771049 0.558758 88.717344
v 17 0.555526 89
v 16.771049 0.558758 88.717344
v 16.725262 0.558997 88.725262
v 17 0.555526 89
v 17.748924 0.546066 89.748924
v 18.833555 0.543946 89
v 17 0.555526 89
v 17.748924 0.546066 89.748924
v 18.917056 0.539737 89.582919
v 18.833555 0.543946 89
v 12.95 0.578717 89.378109
v 12.831937 0.579334 89.398525
v 12.95 0.573292 90.237161
v 16.725262 0.558997 88.725262
v 15.136516 0.567296 89
v 17 0.555526 89
v 17 0.555526 89
v 14.568052 0.563301 90.200962
v 17.748924 0.546066 89.748924
v 17 0.555526 89
v 12.97674 0.571923 90.427105
v 14.568052 0.563301 90.200962
v 17 0.555526 89
v 12.95 0.573292 90.237161
v 12.97674 0.571923 90.427105
v 17 0.555526 89
v 12.95 0.578717 89.378109
v 12.95 0.573292 90.237161
v 17 0.555526 89
v 15.136516 0.567296 89
v 12.95 0.578717 89.378109
vn 0.006316 0.99996 0.006316
vn 0.006316 0.99996 0.006316
vn 0.006316 0.99996 0.006316
vn 0.006316 0.99996 0.006316
vn 0.006316 0.99996 0.006316
vn 0.006316 0.99996 0.006316
vn 0.006316 0.99996 0.006316
vn 0.006316 0.99996 0.006316
vn 0.006316 0.99996 0.006316
vn 0.006316 0.99996 0.006316
vn 0.006316 0.99996 0.006316
vn 0.006316 0.99996 0.006316
vn 0.006316 0.99996 0.006316
vn 0.006316 0.99996 0.006316
vn 0.006316 0.99996 0.006316
vn 0.006316 0.99996 0.006316
vn 0.006316 0.99996 0.006316
vn 0.006316 0.99996 0.006316
vn 0.006316 0.99996 0.006316
vn 0.014428 0.999876 0.006315
vn 0.006316 0.99996 0.006316
vn 0.006316 0.99996 0.006316
vn 0.006316 0.99996 0.006316
vn 0.006316 0.99996 0.006316
vn 0.014428 0.999876 0.006315
vn 0.014428 0.999876 0.006315
vn 0.006316 0.99996 0.006316
vn 0.006316 0.99996 0.006316
vn 0.006316 0.99996 0.006316
vn 0.006316 0.99996 0.006316
vn 0.014428 0.999876 0.006315
vn 0.014428 0.999876 0.006315
vn 0.006316 0.99996 0.006316
vn 0.006316 0.99996 0.006316
vn 0.006316 0.99996 0.006316
vn 0.006316 0.99996 0.006316
vn 0.006316 0.99996 0.006316
vn 0.006316 0.99996 0.006316
vn 0.014428 0.999876 0.006315
vn 0.014428 0.999876 0.006315
vn 0.006316 0.99996 0.006316
vn 0.006316 0.99996 0.006316
vn 0.006316 0.99996 0.006316
vn 0.006316 0.99996 0.006316
vn 0.006316 0.99996 0.006316
vn 0.014428 0.999876 0.006315
vn 0.014428 0.999876 0.006315
vn 0.014428 0.999887 0.00421
vn 0.014428 0.999887 0.00421
vn 0.012323 0.999904 0.006315
vn 0.006316 0.99996 0.006316
vn 0.006316 0.99996 0.006316
vn 0.014428 0.999887 0.00421
vn 0.012323 0.999904 0.006315
vn 0.012323 0.999904 0.006315
vn 0.012323 0.999904 0.006315
vn 0.006316 0.99996 0.006316
vn 0.006316 0.99996 0.006316
vn 0.006316 0.99996 0.006316
vn 0.006316 0.99996 0.006316
vn 0.012323 0.999904 0.006315
vn 0.012323 0.999904 0.006315
vn 0.006316 0.99996 0.006316
vn 0.006316 0.99996 0.006316
vn 0.006316 0.99996 0.006316
vn 0.006316 0.99996 0.006316
vn 0.012323 0.999904 0.006315
vn 0.012323 0.999904 0.006315
vn 0.006316 0.99996 0.006316
vn 0.006316 0.99996 0.006316
vn 0.006316 0.99996 0.006316
vn 0.006316 0.99996 0.006316
vn 0.006316 0.99996 0.006316
vn 0.012323 0.999904 0.006315
vn 0.012323 0.999904 0.006315
vn 0.012324 0.999915 0.00421
vn 0.012324 0.999915 0.00421
vn 0.010219 0.999928 0.006315
vn 0.006316 0.99996 0.006316
vn 0.006316 0.99996 0.006316
vn 0.012324 0.999915 0.00421
vn 0.012324 0.999915 0.00421
vn 0.010219 0.999928 0.006315
vn 0.010219 0.999928 0.006315
vn 0.006316 0.99996 0.006316
vn 0.006316 0.99996 0.006316
vn 0.012324 0.999915 0.00421
vn 0.010219 0.999928 0.006315
vn 0.010219 0.999928 0.006315
vn 0.010219 0.999928 0.006315
vn 0.006316 0.99996 0.006316
vn 0.006316 0.99996 0.006316
vn 0.006316 0.99996 0.006316
vn 0.006316 0.99996 0.006316
vn 0.010219 0.999928 0.006315
vn 0.010219 0.999928 0.006315
vn 0.006316 0.99996 0.006316
vn 0.006316 0.99996 0.006316
vn 0.006316 0.99996 0.006316
vn 0.006316 0.99996 0.006316
vn 0.006316 0.99996 0.006316
vn 0.010219 0.999928 0.006315
vn 0.010219 0.999928 0.006315
vn 0.010219 0.999944 0.002721
vn 0.010219 0.999944 0.002721
vn 0.006624 0.999958 0.006316
vn 0.006316 0.99996 0.006316
vn 0.006316 0.99996 0.006316
vn 0.010219 0.999944 0.002721
vn 0.010219 0.999944 0.002721
vn 0.006624 0.999958 0.006316
vn 0.006624 0.999958 0.006316
vn 0.006316 0.99996 0.006316
vn 0.006316 0.99996 0.006316
vn 0.010219 0.999944 0.002721
vn 0.010219 0.999944 0.002721
vn 0.006624 0.999958 0.006316
vn 0.006624 0.999958 0.006316
vn 0.006316 0.99996 0.006316
vn 0.006316 0.99996 0.006316
vn 0.010219 0.999944 0.002721
vn 0.006624 0.999958 0.006316
vn 0.006624 0.999958 0.006316
vn 0.006624 0.999958 0.006316
vn 0.006316 0.99996 0.006316
vn 0.006316 0.99996 0.006316
vn 0.006316 0.99996 0.006316
vn 0.006316 0.99996 0.006316
vn 0.006624 0.999958 0.006316
vn 0.006624 0.999958 0.006316
vn 0.006316 0.99996 0.006316
vn 0.006316 0.99996 0.006316
vn 0.006316 0.99996 0.006316
vn 0.006316 0.99996 0.006316
vn 0.006316 0.99996 0.006316
vn 0.006316 0.99996 0.006316
vn 0.006316 0.99996 0.006316
vn 0.006316 0.99996 0.006316
vn 0.006316 0.99996 0.006316
vn 0.006316 0.99996 0.006316
vn 0.006316 0.99996 0.006316
vn 0.006316 0.99996 0.006316
vn 0.006316 0.99996 0.006316
vn 0.006316 0.99996 0.006316
vn 0.006316 0.99996 0.006316
vn 0.006316 0.99996 0.006316
vn 0.006316 0.99996 0.006316
vn 0.006316 0.99996 0.006316
vn 0.006316 0.99996 0.006316
vn 0.006316 0.99996 0.006316
vn 0.006316 0.99996 0.006316
vn 0.006316 0.99996 0.006316
vn 0.006316 0.99996 0.006316
vn 0.006316 0.99996 0.006316
vn 0.006316 0.99996 0.006316
vn 0.006316 0.99996 0.006316
vn 0.006316 0.99996 0.006316
vn 0.006316 0.99996 0.006316
vn 0.006316 0.99996 0.006316
vn 0.006316 0.99996 0.006316
vn 0.006316 0.99996 0.006316
vn 0.006316 0.99996 0.006316
vn 0.006316 0.99996 0.006316
vn 0.006316 0.99996 0.006316
vn 0.006316 0.99996 0.006316
vn 0.006316 0.99996 0.006316
vn 0.006316 0.99996 0.006316
vn 0.006316 0.99996 0.006316
vn 0.006316 0.99996 0.006316
vn 0.006316 0.99996 0.006316
vn 0.006316 0.99996 0.006316
vn 0.006316 0.99996 0.006316
vn 0.006316 0.99996 0.006316
vn 0.006316 0.99996 0.006316
vn 0.006316 0.99996 0.006316
vn 0.006316 0.99996 0.006316
vn 0.006316 0.99996 0.006316
vn 0.006316 0.99996 0.006316
vn 0.006316 0.99996 0.006316
vn 0.006316 0.99996 0.006316
vn 0.006316 0.99996 0.006316
vn 0.006316 0.99996 0.006316
vn 0.006316 0.99996 0.006316
vn 0.006316 0.99996 0.006316
vn 0.006316 0.99996 0.006316
vn 0.006316 0.99996 0.006316
vn 0.006316 0.99996 0.006316
vn 0.006316 0.99996 0.006316
f 1//1 2//1 3//1
f 4//2 5//2 6//2
f 7//3 8//3 9//3
f 10//4 11//4 12//4
f 13//5 14//5 15//5
f 16//6 17//6 18//6
f 19//7 20//7 21//7
f 22//8 23//8 24//8
f 25//9 26//9 27//9
f 28//10 29//10 30//10
f 31//11 32//11 33//11
f 34//12 35//12 36//12
f 37//13 38//13 39//13
f 40//14 41//14 42//14
f 43//15 44//15 45//15
f 46//16 47//16 48//16
f 49//17 50//17 51//17
f 52//18 53//18 54//18
f 55//19 56//19 57//19
f 58//20 59//20 60//20
f 61//21 62//21 63//21
f 64//22 65//22 66//22
f 67//23 68//23 69//23
f 70//24 71//24 72//24
f 73//25 74//25 75//25
f 76//26 77//26 78//26
f 79//27 80//27 81//27
f 82//28 83//28 84//28
f 85//29 86//29 87//29
f 88//30 89//30 90//30
f 91//31 92//31 93//31
f 94//32 95//32 96//32
f 97//33 98//33 99//33
f 100//34 101//34 102//34
f 103//35 104//35 105//35
f 106//36 107//36 108//36
f 109//37 110//37 111//37
f 112//38 113//38 114//38
f 115//39 116//39 117//39
f 118//40 119//40 120//40
f 121//41 122//41 123//41
f 124//42 125//42 126//42
f 127//43 128//43 129//43
f 130//44 131//44 132//44
f 133//45 134//45 135//45
f 136//46 137//46 138//46
f 139//47 140//47 141//47
f 142//48 143//48 144//48
f 145//49 146//49 147//49
f 148//50 149//50 150//50
f 151//51 152//51 153//51
f 154//52 155//52 156//52
f 157//53 158//53 159//53
f 160//54 161//54 162//54
f 163//55 164//55 165//55
f 166//56 167//56 168//56
f 169//57 170//57 171//57
f 172//58 173//58 174//58
f 175//59 176//59 177//59
f 178//60 179//60 180//60
f 181//61 182//61 183//61
f 184//62 185//62 186//62
f 187//63 188//63 189//63
f 190//64 191//64 192//64
f 193//65 194//65 195//65
f 196//66 197//66 198//66
f 199//67 200//67 201//67
f 202//68 203//68 204//68
f 205//69 206//69 207//69
f 208//70 209//70 210//70
f 211//71 212//71 213//71
f 214//72 215//72 216//72
f 217//73 218//73 219//73
f 220//74 221//74 222//74
f 223//75 224//75 225//75
f 226//76 227//76 228//76
f 229//77 230//77 231//77
f 232//78 233//78 234//78
f 235//79 236//79 237//79
f 238//80 239//80 240//80
f 241//81 242//81 243//81
f 244//82 245//82 246//82
f 247//83 248//83 249//83
f 250//84 251//84 252//84
f 253//85 254//85 255//85
f 256//86 257//86 258//86
f 259//87 260//87 261//87
f 262//88 263//88 264//88
f 265//89 266//89 267//89
f 268//90 269//90 270//90
f 271//91 272//91 273//91
f 274//92 275//92 276//92
f 277//93 278//93 279//93
f 280//94 281//94 282//94
f 283//95 284//95 285//95
f 286//96 287//96 288//96
f 289//97 290//97 291//97
f 292//98 293//98 294//98
f 295//99 296//99 297//99
f 298//100 299//100 300//100
f 301//101 302//101 303//101
f 304//102 305//102 306//102
f 307//103 308//103 309//103
f 310//104 311//104 312//104
f 313//105 314//105 315//105
f 316//106 317//106 318//106
f 319//107 320//107 321//107
f 322//108 323//108 324//108
f 325//109 326//109 327//109
f 328//110 329//110 330//110
f 331//111 332//111 333//111
f 334//112 335//112 336//112
f 337//113 338//113 339//113
f 340//114 341//114 342//114
f 343//115 344//115 345//115
f 346//116 347//116 348//116
f 349//117 350//117 351//117
f 352//118 353//118 354//118
f 355//119 356//119 357//119
f 358//120 359//120 360//120
f 361//121 362//121 363//121
f 364//122 365//122 366//122
f 367//123 368//123 369//123
f 370//124 371//124 372//124
f 373//125 374//125 375//125
f 376//126 377//126 378//126
f 379//127 380//127 381//127
f 382//128 383//128 384//128
f 385//129 386//129 387//129
f 388//130 389//130 390//130
f 391//131 392//131 393//131
f 394//132 395//132 396//132
f 397//133 398//133 399//133
f 400//134 401//134 402//134
f 403//135 404//135 405//135
f 406//136 407//136 408//136
f 409//137 410//137 411//137
f 412//138 413//138 414//138
f 415//139 416//139 417//139
f 418//140 419//140 420//140
f 421//141 422//141 423//141
f 424//142 425//142 426//142
f 427//143 428//143 429//143
f 430//144 431//144 432//144
f 433//145 434//145 435//145
f 436//146 437//146 438//146
f 439//147 440//147 441//147
f 442//148 443//148 444//148
f 445//149 446//149 447//149
f 448//150 449//150 450//150
f 451//151 452//151 453//151
f 454//152 455//152 456//152
f 457//153 458//153 459//153
f 460//154 461//154 462//154
f 463//155 464//155 465//155
f 466//156 467//156 468//156
f 469//157 470//157 471//157
f 472//158 473//158 474//158
f 475//159 476//159 477//159
f 478//160 479//160 480//160
f 481//161 482//161 483//161
f 484//162 485//162 486//162
f 487//163 488//163 489//163
f 490//164 491//164 492//164
f 493//165 494//165 495//165
f 496//166 497//166 498//166
f 499//167 500//167 501//167
f 502//168 503//168 504//168
f 505//169 506//169 507//169
f 508//170 509//170 510//170
f 511//171 512//171 513//171
f 514//172 515//172 516//172
f 517//173 518//173 519//173
f 520//174 521//174 522//174
f 523//175 524//175 525//175
f 526//176 527//176 528//176
f 529//177 530//177 531//177
f 532//178 533//178 534//178
f 535//179 536//179 537//179
f 538//180 539//180 540//180
f 541//181 542//181 543//181
f 544//182 545//182 546//182
f 547//183 548//183 549//183
f 550//184 551//184 552//184
f 553//185 554//185 555//185
f 556//186 557//186 558//186
f 559//187 560//187 561//187
f 562//188 563//188 564//188
