# Static Concept B graybox, metres, identity world transform.
v 12 0.858442 47.621722
v 11.248651 0.854328 49.024383
v 12 0.850567 48.868529
v 12 0.858442 47.621722
v 10.973838 0.863377 47.866462
v 11.248651 0.854328 49.024383
v 12 0.850567 48.868529
v 12.432914 0.851936 47.518473
v 12 0.858442 47.621722
v 12 0.850567 48.868529
v 12.717385 0.839645 48.719719
v 12.432914 0.851936 47.518473
v 12 0.850567 48.868529
v 11.632043 0.839208 51.035056
v 12 0.837327 50.964968
v 12 0.850567 48.868529
v 11.248651 0.854328 49.024383
v 11.632043 0.839208 51.035056
v 12 0.837327 50.964968
v 12.717385 0.839645 48.719719
v 12 0.850567 48.868529
v 12 0.837327 50.964968
v 13.105551 0.820376 50.754387
v 12.717385 0.839645 48.719719
v 12 0.837327 50.964968
v 11.77251 0.833663 51.77251
v 12 0.830789 52
v 12 0.837327 50.964968
v 11.632043 0.839208 51.035056
v 11.77251 0.833663 51.77251
v 11.77251 0.833663 51.77251
v 11.815842 0.831953 52
v 12 0.830789 52
v 11.815842 0.831953 52
v 12 0.824683 52.966831
v 12 0.830789 52
v 13.34281 0.808586 52
v 12 0.837327 50.964968
v 12 0.830789 52
v 13.34281 0.808586 52
v 13.105551 0.820376 50.754387
v 12 0.837327 50.964968
v 12 0.830789 52
v 13.479395 0.803308 52.717068
v 13.34281 0.808586 52
v 12 0.830789 52
v 12.83904 0.813383 52.83904
v 13.479395 0.803308 52.717068
v 12 0.830789 52
v 12.005887 0.824403 52.997736
v 12.83904 0.813383 52.83904
v 12 0.830789 52
v 12 0.824683 52.966831
v 12.005887 0.824403 52.997736
v 13.479395 0.803308 52.717068
v 12.83904 0.813383 52.83904
v 13.658765 0.796377 53.658765
v 12.83904 0.813383 52.83904
v 13.853239 0.787123 54.679749
v 13.658765 0.796377 53.658765
v 12.83904 0.813383 52.83904
v 12.379731 0.806613 54.960417
v 13.853239 0.787123 54.679749
v 12.83904 0.813383 52.83904
v 12.005887 0.824403 52.997736
v 12.379731 0.806613 54.960417
v 13.853239 0.787123 54.679749
v 12.753575 0.788822 56.923098
v 14.227083 0.769332 56.64243
v 13.853239 0.787123 54.679749
v 12.379731 0.806613 54.960417
v 12.753575 0.788822 56.923098
v 14.227083 0.769332 56.64243
v 13.127419 0.771032 58.885779
v 14.600927 0.751542 58.605111
v 14.227083 0.769332 56.64243
v 12.753575 0.788822 56.923098
v 13.127419 0.771032 58.885779
v 14.600927 0.751542 58.605111
v 13.339651 0.760932 60
v 14.86662 0.738898 60
v 14.600927 0.751542 58.605111
v 13.127419 0.771032 58.885779
v 13.339651 0.760932 60
v 13.339651 0.760932 60
v 14.974771 0.734947 60.567792
v 14.86662 0.738898 60
v 13.339651 0.760932 60
v 13.501263 0.755028 60.84846
v 14.974771 0.734947 60.567792
v 14.974771 0.734947 60.567792
v 14.661376 0.730654 62.661376
v 15.348614 0.721289 62.530473
v 14.974771 0.734947 60.567792
v 13.654863 0.749416 61.654863
v 14.661376 0.730654 62.661376
v 14.974771 0.734947 60.567792
v 13.501263 0.755028 60.84846
v 13.654863 0.749416 61.654863
v 13.654863 0.749416 61.654863
v 13.875107 0.739399 62.811141
v 14.661376 0.730654 62.661376
v 15.348614 0.721289 62.530473
v 14.661376 0.730654 62.661376
v 15.541118 0.714255 63.541118
v 14.661376 0.730654 62.661376
v 15.722458 0.706008 64.493154
v 15.541118 0.714255 63.541118
v 14.661376 0.730654 62.661376
v 14.248951 0.722395 64.773822
v 15.722458 0.706008 64.493154
v 14.661376 0.730654 62.661376
v 13.875107 0.739399 62.811141
v 14.248951 0.722395 64.773822
v 15.722458 0.706008 64.493154
v 14.622795 0.705392 66.736503
v 16.096302 0.689004 66.455835
v 15.722458 0.706008 64.493154
v 14.248951 0.722395 64.773822
v 14.622795 0.705392 66.736503
v 16.096302 0.689004 66.455835
v 14.863461 0.694446 68
v 16.390429 0.675627 68
v 16.096302 0.689004 66.455835
v 14.622795 0.705392 66.736503
v 14.863461 0.694446 68
v 14.863461 0.694446 68
v 16.470146 0.672882 68.418516
v 16.390429 0.675627 68
v 14.863461 0.694446 68
v 14.996639 0.689861 68.699184
v 16.470146 0.672882 68.418516
v 16.470146 0.672882 68.418516
v 15.370483 0.676989 70.661865
v 16.84399 0.660011 70.381197
v 16.470146 0.672882 68.418516
v 14.996639 0.689861 68.699184
v 15.370483 0.676989 70.661865
v 16.84399 0.660011 70.381197
v 16.483711 0.655598 72.483711
v 17.217834 0.647139 72.343878
v 16.84399 0.660011 70.381197
v 15.537216 0.671249 71.537216
v 16.483711 0.655598 72.483711
v 16.84399 0.660011 70.381197
v 15.370483 0.676989 70.661865
v 15.537216 0.671249 71.537216
v 15.537216 0.671249 71.537216
v 15.744327 0.662265 72.624546
v 16.483711 0.655598 72.483711
v 17.217834 0.647139 72.343878
v 16.483711 0.655598 72.483711
v 17.423471 0.640059 73.423471
v 16.483711 0.655598 72.483711
v 17.591678 0.632763 74.306559
v 17.423471 0.640059 73.423471
v 16.483711 0.655598 72.483711
v 16.118171 0.646048 74.587227
v 17.591678 0.632763 74.306559
v 16.483711 0.655598 72.483711
v 15.744327 0.662265 72.624546
v 16.118171 0.646048 74.587227
v 17.591678 0.632763 74.306559
v 16.38727 0.634376 76
v 17.914239 0.618771 76
v 17.591678 0.632763 74.306559
v 16.118171 0.646048 74.587227
v 16.38727 0.634376 76
v 16.38727 0.634376 76
v 17.965522 0.617515 76.26924
v 17.914239 0.618771 76
v 16.38727 0.634376 76
v 16.492015 0.631809 76.549908
v 17.965522 0.617515 76.26924
v 17.965522 0.617515 76.26924
v 16.865859 0.622649 78.512589
v 18.339366 0.608354 78.231921
v 17.965522 0.617515 76.26924
v 16.492015 0.631809 76.549908
v 16.865859 0.622649 78.512589
v 18.339366 0.608354 78.231921
v 17.239703 0.613488 80.47527
v 18.71321 0.599194 80.194601
v 18.339366 0.608354 78.231921
v 16.865859 0.622649 78.512589
v 17.239703 0.613488 80.47527
v 18.71321 0.599194 80.194601
v 18.306046 0.59761 82.306046
v 19.087054 0.590033 82.157282
v 18.71321 0.599194 80.194601
v 17.419569 0.609081 81.419569
v 18.306046 0.59761 82.306046
v 18.71321 0.599194 80.194601
v 17.239703 0.613488 80.47527
v 17.419569 0.609081 81.419569
v 17.419569 0.609081 81.419569
v 17.613547 0.601364 82.437951
v 18.306046 0.59761 82.306046
v 19.087054 0.590033 82.157282
v 18.306046 0.59761 82.306046
v 19.305824 0.584672 83.305824
v 18.306046 0.59761 82.306046
v 19.438048 0.579412 84
v 19.305824 0.584672 83.305824
v 18.306046 0.59761 82.306046
v 17.91108 0.589527 84
v 19.438048 0.579412 84
v 18.306046 0.59761 82.306046
v 17.613547 0.601364 82.437951
v 17.91108 0.589527 84
v 19.05 0.584158 84
v 19.460898 0.579955 84.119963
v 19.438048 0.580865 84
v 19.05 0.584158 84
v 19.080779 0.582749 84.192367
v 19.460898 0.579955 84.119963
v 19.05 0.584158 84
v 19.05 0.582906 84.19823
v 19.080779 0.582749 84.192367
v 17.91108 0.591351 84
v 19.05 0.582906 84.19823
v 19.05 0.584158 84
v 17.91108 0.591351 84
v 17.987391 0.588339 84.400631
v 19.05 0.582906 84.19823
v 19.460898 0.579955 84.119963
v 19.396577 0.568288 86.166104
v 19.834742 0.565069 86.082644
v 19.460898 0.579955 84.119963
v 19.080779 0.582749 84.192367
v 19.396577 0.568288 86.166104
v 19.080779 0.582749 84.192367
v 19.05 0.57006 86.232119
v 19.396577 0.568288 86.166104
v 19.080779 0.582749 84.192367
v 19.05 0.582906 84.19823
v 19.05 0.57006 86.232119
v 19.05 0.582906 84.19823
v 18.361235 0.573582 86.363312
v 19.05 0.57006 86.232119
v 19.05 0.582906 84.19823
v 17.987391 0.588339 84.400631
v 18.361235 0.573582 86.363312
v 20 0.558088 86.951727
v 19.939346 0.551506 88.169459
v 20 0.550889 88.15897
v 20 0.558088 86.951727
v 19.902234 0.562249 86.437579
v 19.939346 0.551506 88.169459
v 19.902234 0.562249 86.437579
v 19.85 0.551976 88.184909
v 19.939346 0.551506 88.169459
v 19.902234 0.562249 86.437579
v 19.85 0.564246 86.162884
v 19.85 0.551976 88.184909
v 19.834742 0.565069 86.082644
v 19.85 0.552391 88.184909
v 19.85 0.56446 86.162884
v 19.834742 0.565069 86.082644
v 19.723097 0.553337 88.206854
v 19.85 0.552391 88.184909
v 19.834742 0.565069 86.082644
v 19.396577 0.568288 86.166104
v 19.723097 0.553337 88.206854
v 19.396577 0.568288 86.166104
v 19.05 0.556853 88.323251
v 19.723097 0.553337 88.206854
v 19.396577 0.568288 86.166104
v 19.05 0.57006 86.232119
v 19.05 0.556853 88.323251
v 19.05 0.57006 86.232119
v 18.744189 0.558451 88.376134
v 19.05 0.556853 88.323251
v 19.05 0.57006 86.232119
v 18.361235 0.573582 86.363312
v 18.744189 0.558451 88.376134
v 20 0.550889 88.15897
v 20.222251 0.549714 88.120537
v 20 0.558088 86.951727
v 20 0.550889 88.15897
v 19.966438 0.543663 89.43379
v 20 0.543315 89.42902
v 20 0.550889 88.15897
v 19.939346 0.551506 88.169459
v 19.966438 0.543663 89.43379
v 19.939346 0.551506 88.169459
v 19.85 0.544298 89.450337
v 19.966438 0.543663 89.43379
v 19.939346 0.551506 88.169459
v 19.85 0.551976 88.184909
v 19.85 0.544298 89.450337
v 19.85 0.552391 88.184909
v 19.723097 0.553337 88.206854
v 19.85 0.547526 89
v 19.723097 0.553337 88.206854
v 19.05 0.552579 89
v 19.85 0.547526 89
v 19.723097 0.553337 88.206854
v 19.05 0.556853 88.323251
v 19.05 0.552579 89
v 19.85 0.547526 89
v 19.659008 0.545717 89.477479
v 19.85 0.544682 89.450337
v 19.85 0.547526 89
v 19.05 0.549017 89.564026
v 19.659008 0.545717 89.477479
v 19.85 0.547526 89
v 19.05 0.552579 89
v 19.05 0.549017 89.564026
v 19.05 0.556853 88.323251
v 18.80476 0.555397 88.798984
v 19.05 0.552579 89
v 19.05 0.556853 88.323251
v 18.744189 0.558451 88.376134
v 18.80476 0.555397 88.798984
v 18.80476 0.555397 88.798984
v 18.833555 0.553946 89
v 19.05 0.552579 89
v 19.05 0.552579 89
v 19.035849 0.549093 89.566037
v 19.05 0.549017 89.564026
v 19.05 0.552579 89
v 18.917056 0.549737 89.582919
v 19.035849 0.549093 89.566037
v 19.05 0.552579 89
v 18.833555 0.553946 89
v 18.917056 0.549737 89.582919
v 20 0.543315 89.42902
v 20.222251 0.549714 88.120537
v 20 0.550889 88.15897
v 20 0.543315 89.42902
v 20.402135 0.541116 89.371872
v 20.222251 0.549714 88.120537
v 4 0.896918 49.52972
v 3.904981 0.891673 50.547703
v 4 0.890613 50.527993
v 4 0.896918 49.52972
v 3.678457 0.900444 49.606408
v 3.904981 0.891673 50.547703
v 4 0.890613 50.527993
v 5.137533 0.891447 49.258418
v 4 0.896918 49.52972
v 4 0.890613 50.527993
v 5.373715 0.883736 50.243039
v 5.137533 0.891447 49.258418
v 4 0.890613 50.527993
v 3.904981 0.891673 50.547703
v 4 0.887332 51.0474
v 5.373715 0.883736 50.243039
v 4.181141 0.880172 52
v 5.708001 0.870528 52
v 5.373715 0.883736 50.243039
v 4 0.887332 51.0474
v 4.181141 0.880172 52
v 5.373715 0.883736 50.243039
v 4 0.890613 50.527993
v 4 0.887332 51.0474
v 4.181141 0.880172 52
v 5.738011 0.869343 52.157728
v 5.708001 0.870528 52
v 4.181141 0.880172 52
v 4.410573 0.87613 52.410573
v 5.738011 0.869343 52.157728
v 4.181141 0.880172 52
v 4.223673 0.87849 52.223673
v 4.410573 0.87613 52.410573
v 4.223673 0.87849 52.223673
v 4.264503 0.876876 52.438396
v 4.410573 0.87613 52.410573
v 5.738011 0.869343 52.157728
v 4.410573 0.87613 52.410573
v 6.109843 0.854665 54.109843
v 4.410573 0.87613 52.410573
v 6.111855 0.854586 54.120409
v 6.109843 0.854665 54.109843
v 4.410573 0.87613 52.410573
v 4.638347 0.862119 54.401077
v 6.111855 0.854586 54.120409
v 4.410573 0.87613 52.410573
v 4.264503 0.876876 52.438396
v 4.638347 0.862119 54.401077
v 6.111855 0.854586 54.120409
v 5.012191 0.847362 56.363758
v 6.485699 0.839829 56.08309
v 6.111855 0.854586 54.120409
v 4.638347 0.862119 54.401077
v 5.012191 0.847362 56.363758
v 6.485699 0.839829 56.08309
v 5.386035 0.832605 58.326439
v 6.859543 0.825072 58.045771
v 6.485699 0.839829 56.08309
v 5.012191 0.847362 56.363758
v 5.386035 0.832605 58.326439
v 6.859543 0.825072 58.045771
v 5.704809 0.820022 60
v 7.231777 0.810378 60
v 6.859543 0.825072 58.045771
v 5.386035 0.832605 58.326439
v 5.704809 0.820022 60
v 5.704809 0.820022 60
v 7.233387 0.810315 60.008452
v 7.231777 0.810378 60
v 5.704809 0.820022 60
v 5.759879 0.817848 60.28912
v 7.233387 0.810315 60.008452
v 7.233387 0.810315 60.008452
v 6.232909 0.802584 62.232909
v 7.607231 0.795558 61.971133
v 7.233387 0.810315 60.008452
v 6.10594 0.804188 62.10594
v 6.232909 0.802584 62.232909
v 7.233387 0.810315 60.008452
v 5.759879 0.817848 60.28912
v 6.10594 0.804188 62.10594
v 6.10594 0.804188 62.10594
v 6.133723 0.803091 62.251801
v 6.232909 0.802584 62.232909
v 7.607231 0.795558 61.971133
v 7.941376 0.781004 63.941376
v 7.981075 0.780801 63.933814
v 7.607231 0.795558 61.971133
v 6.232909 0.802584 62.232909
v 7.941376 0.781004 63.941376
v 6.232909 0.802584 62.232909
v 6.507567 0.788334 64.214482
v 7.941376 0.781004 63.941376
v 6.232909 0.802584 62.232909
v 6.133723 0.803091 62.251801
v 6.507567 0.788334 64.214482
v 7.981075 0.780801 63.933814
v 7.941376 0.781004 63.941376
v 7.992196 0.780362 63.992196
v 7.941376 0.781004 63.941376
v 8.354919 0.766044 65.896495
v 7.992196 0.780362 63.992196
v 7.941376 0.781004 63.941376
v 6.881411 0.773577 66.177163
v 8.354919 0.766044 65.896495
v 7.941376 0.781004 63.941376
v 6.507567 0.788334 64.214482
v 6.881411 0.773577 66.177163
v 8.354919 0.766044 65.896495
v 7.989436 0.755067 68
v 8.728763 0.751287 67.859176
v 8.354919 0.766044 65.896495
v 7.228618 0.759872 68
v 7.989436 0.755067 68
v 8.354919 0.766044 65.896495
v 6.881411 0.773577 66.177163
v 7.228618 0.759872 68
v 7.228618 0.759872 68
v 7.255255 0.75882 68.139844
v 7.989436 0.755067 68
v 8.728763 0.751287 67.859176
v 7.989436 0.755067 68
v 8.755587 0.750228 68
v 7.989436 0.755067 68
v 9.102607 0.73653 69.821857
v 8.755587 0.750228 68
v 7.989436 0.755067 68
v 7.629099 0.744063 70.102525
v 9.102607 0.73653 69.821857
v 7.989436 0.755067 68
v 7.255255 0.75882 68.139844
v 7.629099 0.744063 70.102525
v 9.102607 0.73653 69.821857
v 8.055244 0.729039 72.055244
v 9.476451 0.721773 71.784538
v 9.102607 0.73653 69.821857
v 7.988293 0.729885 71.988293
v 8.055244 0.729039 72.055244
v 9.102607 0.73653 69.821857
v 7.629099 0.744063 70.102525
v 7.988293 0.729885 71.988293
v 7.988293 0.729885 71.988293
v 8.002943 0.729306 72.065206
v 8.055244 0.729039 72.055244
v 9.476451 0.721773 71.784538
v 9.763711 0.707458 73.763711
v 9.850295 0.707016 73.747218
v 9.476451 0.721773 71.784538
v 8.055244 0.729039 72.055244
v 9.763711 0.707458 73.763711
v 8.055244 0.729039 72.055244
v 8.376787 0.714549 74.027887
v 9.763711 0.707458 73.763711
v 8.055244 0.729039 72.055244
v 8.002943 0.729306 72.065206
v 8.376787 0.714549 74.027887
v 9.850295 0.707016 73.747218
v 9.763711 0.707458 73.763711
v 9.874549 0.706058 73.874549
v 9.763711 0.707458 73.763711
v 10.224139 0.692259 75.709899
v 9.874549 0.706058 73.874549
v 9.763711 0.707458 73.763711
v 8.750631 0.699792 75.990568
v 10.224139 0.692259 75.709899
v 9.763711 0.707458 73.763711
v 8.376787 0.714549 74.027887
v 8.750631 0.699792 75.990568
v 10.224139 0.692259 75.709899
v 8.752428 0.699722 76
v 10.279396 0.690077 76
v 10.224139 0.692259 75.709899
v 8.750631 0.699792 75.990568
v 8.752428 0.699722 76
v 8.752428 0.699722 76
v 10.597983 0.677502 77.67258
v 10.279396 0.690077 76
v 8.752428 0.699722 76
v 9.124475 0.685035 77.953249
v 10.597983 0.677502 77.67258
v 10.597983 0.677502 77.67258
v 9.498319 0.670278 79.915929
v 10.971827 0.662745 79.635261
v 10.597983 0.677502 77.67258
v 9.124475 0.685035 77.953249
v 9.498319 0.670278 79.915929
v 10.971827 0.662745 79.635261
v 9.877579 0.655494 81.877579
v 11.345671 0.647988 81.597942
v 10.971827 0.662745 79.635261
v 9.870646 0.655581 81.870646
v 9.877579 0.655494 81.877579
v 10.971827 0.662745 79.635261
v 9.498319 0.670278 79.915929
v 9.870646 0.655581 81.870646
v 9.870646 0.655581 81.870646
v 9.872163 0.655521 81.87861
v 9.877579 0.655494 81.877579
v 11.345671 0.647988 81.597942
v 11.586046 0.633913 83.586046
v 11.719515 0.633231 83.560623
v 11.345671 0.647988 81.597942
v 9.877579 0.655494 81.877579
v 11.586046 0.633913 83.586046
v 9.877579 0.655494 81.877579
v 10.246007 0.640764 83.841291
v 11.586046 0.633913 83.586046
v 9.877579 0.655494 81.877579
v 9.872163 0.655521 81.87861
v 10.246007 0.640764 83.841291
v 11.719515 0.633231 83.560623
v 11.586046 0.633913 83.586046
v 11.756901 0.631755 83.756901
v 11.586046 0.633913 83.586046
v 11.803206 0.629927 84
v 11.756901 0.631755 83.756901
v 11.586046 0.633913 83.586046
v 10.276238 0.639571 84
v 11.803206 0.629927 84
v 11.586046 0.633913 83.586046
v 10.246007 0.640764 83.841291
v 10.276238 0.639571 84
v 10.276238 0.639571 84
v 12 0.622159 85.033169
v 11.803206 0.629927 84
v 10.276238 0.639571 84
v 12 0.618951 85.541087
v 12 0.622159 85.033169
v 10.276238 0.639571 84
v 10.619851 0.626007 85.803972
v 12 0.618951 85.541087
v 12.032889 0.618783 85.534822
v 12.093359 0.618474 85.523304
v 12.024946 0.621174 85.164134
v 12.024946 0.621174 85.164134
v 12 0.618951 85.541087
v 12.032889 0.618783 85.534822
v 12.024946 0.621174 85.164134
v 12 0.622159 85.033169
v 12 0.618951 85.541087
v 12 0.618951 85.541087
v 10.993695 0.61125 87.766653
v 12 0.606105 87.574976
v 12 0.618951 85.541087
v 10.619851 0.626007 85.803972
v 10.993695 0.61125 87.766653
v 12.15 0.616238 85.820669
v 12.076295 0.605715 87.560444
v 12.15 0.605338 87.546405
v 12.15 0.616238 85.820669
v 12.032889 0.618783 85.534822
v 12.076295 0.605715 87.560444
v 12.15 0.616238 85.820669
v 12.093359 0.618474 85.523304
v 12.032889 0.618783 85.534822
v 12.032889 0.618783 85.534822
v 12 0.606105 87.574976
v 12.076295 0.605715 87.560444
v 12.032889 0.618783 85.534822
v 12 0.618951 85.541087
v 12 0.606105 87.574976
v 12.15 0.605338 87.546405
v 12.467203 0.603717 87.485985
v 12.15 0.616238 85.820669
v 12 0.606105 87.574976
v 11.353874 0.597055 89.654123
v 12 0.59368 89.54239
v 12 0.606105 87.574976
v 10.993695 0.61125 87.766653
v 11.353874 0.597055 89.654123
v 12.15 0.605338 87.546405
v 12.118327 0.593062 89.521928
v 12.15 0.592896 89.516451
v 12.15 0.605338 87.546405
v 12.076295 0.605715 87.560444
v 12.118327 0.593062 89.521928
v 12.076295 0.605715 87.560444
v 12 0.59368 89.54239
v 12.118327 0.593062 89.521928
v 12.076295 0.605715 87.560444
v 12 0.606105 87.574976
v 12 0.59368 89.54239
v 12.755936 0.592331 89
v 12.15 0.605338 87.546405
v 12.15 0.596158 89
v 12.755936 0.592331 89
v 12.467203 0.603717 87.485985
v 12.15 0.605338 87.546405
v 12.787517 0.589566 89.406206
v 12.831937 0.589334 89.398525
v 12.818588 0.58986 89.328529
v 12.818588 0.58986 89.328529
v 12.15 0.592896 89.516451
v 12.787517 0.589566 89.406206
v 12.818588 0.58986 89.328529
v 12.15 0.596158 89
v 12.15 0.592896 89.516451
v 12.818588 0.58986 89.328529
v 12.755936 0.592331 89
v 12.15 0.596158 89
v 12 0.59368 89.54239
v 11.573214 0.589528 90.626563
v 12 0.587215 90.565911
v 12 0.59368 89.54239
v 11.478425 0.59065 90.543622
v 11.573214 0.589528 90.626563
v 12 0.59368 89.54239
v 11.353874 0.597055 89.654123
v 11.478425 0.59065 90.543622
v 11.478425 0.59065 90.543622
v 11.491662 0.58997 90.638152
v 11.573214 0.589528 90.626563
v 12.15 0.592896 89.516451
v 12.140271 0.586455 90.545977
v 12.15 0.586403 90.544595
v 12.15 0.592896 89.516451
v 12.118327 0.593062 89.521928
v 12.140271 0.586455 90.545977
v 12.118327 0.593062 89.521928
v 12 0.587215 90.565911
v 12.140271 0.586455 90.545977
v 12.118327 0.593062 89.521928
v 12 0.59368 89.54239
v 12 0.587215 90.565911
v 12.95 0.583292 90.237161
v 12.343141 0.585356 90.517147
v 12.95 0.582068 90.430906
v 12.95 0.583292 90.237161
v 12.787517 0.589566 89.406206
v 12.343141 0.585356 90.517147
v 12.95 0.583292 90.237161
v 12.831937 0.589334 89.398525
v 12.787517 0.589566 89.406206
v 12.787517 0.589566 89.406206
v 12.15 0.586403 90.544595
v 12.343141 0.585356 90.517147
v 12.787517 0.589566 89.406206
v 12.15 0.592896 89.516451
v 12.15 0.586403 90.544595
v 12.95 0.582068 90.430906
v 12.97674 0.581923 90.427105
v 12.95 0.583292 90.237161
vn 0.006316 0.99996 0.006316
vn 0.006316 0.99996 0.006316
vn 0.016532 0.999843 0.006315
vn 0.016532 0.999843 0.006315
vn 0.006316 0.99996 0.006316
vn 0.006316 0.99996 0.006316
vn 0.016532 0.999843 0.006315
vn 0.016532 0.999843 0.006315
vn 0.006316 0.99996 0.006316
vn 0.006316 0.99996 0.006316
vn 0.006316 0.99996 0.006316
vn 0.006316 0.99996 0.006316
vn 0.016532 0.999843 0.006315
vn 0.016532 0.999843 0.006315
vn 0.016533 0.999854 0.00421
vn 0.016533 0.999854 0.00421
vn 0.014428 0.999876 0.006315
vn 0.014428 0.999876 0.006315
vn 0.016533 0.999854 0.00421
vn 0.014428 0.999876 0.006315
vn 0.014428 0.999876 0.006315
vn 0.014428 0.999876 0.006315
vn 0.014428 0.999876 0.006315
vn 0.014428 0.999876 0.006315
vn 0.014428 0.999876 0.006315
vn 0.014428 0.999876 0.006315
vn 0.014428 0.999876 0.006315
vn 0.014428 0.999876 0.006315
vn 0.014428 0.999887 0.00421
vn 0.014428 0.999887 0.00421
vn 0.014428 0.999887 0.00421
vn 0.014428 0.999887 0.00421
vn 0.014428 0.999887 0.00421
vn 0.012323 0.999904 0.006315
vn 0.014428 0.999887 0.00421
vn 0.012323 0.999904 0.006315
vn 0.012323 0.999904 0.006315
vn 0.012323 0.999904 0.006315
vn 0.012323 0.999904 0.006315
vn 0.012323 0.999904 0.006315
vn 0.012323 0.999904 0.006315
vn 0.012323 0.999904 0.006315
vn 0.012324 0.999915 0.00421
vn 0.012324 0.999915 0.00421
vn 0.012324 0.999915 0.00421
vn 0.012324 0.999915 0.00421
vn 0.012324 0.999915 0.00421
vn 0.012324 0.999915 0.00421
vn 0.012324 0.999915 0.00421
vn 0.010219 0.999928 0.006315
vn 0.012324 0.999915 0.00421
vn 0.010219 0.999928 0.006315
vn 0.010219 0.999928 0.006315
vn 0.010219 0.999928 0.006315
vn 0.010219 0.999928 0.006315
vn 0.010219 0.999928 0.006315
vn 0.010219 0.999944 0.002721
vn 0.010219 0.999944 0.002721
vn 0.010219 0.999944 0.002721
vn 0.010219 0.999944 0.002721
vn 0.010219 0.999944 0.002721
vn 0.010219 0.999944 0.002721
vn 0.010219 0.999944 0.002721
vn 0.010219 0.999944 0.002721
vn 0.010219 0.999944 0.002721
vn 0.006624 0.999958 0.006316
vn 0.010219 0.999944 0.002721
vn 0.006624 0.999958 0.006316
vn 0.006624 0.999958 0.006316
vn 0.006624 0.999958 0.006316
vn 0.008485 0.999946 0.005968
vn 0.008485 0.999946 0.005968
vn 0.006316 0.99996 0.006316
vn 0.006316 0.99996 0.006316
vn 0.006316 0.99996 0.006316
vn 0.008485 0.999946 0.005968
vn 0.008485 0.999946 0.005968
vn 0.006316 0.99996 0.006316
vn 0.006316 0.99996 0.006316
vn 0.006316 0.99996 0.006316
vn 0.006316 0.99996 0.006316
vn 0.011199 0.99992 0.005963
vn 0.011199 0.99992 0.005963
vn 0.006316 0.999962 0.006068
vn 0.006316 0.999962 0.006068
vn 0.008485 0.999946 0.005968
vn 0.008485 0.999946 0.005968
vn 0.008485 0.999946 0.005968
vn 0.006316 0.99996 0.006316
vn 0.006316 0.99996 0.006316
vn 0.006316 0.99996 0.006316
vn 0.006316 0.99996 0.006316
vn 0.006316 0.999962 0.005963
vn 0.011199 0.99992 0.005963
vn 0.011199 0.99992 0.005963
vn 0.006316 0.999962 0.006068
vn 0.006316 0.999962 0.006068
vn 0.008485 0.999946 0.005968
vn 0.006316 0.99996 0.006316
vn 0.006316 0.99996 0.006316
vn 0.006316 0.99996 0.006316
vn 0.006316 0.99996 0.006316
vn 0.006316 0.99996 0.006316
vn 0.006316 0.99996 0.006316
vn 0.006316 0.99996 0.006316
vn 0.006316 0.99996 0.006316
vn 0.006316 0.99996 0.006316
vn 0.006316 0.99996 0.006316
vn 0.006316 0.99996 0.006316
vn 0.006316 0.999962 0.005963
vn 0.006316 0.999962 0.005963
vn 0.012472 0.999902 0.006315
vn 0.012472 0.999902 0.006315
vn 0.006316 0.99996 0.006316
vn 0.006316 0.99996 0.006316
vn 0.012472 0.999902 0.006315
vn 0.006316 0.99996 0.006316
vn 0.006316 0.99996 0.006316
vn 0.006316 0.99996 0.006316
vn 0.006316 0.99996 0.006316
vn 0.006316 0.99996 0.006316
vn 0.006316 0.99996 0.006316
vn 0.006316 0.99996 0.006316
vn 0.006316 0.99996 0.006316
vn 0.006316 0.99996 0.006316
vn 0.006316 0.99996 0.006316
vn 0.006316 0.99996 0.006316
vn 0.006316 0.99996 0.006316
vn 0.006316 0.99996 0.006316
vn 0.006316 0.99996 0.006316
vn 0.006316 0.99996 0.006316
vn 0.006316 0.99996 0.006316
vn 0.006316 0.99996 0.006316
vn 0.006316 0.99996 0.006316
vn 0.006316 0.99996 0.006316
vn 0.006316 0.99996 0.006316
vn 0.006316 0.99996 0.006316
vn 0.006316 0.99996 0.006316
vn 0.006316 0.99996 0.006316
vn 0.006316 0.99996 0.006316
vn 0.006316 0.99996 0.006316
vn 0.006316 0.99996 0.006316
vn 0.006316 0.99996 0.006316
vn 0.006316 0.99996 0.006316
vn 0.006316 0.99996 0.006316
vn 0.006316 0.99996 0.006316
vn 0.006316 0.99996 0.006316
vn 0.006316 0.99996 0.006316
vn 0.006316 0.99996 0.006316
vn 0.006316 0.99996 0.006316
vn 0.006316 0.99996 0.006316
vn 0.006316 0.99996 0.006316
vn 0.006316 0.99996 0.006316
vn 0.006316 0.99996 0.006316
vn 0.006316 0.99996 0.006316
vn 0.006316 0.99996 0.006316
vn 0.006316 0.99996 0.006316
vn 0.006316 0.99996 0.006316
vn 0.006316 0.99996 0.006316
vn 0.006316 0.99996 0.006316
vn 0.006316 0.99996 0.006316
vn 0.006316 0.99996 0.006316
vn 0.006316 0.99996 0.006316
vn 0.006316 0.99996 0.006316
vn 0.006316 0.99996 0.006316
vn 0.006316 0.99996 0.006316
vn 0.006316 0.99996 0.006316
vn 0.006316 0.99996 0.006316
vn 0.006316 0.99996 0.006316
vn 0.006316 0.99996 0.006316
vn 0.006316 0.99996 0.006316
vn 0.006316 0.99996 0.006316
vn 0.006316 0.99996 0.006316
vn 0.006316 0.99996 0.006316
vn 0.006316 0.99996 0.006316
vn 0.006316 0.99996 0.006316
vn 0.006316 0.99996 0.006316
vn 0.006316 0.99996 0.006316
vn 0.006316 0.99996 0.006316
vn 0.006316 0.99996 0.006316
vn 0.006316 0.99996 0.006316
vn 0.006316 0.99996 0.006316
vn 0.006316 0.99996 0.006316
vn 0.006316 0.99996 0.006316
vn 0.006316 0.99996 0.006316
vn 0.006316 0.99996 0.006316
vn 0.006316 0.99996 0.006316
vn 0.006316 0.99996 0.006316
vn 0.006316 0.99996 0.006316
vn 0.006316 0.99996 0.006316
vn 0.006316 0.99996 0.006316
vn 0.006316 0.99996 0.006316
vn 0.006316 0.99996 0.006316
vn 0.006316 0.99996 0.006316
vn 0.006316 0.99996 0.006316
vn 0.006316 0.99996 0.006316
vn 0.006316 0.99996 0.006316
vn 0.006316 0.99996 0.006316
vn 0.006316 0.99996 0.006316
vn 0.006316 0.99996 0.006316
vn 0.006316 0.99996 0.006316
vn 0.006316 0.99996 0.006316
vn 0.006316 0.99996 0.006316
vn 0.006316 0.99996 0.006316
vn 0.006316 0.99996 0.006316
vn 0.006316 0.99996 0.006316
vn 0.006316 0.99996 0.006316
vn 0.006316 0.99996 0.006316
vn 0.006316 0.99996 0.006316
vn 0.006316 0.99996 0.006316
vn 0.006316 0.99996 0.006316
vn 0.006316 0.99996 0.006316
vn 0.006316 0.99996 0.006316
vn 0.006316 0.99996 0.006316
vn 0.006316 0.99996 0.006316
vn 0.006316 0.99996 0.006316
vn 0.006316 0.99996 0.006316
vn 0.006316 0.99996 0.006316
vn 0.006316 0.99996 0.006316
vn 0.006316 0.99996 0.006316
vn 0.006316 0.99996 0.006316
vn 0.006316 0.99996 0.006316
vn 0.006316 0.99996 0.006316
vn 0.006316 0.99996 0.006316
vn 0.006316 0.99996 0.006316
f 1//1 2//1 3//1
f 4//2 5//2 6//2
f 7//3 8//3 9//3
f 10//4 11//4 12//4
f 13//5 14//5 15//5
f 16//6 17//6 18//6
f 19//7 20//7 21//7
f 22//8 23//8 24//8
f 25//9 26//9 27//9
f 28//10 29//10 30//10
f 31//11 32//11 33//11
f 34//12 35//12 36//12
f 37//13 38//13 39//13
f 40//14 41//14 42//14
f 43//15 44//15 45//15
f 46//16 47//16 48//16
f 49//17 50//17 51//17
f 52//18 53//18 54//18
f 55//19 56//19 57//19
f 58//20 59//20 60//20
f 61//21 62//21 63//21
f 64//22 65//22 66//22
f 67//23 68//23 69//23
f 70//24 71//24 72//24
f 73//25 74//25 75//25
f 76//26 77//26 78//26
f 79//27 80//27 81//27
f 82//28 83//28 84//28
f 85//29 86//29 87//29
f 88//30 89//30 90//30
f 91//31 92//31 93//31
f 94//32 95//32 96//32
f 97//33 98//33 99//33
f 100//34 101//34 102//34
f 103//35 104//35 105//35
f 106//36 107//36 108//36
f 109//37 110//37 111//37
f 112//38 113//38 114//38
f 115//39 116//39 117//39
f 118//40 119//40 120//40
f 121//41 122//41 123//41
f 124//42 125//42 126//42
f 127//43 128//43 129//43
f 130//44 131//44 132//44
f 133//45 134//45 135//45
f 136//46 137//46 138//46
f 139//47 140//47 141//47
f 142//48 143//48 144//48
f 145//49 146//49 147//49
f 148//50 149//50 150//50
f 151//51 152//51 153//51
f 154//52 155//52 156//52
f 157//53 158//53 159//53
f 160//54 161//54 162//54
f 163//55 164//55 165//55
f 166//56 167//56 168//56
f 169//57 170//57 171//57
f 172//58 173//58 174//58
f 175//59 176//59 177//59
f 178//60 179//60 180//60
f 181//61 182//61 183//61
f 184//62 185//62 186//62
f 187//63 188//63 189//63
f 190//64 191//64 192//64
f 193//65 194//65 195//65
f 196//66 197//66 198//66
f 199//67 200//67 201//67
f 202//68 203//68 204//68
f 205//69 206//69 207//69
f 208//70 209//70 210//70
f 211//71 212//71 213//71
f 214//72 215//72 216//72
f 217//73 218//73 219//73
f 220//74 221//74 222//74
f 223//75 224//75 225//75
f 226//76 227//76 228//76
f 229//77 230//77 231//77
f 232//78 233//78 234//78
f 235//79 236//79 237//79
f 238//80 239//80 240//80
f 241//81 242//81 243//81
f 244//82 245//82 246//82
f 247//83 248//83 249//83
f 250//84 251//84 252//84
f 253//85 254//85 255//85
f 256//86 257//86 258//86
f 259//87 260//87 261//87
f 262//88 263//88 264//88
f 265//89 266//89 267//89
f 268//90 269//90 270//90
f 271//91 272//91 273//91
f 274//92 275//92 276//92
f 277//93 278//93 279//93
f 280//94 281//94 282//94
f 283//95 284//95 285//95
f 286//96 287//96 288//96
f 289//97 290//97 291//97
f 292//98 293//98 294//98
f 295//99 296//99 297//99
f 298//100 299//100 300//100
f 301//101 302//101 303//101
f 304//102 305//102 306//102
f 307//103 308//103 309//103
f 310//104 311//104 312//104
f 313//105 314//105 315//105
f 316//106 317//106 318//106
f 319//107 320//107 321//107
f 322//108 323//108 324//108
f 325//109 326//109 327//109
f 328//110 329//110 330//110
f 331//111 332//111 333//111
f 334//112 335//112 336//112
f 337//113 338//113 339//113
f 340//114 341//114 342//114
f 343//115 344//115 345//115
f 346//116 347//116 348//116
f 349//117 350//117 351//117
f 352//118 353//118 354//118
f 355//119 356//119 357//119
f 358//120 359//120 360//120
f 361//121 362//121 363//121
f 364//122 365//122 366//122
f 367//123 368//123 369//123
f 370//124 371//124 372//124
f 373//125 374//125 375//125
f 376//126 377//126 378//126
f 379//127 380//127 381//127
f 382//128 383//128 384//128
f 385//129 386//129 387//129
f 388//130 389//130 390//130
f 391//131 392//131 393//131
f 394//132 395//132 396//132
f 397//133 398//133 399//133
f 400//134 401//134 402//134
f 403//135 404//135 405//135
f 406//136 407//136 408//136
f 409//137 410//137 411//137
f 412//138 413//138 414//138
f 415//139 416//139 417//139
f 418//140 419//140 420//140
f 421//141 422//141 423//141
f 424//142 425//142 426//142
f 427//143 428//143 429//143
f 430//144 431//144 432//144
f 433//145 434//145 435//145
f 436//146 437//146 438//146
f 439//147 440//147 441//147
f 442//148 443//148 444//148
f 445//149 446//149 447//149
f 448//150 449//150 450//150
f 451//151 452//151 453//151
f 454//152 455//152 456//152
f 457//153 458//153 459//153
f 460//154 461//154 462//154
f 463//155 464//155 465//155
f 466//156 467//156 468//156
f 469//157 470//157 471//157
f 472//158 473//158 474//158
f 475//159 476//159 477//159
f 478//160 479//160 480//160
f 481//161 482//161 483//161
f 484//162 485//162 486//162
f 487//163 488//163 489//163
f 490//164 491//164 492//164
f 493//165 494//165 495//165
f 496//166 497//166 498//166
f 499//167 500//167 501//167
f 502//168 503//168 504//168
f 505//169 506//169 507//169
f 508//170 509//170 510//170
f 511//171 512//171 513//171
f 514//172 515//172 516//172
f 517//173 518//173 519//173
f 520//174 521//174 522//174
f 523//175 524//175 525//175
f 526//176 527//176 528//176
f 529//177 530//177 531//177
f 532//178 533//178 534//178
f 535//179 536//179 537//179
f 538//180 539//180 540//180
f 541//181 542//181 543//181
f 544//182 545//182 546//182
f 547//183 548//183 549//183
f 550//184 551//184 552//184
f 553//185 554//185 555//185
f 556//186 557//186 558//186
f 559//187 560//187 561//187
f 562//188 563//188 564//188
f 565//189 566//189 567//189
f 568//190 569//190 570//190
f 571//191 572//191 573//191
f 574//192 575//192 576//192
f 577//193 578//193 579//193
f 580//194 581//194 582//194
f 583//195 584//195 585//195
f 586//196 587//196 588//196
f 589//197 590//197 591//197
f 592//198 593//198 594//198
f 595//199 596//199 597//199
f 598//200 599//200 600//200
f 601//201 602//201 603//201
f 604//202 605//202 606//202
f 607//203 608//203 609//203
f 610//204 611//204 612//204
f 613//205 614//205 615//205
f 616//206 617//206 618//206
f 619//207 620//207 621//207
f 622//208 623//208 624//208
f 625//209 626//209 627//209
f 628//210 629//210 630//210
f 631//211 632//211 633//211
f 634//212 635//212 636//212
f 637//213 638//213 639//213
f 640//214 641//214 642//214
f 643//215 644//215 645//215
f 646//216 647//216 648//216
f 649//217 650//217 651//217
f 652//218 653//218 654//218
f 655//219 656//219 657//219
f 658//220 659//220 660//220
f 661//221 662//221 663//221
f 664//222 665//222 666//222
f 667//223 668//223 669//223
f 670//224 671//224 672//224
f 673//225 674//225 675//225
