# Static Concept B graybox, metres, identity world transform.
v 18.995798 0.530316 90.995798
v 18.943578 0.537795 89.863898
v 17.912454 0.544001 89.912454
v 17.912454 0.544001 89.912454
v 18.995992 0.530288 91
v 18.995798 0.530316 90.995798
v 17.912454 0.544001 89.912454
v 12.991373 0.568212 91
v 18.995992 0.530288 91
v 17.912454 0.544001 89.912454
v 12.990411 0.568344 90.980044
v 12.991373 0.568212 91
v 17.912454 0.544001 89.912454
v 14.861333 0.562363 90.056132
v 12.990411 0.568344 90.980044
v 14.861333 0.562363 90.056132
v 12.950219 0.573865 90.146126
v 12.990411 0.568344 90.980044
v 18.92378 0.530263 91.07622
v 18.999441 0.529795 91.074759
v 18.996169 0.530263 91.003831
v 18.996169 0.530263 91.003831
v 18 0.535985 91.094057
v 18.92378 0.530263 91.07622
v 18.996169 0.530263 91.003831
v 18 0.536579 91
v 18 0.535985 91.094057
v 18.996169 0.530263 91.003831
v 18.995992 0.530288 91
v 18 0.536579 91
v 12.991772 0.568158 91.008272
v 13.000559 0.566951 91.190591
v 13.831464 0.561804 91.174547
v 13.831464 0.561804 91.174547
v 12.991373 0.568212 91
v 12.991772 0.568158 91.008272
v 13.831464 0.561804 91.174547
v 18 0.536579 91
v 12.991373 0.568212 91
v 13.831464 0.561804 91.174547
v 18 0.535985 91.094057
v 18 0.536579 91
v 18.999749 0.523949 92
v 18.92378 0.530263 91.07622
v 18 0.530263 92
v 18.999749 0.523949 92
v 18.999441 0.529795 91.074759
v 18.92378 0.530263 91.07622
v 18.92378 0.530263 91.07622
v 18 0.535985 91.094057
v 18 0.530263 92
v 18 0.530263 92
v 13.000559 0.566951 91.190591
v 13.00027 0.56184 92
v 18 0.530263 92
v 13.831464 0.561804 91.174547
v 13.000559 0.566951 91.190591
v 18 0.530263 92
v 18 0.535985 91.094057
v 13.831464 0.561804 91.174547
v 18 0.530263 92
v 19 0.519178 92.755117
v 18.999749 0.523949 92
v 18 0.530263 92
v 18.792872 0.520486 92.755117
v 19 0.519178 92.755117
v 18 0.530263 92
v 18 0.525494 92.755117
v 18.792872 0.520486 92.755117
v 13.00027 0.56184 92
v 18 0.525494 92.755117
v 18 0.530263 92
v 13.00027 0.56184 92
v 16.763339 0.533304 92.755117
v 18 0.525494 92.755117
v 13.00027 0.56184 92
v 13.000266 0.561778 92.009954
v 16.763339 0.533304 92.755117
v 13.000266 0.561778 92.009954
v 13 0.557073 92.755117
v 16.763339 0.533304 92.755117
v 18.326782 0.513183 94.377558
v 19 0.508931 94.377558
v 19 0.51703 93.095238
v 19 0.51703 93.095238
v 18 0.515247 94.377558
v 18.326782 0.513183 94.377558
v 19 0.51703 93.095238
v 18 0.523947 93
v 18 0.515247 94.377558
v 19 0.51703 93.095238
v 19 0.517632 93
v 18 0.523947 93
v 19 0.519178 92.755117
v 18.792872 0.520486 92.755117
v 19 0.517932 92.952381
v 18.792872 0.520486 92.755117
v 19 0.517632 93
v 19 0.517932 92.952381
v 18.792872 0.520486 92.755117
v 18 0.523947 93
v 19 0.517632 93
v 18.792872 0.520486 92.755117
v 18 0.525494 92.755117
v 18 0.523947 93
v 18 0.523947 93
v 15.933663 0.528298 94.377558
v 18 0.515247 94.377558
v 18 0.523947 93
v 14.377558 0.538126 94.377558
v 15.933663 0.528298 94.377558
v 18 0.523947 93
v 13 0.555526 93
v 14.377558 0.538126 94.377558
v 18 0.525494 92.755117
v 16.763339 0.533304 92.755117
v 18 0.523947 93
v 16.763339 0.533304 92.755117
v 13 0.555526 93
v 18 0.523947 93
v 16.763339 0.533304 92.755117
v 13 0.557073 92.755117
v 13 0.555526 93
v 13 0.555526 93
v 13 0.546826 94.377558
v 14.377558 0.538126 94.377558
v 16 0.517632 96
v 19 0.505 95
v 15 0.530263 95
v 16 0.517632 96
v 19 0.498684 96
v 19 0.505 95
v 19 0.505 95
v 18.326782 0.513183 94.377558
v 18 0.511316 95
v 19 0.505 95
v 19 0.508931 94.377558
v 18.326782 0.513183 94.377558
v 18.326782 0.513183 94.377558
v 18 0.515247 94.377558
v 18 0.511316 95
v 18 0.515247 94.377558
v 15 0.530263 95
v 18 0.511316 95
v 18 0.515247 94.377558
v 15.933663 0.528298 94.377558
v 15 0.530263 95
v 15.933663 0.528298 94.377558
v 14.377558 0.538126 94.377558
v 15 0.530263 95
v 15 0.530263 95
v 15.81 0.518832 96
v 16 0.517632 96
v 15 0.530263 95
v 14.4 0.527737 96
v 15.81 0.518832 96
v 15 0.530263 95
v 13 0.536579 96
v 14.4 0.527737 96
v 15 0.530263 95
v 13 0.542895 95
v 13 0.536579 96
v 14.377558 0.538126 94.377558
v 13 0.542895 95
v 15 0.530263 95
v 14.377558 0.538126 94.377558
v 13 0.546826 94.377558
v 13 0.542895 95
vn 0.006316 0.99996 0.006316
vn 0.006316 0.99996 0.006316
vn 0.006316 0.99996 0.006316
vn 0.006316 0.99996 0.006316
vn 0.006316 0.99996 0.006316
vn 0.006316 0.99996 0.006316
vn 0.006316 0.99996 0.006316
vn 0.006316 0.99996 0.006316
vn 0.006316 0.99996 0.006316
vn 0.006316 0.99996 0.006316
vn 0.006316 0.99996 0.006316
vn 0.006316 0.99996 0.006316
vn 0.006316 0.99996 0.006316
vn 0.006316 0.99996 0.006316
vn 0.006316 0.99996 0.006316
vn 0.006316 0.99996 0.006316
vn 0.006316 0.99996 0.006316
vn 0.006316 0.99996 0.006316
vn 0.006316 0.99996 0.006316
vn 0.006316 0.99996 0.006316
vn 0.006316 0.99996 0.006316
vn 0.006316 0.99996 0.006316
vn 0.006316 0.99996 0.006316
vn 0.006316 0.99996 0.006316
vn 0.006316 0.99996 0.006316
vn 0.006316 0.99996 0.006316
vn 0.006316 0.99996 0.006316
vn 0.006316 0.99996 0.006316
vn 0.006316 0.99996 0.006316
vn 0.006316 0.99996 0.006316
vn 0.006316 0.99996 0.006316
vn 0.006316 0.99996 0.006316
vn 0.006316 0.99996 0.006316
vn 0.006316 0.99996 0.006316
vn 0.006316 0.99996 0.006316
vn 0.006316 0.99996 0.006316
vn 0.006316 0.99996 0.006316
vn 0.006316 0.99996 0.006316
vn 0.006316 0.99996 0.006316
vn 0.006316 0.99996 0.006316
vn 0.006316 0.99996 0.006316
vn 0.006316 0.99996 0.006316
vn 0.006316 0.99996 0.006316
vn 0.006316 0.99996 0.006316
vn 0.006316 0.99996 0.006316
vn 0.006316 0.99996 0.006316
vn 0.006316 0.99996 0.006316
vn 0.006316 0.99996 0.006316
vn 0.006316 0.99996 0.006316
vn 0.006316 0.99996 0.006316
vn 0.006316 0.99996 0.006316
vn 0.006316 0.99996 0.006316
vn 0.006316 0.99996 0.006316
vn 0.006316 0.99996 0.006316
vn 0.006316 0.99996 0.006316
vn 0.006316 0.99996 0.006316
f 1//1 2//1 3//1
f 4//2 5//2 6//2
f 7//3 8//3 9//3
f 10//4 11//4 12//4
f 13//5 14//5 15//5
f 16//6 17//6 18//6
f 19//7 20//7 21//7
f 22//8 23//8 24//8
f 25//9 26//9 27//9
f 28//10 29//10 30//10
f 31//11 32//11 33//11
f 34//12 35//12 36//12
f 37//13 38//13 39//13
f 40//14 41//14 42//14
f 43//15 44//15 45//15
f 46//16 47//16 48//16
f 49//17 50//17 51//17
f 52//18 53//18 54//18
f 55//19 56//19 57//19
f 58//20 59//20 60//20
f 61//21 62//21 63//21
f 64//22 65//22 66//22
f 67//23 68//23 69//23
f 70//24 71//24 72//24
f 73//25 74//25 75//25
f 76//26 77//26 78//26
f 79//27 80//27 81//27
f 82//28 83//28 84//28
f 85//29 86//29 87//29
f 88//30 89//30 90//30
f 91//31 92//31 93//31
f 94//32 95//32 96//32
f 97//33 98//33 99//33
f 100//34 101//34 102//34
f 103//35 104//35 105//35
f 106//36 107//36 108//36
f 109//37 110//37 111//37
f 112//38 113//38 114//38
f 115//39 116//39 117//39
f 118//40 119//40 120//40
f 121//41 122//41 123//41
f 124//42 125//42 126//42
f 127//43 128//43 129//43
f 130//44 131//44 132//44
f 133//45 134//45 135//45
f 136//46 137//46 138//46
f 139//47 140//47 141//47
f 142//48 143//48 144//48
f 145//49 146//49 147//49
f 148//50 149//50 150//50
f 151//51 152//51 153//51
f 154//52 155//52 156//52
f 157//53 158//53 159//53
f 160//54 161//54 162//54
f 163//55 164//55 165//55
f 166//56 167//56 168//56
