# Static Concept B graybox, metres, identity world transform.
v -55 1.799737 -36
v -57.106741 1.818032 -36.790028
v -57.403001 1.814914 -36
v -57.403001 1.814914 -36
v -52.893259 1.781441 -35.209972
v -55 1.799737 -36
v -57.403001 1.814914 -36
v -53.570486 1.774313 -33.404034
v -52.893259 1.781441 -35.209972
v -57.403001 1.814914 -36
v -57.783968 1.810904 -34.984089
v -53.570486 1.774313 -33.404034
v -53.570486 1.774313 -33.404034
v -56.408325 1.785947 -32.408325
v -54.247713 1.767184 -31.598096
v -53.570486 1.774313 -33.404034
v -58.111273 1.807458 -34.111273
v -56.408325 1.785947 -32.408325
v -53.570486 1.774313 -33.404034
v -57.783968 1.810904 -34.984089
v -58.111273 1.807458 -34.111273
v -58.111273 1.807458 -34.111273
v -58.461194 1.803775 -33.178151
v -56.408325 1.785947 -32.408325
v -54.247713 1.767184 -31.598096
v -56.408325 1.785947 -32.408325
v -54.615999 1.763307 -30.615999
v -56.408325 1.785947 -32.408325
v -54.92494 1.760055 -29.792157
v -54.615999 1.763307 -30.615999
v -56.408325 1.785947 -32.408325
v -59.138421 1.796646 -31.372213
v -54.92494 1.760055 -29.792157
v -56.408325 1.785947 -32.408325
v -58.461194 1.803775 -33.178151
v -59.138421 1.796646 -31.372213
v -54.92494 1.760055 -29.792157
v -55.638916 1.753246 -28
v -55.596999 1.752981 -28
v -54.92494 1.760055 -29.792157
v -59.815648 1.789517 -29.566274
v -55.638916 1.753246 -28
v -54.92494 1.760055 -29.792157
v -59.138421 1.796646 -31.372213
v -59.815648 1.789517 -29.566274
v -55.638916 1.753246 -28
v -55.602167 1.752927 -27.986219
v -55.596999 1.752981 -28
v -60 1.787577 -29.074669
v -60.293092 1.784492 -28.293092
v -60 1.780789 -28
v -60.293092 1.784492 -28.293092
v -60.403001 1.783335 -28
v -60 1.780789 -28
v -60.403001 1.783335 -28
v -60 1.778108 -27.575508
v -60 1.780789 -28
v -60.403001 1.783335 -28
v -60.492875 1.782389 -27.760336
v -60 1.778108 -27.575508
v -55.638916 1.753246 -28
v -60 1.787577 -29.074669
v -60 1.780789 -28
v -55.638916 1.753246 -28
v -59.815648 1.789517 -29.566274
v -60 1.787577 -29.074669
v -60 1.780789 -28
v -55.602167 1.752927 -27.986219
v -55.638916 1.753246 -28
v -60 1.780789 -28
v -56.279394 1.745798 -26.180281
v -55.602167 1.752927 -27.986219
v -60 1.780789 -28
v -59.320813 1.77221 -27.320813
v -56.279394 1.745798 -26.180281
v -60 1.780789 -28
v -60 1.778108 -27.575508
v -59.320813 1.77221 -27.320813
v -60 1.778108 -27.575508
v -61.170102 1.77526 -25.954398
v -60 1.765099 -25.51561
v -60 1.778108 -27.575508
v -60.492875 1.782389 -27.760336
v -61.170102 1.77526 -25.954398
v -56.279394 1.745798 -26.180281
v -59.320813 1.77221 -27.320813
v -56.797817 1.740341 -24.797817
v -59.320813 1.77221 -27.320813
v -56.956621 1.738669 -24.374342
v -56.797817 1.740341 -24.797817
v -59.320813 1.77221 -27.320813
v -60 1.765099 -25.51561
v -56.956621 1.738669 -24.374342
v -59.320813 1.77221 -27.320813
v -60 1.778108 -27.575508
v -60 1.765099 -25.51561
v -60 1.765099 -25.51561
v -61.847329 1.768131 -24.14846
v -60 1.752089 -23.455711
v -60 1.765099 -25.51561
v -61.170102 1.77526 -25.954398
v -61.847329 1.768131 -24.14846
v -56.956621 1.738669 -24.374342
v -60 1.752089 -23.455711
v -57.633847 1.731541 -22.568404
v -56.956621 1.738669 -24.374342
v -60 1.765099 -25.51561
v -60 1.752089 -23.455711
v -60 1.752089 -23.455711
v -62.233301 1.758473 -22.233301
v -60 1.739079 -21.395813
v -60 1.752089 -23.455711
v -62.47491 1.761525 -22.47491
v -62.233301 1.758473 -22.233301
v -60 1.752089 -23.455711
v -61.847329 1.768131 -24.14846
v -62.47491 1.761525 -22.47491
v -62.47491 1.761525 -22.47491
v -62.524556 1.761003 -22.342521
v -62.233301 1.758473 -22.233301
v -57.633847 1.731541 -22.568404
v -60 1.739079 -21.395813
v -58.311074 1.724412 -20.762466
v -57.633847 1.731541 -22.568404
v -60 1.752089 -23.455711
v -60 1.739079 -21.395813
v -60 1.739079 -21.395813
v -62.233301 1.758473 -22.233301
v -60 1.730263 -20
v -62.233301 1.758473 -22.233301
v -61.770895 1.741448 -20
v -60 1.730263 -20
v -62.233301 1.758473 -22.233301
v -63.201782 1.753874 -20.536583
v -61.770895 1.741448 -20
v -62.233301 1.758473 -22.233301
v -62.524556 1.761003 -22.342521
v -63.201782 1.753874 -20.536583
v -61.770895 1.741448 -20
v -60 1.726069 -19.335914
v -60 1.730263 -20
v -58.311074 1.724412 -20.762466
v -60 1.730263 -20
v -58.596999 1.721402 -20
v -58.311074 1.724412 -20.762466
v -60 1.739079 -21.395813
v -60 1.730263 -20
v -60 1.730263 -20
v -58.979636 1.715419 -18.979636
v -58.596999 1.721402 -20
v -60 1.730263 -20
v -58.988301 1.715344 -18.956527
v -58.979636 1.715419 -18.979636
v -60 1.730263 -20
v -60 1.726069 -19.335914
v -58.988301 1.715344 -18.956527
v -61.770895 1.741448 -20
v -63.201782 1.753874 -20.536583
v -63.403001 1.751756 -20
v -63.403001 1.751756 -20
v -60 1.726069 -19.335914
v -61.770895 1.741448 -20
v -63.403001 1.751756 -20
v -60 1.713059 -17.276016
v -60 1.726069 -19.335914
v -63.403001 1.751756 -20
v -63.879009 1.746745 -18.730645
v -60 1.713059 -17.276016
v -58.988301 1.715344 -18.956527
v -60 1.713059 -17.276016
v -59.665528 1.709513 -17.150589
v -58.988301 1.715344 -18.956527
v -60 1.726069 -19.335914
v -60 1.713059 -17.276016
v -60 1.713059 -17.276016
v -60.342755 1.703026 -15.344651
v -60 1.706634 -16.258664
v -60 1.713059 -17.276016
v -64.556236 1.739616 -16.924706
v -60.342755 1.703026 -15.344651
v -60 1.713059 -17.276016
v -63.879009 1.746745 -18.730645
v -64.556236 1.739616 -16.924706
v -59.665528 1.709513 -17.150589
v -60 1.713059 -17.276016
v -60 1.706634 -16.258664
v -60.342755 1.703026 -15.344651
v -61.894275 1.703665 -13.894275
v -61.004715 1.696066 -13.580685
v -60.342755 1.703026 -15.344651
v -64.656678 1.738558 -16.656678
v -61.894275 1.703665 -13.894275
v -60.342755 1.703026 -15.344651
v -64.556236 1.739616 -16.924706
v -64.656678 1.738558 -16.656678
v -64.656678 1.738558 -16.656678
v -65.248729 1.732319 -15.076795
v -61.894275 1.703665 -13.894275
v -61.004715 1.696066 -13.580685
v -61.894275 1.703665 -13.894275
v -61.144251 1.694191 -13.144251
v -61.894275 1.703665 -13.894275
v -61.321571 1.691808 -12.589635
v -61.144251 1.694191 -13.144251
v -61.894275 1.703665 -13.894275
v -65.674247 1.726511 -13.731654
v -61.321571 1.691808 -12.589635
v -61.894275 1.703665 -13.894275
v -65.248729 1.732319 -15.076795
v -65.674247 1.726511 -13.731654
v -61.321571 1.691808 -12.589635
v -63.936174 1.704597 -12
v -61.442849 1.68885 -12
v -61.321571 1.691808 -12.589635
v -65.950668 1.719972 -12.4199
v -63.936174 1.704597 -12
v -61.321571 1.691808 -12.589635
v -65.674247 1.726511 -13.731654
v -65.950668 1.719972 -12.4199
v -63.936174 1.704597 -12
v -61.54535 1.68635 -11.501657
v -61.442849 1.68885 -12
vn 0.006316 0.99996 0.006316
vn 0.006316 0.99996 0.006316
vn 0.006316 0.99996 0.006316
vn 0.006316 0.99996 0.006316
vn 0.006316 0.99996 0.006316
vn 0.006316 0.99996 0.006316
vn 0.006316 0.99996 0.006316
vn 0.006316 0.99996 0.006316
vn 0.006316 0.99996 0.006316
vn 0.006316 0.99996 0.006316
vn 0.006316 0.99996 0.006316
vn 0.006316 0.99996 0.006316
vn 0.006316 0.99996 0.006316
vn 0.006316 0.99996 0.006316
vn 0.006316 0.99996 0.006316
vn 0.006316 0.99996 0.006316
vn 0.006316 0.99996 0.006316
vn 0.006316 0.99996 0.006316
vn 0.006316 0.99996 0.006316
vn 0.006316 0.99996 0.006316
vn 0.006316 0.99996 0.006316
vn 0.006316 0.99996 0.006316
vn 0.006316 0.99996 0.006316
vn 0.006316 0.99996 0.006316
vn 0.006316 0.99996 0.006316
vn 0.006316 0.99996 0.006316
vn 0.006316 0.99996 0.006316
vn 0.006316 0.99996 0.006316
vn 0.006316 0.99996 0.006316
vn 0.006316 0.99996 0.006316
vn 0.006316 0.99996 0.006316
vn 0.006316 0.99996 0.006316
vn 0.006316 0.99996 0.006316
vn 0.006316 0.99996 0.006316
vn 0.006316 0.99996 0.006316
vn 0.006316 0.99996 0.006316
vn 0.006316 0.99996 0.006316
vn 0.006316 0.99996 0.006316
vn 0.006316 0.99996 0.006316
vn 0.006316 0.99996 0.006316
vn 0.006316 0.99996 0.006316
vn 0.006316 0.99996 0.006316
vn 0.006316 0.99996 0.006316
vn 0.006316 0.99996 0.006316
vn 0.006316 0.99996 0.006316
vn 0.006316 0.99996 0.006316
vn 0.006316 0.99996 0.006316
vn 0.006316 0.99996 0.006316
vn 0.006316 0.99996 0.006316
vn 0.006315 0.999946 0.008232
vn 0.008232 0.999946 0.006315
vn 0.008232 0.999946 0.006315
vn 0.006316 0.99996 0.006316
vn 0.006316 0.99996 0.006316
vn 0.006316 0.99996 0.006316
vn 0.006316 0.99996 0.006316
vn 0.008232 0.999946 0.006315
vn 0.008232 0.999946 0.006315
vn 0.006316 0.99996 0.006316
vn 0.006316 0.99996 0.006316
vn 0.006316 0.99996 0.006316
vn 0.008232 0.999946 0.006315
vn 0.006316 0.99996 0.006316
vn 0.006316 0.99996 0.006316
vn 0.006316 0.99996 0.006316
vn 0.006316 0.99996 0.006316
vn 0.006316 0.99996 0.006316
vn 0.006316 0.99996 0.006316
vn 0.006316 0.99996 0.006316
vn 0.006316 0.99996 0.006316
vn 0.006316 0.99996 0.006316
vn 0.006316 0.99996 0.006316
vn 0.006316 0.99996 0.006316
vn 0.006316 0.99996 0.006316
f 1//1 2//1 3//1
f 4//2 5//2 6//2
f 7//3 8//3 9//3
f 10//4 11//4 12//4
f 13//5 14//5 15//5
f 16//6 17//6 18//6
f 19//7 20//7 21//7
f 22//8 23//8 24//8
f 25//9 26//9 27//9
f 28//10 29//10 30//10
f 31//11 32//11 33//11
f 34//12 35//12 36//12
f 37//13 38//13 39//13
f 40//14 41//14 42//14
f 43//15 44//15 45//15
f 46//16 47//16 48//16
f 49//17 50//17 51//17
f 52//18 53//18 54//18
f 55//19 56//19 57//19
f 58//20 59//20 60//20
f 61//21 62//21 63//21
f 64//22 65//22 66//22
f 67//23 68//23 69//23
f 70//24 71//24 72//24
f 73//25 74//25 75//25
f 76//26 77//26 78//26
f 79//27 80//27 81//27
f 82//28 83//28 84//28
f 85//29 86//29 87//29
f 88//30 89//30 90//30
f 91//31 92//31 93//31
f 94//32 95//32 96//32
f 97//33 98//33 99//33
f 100//34 101//34 102//34
f 103//35 104//35 105//35
f 106//36 107//36 108//36
f 109//37 110//37 111//37
f 112//38 113//38 114//38
f 115//39 116//39 117//39
f 118//40 119//40 120//40
f 121//41 122//41 123//41
f 124//42 125//42 126//42
f 127//43 128//43 129//43
f 130//44 131//44 132//44
f 133//45 134//45 135//45
f 136//46 137//46 138//46
f 139//47 140//47 141//47
f 142//48 143//48 144//48
f 145//49 146//49 147//49
f 148//50 149//50 150//50
f 151//51 152//51 153//51
f 154//52 155//52 156//52
f 157//53 158//53 159//53
f 160//54 161//54 162//54
f 163//55 164//55 165//55
f 166//56 167//56 168//56
f 169//57 170//57 171//57
f 172//58 173//58 174//58
f 175//59 176//59 177//59
f 178//60 179//60 180//60
f 181//61 182//61 183//61
f 184//62 185//62 186//62
f 187//63 188//63 189//63
f 190//64 191//64 192//64
f 193//65 194//65 195//65
f 196//66 197//66 198//66
f 199//67 200//67 201//67
f 202//68 203//68 204//68
f 205//69 206//69 207//69
f 208//70 209//70 210//70
f 211//71 212//71 213//71
f 214//72 215//72 216//72
f 217//73 218//73 219//73
f 220//74 221//74 222//74
