# Static Concept B graybox, metres, identity world transform.
v -64.126284 1.705798 -12
v -65.986011 1.718761 -12.192824
v -66.005577 1.717667 -12
v -66.005577 1.717667 -12
v -61.510006 1.68756 -11.728733
v -64.126284 1.705798 -12
v -66.005577 1.717667 -12
v -61.62748 1.681326 -10.62421
v -61.510006 1.68756 -11.728733
v -66.005577 1.717667 -12
v -66.121344 1.711192 -10.859111
v -61.62748 1.681326 -10.62421
v -61.62748 1.681326 -10.62421
v -65.467521 1.698274 -9.467521
v -61.626844 1.674756 -9.584515
v -61.62748 1.681326 -10.62421
v -66.123124 1.706555 -10.123124
v -65.467521 1.698274 -9.467521
v -61.62748 1.681326 -10.62421
v -66.121344 1.711192 -10.859111
v -66.123124 1.706555 -10.123124
v -66.123124 1.706555 -10.123124
v -66.124757 1.702298 -9.4475
v -65.467521 1.698274 -9.467521
v -61.626844 1.674756 -9.584515
v -63.545589 1.673997 -7.545589
v -61.529509 1.6619 -7.646393
v -61.626844 1.674756 -9.584515
v -65.467521 1.698274 -9.467521
v -63.545589 1.673997 -7.545589
v -65.467521 1.698274 -9.467521
v -66.023894 1.688867 -7.421673
v -63.545589 1.673997 -7.545589
v -65.467521 1.698274 -9.467521
v -66.124757 1.702298 -9.4475
v -66.023894 1.688867 -7.421673
v -61.529509 1.6619 -7.646393
v -61.653275 1.650094 -5.653275
v -61.43041 1.648757 -5.664418
v -61.529509 1.6619 -7.646393
v -63.545589 1.673997 -7.545589
v -61.653275 1.650094 -5.653275
v -63.545589 1.673997 -7.545589
v -65.924796 1.675723 -5.439699
v -61.653275 1.650094 -5.653275
v -63.545589 1.673997 -7.545589
v -66.023894 1.688867 -7.421673
v -65.924796 1.675723 -5.439699
v -61.43041 1.648757 -5.664418
v -61.653275 1.650094 -5.653275
v -61.418094 1.647123 -5.418094
v -61.653275 1.650094 -5.653275
v -61.347189 1.637719 -4
v -61.418094 1.647123 -5.418094
v -61.653275 1.650094 -5.653275
v -65.852811 1.666176 -4
v -61.347189 1.637719 -4
v -61.653275 1.650094 -5.653275
v -65.924796 1.675723 -5.439699
v -65.852811 1.666176 -4
v -65.852811 1.666176 -4
v -61.331311 1.635613 -3.682444
v -61.347189 1.637719 -4
v -65.852811 1.666176 -4
v -65.825697 1.66258 -3.457725
v -61.331311 1.635613 -3.682444
v -61.331311 1.635613 -3.682444
v -65.487695 1.648002 -1.487695
v -61.232213 1.62247 -1.700469
v -61.331311 1.635613 -3.682444
v -65.739801 1.651187 -1.739801
v -65.487695 1.648002 -1.487695
v -61.331311 1.635613 -3.682444
v -65.825697 1.66258 -3.457725
v -65.739801 1.651187 -1.739801
v -65.739801 1.651187 -1.739801
v -65.726598 1.649436 -1.47575
v -65.487695 1.648002 -1.487695
v -61.232213 1.62247 -1.700469
v -63.595382 1.6241 0.404618
v -61.133114 1.609326 0.281505
v -61.232213 1.62247 -1.700469
v -65.487695 1.648002 -1.487695
v -63.595382 1.6241 0.404618
v -65.487695 1.648002 -1.487695
v -65.6275 1.636292 0.506224
v -63.595382 1.6241 0.404618
v -65.487695 1.648002 -1.487695
v -65.726598 1.649436 -1.47575
v -65.6275 1.636292 0.506224
v -61.133114 1.609326 0.281505
v -61.703068 1.600197 2.296932
v -61.034015 1.596182 2.263479
v -61.133114 1.609326 0.281505
v -63.595382 1.6241 0.404618
v -61.703068 1.600197 2.296932
v -63.595382 1.6241 0.404618
v -65.528401 1.623149 2.488199
v -61.703068 1.600197 2.296932
v -63.595382 1.6241 0.404618
v -65.6275 1.636292 0.506224
v -65.528401 1.623149 2.488199
v -61.034015 1.596182 2.263479
v -61.703068 1.600197 2.296932
v -60.997041 1.591278 3.002959
v -61.703068 1.600197 2.296932
v -60.947189 1.584666 4
v -60.997041 1.591278 3.002959
v -61.703068 1.600197 2.296932
v -65.452811 1.613123 4
v -60.947189 1.584666 4
v -61.703068 1.600197 2.296932
v -65.528401 1.623149 2.488199
v -65.452811 1.613123 4
v -65.452811 1.613123 4
v -60.934917 1.583039 4.245454
v -60.947189 1.584666 4
v -65.452811 1.613123 4
v -65.429302 1.610005 4.470173
v -60.934917 1.583039 4.245454
v -60.934917 1.583039 4.245454
v -65.330203 1.596861 6.452147
v -60.835818 1.569895 6.227428
v -60.934917 1.583039 4.245454
v -65.429302 1.610005 4.470173
v -65.330203 1.596861 6.452147
v -60.835818 1.569895 6.227428
v -63.645175 1.574202 8.354825
v -60.736719 1.556751 8.209403
v -60.835818 1.569895 6.227428
v -65.318748 1.595342 6.681252
v -63.645175 1.574202 8.354825
v -60.835818 1.569895 6.227428
v -65.330203 1.596861 6.452147
v -65.318748 1.595342 6.681252
v -65.318748 1.595342 6.681252
v -65.231105 1.583718 8.434122
v -63.645175 1.574202 8.354825
v -60.736719 1.556751 8.209403
v -61.752861 1.550299 10.247139
v -60.63762 1.543608 10.191377
v -60.736719 1.556751 8.209403
v -63.645175 1.574202 8.354825
v -61.752861 1.550299 10.247139
v -63.645175 1.574202 8.354825
v -65.132006 1.570574 10.416096
v -61.752861 1.550299 10.247139
v -63.645175 1.574202 8.354825
v -65.231105 1.583718 8.434122
v -65.132006 1.570574 10.416096
v -60.63762 1.543608 10.191377
v -61.752861 1.550299 10.247139
v -60.575989 1.535434 11.424011
v -61.752861 1.550299 10.247139
v -60.547189 1.531614 12
v -60.575989 1.535434 11.424011
v -61.752861 1.550299 10.247139
v -65.052811 1.56007 12
v -60.547189 1.531614 12
v -61.752861 1.550299 10.247139
v -65.132006 1.570574 10.416096
v -65.052811 1.56007 12
v -65.052811 1.56007 12
v -60.538522 1.530464 12.173351
v -60.547189 1.531614 12
v -65.052811 1.56007 12
v -65.032907 1.557431 12.398071
v -60.538522 1.530464 12.173351
v -60.538522 1.530464 12.173351
v -64.933808 1.544287 14.380045
v -60.439423 1.517321 14.155326
v -60.538522 1.530464 12.173351
v -65.032907 1.557431 12.398071
v -64.933808 1.544287 14.380045
v -60.439423 1.517321 14.155326
v -63.694968 1.524305 16.305032
v -60.340324 1.504177 16.1373
v -60.439423 1.517321 14.155326
v -64.897696 1.539497 15.102304
v -63.694968 1.524305 16.305032
v -60.439423 1.517321 14.155326
v -64.933808 1.544287 14.380045
v -64.897696 1.539497 15.102304
v -64.897696 1.539497 15.102304
v -64.83471 1.531143 16.362019
v -63.694968 1.524305 16.305032
v -60.340324 1.504177 16.1373
v -61.802654 1.500402 18.197346
v -60.241226 1.491033 18.119275
v -60.340324 1.504177 16.1373
v -63.694968 1.524305 16.305032
v -61.802654 1.500402 18.197346
v -63.694968 1.524305 16.305032
v -64.735611 1.518 18.343994
v -61.802654 1.500402 18.197346
v -63.694968 1.524305 16.305032
v -64.83471 1.531143 16.362019
v -64.735611 1.518 18.343994
v -60.241226 1.491033 18.119275
v -61.802654 1.500402 18.197346
v -60.154936 1.479589 19.845064
v -61.802654 1.500402 18.197346
v -60.147189 1.478561 20
v -60.154936 1.479589 19.845064
v -61.802654 1.500402 18.197346
v -64.652811 1.507018 20
v -60.147189 1.478561 20
v -61.802654 1.500402 18.197346
v -64.735611 1.518 18.343994
v -64.652811 1.507018 20
v -64.652811 1.507018 20
v -60.142127 1.47789 20.101249
v -60.147189 1.478561 20
v -64.652811 1.507018 20
v -64.636512 1.504856 20.325968
v -60.142127 1.47789 20.101249
v -60.142127 1.47789 20.101249
v -64.537414 1.491712 22.307943
v -60.043028 1.464746 22.083223
v -60.142127 1.47789 20.101249
v -64.636512 1.504856 20.325968
v -64.537414 1.491712 22.307943
v -60.043028 1.464746 22.083223
v -60 1.451939 24.068001
v -60 1.459039 22.943785
v -60.043028 1.464746 22.083223
v -63.744761 1.474408 24.255239
v -60 1.451939 24.068001
v -60.043028 1.464746 22.083223
v -64.476643 1.483652 23.523357
v -63.744761 1.474408 24.255239
v -60.043028 1.464746 22.083223
v -64.537414 1.491712 22.307943
v -64.476643 1.483652 23.523357
v -64.476643 1.483652 23.523357
v -64.438315 1.478569 24.289917
v -63.744761 1.474408 24.255239
v -60 1.451939 24.068001
v -59.943929 1.451603 24.065198
v -60 1.459039 22.943785
v -60 1.451939 24.068001
v -61.856791 1.450559 26.143209
v -60 1.439646 26.014366
v -60 1.451939 24.068001
v -63.744761 1.474408 24.255239
v -61.856791 1.450559 26.143209
v -63.744761 1.474408 24.255239
v -64.336626 1.465135 26.315286
v -61.856791 1.450559 26.143209
v -63.744761 1.474408 24.255239
v -64.438315 1.478569 24.289917
v -64.336626 1.465135 26.315286
v -60 1.439646 26.014366
v -59.943929 1.451603 24.065198
v -60 1.451939 24.068001
v -60 1.439646 26.014366
v -59.847421 1.438749 26.003778
v -59.943929 1.451603 24.065198
v -60 1.439646 26.014366
v -60.805876 1.437285 27.194124
v -60 1.432972 27.071057
v -60 1.439646 26.014366
v -61.856791 1.450559 26.143209
v -60.805876 1.437285 27.194124
v -61.856791 1.450559 26.143209
v -64.193685 1.455414 27.711481
v -60.805876 1.437285 27.194124
v -61.856791 1.450559 26.143209
v -64.336626 1.465135 26.315286
v -64.193685 1.455414 27.711481
v -60 1.432972 27.071057
v -59.847421 1.438749 26.003778
v -60 1.439646 26.014366
v -60 1.432972 27.071057
v -59.745257 1.431609 27.032155
v -59.847421 1.438749 26.003778
v -60 1.432972 27.071057
v -60.805876 1.437285 27.194124
v -60 1.427105 28
v -60.805876 1.437285 27.194124
v -64.135153 1.453222 28
v -60 1.427105 28
v -60.805876 1.437285 27.194124
v -64.193685 1.455414 27.711481
v -64.135153 1.453222 28
v -64.135153 1.453222 28
v -60 1.425769 28.211641
v -60 1.427105 28
v -64.135153 1.453222 28
v -63.928717 1.445491 29.017574
v -60 1.425769 28.211641
v -59.544062 1.424226 28
v -60 1.432972 27.071057
v -60 1.427105 28
v -59.544062 1.424226 28
v -59.745257 1.431609 27.032155
v -60 1.432972 27.071057
v -60 1.427105 28
v -59.520514 1.423361 28.11328
v -59.544062 1.424226 28
v -60 1.427105 28
v -59.824384 1.424887 28.175616
v -59.520514 1.423361 28.11328
v -60 1.427105 28
v -60 1.425769 28.211641
v -59.824384 1.424887 28.175616
vn 0.006316 0.99996 0.006316
vn 0.006316 0.99996 0.006316
vn 0.006316 0.99996 0.006316
vn 0.006316 0.99996 0.006316
vn 0.006316 0.99996 0.006316
vn 0.006316 0.99996 0.006316
vn 0.006316 0.99996 0.006316
vn 0.006316 0.99996 0.006316
vn 0.006316 0.99996 0.006316
vn 0.006316 0.99996 0.006316
vn 0.006316 0.99996 0.006316
vn 0.006316 0.99996 0.006316
vn 0.006316 0.99996 0.006316
vn 0.006316 0.99996 0.006316
vn 0.006316 0.99996 0.006316
vn 0.006316 0.99996 0.006316
vn 0.006316 0.99996 0.006316
vn 0.006316 0.99996 0.006316
vn 0.006316 0.99996 0.006316
vn 0.006316 0.99996 0.006316
vn 0.006316 0.99996 0.006316
vn 0.006316 0.99996 0.006316
vn 0.006316 0.99996 0.006316
vn 0.006316 0.99996 0.006316
vn 0.006316 0.99996 0.006316
vn 0.006316 0.99996 0.006316
vn 0.006316 0.99996 0.006316
vn 0.006316 0.99996 0.006316
vn 0.006316 0.99996 0.006316
vn 0.006316 0.99996 0.006316
vn 0.006316 0.99996 0.006316
vn 0.006316 0.99996 0.006316
vn 0.006316 0.99996 0.006316
vn 0.006316 0.99996 0.006316
vn 0.006316 0.99996 0.006316
vn 0.006316 0.99996 0.006316
vn 0.006316 0.99996 0.006316
vn 0.006316 0.99996 0.006316
vn 0.006316 0.99996 0.006316
vn 0.006316 0.99996 0.006316
vn 0.006316 0.99996 0.006316
vn 0.006316 0.99996 0.006316
vn 0.006316 0.99996 0.006316
vn 0.006316 0.99996 0.006316
vn 0.006316 0.99996 0.006316
vn 0.006316 0.99996 0.006316
vn 0.006316 0.99996 0.006316
vn 0.006316 0.99996 0.006316
vn 0.006316 0.99996 0.006316
vn 0.006316 0.99996 0.006316
vn 0.006316 0.99996 0.006316
vn 0.006316 0.99996 0.006316
vn 0.006316 0.99996 0.006316
vn 0.006316 0.99996 0.006316
vn 0.006316 0.99996 0.006316
vn 0.006316 0.99996 0.006316
vn 0.006316 0.99996 0.006316
vn 0.006316 0.99996 0.006316
vn 0.006316 0.99996 0.006316
vn 0.006316 0.99996 0.006316
vn 0.006316 0.99996 0.006316
vn 0.006316 0.99996 0.006316
vn 0.006316 0.99996 0.006316
vn 0.006316 0.99996 0.006316
vn 0.006316 0.99996 0.006316
vn 0.006316 0.99996 0.006316
vn 0.006316 0.99996 0.006316
vn 0.006316 0.99996 0.006316
vn 0.006316 0.99996 0.006316
vn 0.006316 0.99996 0.006316
vn 0.006316 0.99996 0.006316
vn 0.006316 0.99996 0.006316
vn 0.006316 0.99996 0.006316
vn 0.006316 0.99996 0.006316
vn 0.006316 0.99996 0.006316
vn 0.006316 0.99996 0.006316
vn 0.006316 0.99996 0.006316
vn 0.006316 0.99996 0.006316
vn 0.006316 0.99996 0.006316
vn 0.006316 0.99996 0.006316
vn 0.006316 0.99996 0.006316
vn 0.006316 0.99996 0.006316
vn 0.006316 0.99996 0.006316
vn 0.006316 0.99996 0.006316
vn 0.006316 0.99996 0.006316
vn 0.006316 0.99996 0.006316
vn 0.006316 0.99996 0.006316
vn 0.006316 0.99996 0.006316
vn 0.006316 0.99996 0.006316
vn 0.006316 0.99996 0.006316
vn 0.006316 0.99996 0.006316
vn 0.006316 0.99996 0.006316
vn 0.006316 0.99996 0.006316
vn 0.006316 0.99996 0.006316
vn 0.006316 0.99996 0.006316
vn 0.006316 0.99996 0.006316
vn 0.006316 0.99996 0.006316
vn 0.006316 0.99996 0.006316
vn 0.006316 0.99996 0.006316
vn 0.006316 0.99996 0.006316
vn 0.006316 0.99996 0.006316
vn 0.006316 0.99996 0.006316
f 1//1 2//1 3//1
f 4//2 5//2 6//2
f 7//3 8//3 9//3
f 10//4 11//4 12//4
f 13//5 14//5 15//5
f 16//6 17//6 18//6
f 19//7 20//7 21//7
f 22//8 23//8 24//8
f 25//9 26//9 27//9
f 28//10 29//10 30//10
f 31//11 32//11 33//11
f 34//12 35//12 36//12
f 37//13 38//13 39//13
f 40//14 41//14 42//14
f 43//15 44//15 45//15
f 46//16 47//16 48//16
f 49//17 50//17 51//17
f 52//18 53//18 54//18
f 55//19 56//19 57//19
f 58//20 59//20 60//20
f 61//21 62//21 63//21
f 64//22 65//22 66//22
f 67//23 68//23 69//23
f 70//24 71//24 72//24
f 73//25 74//25 75//25
f 76//26 77//26 78//26
f 79//27 80//27 81//27
f 82//28 83//28 84//28
f 85//29 86//29 87//29
f 88//30 89//30 90//30
f 91//31 92//31 93//31
f 94//32 95//32 96//32
f 97//33 98//33 99//33
f 100//34 101//34 102//34
f 103//35 104//35 105//35
f 106//36 107//36 108//36
f 109//37 110//37 111//37
f 112//38 113//38 114//38
f 115//39 116//39 117//39
f 118//40 119//40 120//40
f 121//41 122//41 123//41
f 124//42 125//42 126//42
f 127//43 128//43 129//43
f 130//44 131//44 132//44
f 133//45 134//45 135//45
f 136//46 137//46 138//46
f 139//47 140//47 141//47
f 142//48 143//48 144//48
f 145//49 146//49 147//49
f 148//50 149//50 150//50
f 151//51 152//51 153//51
f 154//52 155//52 156//52
f 157//53 158//53 159//53
f 160//54 161//54 162//54
f 163//55 164//55 165//55
f 166//56 167//56 168//56
f 169//57 170//57 171//57
f 172//58 173//58 174//58
f 175//59 176//59 177//59
f 178//60 179//60 180//60
f 181//61 182//61 183//61
f 184//62 185//62 186//62
f 187//63 188//63 189//63
f 190//64 191//64 192//64
f 193//65 194//65 195//65
f 196//66 197//66 198//66
f 199//67 200//67 201//67
f 202//68 203//68 204//68
f 205//69 206//69 207//69
f 208//70 209//70 210//70
f 211//71 212//71 213//71
f 214//72 215//72 216//72
f 217//73 218//73 219//73
f 220//74 221//74 222//74
f 223//75 224//75 225//75
f 226//76 227//76 228//76
f 229//77 230//77 231//77
f 232//78 233//78 234//78
f 235//79 236//79 237//79
f 238//80 239//80 240//80
f 241//81 242//81 243//81
f 244//82 245//82 246//82
f 247//83 248//83 249//83
f 250//84 251//84 252//84
f 253//85 254//85 255//85
f 256//86 257//86 258//86
f 259//87 260//87 261//87
f 262//88 263//88 264//88
f 265//89 266//89 267//89
f 268//90 269//90 270//90
f 271//91 272//91 273//91
f 274//92 275//92 276//92
f 277//93 278//93 279//93
f 280//94 281//94 282//94
f 283//95 284//95 285//95
f 286//96 287//96 288//96
f 289//97 290//97 291//97
f 292//98 293//98 294//98
f 295//99 296//99 297//99
f 298//100 299//100 300//100
f 301//101 302//101 303//101
f 304//102 305//102 306//102
