# Static Concept B graybox, metres, identity world transform.
v -60 1.42695 28.024535
v -63.484622 1.433522 30.468591
v -60 1.419185 29.254035
v -60 1.42695 28.024535
v -63.871503 1.443733 29.238757
v -63.484622 1.433522 30.468591
v -59.544001 1.424225 28
v -59.577727 1.42512 27.892098
v -59.92177 1.426611 28
v -59.92177 1.426611 28
v -59.336666 1.418726 28.663334
v -59.544001 1.424225 28
v -59.92177 1.426611 28
v -59.981323 1.426869 28.018677
v -59.336666 1.418726 28.663334
v -59.981323 1.426869 28.018677
v -59.235339 1.416039 28.987514
v -59.336666 1.418726 28.663334
v -59.981323 1.426869 28.018677
v -60 1.419185 29.254035
v -59.235339 1.416039 28.987514
v -59.981323 1.426869 28.018677
v -60 1.42695 28.024535
v -60 1.419185 29.254035
v -60 1.419185 29.254035
v -62.780944 1.417071 32.369733
v -60 1.406012 31.339754
v -60 1.419185 29.254035
v -63.484622 1.433522 30.468591
v -62.780944 1.417071 32.369733
v -59.235339 1.416039 28.987514
v -60 1.406012 31.339754
v -58.561074 1.40029 30.806819
v -59.235339 1.416039 28.987514
v -60 1.419185 29.254035
v -60 1.406012 31.339754
v -60 1.406012 31.339754
v -61.857051 1.400036 34.142949
v -60 1.392652 33.455152
v -60 1.406012 31.339754
v -62.281342 1.405396 33.718658
v -61.857051 1.400036 34.142949
v -60 1.406012 31.339754
v -62.780944 1.417071 32.369733
v -62.281342 1.405396 33.718658
v -62.281342 1.405396 33.718658
v -62.091972 1.400971 34.229957
v -61.857051 1.400036 34.142949
v -58.561074 1.40029 30.806819
v -60 1.392652 33.455152
v -57.872103 1.38419 32.667042
v -58.561074 1.40029 30.806819
v -60 1.406012 31.339754
v -60 1.392652 33.455152
v -60 1.392652 33.455152
v -60.313382 1.380537 35.686618
v -60 1.379291 35.57055
v -60 1.392652 33.455152
v -61.857051 1.400036 34.142949
v -60.313382 1.380537 35.686618
v -61.857051 1.400036 34.142949
v -61.159515 1.383902 36
v -60.313382 1.380537 35.686618
v -61.857051 1.400036 34.142949
v -61.4364 1.385651 36
v -61.159515 1.383902 36
v -61.857051 1.400036 34.142949
v -62.091972 1.400971 34.229957
v -61.4364 1.385651 36
v -61.4364 1.385651 36
v -61.403 1.384849 36.09018
v -61.159515 1.383902 36
v -57.872103 1.38419 32.667042
v -60 1.379291 35.57055
v -57.183131 1.36809 34.527265
v -57.872103 1.38419 32.667042
v -60 1.392652 33.455152
v -60 1.379291 35.57055
v -60 1.379291 35.57055
v -60.313382 1.380537 35.686618
v -60 1.376579 36
v -60.313382 1.380537 35.686618
v -61.159515 1.383902 36
v -60 1.376579 36
v -61.159515 1.383902 36
v -60 1.365525 37.685948
v -60 1.376579 36
v -61.159515 1.383902 36
v -60.714029 1.368301 37.950403
v -60 1.365525 37.685948
v -61.159515 1.383902 36
v -61.403 1.384849 36.09018
v -60.714029 1.368301 37.950403
v -57.183131 1.36809 34.527265
v -60 1.376579 36
v -56.637674 1.355343 36
v -57.183131 1.36809 34.527265
v -60 1.379291 35.57055
v -60 1.376579 36
v -60 1.376579 36
v -56.494159 1.35199 36.387488
v -56.637674 1.355343 36
v -60 1.376579 36
v -58.769714 1.361038 37.230286
v -56.494159 1.35199 36.387488
v -60 1.376579 36
v -60 1.365525 37.685948
v -58.769714 1.361038 37.230286
v -60 1.365525 37.685948
v -60.025057 1.351753 39.810626
v -60 1.351656 39.801346
v -60 1.365525 37.685948
v -60.714029 1.368301 37.950403
v -60.025057 1.351753 39.810626
v -56.494159 1.35199 36.387488
v -57.226045 1.34154 38.773955
v -55.805188 1.335889 38.247712
v -56.494159 1.35199 36.387488
v -58.769714 1.361038 37.230286
v -57.226045 1.34154 38.773955
v -58.769714 1.361038 37.230286
v -60 1.351656 39.801346
v -57.226045 1.34154 38.773955
v -58.769714 1.361038 37.230286
v -60 1.365525 37.685948
v -60 1.351656 39.801346
v -60 1.351656 39.801346
v -60.025057 1.351753 39.810626
v -60 1.351152 39.878281
v -55.805188 1.335889 38.247712
v -55.682376 1.322041 40.317624
v -55.116216 1.319789 40.107935
v -55.805188 1.335889 38.247712
v -57.226045 1.34154 38.773955
v -55.682376 1.322041 40.317624
v -57.226045 1.34154 38.773955
v -59.336086 1.335365 41.670849
v -55.682376 1.322041 40.317624
v -57.226045 1.34154 38.773955
v -60 1.351152 39.878281
v -59.336086 1.335365 41.670849
v -57.226045 1.34154 38.773955
v -60 1.351656 39.801346
v -60 1.351152 39.878281
v -55.116216 1.319789 40.107935
v -55.682376 1.322041 40.317624
v -54.659835 1.309124 41.340165
v -55.682376 1.322041 40.317624
v -54.427245 1.303594 41.968158
v -54.659835 1.309124 41.340165
v -55.682376 1.322041 40.317624
v -58.647114 1.318983 43.531073
v -54.427245 1.303594 41.968158
v -55.682376 1.322041 40.317624
v -59.336086 1.335365 41.670849
v -58.647114 1.318983 43.531073
v -54.427245 1.303594 41.968158
v -54.201644 1.288902 44
v -53.738273 1.287212 43.828381
v -54.427245 1.303594 41.968158
v -58.473437 1.314854 44
v -54.201644 1.288902 44
v -54.427245 1.303594 41.968158
v -58.647114 1.318983 43.531073
v -58.473437 1.314854 44
v -58.473437 1.314854 44
v -57.958143 1.302936 45.391296
v -54.201644 1.288902 44
v -53.738273 1.287212 43.828381
v -54.201644 1.288902 44
v -53.674711 1.285701 44
v -54.201644 1.288902 44
v -53.049302 1.271236 45.688605
v -53.674711 1.285701 44
v -54.201644 1.288902 44
v -56.889208 1.285582 47.110792
v -53.049302 1.271236 45.688605
v -54.201644 1.288902 44
v -57.575459 1.294086 46.424541
v -56.889208 1.285582 47.110792
v -54.201644 1.288902 44
v -57.958143 1.302936 45.391296
v -57.575459 1.294086 46.424541
v -57.575459 1.294086 46.424541
v -57.269171 1.288954 47.251519
v -56.889208 1.285582 47.110792
v -53.049302 1.271236 45.688605
v -55.332561 1.266294 48.667439
v -52.374749 1.255629 47.510949
v -53.049302 1.271236 45.688605
v -56.889208 1.285582 47.110792
v -55.332561 1.266294 48.667439
v -56.889208 1.285582 47.110792
v -56.565781 1.277171 49.149621
v -55.332561 1.266294 48.667439
v -56.889208 1.285582 47.110792
v -57.269171 1.288954 47.251519
v -56.565781 1.277171 49.149621
v -52.374749 1.255629 47.510949
v -52 1.247569 48.426578
v -52 1.247781 48.393077
v -52.374749 1.255629 47.510949
v -54.405525 1.254807 49.594475
v -52 1.247569 48.426578
v -52.374749 1.255629 47.510949
v -55.332561 1.266294 48.667439
v -54.405525 1.254807 49.594475
v -55.332561 1.266294 48.667439
v -56.036319 1.268795 50.386236
v -54.405525 1.254807 49.594475
v -55.332561 1.266294 48.667439
v -56.565781 1.277171 49.149621
v -56.036319 1.268795 50.386236
v -52 1.247569 48.426578
v -51.988201 1.247531 48.42085
v -52 1.247781 48.393077
v -52 1.247569 48.426578
v -53.526975 1.243921 50.473025
v -52 1.240547 49.538371
v -52 1.247569 48.426578
v -54.405525 1.254807 49.594475
v -53.526975 1.243921 50.473025
v -54.405525 1.254807 49.594475
v -55.371223 1.25914 51.601879
v -53.526975 1.243921 50.473025
v -54.405525 1.254807 49.594475
v -56.036319 1.268795 50.386236
v -55.371223 1.25914 51.601879
v -52 1.240547 49.538371
v -51.988201 1.247531 48.42085
v -52 1.247569 48.426578
v -52 1.240547 49.538371
v -51.533135 1.239403 49.252606
v -51.988201 1.247531 48.42085
v -52 1.240547 49.538371
v -52.688739 1.233534 51.311261
v -52 1.232633 50.791423
v -52 1.240547 49.538371
v -53.526975 1.243921 50.473025
v -52.688739 1.233534 51.311261
v -53.526975 1.243921 50.473025
v -53.601258 1.240731 52
v -52.688739 1.233534 51.311261
v -53.526975 1.243921 50.473025
v -55.100076 1.255455 52
v -53.601258 1.240731 52
v -53.526975 1.243921 50.473025
v -55.371223 1.25914 51.601879
v -55.100076 1.255455 52
v -55.100076 1.255455 52
v -54.5912 1.245737 52.747176
v -53.601258 1.240731 52
v -52 1.232633 50.791423
v -51.533135 1.239403 49.252606
v -52 1.240547 49.538371
v -52 1.232633 50.791423
v -50.999435 1.231083 50.03623
v -51.533135 1.239403 49.252606
v -52 1.232633 50.791423
v -52.688739 1.233534 51.311261
v -52 1.225 52
v -52.688739 1.233534 51.311261
v -53.601258 1.240731 52
v -52 1.225 52
v -53.601258 1.240731 52
v -52 1.223461 52.243742
v -52 1.225 52
v -53.601258 1.240731 52
v -53.703626 1.230296 53.811297
v -52 1.223461 52.243742
v -53.601258 1.240731 52
v -54.5912 1.245737 52.747176
v -53.703626 1.230296 53.811297
v -51.735099 1.223327 52
v -52 1.232633 50.791423
v -52 1.225 52
v -51.735099 1.223327 52
v -50.999435 1.231083 50.03623
v -52 1.232633 50.791423
v -51.735099 1.223327 52
v -50.392148 1.222649 50.764313
v -50.999435 1.231083 50.03623
v -52 1.225 52
v -51.873059 1.223397 52.126941
v -51.735099 1.223327 52
v -52 1.225 52
v -52 1.223461 52.243742
v -51.873059 1.223397 52.126941
v -52 1.223461 52.243742
v -52.716895 1.214458 54.78418
v -52 1.212478 53.982609
v -52 1.223461 52.243742
v -53.703626 1.230296 53.811297
v -52.716895 1.214458 54.78418
v -50.22683 1.213801 52
v -50.392148 1.222649 50.764313
v -51.735099 1.223327 52
v -50.22683 1.213801 52
v -49.717016 1.214181 51.429969
v -50.392148 1.222649 50.764313
v -51.735099 1.223327 52
v -51.063975 1.213177 52.936025
v -50.22683 1.213801 52
v -51.735099 1.223327 52
v -51.873059 1.223397 52.126941
v -51.063975 1.213177 52.936025
v -51.873059 1.223397 52.126941
v -52 1.212478 53.982609
v -51.063975 1.213177 52.936025
v -51.873059 1.223397 52.126941
v -52 1.223461 52.243742
v -52 1.212478 53.982609
v -52 1.212478 53.982609
v -52.716895 1.214458 54.78418
v -52 1.203731 55.367633
v -49.009994 1.206116 52
v -49.717016 1.214181 51.429969
v -50.22683 1.213801 52
v -50.22683 1.213801 52
v -48.893756 1.20479 52.093716
v -49.009994 1.206116 52
v -50.22683 1.213801 52
v -50.242274 1.202797 53.757726
v -48.893756 1.20479 52.093716
v -50.22683 1.213801 52
v -51.063975 1.213177 52.936025
v -50.242274 1.202797 53.757726
v -51.063975 1.213177 52.936025
v -51.727002 1.200603 55.589816
v -50.242274 1.202797 53.757726
v -51.063975 1.213177 52.936025
v -52 1.203731 55.367633
v -51.727002 1.200603 55.589816
v -51.063975 1.213177 52.936025
v -52 1.212478 53.982609
v -52 1.203731 55.367633
vn 0.006316 0.99996 0.006316
vn 0.006316 0.99996 0.006316
vn 0.006316 0.99996 0.006316
vn 0.006316 0.99996 0.006316
vn 0.006316 0.99996 0.006316
vn 0.006316 0.99996 0.006316
vn 0.006316 0.99996 0.006316
vn 0.006316 0.99996 0.006316
vn 0.006316 0.99996 0.006316
vn 0.006316 0.99996 0.006316
vn 0.006316 0.99996 0.006316
vn 0.006316 0.99996 0.006316
vn 0.006316 0.99996 0.006316
vn 0.006316 0.99996 0.006316
vn 0.006316 0.99996 0.006316
vn 0.006316 0.99996 0.006316
vn 0.006316 0.99996 0.006316
vn 0.006316 0.99996 0.006316
vn 0.006316 0.99996 0.006316
vn 0.006316 0.99996 0.006316
vn 0.006316 0.99996 0.006316
vn 0.006316 0.99996 0.006316
vn 0.006316 0.99996 0.006316
vn 0.006316 0.999959 0.006556
vn 0.006316 0.99996 0.006316
vn 0.006316 0.99996 0.006316
vn 0.006316 0.99996 0.006316
vn 0.006316 0.99996 0.006316
vn 0.006316 0.999959 0.006556
vn 0.006316 0.999959 0.006556
vn 0.006316 0.999959 0.006556
vn 0.006316 0.99996 0.006316
vn 0.006316 0.99996 0.006316
vn 0.006316 0.99996 0.006316
vn 0.006316 0.99996 0.006316
vn 0.006075 0.99996 0.006556
vn 0.006316 0.999959 0.006556
vn 0.006316 0.999959 0.006556
vn 0.006316 0.99996 0.006316
vn 0.006316 0.99996 0.006316
vn 0.006075 0.99996 0.006556
vn 0.006075 0.99996 0.006556
vn 0.006316 0.999959 0.006556
vn 0.006316 0.99996 0.006316
vn 0.006316 0.99996 0.006316
vn 0.006075 0.99996 0.006556
vn 0.006075 0.99996 0.006556
vn 0.006075 0.99996 0.006556
vn 0.006316 0.99996 0.006316
vn 0.006075 0.99996 0.006556
vn 0.006075 0.99996 0.006556
vn 0.006075 0.99996 0.006556
vn 0.006075 0.99996 0.006556
vn 0.006075 0.99996 0.006556
vn 0.006075 0.99996 0.006556
vn 0.006075 0.999962 0.006316
vn 0.006075 0.99996 0.006556
vn 0.006075 0.999962 0.006316
vn 0.006075 0.999962 0.006316
vn 0.006075 0.999962 0.006316
vn 0.006075 0.999962 0.006316
vn 0.009823 0.999948 0.002567
vn 0.006075 0.999962 0.006316
vn 0.006075 0.999962 0.006316
vn 0.009823 0.999948 0.002567
vn 0.009823 0.999948 0.002567
vn 0.006075 0.999962 0.006316
vn 0.006075 0.999962 0.006316
vn 0.006075 0.999962 0.006316
vn 0.009823 0.999948 0.002567
vn 0.009823 0.999948 0.002567
vn 0.006316 0.99996 0.006316
vn 0.006075 0.999962 0.006316
vn 0.006075 0.999962 0.006316
vn 0.009823 0.999948 0.002567
vn 0.009823 0.999948 0.002567
vn 0.006316 0.99996 0.006316
vn 0.006316 0.99996 0.006316
vn 0.006075 0.999962 0.006316
vn 0.006075 0.999962 0.006316
vn 0.009823 0.999948 0.002567
vn 0.009823 0.999948 0.002567
vn 0.009823 0.999948 0.002567
vn 0.009823 0.999932 0.006315
vn 0.006316 0.99996 0.006316
vn 0.006316 0.99996 0.006316
vn 0.006075 0.999962 0.006316
vn 0.009823 0.999948 0.002567
vn 0.009823 0.999932 0.006315
vn 0.009823 0.999932 0.006315
vn 0.009823 0.999932 0.006315
vn 0.006316 0.99996 0.006316
vn 0.006316 0.99996 0.006316
vn 0.006316 0.99996 0.006316
vn 0.006316 0.99996 0.006316
vn 0.006316 0.99996 0.006316
vn 0.009823 0.999932 0.006315
vn 0.009823 0.999932 0.006315
vn 0.006316 0.99996 0.006316
vn 0.006316 0.99996 0.006316
vn 0.006316 0.99996 0.006316
vn 0.006316 0.99996 0.006316
vn 0.006316 0.99996 0.006316
vn 0.006316 0.99996 0.006316
vn 0.009823 0.999932 0.006315
vn 0.006316 0.99996 0.006316
vn 0.006316 0.99996 0.006316
vn 0.006316 0.99996 0.006316
vn 0.006316 0.99996 0.006316
vn 0.006316 0.99996 0.006316
vn 0.006316 0.99996 0.006316
vn 0.006316 0.99996 0.006316
f 1//1 2//1 3//1
f 4//2 5//2 6//2
f 7//3 8//3 9//3
f 10//4 11//4 12//4
f 13//5 14//5 15//5
f 16//6 17//6 18//6
f 19//7 20//7 21//7
f 22//8 23//8 24//8
f 25//9 26//9 27//9
f 28//10 29//10 30//10
f 31//11 32//11 33//11
f 34//12 35//12 36//12
f 37//13 38//13 39//13
f 40//14 41//14 42//14
f 43//15 44//15 45//15
f 46//16 47//16 48//16
f 49//17 50//17 51//17
f 52//18 53//18 54//18
f 55//19 56//19 57//19
f 58//20 59//20 60//20
f 61//21 62//21 63//21
f 64//22 65//22 66//22
f 67//23 68//23 69//23
f 70//24 71//24 72//24
f 73//25 74//25 75//25
f 76//26 77//26 78//26
f 79//27 80//27 81//27
f 82//28 83//28 84//28
f 85//29 86//29 87//29
f 88//30 89//30 90//30
f 91//31 92//31 93//31
f 94//32 95//32 96//32
f 97//33 98//33 99//33
f 100//34 101//34 102//34
f 103//35 104//35 105//35
f 106//36 107//36 108//36
f 109//37 110//37 111//37
f 112//38 113//38 114//38
f 115//39 116//39 117//39
f 118//40 119//40 120//40
f 121//41 122//41 123//41
f 124//42 125//42 126//42
f 127//43 128//43 129//43
f 130//44 131//44 132//44
f 133//45 134//45 135//45
f 136//46 137//46 138//46
f 139//47 140//47 141//47
f 142//48 143//48 144//48
f 145//49 146//49 147//49
f 148//50 149//50 150//50
f 151//51 152//51 153//51
f 154//52 155//52 156//52
f 157//53 158//53 159//53
f 160//54 161//54 162//54
f 163//55 164//55 165//55
f 166//56 167//56 168//56
f 169//57 170//57 171//57
f 172//58 173//58 174//58
f 175//59 176//59 177//59
f 178//60 179//60 180//60
f 181//61 182//61 183//61
f 184//62 185//62 186//62
f 187//63 188//63 189//63
f 190//64 191//64 192//64
f 193//65 194//65 195//65
f 196//66 197//66 198//66
f 199//67 200//67 201//67
f 202//68 203//68 204//68
f 205//69 206//69 207//69
f 208//70 209//70 210//70
f 211//71 212//71 213//71
f 214//72 215//72 216//72
f 217//73 218//73 219//73
f 220//74 221//74 222//74
f 223//75 224//75 225//75
f 226//76 227//76 228//76
f 229//77 230//77 231//77
f 232//78 233//78 234//78
f 235//79 236//79 237//79
f 238//80 239//80 240//80
f 241//81 242//81 243//81
f 244//82 245//82 246//82
f 247//83 248//83 249//83
f 250//84 251//84 252//84
f 253//85 254//85 255//85
f 256//86 257//86 258//86
f 259//87 260//87 261//87
f 262//88 263//88 264//88
f 265//89 266//89 267//89
f 268//90 269//90 270//90
f 271//91 272//91 273//91
f 274//92 275//92 276//92
f 277//93 278//93 279//93
f 280//94 281//94 282//94
f 283//95 284//95 285//95
f 286//96 287//96 288//96
f 289//97 290//97 291//97
f 292//98 293//98 294//98
f 295//99 296//99 297//99
f 298//100 299//100 300//100
f 301//101 302//101 303//101
f 304//102 305//102 306//102
f 307//103 308//103 309//103
f 310//104 311//104 312//104
f 313//105 314//105 315//105
f 316//106 317//106 318//106
f 319//107 320//107 321//107
f 322//108 323//108 324//108
f 325//109 326//109 327//109
f 328//110 329//110 330//110
f 331//111 332//111 333//111
f 334//112 335//112 336//112
