# Static Concept B graybox, metres, identity world transform.
v -49.01662 1.206158 52
v -49.070236 1.206721 51.964389
v -49.09376 1.206645 52
v -49.09376 1.206645 52
v -48.189334 1.197462 52.549477
v -49.01662 1.206158 52
v -49.09376 1.206645 52
v -49.403107 1.192197 54.596893
v -48.189334 1.197462 52.549477
v -49.09376 1.206645 52
v -50.249856 1.202893 53.750144
v -49.403107 1.192197 54.596893
v -50.249856 1.202893 53.750144
v -50.484129 1.187508 56.420384
v -49.403107 1.192197 54.596893
v -50.249856 1.202893 53.750144
v -51.550523 1.198672 55.719143
v -50.484129 1.187508 56.420384
v -48.189334 1.197462 52.549477
v -48.517045 1.181005 55.482955
v -47.35123 1.189369 52.992742
v -48.189334 1.197462 52.549477
v -49.403107 1.192197 54.596893
v -48.517045 1.181005 55.482955
v -49.403107 1.192197 54.596893
v -49.259207 1.17568 57.068233
v -48.517045 1.181005 55.482955
v -49.403107 1.192197 54.596893
v -50.484129 1.187508 56.420384
v -49.259207 1.17568 57.068233
v -47.35123 1.189369 52.992742
v -47.566041 1.168992 56.433959
v -46.474036 1.181557 53.35251
v -47.35123 1.189369 52.992742
v -48.517045 1.181005 55.482955
v -47.566041 1.168992 56.433959
v -48.517045 1.181005 55.482955
v -47.977154 1.164262 57.594046
v -47.566041 1.168992 56.433959
v -48.517045 1.181005 55.482955
v -49.259207 1.17568 57.068233
v -47.977154 1.164262 57.594046
v -46.474036 1.181557 53.35251
v -46.522241 1.155807 57.477759
v -45.566046 1.174099 53.625377
v -46.474036 1.181557 53.35251
v -47.566041 1.168992 56.433959
v -46.522241 1.155807 57.477759
v -47.566041 1.168992 56.433959
v -46.650092 1.153362 57.992853
v -46.522241 1.155807 57.477759
v -47.566041 1.168992 56.433959
v -47.977154 1.164262 57.594046
v -46.650092 1.153362 57.992853
v -45.848023 1.147291 58.151977
v -45.566046 1.174099 53.625377
v -46.522241 1.155807 57.477759
v -45.848023 1.147291 58.151977
v -44.595672 1.166772 53.815044
v -45.566046 1.174099 53.625377
v -45.848023 1.147291 58.151977
v -45.330743 1.143376 58.254601
v -44.595672 1.166772 53.815044
v -46.522241 1.155807 57.477759
v -46.650092 1.153362 57.992853
v -45.848023 1.147291 58.151977
v -44 1.162458 53.902527
v -45.330743 1.143376 58.254601
v -44 1.133733 58.450547
v -44 1.162458 53.902527
v -44.595672 1.166772 53.815044
v -45.330743 1.143376 58.254601
v -44 1.133733 58.450547
v -42.683299 1.15292 54.095904
v -44 1.162458 53.902527
v -44 1.133733 58.450547
v -43.338022 1.128937 58.54802
v -42.683299 1.15292 54.095904
v -40.844367 1.134613 55.155633
v -40.730751 1.138775 54.383043
v -41.769751 1.146302 54.230249
v -41.769751 1.146302 54.230249
v -41.385474 1.114791 58.835159
v -40.844367 1.134613 55.155633
v -41.769751 1.146302 54.230249
v -43.338022 1.128937 58.54802
v -41.385474 1.114791 58.835159
v -41.769751 1.146302 54.230249
v -42.683299 1.15292 54.095904
v -43.338022 1.128937 58.54802
v -39.105334 1.112646 56.894666
v -40.730751 1.138775 54.383043
v -40.844367 1.134613 55.155633
v -39.105334 1.112646 56.894666
v -38.778204 1.12463 54.670182
v -40.730751 1.138775 54.383043
v -40.844367 1.134613 55.155633
v -39.432926 1.100646 59.122298
v -39.105334 1.112646 56.894666
v -40.844367 1.134613 55.155633
v -41.385474 1.114791 58.835159
v -39.432926 1.100646 59.122298
v -37.3663 1.09068 58.6337
v -38.778204 1.12463 54.670182
v -39.105334 1.112646 56.894666
v -37.3663 1.09068 58.6337
v -36.825656 1.110484 54.957322
v -38.778204 1.12463 54.670182
v -39.105334 1.112646 56.894666
v -37.480379 1.086501 59.409438
v -37.3663 1.09068 58.6337
v -39.105334 1.112646 56.894666
v -39.432926 1.100646 59.122298
v -37.480379 1.086501 59.409438
v -36 1.104503 55.078742
v -36.437145 1.078943 59.562855
v -36 1.075776 59.627141
v -36 1.104503 55.078742
v -37.3663 1.09068 58.6337
v -36.437145 1.078943 59.562855
v -36 1.104503 55.078742
v -36.825656 1.110484 54.957322
v -37.3663 1.09068 58.6337
v -37.3663 1.09068 58.6337
v -37.480379 1.086501 59.409438
v -36.437145 1.078943 59.562855
v -36 1.075776 59.627141
v -34.873108 1.096339 55.244461
v -36 1.104503 55.078742
v -36 1.075776 59.627141
v -35.527831 1.072355 59.696577
v -34.873108 1.096339 55.244461
v -34.873108 1.096339 55.244461
v -33.575284 1.05821 59.983717
v -32.920561 1.082193 55.5316
v -34.873108 1.096339 55.244461
v -35.527831 1.072355 59.696577
v -33.575284 1.05821 59.983717
v -31.123558 1.06235 56.876442
v -30.968013 1.068048 55.81874
v -32.390441 1.078353 55.609559
v -32.390441 1.078353 55.609559
v -31.582905 1.045524 60
v -31.123558 1.06235 56.876442
v -32.390441 1.078353 55.609559
v -33.464556 1.057408 60
v -31.582905 1.045524 60
v -32.390441 1.078353 55.609559
v -33.575284 1.05821 59.983717
v -33.464556 1.057408 60
v -32.390441 1.078353 55.609559
v -32.920561 1.082193 55.5316
v -33.575284 1.05821 59.983717
v -33.464556 1.057408 60
v -31.622736 1.044146 60.270856
v -31.582905 1.045524 60
v -29.384524 1.040383 58.615476
v -30.968013 1.068048 55.81874
v -31.123558 1.06235 56.876442
v -29.384524 1.040383 58.615476
v -29.015466 1.053903 56.105879
v -30.968013 1.068048 55.81874
v -31.123558 1.06235 56.876442
v -29.588131 1.032925 60
v -29.384524 1.040383 58.615476
v -31.123558 1.06235 56.876442
v -31.582905 1.045524 60
v -29.588131 1.032925 60
v -31.582905 1.045524 60
v -29.670189 1.030088 60.557995
v -29.588131 1.032925 60
v -31.582905 1.045524 60
v -31.622736 1.044146 60.270856
v -29.670189 1.030088 60.557995
v -28 1.046546 56.255212
v -29.384524 1.040383 58.615476
v -28 1.022895 60
v -28 1.046546 56.255212
v -29.015466 1.053903 56.105879
v -29.384524 1.040383 58.615476
v -29.384524 1.040383 58.615476
v -29.588131 1.032925 60
v -28 1.022895 60
v -29.588131 1.032925 60
v -28 1.018062 60.803611
v -28 1.022895 60
v -29.588131 1.032925 60
v -29.670189 1.030088 60.557995
v -28 1.018062 60.803611
v -27.593357 1.020326 60
v -28 1.046546 56.255212
v -28 1.022895 60
v -27.593357 1.020326 60
v -27.062918 1.039757 56.393018
v -28 1.046546 56.255212
v -28 1.022895 60
v -27.645491 1.018417 60.354509
v -27.593357 1.020326 60
v -28 1.022895 60
v -27.717641 1.015944 60.845135
v -27.645491 1.018417 60.354509
v -28 1.022895 60
v -28 1.018062 60.803611
v -27.717641 1.015944 60.845135
v -25.598583 1.007728 60
v -27.062918 1.039757 56.393018
v -27.593357 1.020326 60
v -25.598583 1.007728 60
v -25.110371 1.025612 56.680158
v -27.062918 1.039757 56.393018
v -27.593357 1.020326 60
v -25.765094 1.001628 61.132274
v -25.598583 1.007728 60
v -27.593357 1.020326 60
v -27.057835 1.010994 60.942165
v -25.765094 1.001628 61.132274
v -27.593357 1.020326 60
v -27.645491 1.018417 60.354509
v -27.057835 1.010994 60.942165
v -27.645491 1.018417 60.354509
v -27.717641 1.015944 60.845135
v -27.057835 1.010994 60.942165
v -23.603809 0.995129 60
v -25.110371 1.025612 56.680158
v -25.598583 1.007728 60
v -23.603809 0.995129 60
v -23.157823 1.011466 56.967297
v -25.110371 1.025612 56.680158
v -25.598583 1.007728 60
v -23.812546 0.987483 61.419413
v -23.603809 0.995129 60
v -25.598583 1.007728 60
v -25.765094 1.001628 61.132274
v -23.812546 0.987483 61.419413
v -21.416947 0.990267 58.583053
v -21.244966 0.997606 57.24896
v -23.011098 1.010403 56.988902
v -23.011098 1.010403 56.988902
v -21.599608 0.982471 60
v -21.416947 0.990267 58.583053
v -23.011098 1.010403 56.988902
v -23.603809 0.995129 60
v -21.599608 0.982471 60
v -23.011098 1.010403 56.988902
v -23.157823 1.011466 56.967297
v -23.603809 0.995129 60
v -23.603809 0.995129 60
v -21.820308 0.973052 61.712029
v -21.599608 0.982471 60
v -23.603809 0.995129 60
v -23.812546 0.987483 61.419413
v -21.820308 0.973052 61.712029
v -20.382946 0.977206 59.617054
v -21.244966 0.997606 57.24896
v -21.416947 0.990267 58.583053
v -20.382946 0.977206 59.617054
v -20.270198 0.990836 57.34619
v -21.244966 0.997606 57.24896
v -21.416947 0.990267 58.583053
v -20.401959 0.974907 60
v -20.382946 0.977206 59.617054
v -21.416947 0.990267 58.583053
v -21.599608 0.982471 60
v -20.401959 0.974907 60
v -21.599608 0.982471 60
v -20.493347 0.963859 61.840654
v -20.401959 0.974907 60
v -21.599608 0.982471 60
v -21.820308 0.973052 61.712029
v -20.493347 0.963859 61.840654
v -20 0.989127 57.34657
v -20.382946 0.977206 59.617054
v -20 0.972368 60
v -20 0.989127 57.34657
v -20.270198 0.990836 57.34619
v -20.382946 0.977206 59.617054
v -20.382946 0.977206 59.617054
v -20.401959 0.974907 60
v -20 0.972368 60
v -20.401959 0.974907 60
v -20 0.960739 61.841348
v -20 0.972368 60
v -20.401959 0.974907 60
v -20.493347 0.963859 61.840654
v -20 0.960739 61.841348
v -19.206418 0.967356 60
v -20 0.989127 57.34657
v -20 0.972368 60
v -19.206418 0.967356 60
v -19.33063 0.984893 57.347512
v -20 0.989127 57.34657
v -20 0.972368 60
v -19.16743 0.961852 60.83257
v -19.206418 0.967356 60
v -20 0.972368 60
v -19.120132 0.955174 61.842586
v -19.16743 0.961852 60.83257
v -20 0.972368 60
v -20 0.960739 61.841348
v -19.120132 0.955174 61.842586
v -18.025167 0.959896 60
v -19.33063 0.984893 57.347512
v -19.206418 0.967356 60
v -18.025167 0.959896 60
v -18.287623 0.97895 57.245506
v -19.33063 0.984893 57.347512
v -19.206418 0.967356 60
v -17.860783 0.947961 61.725217
v -18.025167 0.959896 60
v -19.206418 0.967356 60
v -18.239489 0.95013 61.760511
v -17.860783 0.947961 61.725217
v -19.206418 0.967356 60
v -19.16743 0.961852 60.83257
v -18.239489 0.95013 61.760511
v -19.16743 0.961852 60.83257
v -19.120132 0.955174 61.842586
v -18.239489 0.95013 61.760511
vn 0.006316 0.99996 0.006316
vn 0.006316 0.99996 0.006316
vn 0.006316 0.99996 0.006316
vn 0.006316 0.99996 0.006316
vn 0.006316 0.99996 0.006316
vn 0.006316 0.99996 0.006316
vn 0.006316 0.99996 0.006316
vn 0.006316 0.99996 0.006316
vn 0.006316 0.99996 0.006316
vn 0.006316 0.99996 0.006316
vn 0.006316 0.99996 0.006316
vn 0.006316 0.99996 0.006316
vn 0.006316 0.99996 0.006316
vn 0.006316 0.99996 0.006316
vn 0.006316 0.99996 0.006316
vn 0.006316 0.99996 0.006316
vn 0.006316 0.99996 0.006316
vn 0.006316 0.99996 0.006316
vn 0.006316 0.99996 0.006316
vn 0.006316 0.99996 0.006316
vn 0.006316 0.99996 0.006316
vn 0.006316 0.99996 0.006316
vn 0.006316 0.99996 0.006316
vn 0.006316 0.99996 0.006316
vn 0.006316 0.99996 0.006316
vn 0.006316 0.99996 0.006316
vn 0.006316 0.99996 0.006316
vn 0.006316 0.99996 0.006316
vn 0.006316 0.99996 0.006316
vn 0.006316 0.99996 0.006316
vn 0.006316 0.99996 0.006316
vn 0.006316 0.99996 0.006316
vn 0.006316 0.99996 0.006316
vn 0.006316 0.99996 0.006316
vn 0.006316 0.99996 0.006316
vn 0.006316 0.99996 0.006316
vn 0.006316 0.99996 0.006316
vn 0.006316 0.99996 0.006316
vn 0.006316 0.99996 0.006316
vn 0.006316 0.99996 0.006316
vn 0.006316 0.99996 0.006316
vn 0.006316 0.99996 0.006316
vn 0.006316 0.99996 0.006316
vn 0.006316 0.99996 0.006316
vn 0.006316 0.99996 0.006316
vn 0.006316 0.99996 0.006316
vn 0.006316 0.99996 0.006316
vn 0.006316 0.99996 0.006316
vn 0.006316 0.99996 0.006316
vn 0.006316 0.99996 0.006316
vn 0.006316 0.99996 0.006316
vn 0.006316 0.999962 0.006013
vn 0.006316 0.99996 0.006316
vn 0.006316 0.99996 0.006316
vn 0.006316 0.99996 0.006316
vn 0.006316 0.99996 0.006316
vn 0.006316 0.999962 0.006013
vn 0.006316 0.999962 0.006013
vn 0.006316 0.99996 0.006316
vn 0.006316 0.99996 0.006316
vn 0.006316 0.99996 0.006316
vn 0.006316 0.999962 0.006013
vn 0.006316 0.999962 0.006013
vn 0.006316 0.99996 0.006316
vn 0.006316 0.99996 0.006316
vn 0.006316 0.99996 0.006316
vn 0.006618 0.99996 0.006013
vn 0.006618 0.99996 0.006013
vn 0.006316 0.99996 0.006316
vn 0.006316 0.99996 0.006316
vn 0.006316 0.99996 0.006316
vn 0.006316 0.99996 0.006316
vn 0.006316 0.99996 0.006316
vn 0.006618 0.99996 0.006013
vn 0.006316 0.99996 0.006316
vn 0.006316 0.99996 0.006316
vn 0.006316 0.99996 0.006316
vn 0.006316 0.99996 0.006316
vn 0.006316 0.99996 0.006316
vn 0.006316 0.99996 0.006316
vn 0.006316 0.99996 0.006316
vn 0.006316 0.99996 0.006316
vn 0.006316 0.99996 0.006316
vn 0.006316 0.99996 0.006316
vn 0.006316 0.99996 0.006316
vn 0.006316 0.99996 0.006316
vn 0.006316 0.99996 0.006316
vn 0.006316 0.99996 0.006316
vn 0.006316 0.99996 0.006316
vn 0.006316 0.99996 0.006316
vn 0.006316 0.99996 0.006316
vn 0.006316 0.99996 0.006316
vn 0.006316 0.99996 0.006316
vn 0.006316 0.99996 0.006316
vn 0.006316 0.99996 0.006316
vn 0.006316 0.99996 0.006316
vn 0.006316 0.99996 0.006316
vn 0.006316 0.99996 0.006316
vn 0.006316 0.99996 0.006316
vn 0.006316 0.99996 0.006316
vn 0.006316 0.99996 0.006316
vn 0.006316 0.99996 0.006316
vn 0.006316 0.99996 0.006316
vn 0.006316 0.99996 0.006316
vn 0.006316 0.99996 0.006316
vn 0.006316 0.99996 0.006316
f 1//1 2//1 3//1
f 4//2 5//2 6//2
f 7//3 8//3 9//3
f 10//4 11//4 12//4
f 13//5 14//5 15//5
f 16//6 17//6 18//6
f 19//7 20//7 21//7
f 22//8 23//8 24//8
f 25//9 26//9 27//9
f 28//10 29//10 30//10
f 31//11 32//11 33//11
f 34//12 35//12 36//12
f 37//13 38//13 39//13
f 40//14 41//14 42//14
f 43//15 44//15 45//15
f 46//16 47//16 48//16
f 49//17 50//17 51//17
f 52//18 53//18 54//18
f 55//19 56//19 57//19
f 58//20 59//20 60//20
f 61//21 62//21 63//21
f 64//22 65//22 66//22
f 67//23 68//23 69//23
f 70//24 71//24 72//24
f 73//25 74//25 75//25
f 76//26 77//26 78//26
f 79//27 80//27 81//27
f 82//28 83//28 84//28
f 85//29 86//29 87//29
f 88//30 89//30 90//30
f 91//31 92//31 93//31
f 94//32 95//32 96//32
f 97//33 98//33 99//33
f 100//34 101//34 102//34
f 103//35 104//35 105//35
f 106//36 107//36 108//36
f 109//37 110//37 111//37
f 112//38 113//38 114//38
f 115//39 116//39 117//39
f 118//40 119//40 120//40
f 121//41 122//41 123//41
f 124//42 125//42 126//42
f 127//43 128//43 129//43
f 130//44 131//44 132//44
f 133//45 134//45 135//45
f 136//46 137//46 138//46
f 139//47 140//47 141//47
f 142//48 143//48 144//48
f 145//49 146//49 147//49
f 148//50 149//50 150//50
f 151//51 152//51 153//51
f 154//52 155//52 156//52
f 157//53 158//53 159//53
f 160//54 161//54 162//54
f 163//55 164//55 165//55
f 166//56 167//56 168//56
f 169//57 170//57 171//57
f 172//58 173//58 174//58
f 175//59 176//59 177//59
f 178//60 179//60 180//60
f 181//61 182//61 183//61
f 184//62 185//62 186//62
f 187//63 188//63 189//63
f 190//64 191//64 192//64
f 193//65 194//65 195//65
f 196//66 197//66 198//66
f 199//67 200//67 201//67
f 202//68 203//68 204//68
f 205//69 206//69 207//69
f 208//70 209//70 210//70
f 211//71 212//71 213//71
f 214//72 215//72 216//72
f 217//73 218//73 219//73
f 220//74 221//74 222//74
f 223//75 224//75 225//75
f 226//76 227//76 228//76
f 229//77 230//77 231//77
f 232//78 233//78 234//78
f 235//79 236//79 237//79
f 238//80 239//80 240//80
f 241//81 242//81 243//81
f 244//82 245//82 246//82
f 247//83 248//83 249//83
f 250//84 251//84 252//84
f 253//85 254//85 255//85
f 256//86 257//86 258//86
f 259//87 260//87 261//87
f 262//88 263//88 264//88
f 265//89 266//89 267//89
f 268//90 269//90 270//90
f 271//91 272//91 273//91
f 274//92 275//92 276//92
f 277//93 278//93 279//93
f 280//94 281//94 282//94
f 283//95 284//95 285//95
f 286//96 287//96 288//96
f 289//97 290//97 291//97
f 292//98 293//98 294//98
f 295//99 296//99 297//99
f 298//100 299//100 300//100
f 301//101 302//101 303//101
f 304//102 305//102 306//102
f 307//103 308//103 309//103
f 310//104 311//104 312//104
f 313//105 314//105 315//105
f 316//106 317//106 318//106
