# Static Concept B graybox, metres, identity world transform.
v -16.759464 0.951902 60
v -18.502227 0.98011 57.276449
v -17.974481 0.959576 60
v -16.759464 0.951902 60
v -17.472887 0.974852 57.079654
v -18.502227 0.98011 57.276449
v -17.974481 0.959576 60
v -16.404969 0.940498 61.451101
v -16.759464 0.951902 60
v -17.974481 0.959576 60
v -17.646179 0.946802 61.694274
v -16.404969 0.940498 61.451101
v -15.458897 0.943688 60
v -17.472887 0.974852 57.079654
v -16.759464 0.951902 60
v -15.458897 0.943688 60
v -16.571963 0.970846 56.812961
v -17.472887 0.974852 57.079654
v -16.759464 0.951902 60
v -15.088234 0.934644 61.061319
v -15.458897 0.943688 60
v -16.759464 0.951902 60
v -16.404969 0.940498 61.451101
v -15.088234 0.934644 61.061319
v -14.09994 0.935105 60
v -16.571963 0.970846 56.812961
v -15.458897 0.943688 60
v -14.09994 0.935105 60
v -15.663825 0.96744 56.444085
v -16.571963 0.970846 56.812961
v -15.458897 0.943688 60
v -13.852198 0.929982 60.56331
v -14.09994 0.935105 60
v -15.458897 0.943688 60
v -15.088234 0.934644 61.061319
v -13.852198 0.929982 60.56331
v -12.199226 0.924359 59.800774
v -13.950276 0.961616 55.652812
v -15.590003 0.96719 56.409997
v -12.199226 0.924359 59.800774
v -12.064514 0.9239 59.738629
v -13.950276 0.961616 55.652812
v -15.590003 0.96719 56.409997
v -12.631095 0.925828 60
v -12.199226 0.924359 59.800774
v -15.590003 0.96719 56.409997
v -14.09994 0.935105 60
v -12.631095 0.925828 60
v -15.590003 0.96719 56.409997
v -15.663825 0.96744 56.444085
v -14.09994 0.935105 60
v -14.09994 0.935105 60
v -13.852198 0.929982 60.56331
v -12.631095 0.925828 60
v -12 0.951669 55.277431
v -12.064514 0.9239 59.738629
v -12 0.923681 59.708854
v -12 0.951669 55.277431
v -13.950276 0.961616 55.652812
v -12.064514 0.9239 59.738629
v -12 0.951669 55.277431
v -12.19966 0.955662 54.844835
v -13.950276 0.961616 55.652812
v -12 0.923681 59.708854
v -10.313898 0.917947 58.930653
v -12 0.951669 55.277431
v -12 0.954983 54.752685
v -12.19966 0.955662 54.844835
v -12 0.951669 55.277431
v -12 0.951669 55.277431
v -10.449043 0.949709 54.036859
v -12 0.954983 54.752685
v -12 0.951669 55.277431
v -8.563282 0.911993 58.122676
v -10.449043 0.949709 54.036859
v -12 0.951669 55.277431
v -10.313898 0.917947 58.930653
v -8.563282 0.911993 58.122676
v -6.921835 0.908223 57.078165
v -8.698427 0.943755 53.228882
v -10.116584 0.948578 53.883416
v -10.116584 0.948578 53.883416
v -6.812665 0.90604 57.314699
v -6.921835 0.908223 57.078165
v -10.116584 0.948578 53.883416
v -8.563282 0.911993 58.122676
v -6.812665 0.90604 57.314699
v -10.116584 0.948578 53.883416
v -10.449043 0.949709 54.036859
v -8.563282 0.911993 58.122676
v -6.725521 0.905743 57.274479
v -8.698427 0.943755 53.228882
v -6.921835 0.908223 57.078165
v -6.725521 0.905743 57.274479
v -6.947811 0.937802 52.420905
v -8.698427 0.943755 53.228882
v -6.725521 0.905743 57.274479
v -5.062049 0.900086 56.506722
v -6.947811 0.937802 52.420905
v -6.921835 0.908223 57.078165
v -6.812665 0.90604 57.314699
v -6.725521 0.905743 57.274479
v -5.018546 0.928275 52
v -5.6 0.933218 51.798839
v -5.6 0.931947 52
v -5.018546 0.928275 52
v -5.197195 0.931848 51.612929
v -5.6 0.933218 51.798839
v -5.6 0.933218 51.798839
v -5.712914 0.934714 51.850953
v -5.6 0.931947 52
v -5.712914 0.934714 51.850953
v -6.03585 0.9347 52
v -5.6 0.931947 52
v -6.03585 0.9347 52
v -4 0.907904 54.20685
v -5.018546 0.928275 52
v -6.03585 0.9347 52
v -4 0.896474 56.016546
v -4 0.907904 54.20685
v -6.03585 0.9347 52
v -5.062049 0.900086 56.506722
v -4 0.896474 56.016546
v -6.03585 0.9347 52
v -6.947811 0.937802 52.420905
v -5.062049 0.900086 56.506722
v -4 0.896474 56.016546
v -3.311433 0.894133 55.698746
v -4 0.907904 54.20685
v -4 0.933563 51.060377
v -4.172044 0.936104 51.139782
v -4 0.921842 52
v -4.172044 0.936104 51.139782
v -4.6429 0.929963 51.3571
v -4 0.921842 52
v -4.6429 0.929963 51.3571
v -5.018546 0.928275 52
v -4 0.921842 52
v -4.6429 0.929963 51.3571
v -5.197195 0.931848 51.612929
v -5.018546 0.928275 52
v -5.018546 0.928275 52
v -4 0.907904 54.20685
v -4 0.921842 52
v -2.895018 0.914863 52
v -4 0.933563 51.060377
v -4 0.921842 52
v -2.895018 0.914863 52
v -3.446578 0.933253 50.804952
v -4 0.933563 51.060377
v -4 0.921842 52
v -1.94789 0.895921 54.05211
v -2.895018 0.914863 52
v -4 0.921842 52
v -1.560817 0.888179 54.890769
v -1.94789 0.895921 54.05211
v -4 0.921842 52
v -3.311433 0.894133 55.698746
v -1.560817 0.888179 54.890769
v -4 0.921842 52
v -4 0.907904 54.20685
v -3.311433 0.894133 55.698746
v -0.771489 0.901452 52
v -3.446578 0.933253 50.804952
v -2.895018 0.914863 52
v -0.771489 0.901452 52
v -1.695962 0.932275 49.996975
v -3.446578 0.933253 50.804952
v -2.895018 0.914863 52
v 0.1898 0.882226 54.082792
v -0.771489 0.901452 52
v -2.895018 0.914863 52
v -1.251837 0.887128 54.748163
v 0.1898 0.882226 54.082792
v -2.895018 0.914863 52
v -1.94789 0.895921 54.05211
v -1.251837 0.887128 54.748163
v -1.94789 0.895921 54.05211
v -1.560817 0.888179 54.890769
v -1.251837 0.887128 54.748163
v 1.352039 0.88804 52
v -1.695962 0.932275 49.996975
v -0.771489 0.901452 52
v 1.352039 0.88804 52
v 0.054654 0.931297 49.188998
v -1.695962 0.932275 49.996975
v -0.771489 0.901452 52
v 1.940416 0.876272 53.274816
v 1.352039 0.88804 52
v -0.771489 0.901452 52
v 0.1898 0.882226 54.082792
v 1.940416 0.876272 53.274816
v 3.026055 0.889616 51.026055
v 1.80527 0.921549 48.381022
v 0.830784 0.930864 48.830784
v 0.830784 0.930864 48.830784
v 3.475568 0.874628 52
v 3.026055 0.889616 51.026055
v 0.830784 0.930864 48.830784
v 1.352039 0.88804 52
v 3.475568 0.874628 52
v 0.830784 0.930864 48.830784
v 0.054654 0.931297 49.188998
v 1.352039 0.88804 52
v 1.352039 0.88804 52
v 3.691032 0.870319 52.466839
v 3.475568 0.874628 52
v 1.352039 0.88804 52
v 1.940416 0.876272 53.274816
v 3.691032 0.870319 52.466839
v 4 0.893198 48.535291
v 3.026055 0.889616 51.026055
v 4 0.871316 52
v 4 0.893198 48.535291
v 1.80527 0.921549 48.381022
v 3.026055 0.889616 51.026055
v 4 0.893198 48.535291
v 3.555887 0.904815 47.573045
v 1.80527 0.921549 48.381022
v 3.026055 0.889616 51.026055
v 3.475568 0.874628 52
v 4 0.871316 52
v 3.475568 0.874628 52
v 4 0.869268 52.324238
v 4 0.871316 52
v 3.475568 0.874628 52
v 3.691032 0.870319 52.466839
v 4 0.869268 52.324238
v 4.702516 0.866879 52
v 4 0.893198 48.535291
v 4 0.871316 52
v 4.702516 0.866879 52
v 5.441648 0.864365 51.658862
v 4 0.893198 48.535291
v 4 0.871316 52
v 4.221847 0.868514 52.221847
v 4.702516 0.866879 52
v 4 0.871316 52
v 4 0.869268 52.324238
v 4.221847 0.868514 52.221847
v 4 0.90057 47.368069
v 3.555887 0.904815 47.573045
v 4 0.893198 48.535291
v 4 0.893198 48.535291
v 5.306503 0.896127 46.765068
v 4 0.90057 47.368069
v 4 0.893198 48.535291
v 7.192265 0.858412 50.850885
v 5.306503 0.896127 46.765068
v 4 0.893198 48.535291
v 5.441648 0.864365 51.658862
v 7.192265 0.858412 50.850885
v 8 0.871316 48
v 7.057119 0.890173 45.957091
v 6.304469 0.892733 46.304469
v 6.304469 0.892733 46.304469
v 8.942881 0.852458 50.042909
v 8 0.871316 48
v 6.304469 0.892733 46.304469
v 7.192265 0.858412 50.850885
v 8.942881 0.852458 50.042909
v 6.304469 0.892733 46.304469
v 5.306503 0.896127 46.765068
v 7.192265 0.858412 50.850885
vn 0.006316 0.99996 0.006316
vn 0.006316 0.99996 0.006316
vn 0.006316 0.99996 0.006316
vn 0.006316 0.99996 0.006316
vn 0.006316 0.99996 0.006316
vn 0.006316 0.99996 0.006316
vn 0.006316 0.99996 0.006316
vn 0.006316 0.99996 0.006316
vn 0.006316 0.99996 0.006316
vn 0.006316 0.99996 0.006316
vn 0.006316 0.99996 0.006316
vn 0.006316 0.99996 0.006316
vn 0.006316 0.99996 0.006316
vn 0.006316 0.99996 0.006316
vn 0.006316 0.99996 0.006316
vn 0.006316 0.99996 0.006316
vn 0.006316 0.99996 0.006316
vn 0.006316 0.99996 0.006316
vn 0.006316 0.99996 0.006316
vn 0.006316 0.99996 0.006316
vn 0.006316 0.99996 0.006316
vn 0.006316 0.99996 0.006316
vn 0.006316 0.99996 0.006316
vn 0.006316 0.99996 0.006316
vn 0.006316 0.99996 0.006316
vn 0.006316 0.99996 0.006316
vn 0.006316 0.99996 0.006316
vn 0.006316 0.99996 0.006316
vn 0.006316 0.99996 0.006316
vn 0.006316 0.99996 0.006316
vn 0.006316 0.99996 0.006316
vn 0.006316 0.99996 0.006316
vn 0.006316 0.99996 0.006316
vn 0.006316 0.99996 0.006316
vn 0.006316 0.99996 0.006316
vn 0.006316 0.99996 0.006316
vn 0.016166 0.999849 0.006315
vn 0.006315 0.999885 0.013778
vn 0.006316 0.99996 0.006316
vn 0.006316 0.99996 0.006316
vn 0.006316 0.99996 0.006316
vn 0.006316 0.99996 0.006316
vn 0.006316 0.99996 0.006316
vn 0.02052 0.999712 0.01247
vn -0.004933 0.999834 0.017563
vn 0.006316 0.99996 0.006316
vn 0.006316 0.99996 0.006316
vn 0.006316 0.99996 0.006316
vn 0.006315 0.999902 0.012472
vn 0.006315 0.999902 0.012472
vn 0.006316 0.99996 0.006316
vn 0.006316 0.99996 0.006316
vn 0.006316 0.99996 0.006316
vn 0.006316 0.99996 0.006316
vn 0.006315 0.999902 0.012472
vn 0.006315 0.999902 0.012472
vn 0.006316 0.99996 0.006316
vn 0.006316 0.99996 0.006316
vn 0.006316 0.99996 0.006316
vn 0.006316 0.99996 0.006316
vn 0.006315 0.999902 0.012472
vn 0.006315 0.999902 0.012472
vn 0.006316 0.99996 0.006316
vn 0.006316 0.99996 0.006316
vn 0.012472 0.999902 0.006315
vn 0.006315 0.999902 0.012472
vn 0.006315 0.999902 0.012472
vn 0.006315 0.999902 0.012472
vn 0.006316 0.99996 0.006316
vn 0.006316 0.99996 0.006316
vn 0.012472 0.999902 0.006315
vn 0.012472 0.999902 0.006315
vn 0.012472 0.999902 0.006315
vn 0.006315 0.999902 0.012472
vn 0.006316 0.99996 0.006316
vn 0.006316 0.99996 0.006316
vn 0.006316 0.99996 0.006316
vn 0.006316 0.99996 0.006316
vn 0.006316 0.99996 0.006316
vn 0.006316 0.99996 0.006316
vn 0.012472 0.999902 0.006315
vn 0.006316 0.99996 0.006316
vn 0.006316 0.99996 0.006316
vn 0.006316 0.99996 0.006316
vn 0.006316 0.99996 0.006316
vn 0.006316 0.99996 0.006316
vn 0.006316 0.99996 0.006316
vn 0.006316 0.99996 0.006316
f 1//1 2//1 3//1
f 4//2 5//2 6//2
f 7//3 8//3 9//3
f 10//4 11//4 12//4
f 13//5 14//5 15//5
f 16//6 17//6 18//6
f 19//7 20//7 21//7
f 22//8 23//8 24//8
f 25//9 26//9 27//9
f 28//10 29//10 30//10
f 31//11 32//11 33//11
f 34//12 35//12 36//12
f 37//13 38//13 39//13
f 40//14 41//14 42//14
f 43//15 44//15 45//15
f 46//16 47//16 48//16
f 49//17 50//17 51//17
f 52//18 53//18 54//18
f 55//19 56//19 57//19
f 58//20 59//20 60//20
f 61//21 62//21 63//21
f 64//22 65//22 66//22
f 67//23 68//23 69//23
f 70//24 71//24 72//24
f 73//25 74//25 75//25
f 76//26 77//26 78//26
f 79//27 80//27 81//27
f 82//28 83//28 84//28
f 85//29 86//29 87//29
f 88//30 89//30 90//30
f 91//31 92//31 93//31
f 94//32 95//32 96//32
f 97//33 98//33 99//33
f 100//34 101//34 102//34
f 103//35 104//35 105//35
f 106//36 107//36 108//36
f 109//37 110//37 111//37
f 112//38 113//38 114//38
f 115//39 116//39 117//39
f 118//40 119//40 120//40
f 121//41 122//41 123//41
f 124//42 125//42 126//42
f 127//43 128//43 129//43
f 130//44 131//44 132//44
f 133//45 134//45 135//45
f 136//46 137//46 138//46
f 139//47 140//47 141//47
f 142//48 143//48 144//48
f 145//49 146//49 147//49
f 148//50 149//50 150//50
f 151//51 152//51 153//51
f 154//52 155//52 156//52
f 157//53 158//53 159//53
f 160//54 161//54 162//54
f 163//55 164//55 165//55
f 166//56 167//56 168//56
f 169//57 170//57 171//57
f 172//58 173//58 174//58
f 175//59 176//59 177//59
f 178//60 179//60 180//60
f 181//61 182//61 183//61
f 184//62 185//62 186//62
f 187//63 188//63 189//63
f 190//64 191//64 192//64
f 193//65 194//65 195//65
f 196//66 197//66 198//66
f 199//67 200//67 201//67
f 202//68 203//68 204//68
f 205//69 206//69 207//69
f 208//70 209//70 210//70
f 211//71 212//71 213//71
f 214//72 215//72 216//72
f 217//73 218//73 219//73
f 220//74 221//74 222//74
f 223//75 224//75 225//75
f 226//76 227//76 228//76
f 229//77 230//77 231//77
f 232//78 233//78 234//78
f 235//79 236//79 237//79
f 238//80 239//80 240//80
f 241//81 242//81 243//81
f 244//82 245//82 246//82
f 247//83 248//83 249//83
f 250//84 251//84 252//84
f 253//85 254//85 255//85
f 256//86 257//86 258//86
f 259//87 260//87 261//87
f 262//88 263//88 264//88
