# Static Concept B graybox, metres, identity world transform.
v 46.656179 0.525 49.245394
v 46.6996 0.525 51.933543
v 48.011957 0.525 50.424332
v 46.656179 0.525 49.245394
v 45.343821 0.525 50.754606
v 46.6996 0.525 51.933543
v 49.022753 0.525 52
v 46.6996 0.525 51.933543
v 46.776025 0.525 52
v 49.022753 0.525 52
v 48.011957 0.525 50.424332
v 46.6996 0.525 51.933543
v 49.022753 0.525 52
v 49.367736 0.525 51.60327
v 48.011957 0.525 50.424332
v 46.776025 0.525 52
v 48.055378 0.525 53.112481
v 49.022753 0.525 52
v 49.823975 0.525 52
v 49.367736 0.525 51.60327
v 49.022753 0.525 52
v 49.022753 0.525 52
v 50.723514 0.525 52.782208
v 49.823975 0.525 52
v 49.022753 0.525 52
v 49.411157 0.525 54.291419
v 50.723514 0.525 52.782208
v 49.022753 0.525 52
v 48.055378 0.525 53.112481
v 49.411157 0.525 54.291419
v 50.723514 0.525 52.782208
v 52 0.525 54.052333
v 52 0.525 53.892196
v 50.723514 0.525 52.782208
v 50.766936 0.525 55.470357
v 52 0.525 54.052333
v 50.723514 0.525 52.782208
v 49.411157 0.525 54.291419
v 50.766936 0.525 55.470357
v 52 0.525 54.052333
v 52.079293 0.525 53.961146
v 52 0.525 53.892196
v 52 0.525 54.052333
v 50.766936 0.525 55.470357
v 52 0.525 56.542587
v 52 0.525 56.542587
v 52.079293 0.525 53.961146
v 52 0.525 54.052333
v 52 0.525 56.542587
v 53.435071 0.525 55.140084
v 52.079293 0.525 53.961146
v 52 0.525 56.542587
v 52.122714 0.525 56.649295
v 53.435071 0.525 55.140084
v 53.435071 0.525 55.140084
v 53.478493 0.525 57.828233
v 54.79085 0.525 56.319022
v 53.435071 0.525 55.140084
v 52.122714 0.525 56.649295
v 53.478493 0.525 57.828233
v 54.79085 0.525 56.319022
v 54.834271 0.525 59.007171
v 56.146629 0.525 57.49796
v 54.79085 0.525 56.319022
v 53.478493 0.525 57.828233
v 54.834271 0.525 59.007171
v 56.284687 0.525 60
v 54.834271 0.525 59.007171
v 55.97871 0.525 60
v 56.284687 0.525 60
v 56.146629 0.525 57.49796
v 54.834271 0.525 59.007171
v 56.284687 0.525 60
v 57.54897 0.525 58.720057
v 56.146629 0.525 57.49796
v 55.97871 0.525 60
v 56.143487 0.525 60.142949
v 56.284687 0.525 60
v 57.54897 0.525 58.720057
v 57.43982 0.525 60
v 58.133684 0.525 59.471799
v 57.54897 0.525 58.720057
v 56.284687 0.525 60
v 57.43982 0.525 60
v 56.284687 0.525 60
v 56.542316 0.525 60.683223
v 57.43982 0.525 60
v 56.284687 0.525 60
v 56.143487 0.525 60.142949
v 56.542316 0.525 60.683223
vn 0 1 0
vn 0 1 0
vn 0 1 0
vn 0 1 0
vn 0 1 0
vn 0 1 0
vn 0 1 0
vn 0 1 0
vn 0 1 0
vn 0 1 0
vn 0 1 0
vn 0 1 0
vn 0 1 0
vn 0 1 0
vn 0 1 0
vn 0 1 0
vn 0 1 0
vn 0 1 0
vn 0 1 0
vn 0 1 0
vn 0 1 0
vn 0 1 0
vn 0 1 0
vn 0 1 0
vn 0 1 0
vn 0 1 0
vn 0 1 0
vn 0 1 0
vn 0 1 0
vn 0 1 0
f 1//1 2//1 3//1
f 4//2 5//2 6//2
f 7//3 8//3 9//3
f 10//4 11//4 12//4
f 13//5 14//5 15//5
f 16//6 17//6 18//6
f 19//7 20//7 21//7
f 22//8 23//8 24//8
f 25//9 26//9 27//9
f 28//10 29//10 30//10
f 31//11 32//11 33//11
f 34//12 35//12 36//12
f 37//13 38//13 39//13
f 40//14 41//14 42//14
f 43//15 44//15 45//15
f 46//16 47//16 48//16
f 49//17 50//17 51//17
f 52//18 53//18 54//18
f 55//19 56//19 57//19
f 58//20 59//20 60//20
f 61//21 62//21 63//21
f 64//22 65//22 66//22
f 67//23 68//23 69//23
f 70//24 71//24 72//24
f 73//25 74//25 75//25
f 76//26 77//26 78//26
f 79//27 80//27 81//27
f 82//28 83//28 84//28
f 85//29 86//29 87//29
f 88//30 89//30 90//30
