# Static Concept B graybox, metres, identity world transform.
v 58.30889 0.525 59.837987
v 57.652183 0.525 60
v 58.346976 0.525 60
v 57.652183 0.525 60
v 58.527788 0.525 60.769147
v 58.346976 0.525 60
v 57.652183 0.525 60
v 56.537145 0.525 60.962386
v 58.527788 0.525 60.769147
v 57.652183 0.525 60
v 56.367109 0.525 60.317034
v 56.537145 0.525 60.962386
v 58.527788 0.525 60.769147
v 56.607413 0.525 62.883092
v 58.606008 0.525 62.808145
v 58.527788 0.525 60.769147
v 56.537145 0.525 60.962386
v 56.607413 0.525 62.883092
v 58.606008 0.525 62.808145
v 56.856391 0.525 64.856391
v 58.680253 0.525 64.787996
v 58.606008 0.525 62.808145
v 56.674594 0.525 64.674594
v 56.856391 0.525 64.856391
v 58.606008 0.525 62.808145
v 56.607413 0.525 62.883092
v 56.674594 0.525 64.674594
v 56.674594 0.525 64.674594
v 56.681658 0.525 64.862944
v 56.856391 0.525 64.856391
v 58.680253 0.525 64.787996
v 58.682727 0.525 66.682727
v 58.746577 0.525 66.674287
v 58.680253 0.525 64.787996
v 56.856391 0.525 64.856391
v 58.682727 0.525 66.682727
v 56.856391 0.525 64.856391
v 56.763822 0.525 66.936356
v 58.682727 0.525 66.682727
v 56.856391 0.525 64.856391
v 56.681658 0.525 64.862944
v 56.763822 0.525 66.936356
v 58.746577 0.525 66.674287
v 58.682727 0.525 66.682727
v 58.783152 0.525 66.783152
v 58.682727 0.525 66.682727
v 59.030058 0.525 67.518071
v 58.783152 0.525 66.783152
v 58.682727 0.525 66.682727
v 57.509189 0.525 68
v 59.030058 0.525 67.518071
v 58.682727 0.525 66.682727
v 57.086421 0.525 68
v 57.509189 0.525 68
v 58.682727 0.525 66.682727
v 56.763822 0.525 66.936356
v 57.086421 0.525 68
v 57.086421 0.525 68
v 57.123489 0.525 68.122219
v 57.509189 0.525 68
vn 0 1 0
vn 0 1 0
vn 0 1 0
vn 0 1 0
vn 0 1 0
vn 0 1 0
vn 0 1 0
vn 0 1 0
vn 0 1 0
vn 0 1 0
vn 0 1 0
vn 0 1 0
vn 0 1 0
vn 0 1 0
vn 0 1 0
vn 0 1 0
vn 0 1 0
vn 0 1 0
vn 0 1 0
vn 0 1 0
f 1//1 2//1 3//1
f 4//2 5//2 6//2
f 7//3 8//3 9//3
f 10//4 11//4 12//4
f 13//5 14//5 15//5
f 16//6 17//6 18//6
f 19//7 20//7 21//7
f 22//8 23//8 24//8
f 25//9 26//9 27//9
f 28//10 29//10 30//10
f 31//11 32//11 33//11
f 34//12 35//12 36//12
f 37//13 38//13 39//13
f 40//14 41//14 42//14
f 43//15 44//15 45//15
f 46//16 47//16 48//16
f 49//17 50//17 51//17
f 52//18 53//18 54//18
f 55//19 56//19 57//19
f 58//20 59//20 60//20
