# Static Concept B graybox, metres, identity world transform.
v 59.203065 0.525 68
v 58.740028 0.525 67.071751
v 57.91738 0.525 68
v 59.203065 0.525 68
v 59.404289 0.525 67.678724
v 58.740028 0.525 67.071751
v 57.91738 0.525 68
v 58.342672 0.525 69.373708
v 59.203065 0.525 68
v 57.91738 0.525 68
v 57.41352 0.525 68.568539
v 58.342672 0.525 69.373708
v 60 0.525 67.968244
v 59.938217 0.525 67.938217
v 60 0.525 68
v 59.938217 0.525 67.938217
v 59.203065 0.525 68
v 60 0.525 68
v 59.938217 0.525 67.938217
v 59.404289 0.525 67.678724
v 59.203065 0.525 68
v 59.203065 0.525 68
v 60 0.525 70.076763
v 60 0.525 68
v 59.203065 0.525 68
v 59.95441 0.525 70.169767
v 60 0.525 70.076763
v 59.203065 0.525 68
v 58.342672 0.525 69.373708
v 59.95441 0.525 70.169767
v 60.065341 0.525 68
v 60 0.525 67.968244
v 60 0.525 68
v 60 0.525 68
v 60.834724 0.525 68.373926
v 60.065341 0.525 68
v 60 0.525 68
v 60.683146 0.525 68.683146
v 60.834724 0.525 68.373926
v 60 0.525 68
v 60 0.525 70.076763
v 60.683146 0.525 68.683146
v 60 0.525 70.076763
v 59.95441 0.525 70.169767
v 60 0.525 70.192115
v 60.834724 0.525 68.373926
v 61.949148 0.525 69.949148
v 62.355811 0.525 69.119557
v 60.834724 0.525 68.373926
v 60.683146 0.525 68.683146
v 61.949148 0.525 69.949148
v 60.683146 0.525 68.683146
v 61.475496 0.525 70.915398
v 61.949148 0.525 69.949148
v 60.683146 0.525 68.683146
v 60 0.525 70.192115
v 61.475496 0.525 70.915398
v 60.683146 0.525 68.683146
v 60 0.525 70.076763
v 60 0.525 70.192115
v 62.355811 0.525 69.119557
v 63.215151 0.525 71.215151
v 63.876897 0.525 69.865187
v 62.355811 0.525 69.119557
v 61.949148 0.525 69.949148
v 63.215151 0.525 71.215151
v 61.949148 0.525 69.949148
v 62.996583 0.525 71.661029
v 63.215151 0.525 71.215151
v 61.949148 0.525 69.949148
v 61.475496 0.525 70.915398
v 62.996583 0.525 71.661029
v 63.876897 0.525 69.865187
v 64.51767 0.525 72.406659
v 65.397984 0.525 70.610818
v 63.876897 0.525 69.865187
v 64.299919 0.525 72.299919
v 64.51767 0.525 72.406659
v 63.876897 0.525 69.865187
v 63.215151 0.525 71.215151
v 64.299919 0.525 72.299919
v 63.215151 0.525 71.215151
v 62.996583 0.525 71.661029
v 64.299919 0.525 72.299919
v 65.397984 0.525 70.610818
v 66.038756 0.525 73.15229
v 66.919071 0.525 71.356449
v 65.397984 0.525 70.610818
v 64.51767 0.525 72.406659
v 66.038756 0.525 73.15229
v 66.919071 0.525 71.356449
v 68 0.525 73
v 68 0.525 71.886316
v 66.919071 0.525 71.356449
v 67.559843 0.525 73.897921
v 68 0.525 73
v 66.919071 0.525 71.356449
v 66.038756 0.525 73.15229
v 67.559843 0.525 73.897921
v 68 0.525 73
v 68.440157 0.525 72.102079
v 68 0.525 71.886316
vn 0 1 0
vn 0 1 0
vn 0 1 0
vn 0 1 0
vn 0 1 0
vn 0 1 0
vn 0 1 0
vn 0 1 0
vn 0 1 0
vn 0 1 0
vn 0 1 0
vn 0 1 0
vn 0 1 0
vn 0 1 0
vn 0 1 0
vn 0 1 0
vn 0 1 0
vn 0 1 0
vn 0 1 0
vn 0 1 0
vn 0 1 0
vn 0 1 0
vn 0 1 0
vn 0 1 0
vn 0 1 0
vn 0 1 0
vn 0 1 0
vn 0 1 0
vn 0 1 0
vn 0 1 0
vn 0 1 0
vn 0 1 0
vn 0 1 0
vn 0 1 0
f 1//1 2//1 3//1
f 4//2 5//2 6//2
f 7//3 8//3 9//3
f 10//4 11//4 12//4
f 13//5 14//5 15//5
f 16//6 17//6 18//6
f 19//7 20//7 21//7
f 22//8 23//8 24//8
f 25//9 26//9 27//9
f 28//10 29//10 30//10
f 31//11 32//11 33//11
f 34//12 35//12 36//12
f 37//13 38//13 39//13
f 40//14 41//14 42//14
f 43//15 44//15 45//15
f 46//16 47//16 48//16
f 49//17 50//17 51//17
f 52//18 53//18 54//18
f 55//19 56//19 57//19
f 58//20 59//20 60//20
f 61//21 62//21 63//21
f 64//22 65//22 66//22
f 67//23 68//23 69//23
f 70//24 71//24 72//24
f 73//25 74//25 75//25
f 76//26 77//26 78//26
f 79//27 80//27 81//27
f 82//28 83//28 84//28
f 85//29 86//29 87//29
f 88//30 89//30 90//30
f 91//31 92//31 93//31
f 94//32 95//32 96//32
f 97//33 98//33 99//33
f 100//34 101//34 102//34
