# Static Concept B graybox, metres, identity world transform.
v 68 0.525 73
v 67.552786 0.525 73.894427
v 68 0.525 74.118034
v 68 0.525 74.118034
v 68.447214 0.525 72.105573
v 68 0.525 73
v 68 0.525 74.118034
v 70.160927 0.525 72.96243
v 68.447214 0.525 72.105573
v 68 0.525 74.118034
v 69.2665 0.525 74.751284
v 70.160927 0.525 72.96243
v 70.160927 0.525 72.96243
v 70.980214 0.525 75.608141
v 71.874641 0.525 73.819286
v 70.160927 0.525 72.96243
v 69.2665 0.525 74.751284
v 70.980214 0.525 75.608141
v 72.926426 0.525 76
v 70.980214 0.525 75.608141
v 71.763932 0.525 76
v 72.926426 0.525 76
v 71.874641 0.525 73.819286
v 70.980214 0.525 75.608141
v 72.926426 0.525 76
v 73.588354 0.525 74.676143
v 71.874641 0.525 73.819286
v 71.763932 0.525 76
v 72.693927 0.525 76.464998
v 72.926426 0.525 76
v 75.068568 0.525 76
v 73.588354 0.525 74.676143
v 72.926426 0.525 76
v 75.068568 0.525 76
v 75.302068 0.525 75.533
v 73.588354 0.525 74.676143
v 72.926426 0.525 76
v 74.407641 0.525 77.321854
v 75.068568 0.525 76
v 72.926426 0.525 76
v 72.693927 0.525 76.464998
v 74.407641 0.525 77.321854
v 76 0.525 75.881966
v 75.763932 0.525 75.763932
v 76 0.525 76
v 75.763932 0.525 75.763932
v 75.068568 0.525 76
v 76 0.525 76
v 75.763932 0.525 75.763932
v 75.302068 0.525 75.533
v 75.068568 0.525 76
v 75.068568 0.525 76
v 76 0.525 78.118034
v 76 0.525 76
v 75.068568 0.525 76
v 74.407641 0.525 77.321854
v 76 0.525 78.118034
v 76.236068 0.525 76
v 76 0.525 75.881966
v 76 0.525 76
v 76 0.525 76
v 77.015782 0.525 76.389857
v 76.236068 0.525 76
v 76 0.525 76
v 76.968568 0.525 76.484284
v 77.015782 0.525 76.389857
v 76 0.525 76
v 76.80714 0.525 76.80714
v 76.968568 0.525 76.484284
v 76 0.525 76
v 76.121354 0.525 78.178711
v 76.80714 0.525 76.80714
v 76 0.525 76
v 76 0.525 78.118034
v 76.121354 0.525 78.178711
v 77.015782 0.525 76.389857
v 78.682282 0.525 77.341141
v 78.729495 0.525 77.246714
v 77.015782 0.525 76.389857
v 76.968568 0.525 76.484284
v 78.682282 0.525 77.341141
v 76.968568 0.525 76.484284
v 78.235235 0.525 78.235235
v 78.682282 0.525 77.341141
v 76.968568 0.525 76.484284
v 76.80714 0.525 76.80714
v 78.235235 0.525 78.235235
v 76.80714 0.525 76.80714
v 77.835068 0.525 79.035568
v 78.235235 0.525 78.235235
v 76.80714 0.525 76.80714
v 76.121354 0.525 78.178711
v 77.835068 0.525 79.035568
v 78.729495 0.525 77.246714
v 80.395995 0.525 78.197998
v 80.443209 0.525 78.10357
v 78.729495 0.525 77.246714
v 78.682282 0.525 77.341141
v 80.395995 0.525 78.197998
v 78.682282 0.525 77.341141
v 79.663329 0.525 79.663329
v 80.395995 0.525 78.197998
v 78.682282 0.525 77.341141
v 78.235235 0.525 78.235235
v 79.663329 0.525 79.663329
v 78.235235 0.525 78.235235
v 79.548782 0.525 79.892425
v 79.663329 0.525 79.663329
v 78.235235 0.525 78.235235
v 77.835068 0.525 79.035568
v 79.548782 0.525 79.892425
v 80.235327 0.510839 80.235327
v 81.629679 0.525 80
v 80 0.525 80
v 80.235327 0.510839 80.235327
v 81.226865 0.481038 80.730561
v 81.629679 0.525 80
v 80 0.525 80
v 79.921445 0.520934 80.078555
v 80.235327 0.510839 80.235327
v 80 0.525 80
v 79.764164 0.525 80
v 79.921445 0.520934 80.078555
v 80.443209 0.525 78.10357
v 82.141927 0.525 79.070964
v 82.192552 0.525 78.979148
v 80.443209 0.525 78.10357
v 80.395995 0.525 78.197998
v 82.141927 0.525 79.070964
v 80.395995 0.525 78.197998
v 81.629679 0.525 80
v 82.141927 0.525 79.070964
v 80.395995 0.525 78.197998
v 80 0.525 80
v 81.629679 0.525 80
v 80.395995 0.525 78.197998
v 79.663329 0.525 79.663329
v 80 0.525 80
v 79.663329 0.525 79.663329
v 79.764164 0.525 80
v 80 0.525 80
v 79.663329 0.525 79.663329
v 79.548782 0.525 79.892425
v 79.764164 0.525 80
v 81.629679 0.525 80
v 81.644785 0.462373 81.040737
v 82.394906 0.525 80
v 81.629679 0.525 80
v 81.226865 0.481038 80.730561
v 81.644785 0.462373 81.040737
v 82.192552 0.525 78.979148
v 82.141927 0.525 79.070964
v 82.76017 0.525 79.380085
v 82.141927 0.525 79.070964
v 82.814206 0.525 79.418253
v 82.76017 0.525 79.380085
v 82.141927 0.525 79.070964
v 82.394906 0.525 80
v 82.814206 0.525 79.418253
v 82.141927 0.525 79.070964
v 81.629679 0.525 80
v 82.394906 0.525 80
vn 0 1 0
vn 0 1 0
vn 0 1 0
vn 0 1 0
vn 0 1 0
vn 0 1 0
vn 0 1 0
vn 0 1 0
vn 0 1 0
vn 0 1 0
vn 0 1 0
vn 0 1 0
vn 0 1 0
vn 0 1 0
vn 0 1 0
vn 0 1 0
vn 0 1 0
vn 0 1 0
vn 0 1 0
vn 0 1 0
vn 0 1 0
vn 0 1 0
vn 0 1 0
vn 0 1 0
vn 0 1 0
vn 0 1 0
vn 0 1 0
vn 0 1 0
vn 0 1 0
vn 0 1 0
vn 0 1 0
vn 0 1 0
vn 0 1 0
vn 0 1 0
vn 0 1 0
vn 0 1 0
vn 0 1 0
vn 0 0.998194 0.060067
vn 0 0.998194 0.060067
vn 0.004204 0.998429 0.055877
vn 0 0.998663 0.051685
vn 0 1 0
vn 0 1 0
vn 0 1 0
vn 0 1 0
vn 0 1 0
vn 0 1 0
vn 0 1 0
vn 0 0.998194 0.060067
vn 0 0.998194 0.060067
vn 0 1 0
vn 0 1 0
vn 0 1 0
vn 0 1 0
f 1//1 2//1 3//1
f 4//2 5//2 6//2
f 7//3 8//3 9//3
f 10//4 11//4 12//4
f 13//5 14//5 15//5
f 16//6 17//6 18//6
f 19//7 20//7 21//7
f 22//8 23//8 24//8
f 25//9 26//9 27//9
f 28//10 29//10 30//10
f 31//11 32//11 33//11
f 34//12 35//12 36//12
f 37//13 38//13 39//13
f 40//14 41//14 42//14
f 43//15 44//15 45//15
f 46//16 47//16 48//16
f 49//17 50//17 51//17
f 52//18 53//18 54//18
f 55//19 56//19 57//19
f 58//20 59//20 60//20
f 61//21 62//21 63//21
f 64//22 65//22 66//22
f 67//23 68//23 69//23
f 70//24 71//24 72//24
f 73//25 74//25 75//25
f 76//26 77//26 78//26
f 79//27 80//27 81//27
f 82//28 83//28 84//28
f 85//29 86//29 87//29
f 88//30 89//30 90//30
f 91//31 92//31 93//31
f 94//32 95//32 96//32
f 97//33 98//33 99//33
f 100//34 101//34 102//34
f 103//35 104//35 105//35
f 106//36 107//36 108//36
f 109//37 110//37 111//37
f 112//38 113//38 114//38
f 115//39 116//39 117//39
f 118//40 119//40 120//40
f 121//41 122//41 123//41
f 124//42 125//42 126//42
f 127//43 128//43 129//43
f 130//44 131//44 132//44
f 133//45 134//45 135//45
f 136//46 137//46 138//46
f 139//47 140//47 141//47
f 142//48 143//48 144//48
f 145//49 146//49 147//49
f 148//50 149//50 150//50
f 151//51 152//51 153//51
f 154//52 155//52 156//52
f 157//53 158//53 159//53
f 160//54 161//54 162//54
