# Static Concept B graybox, metres, identity world transform.
v 84 0.48975 80.585786
v 82.779223 0.393009 82.193437
v 84 0.46647 80.97266
v 84 0.48975 80.585786
v 81.522388 0.46864 80.936602
v 82.779223 0.393009 82.193437
v 84 0.48975 80.585786
v 82.458991 0.525 80
v 81.522388 0.46864 80.936602
v 84 0.48975 80.585786
v 83.414214 0.525 80
v 82.458991 0.525 80
v 84 0.46647 80.97266
v 84.193437 0.47811 80.779223
v 84 0.48975 80.585786
v 82.936602 0.525 79.522388
v 82.458991 0.525 80
v 83.414214 0.525 80
v 84 0.46647 80.97266
v 82.779223 0.393009 82.193437
v 84 0.319548 83.414214
v 84 0.319548 83.414214
v 84.193437 0.47811 80.779223
v 84 0.46647 80.97266
v 84 0.319548 83.414214
v 85.450272 0.402479 82.036058
v 84.193437 0.47811 80.779223
v 84 0.319548 83.414214
v 84.036058 0.317378 83.450272
v 85.450272 0.402479 82.036058
v 86 0.275877 84
v 84.292893 0.301923 83.707107
v 84.585786 0.281832 84
v 86 0.275877 84
v 85.707107 0.387024 82.292893
v 84.292893 0.301923 83.707107
v 86 0.275877 84
v 86.707107 0.318428 83.292893
v 85.707107 0.387024 82.292893
v 85.707107 0.387024 82.292893
v 84.036058 0.317378 83.450272
v 84.292893 0.301923 83.707107
v 85.707107 0.387024 82.292893
v 85.450272 0.402479 82.036058
v 84.036058 0.317378 83.450272
v 84.585786 0.276179 84
v 85.292893 0.25509 84.707107
v 86 0.256579 84
vn 0 0.998194 0.060067
vn 0 0.998194 0.060067
vn 0 0.998194 0.060067
vn 0 0.998194 0.060067
vn 0 0.998194 0.060067
vn 0 1 0
vn 0 0.998194 0.060067
vn 0 0.998194 0.060067
vn 0 0.998194 0.060067
vn 0 0.998194 0.060067
vn 0.004202 0.997925 0.064252
vn 0.004202 0.997925 0.064252
vn 0.004202 0.997925 0.064252
vn 0 0.998194 0.060067
vn 0 0.998194 0.060067
vn 0.013857 0.999777 0.015961
f 1//1 2//1 3//1
f 4//2 5//2 6//2
f 7//3 8//3 9//3
f 10//4 11//4 12//4
f 13//5 14//5 15//5
f 16//6 17//6 18//6
f 19//7 20//7 21//7
f 22//8 23//8 24//8
f 25//9 26//9 27//9
f 28//10 29//10 30//10
f 31//11 32//11 33//11
f 34//12 35//12 36//12
f 37//13 38//13 39//13
f 40//14 41//14 42//14
f 43//15 44//15 45//15
f 46//16 47//16 48//16
